<svg xmlns="http://www.w3.org/2000/svg" xmlns:xlink="http://www.w3.org/1999/xlink" id="a02f2390-8fa7-48a9-96f1-2ec5f63ecbc1" width="1150" height="627.49" x="0" y="0" enable-background="new 0 0 1150 627.49" version="1.1" viewBox="0 0 1150 627.49" xml:space="preserve"><title>teacher</title><path fill="#007BFF" d="M1137.81,582.18c-4.463,11.014-9.958,21.581-16.41,31.561	c-3.026,4.759-6.346,9.324-9.939,13.67c-0.032,0.044-0.069,0.084-0.11,0.12H0l0.149-0.12c1-0.78,6.87-5.53,16-13.67	c6.551-5.83,14.771-13.41,24-22.53c75.49-74.25,220.5-250,99.73-411C27.61,30.54,148.49,3.38,228.23,0.21	c30.637-1.2,61.2,3.796,89.86,14.69c36.84,14,104.17,35.46,191.89,45.3c2.88,0.32,5.78,0.64,8.72,0.93	c46.442,4.729,93.197,5.578,139.78,2.54l0,0c1.37-0.08,2.75-0.18,4.14-0.28c46.082-3.236,91.814-10.311,136.721-21.15	c2.909-0.71,5.779-1.38,8.64-2.05c149.63-34.62,287.57,83.37,253.08,216.71c-12.75,49.32-9.51,101.89,33,144.419	C1163.659,470.74,1155.23,539.11,1137.81,582.18z" enable-background="new" opacity=".1"/><path fill="#454B69" d="M1137.81,582.18c-4.463,11.014-9.958,21.581-16.41,31.561c-3.026,4.759-6.346,9.324-9.939,13.67H0.15	c1-0.78,6.87-5.53,16-13.67c6.551-5.83,14.771-13.41,24-22.53l117.13-24.2c1.514-0.313,3.055-0.47,4.601-0.47l124.87-0.18h0.13	l61.85-0.08h0.14l52.2-0.061h34.17l0,0h35l143.42-0.2h0.23H625h19.52h24.37h6.479L700,565.74h8.14l71.64-0.101h22.88l0,0h11l0,0	l82.75-0.109h24.641l78.38-0.11l66.16-0.08c1.842,0.001,3.678,0.22,5.47,0.65L1137.81,582.18z"/><path fill="none" d="M16.15,613.74H1121.4c-3.026,4.759-6.346,9.324-9.939,13.67H0.15C1.13,626.58,7,621.83,16.15,613.74z"/><path d="M16.15,613.74H1121.4c-3.026,4.759-6.346,9.324-9.939,13.67H0.15	C1.13,626.58,7,621.83,16.15,613.74z" enable-background="new" opacity=".4"/><path fill="#454B69" d="M733.22,302.74l-2.22,0.43l-100.36,19.28c-29.15,5.6-58.72,11.23-88.33,9.08	c-21.45-1.561-41.49-7.92-62.1-13.5c-11.65-3.16-24-4.42-27.95-17.46c-5.45-18,3.42-44.65,5.51-62.89c2-17.9,3.18-36.25-0.38-53.94	c-0.791-3.976-1.833-7.896-3.12-11.74c-3.57-10.59-9.18-21.6-6.15-32.35c2.391-8.53,9.681-14.62,16.5-20.26	c13.36-11,27-23.33,32.301-39.82c2.6-8,3.09-16.61,5.89-24.55c5.31-15.1,18.65-26.39,33.49-32.37s31.159-7.25,47.17-7.25	c14.137,0.001,28.258,0.939,42.27,2.81c15.28,2,30.7,5.29,44.13,12.87c13.431,7.58,24.75,20,27.881,35.14	c4.43,21.41-7.87,44.21-1.271,65c3.32,10.51,11,19,16.33,28.62c8.781,16.259,10.585,35.386,5,53c-6.38,19.77-22,39.77-14,58.94	c5.09,12.189,18.09,18.7,27.15,28.36C731.767,301.007,732.52,301.873,733.22,302.74z"/><path d="M731,300.22v2.95l-100.36,19.28c-29.15,5.6-58.72,11.23-88.33,9.08	c-21.45-1.561-41.49-7.92-62.1-13.5c-11.65-3.16-24-4.42-27.95-17.46c-5.45-18,3.42-44.65,5.51-62.89	c2-17.9,32.79-83.25,29.23-100.94l184,8c1.239,9.77,49.869,58.81,46.84,68.18c-6.38,19.77-22,39.77-14,58.94	C708.94,284.05,721.94,290.56,731,300.22z" enable-background="new" opacity=".1"/><path fill="#EFB7B9" d="M543,250.74c1.09,6.19,1.67,13-1.49,18.4c-4.21,7.24-13.391,9.55-21.601,11.19l-28.5,5.7	c-1.939,0.39-4,0.83-5.449,2.16c-1.71,1.53-2.29,3.95-2.54,6.23c-1.15,10.32,2.5,20.49,5.83,30.32	c6.729,19.909,12.38,40.239,20.89,59.45c8.51,19.209,20.189,37.55,36.86,50.39c16.67,12.84,38.729,19.68,59.14,14.66	c17.78-4.37,32.36-16.92,44.93-30.23c10.37-11,20.07-23,25.101-37.27c3.47-9.8,4.6-20.24,5.689-30.58	c1.687-15.854,3.373-31.707,5.061-47.56c0.789-7.44,1.31-15.81-3.521-21.52c-2.12-2.51-5-4.18-7.94-5.73	c-10.939-5.81-22.459-10.61-32.64-17.61c-10.18-7-19.21-16.64-22.3-28.6c-1.85-7.18-1.52-15-4.67-21.69	c-3.521-7.5-11-12.58-19-14.81s-16.44-1.93-24.68-1c-8.24,0.93-40,3.31-43.41,12.6c-1.83,5,5.76,15.729,7.56,20.65	C539.282,233.958,541.518,242.274,543,250.74z"/><path d="M543,250.74c1.09,6.19,1.67,13-1.49,18.4c-4.21,7.24-13.391,9.55-21.601,11.19	l-28.5,5.7c-1.939,0.39-4,0.83-5.449,2.16c-1.71,1.53-2.29,3.95-2.54,6.23c-1.15,10.32,2.5,20.49,5.83,30.32	c6.729,19.909,12.38,40.239,20.89,59.45c8.51,19.209,20.189,37.55,36.86,50.39c16.67,12.84,38.729,19.68,59.14,14.66	c17.78-4.37,32.36-16.92,44.93-30.23c10.37-11,20.07-23,25.101-37.27c3.47-9.8,4.6-20.24,5.689-30.58	c1.687-15.854,3.373-31.707,5.061-47.56c0.789-7.44,1.31-15.81-3.521-21.52c-2.12-2.51-5-4.18-7.94-5.73	c-10.939-5.81-22.459-10.61-32.64-17.61c-10.18-7-19.21-16.64-22.3-28.6c-1.85-7.18-1.52-15-4.67-21.69	c-3.521-7.5-11-12.58-19-14.81s-16.44-1.93-24.68-1c-8.24,0.93-40,3.31-43.41,12.6c-1.83,5,5.76,15.729,7.56,20.65	C539.282,233.958,541.518,242.274,543,250.74z" enable-background="new" opacity=".1"/><path fill="#FFF" d="M611.59,359.479l16.71-35.379c7.83-16.581,15.83-34,15-52.311c-0.16-3.64-0.2-8.19,3-9.84	c1.389-0.567,2.902-0.761,4.39-0.56c17.592,0.899,34.952,4.411,51.51,10.42c3.21,1.16,6.5,2.5,8.75,5.06s3.16,6,3.931,9.3	c2.623,11.158,4.536,22.471,5.729,33.87c3,28.22,1.51,56.689,0,85l-4.439,86.43c0.023,1.227-0.226,2.442-0.73,3.561	c-1.1,2-3.58,2.67-5.81,3.05c-8.591,1.47-17.37,1.17-26.07,0.84c-61.2-2.32-122.72-5.88-183.521,1.54	c0.273-8.993,0.131-17.993-0.43-27c-2.41-38.89-12.49-76.83-22.39-114.51c-5.771-22-11.36-46-2.07-66.73	c1.366-3.273,3.33-6.265,5.79-8.82c3.95-3.87,9.34-5.91,14.68-7.37c9.212-2.505,18.752-3.584,28.29-3.2l63.051,137.271	c2.88,6.279,5.25,12.89,8.119,19.089c2.58-10.71-0.52-23.26,2.58-34.87C601,382.271,606.26,370.74,611.59,359.479z"/><path fill="#0DC3D1" d="M605,453.93c11.279,0.71,22.239-5.069,30-13.239c7.76-8.171,12.88-18.53,17.21-29	c6.225-14.925,11.172-30.35,14.79-46.11c3-13.399,5.13-27.271,3.06-40.851c-2.86-18.75-13.47-35.79-15.28-54.669	c-0.31-3.3-0.109-7.16,2.54-9.15c1.64-1.23,3.8-1.4,5.84-1.52c18.86-1.12,39.58-0.91,54.19,11.06c4.45,3.64,8.06,8.19,12.41,11.94	c10.359,9,25,13.58,31.649,25.53c2.32,4.16,3.431,8.87,5.05,13.351c3.82,10.6,10.431,19.92,17,29.09	c-6.369,26.88-13.689,53.779-20.06,80.659c-3.729,15.771-7.49,31.601-13.35,46.7c-3.841,9.9-8.67,20-7.49,30.601	c0.47,4.17,1.86,8.16,3.07,12.18c4.241,14.109,6.229,28.801,5.89,43.53l-285.34,0.7c13.67-19.601,17.68-43.641,16.29-67.49	c-0.67-11.43-3.25-22.93-9-32.82c-9.061-15.5-25-25.6-40.71-34.25c-11-6-22.811,27.76-34.7,23.891c1.92-13.58,2.8-66.001,2-79.671	c-0.26-4.479-0.66-9.08,0.72-13.359c0.94-2.93,2.67-5.551,3.84-8.4c4.69-11.41,0.221-26,7.801-35.71	c5.239-6.75,14.43-8.67,21.899-12.83c7.67-4.28,13.601-11,20.28-16.74c13.107-11.13,29.123-18.281,46.16-20.61	c4.97,7.839,7.99,16.754,8.81,26c0.51,5.81,0.141,11.7,0.95,17.48c1.11,7.83,4.35,15.179,7.56,22.419	c13.37,30.19,26.79,60.471,43.73,88.82c4.79,8,10,16,16.94,22.23C585.69,449.92,595.68,454.37,605,453.93z"/><path d="M605,453.93c11.279,0.71,22.239-5.069,30-13.239	c7.76-8.171,12.88-18.53,17.21-29c6.225-14.925,11.172-30.35,14.79-46.11c3-13.399,5.13-27.271,3.06-40.851	c-2.86-18.75-13.47-35.79-15.28-54.669c-0.31-3.3-0.109-7.16,2.54-9.15c1.64-1.23,3.8-1.4,5.84-1.52	c18.86-1.12,39.58-0.91,54.19,11.06c4.45,3.64,8.06,8.19,12.41,11.94c10.359,9,25,13.58,31.649,25.53	c2.32,4.16,3.431,8.87,5.05,13.351c3.82,10.6,10.431,19.92,17,29.09c-6.369,26.88-13.689,53.779-20.06,80.659	c-3.729,15.771-7.49,31.601-13.35,46.7c-3.841,9.9-8.67,20-7.49,30.601c0.47,4.17,1.86,8.16,3.07,12.18	c4.241,14.109,6.229,28.801,5.89,43.53l-285.34,0.7c13.67-19.601,17.68-43.641,16.29-67.49c-0.67-11.43-3.25-22.93-9-32.82	c-9.061-15.5-25-25.6-40.71-34.25c-11-6-22.811,27.76-34.7,23.891c1.92-13.58,2.8-66.001,2-79.671	c-0.26-4.479-0.66-9.08,0.72-13.359c0.94-2.93,2.67-5.551,3.84-8.4c4.69-11.41,0.221-26,7.801-35.71	c5.239-6.75,14.43-8.67,21.899-12.83c7.67-4.28,13.601-11,20.28-16.74c13.107-11.13,29.123-18.281,46.16-20.61	c4.97,7.839,7.99,16.754,8.81,26c0.51,5.81,0.141,11.7,0.95,17.48c1.11,7.83,4.35,15.179,7.56,22.419	c13.37,30.19,26.79,60.471,43.73,88.82c4.79,8,10,16,16.94,22.23C585.69,449.92,595.68,454.37,605,453.93z" enable-background="new" opacity=".1"/><circle cx="589.909" cy="162.75" r="85.72" fill="#EFB7B9"/><path fill="#454B69" d="M544.93,276.98c2.35-22.18-6.87-43.88-17.311-63.59c-5-9.42-10.359-18.81-12.869-29.16	c-2.511-10.35-1.79-22.07,4.63-30.58c5.46-7.24,14.12-11.15,22.13-15.4c22.609-12,43.279-29.64,53.22-53.23	c-5.62,3.06-4.16,12.19,0.8,16.22c4.96,4.03,11.72,4.81,17.82,6.729c22.24,7,35.58,29.18,46.28,49.9	c1.75,3.38,3.529,6.95,3.51,10.76c-0.021,3.81-1.76,7.19-3.58,10.43c-5.28,9.4-11.74,18.43-14.14,28.94	c-2.75,12,0.149,24.62,3.92,36.39c4,12.52,9.31,25.14,18.909,34.12c9.601,8.98,24.49,13.44,36.301,7.64	c-11.79-20.27-24-42.92-19.4-65.9c2.22-11,8.19-21,10.729-31.94c4.841-20.87-3.22-42.34-11.13-62.26L661.11,66.6	c-3.61-9.09-7.72-18.79-16-23.94c-5.6-3.47-12.38-4.37-18.94-5c-21.119-1.88-43-1.26-62.659,6.6	c-35.82,14.31-58.28,49.59-76.101,83.81c-5.34,10.25-10.609,21.14-10.39,32.7c0.12,6.34,1.89,12.51,3.33,18.69	c5.859,25.16,6.18,51.23,6.479,77.06c0.23,19.82-0.8,38.5-9.47,56.55c11.88,2.361,29.11,8.73,40.87,4.07	C533.56,311.08,543,292.41,544.93,276.98z"/><g opacity=".1"><path d="M486.78,256.1c0.04-2.82,0.04-5.667,0-8.54c-0.3-25.83-0.62-51.9-6.479-77.06c-1.31-4.896-2.331-9.865-3.061-14.88 c-0.205,1.722-0.296,3.456-0.27,5.19c0.12,6.34,1.89,12.51,3.33,18.69C486.13,204.51,486.49,230.42,486.78,256.1z"/><path d="M695.88,188.31c1.313-5.843,1.751-11.849,1.3-17.82c-0.196,2.97-0.631,5.919-1.3,8.82c-2.54,11-8.511,20.91-10.73,31.94 c-0.956,4.865-1.226,9.84-0.8,14.78c0.159-1.94,0.426-3.87,0.8-5.78C687.369,209.22,693.34,199.27,695.88,188.31z"/><path d="M662.36,164.04c0.488-1.42,0.752-2.908,0.78-4.41c0-3.81-1.76-7.38-3.51-10.76c-10.7-20.72-24-42.88-46.28-49.9 c-6.1-1.92-12.85-2.7-17.82-6.729c-2.584-2.226-4.162-5.397-4.38-8.8c-10.84,19.9-29.46,35.12-49.64,45.81 c-8,4.25-16.67,8.16-22.13,15.4c-5.131,6.8-6.62,15.65-5.73,24.21c0.505-5.494,2.484-10.749,5.73-15.21 c5.46-7.24,14.119-11.15,22.13-15.4c20.18-10.69,38.8-25.91,49.64-45.81c0.218,3.403,1.796,6.575,4.38,8.8 c5,4,11.72,4.81,17.82,6.729c22.24,7,35.58,29.18,46.28,49.9C660.714,159.845,661.628,161.909,662.36,164.04z"/><path d="M668.25,269.51c-9.601-9-14.891-21.6-18.91-34.12c-2.412-7.033-4.022-14.316-4.801-21.71 c-0.93,10.27,1.62,20.78,4.801,30.71c4,12.52,9.31,25.14,18.91,34.12c9.6,8.98,24.489,13.44,36.3,7.64 c-1.42-2.43-2.83-4.9-4.23-7.39C689.35,281.85,676.75,277.45,668.25,269.51z"/><path d="M544.93,267.98c-1.93,15.43-11.37,34.1-26.74,40.2c-10.67,4.23-25.86-0.63-37.45-3.32c-0.997,2.807-2.139,5.561-3.42,8.25 c11.88,2.36,29.11,8.73,40.87,4.071c15.37-6.101,24.811-24.771,26.74-40.201c0.397-3.86,0.471-7.748,0.22-11.62 C545.09,266.23,545,267.11,544.93,267.98z"/></g><path fill="#FFF" d="M666.1,515.92c-15.45-2.45-31.13-7.18-46.45-4c-8.88,1.84-17,6.26-24.38,11.6	c4.06,3.25,8.8,6.15,11.38,10.67c1.602,3.128,2.805,6.443,3.58,9.87c1.62,6,3.25,12.12,3.5,18.36s-1,12.74-4.72,17.77	c19.479,1.921,38.359-2.88,57.359-7.569c2.173-0.382,4.241-1.217,6.07-2.45c3-2.36,3.88-6.56,3.9-10.39	c0-6.841-1.92-13.511-3.87-20.07C670.15,531.84,668.43,523.74,666.1,515.92z"/><path fill="#06B0D1" d="M770.42,347.25c7.67,1,13.619,7.19,18,13.55c12.289,17.7,17.59,39.16,23.489,59.891	c7.334,25.779,15.957,51.153,25.87,76.119c2.135,5.767,4.729,11.351,7.76,16.7c2.471,4.13,5.471,8.101,6.561,12.79	c2.64,11.34-6.71,22-16.46,28.32c-5.197,3.503-10.872,6.238-16.851,8.12c-5.819,1.74-11.89,2.399-17.92,3.06l-55.51,6	c-25.55,2.78-51.33,5.561-76.89,2.88c-1.61-5.6,1.55-9.56,1.319-15.39c-0.159-4.17-2-8.05-3.64-11.89	c-3.024-6.84-5.022-14.088-5.93-21.511c-0.29-2.729-0.391-5.529-1.431-8.069c-1.039-2.54-3.27-4.82-6-5	c15-1.49,26.391-4.32,41.391-5.82c5.57-0.561,11.359-1.19,16.109-4.15c5.891-3.67,9.19-10.29,11.811-16.71	c6.49-15.899,10.67-33.42,7.26-50.26c-2.8-13.81-10.609-26.67-10.57-40.76c0-8.391,2.86-16.521,6.24-24.2	c3.58-8.12,8.25-16.42,16.11-20.54C748.999,346.26,761.55,346.05,770.42,347.25z"/><path d="M770.42,347.25c7.67,1,13.619,7.19,18,13.55	c12.289,17.7,17.59,39.16,23.489,59.891c7.334,25.779,15.957,51.153,25.87,76.119c2.135,5.767,4.729,11.351,7.76,16.7	c2.471,4.13,5.471,8.101,6.561,12.79c2.64,11.34-6.71,22-16.46,28.32c-5.197,3.503-10.872,6.238-16.851,8.12	c-5.819,1.74-11.89,2.399-17.92,3.06l-55.51,6c-25.55,2.78-51.33,5.561-76.89,2.88c-1.61-5.6,1.55-9.56,1.319-15.39	c-0.159-4.17-2-8.05-3.64-11.89c-3.024-6.84-5.022-14.088-5.93-21.511c-0.29-2.729-0.391-5.529-1.431-8.069	c-1.039-2.54-3.27-4.82-6-5c15-1.49,26.391-4.32,41.391-5.82c5.57-0.561,11.359-1.19,16.109-4.15	c5.891-3.67,9.19-10.29,11.811-16.71c6.49-15.899,10.67-33.42,7.26-50.26c-2.8-13.81-10.609-26.67-10.57-40.76	c0-8.391,2.86-16.521,6.24-24.2c3.58-8.12,8.25-16.42,16.11-20.54C748.999,346.26,761.55,346.05,770.42,347.25z" enable-background="new" opacity=".08"/><path fill="#EFB7B9" d="M422.81,334.26c3.63-8.62,7.32-17.52,7.42-26.87c0.11-10.11-4-19.71-7.14-29.31	c-3.884-11.746-6.469-23.881-7.71-36.19c-0.258-1.179-0.08-2.412,0.5-3.47c0.83-1.17,2.43-1.41,3.84-1.72	c6.92-1.58,12.149-7.17,16.47-12.8c6.702-8.695,12.36-18.146,16.86-28.16c3.31-7.37,7.79-16.36,15.87-16.43	c-3.253,15.279-7.285,30.382-12.08,45.25c8.449-2.16,16.479-5.3,24.93-7.46c1.654-0.522,3.387-0.752,5.12-0.68	c5.06,0.53,8.16,7.38,5.22,11.53c4.13,4.84,11,6.14,16.4,9.46c5.399,3.32,9.279,11.54,4.479,15.71c-0.939,0.81-2.13,1.38-2.81,2.42	c-2.32,3.58,3.359,7.69,2.89,11.93c-0.38,3.47-4.83,5.09-8.2,4.17c-3.369-0.92-6-3.44-9-5.29s-6.92-3-9.83-1.08	c-0.779,9.41-1.619,19-5.689,27.57c-1.49,3.13-3.4,6.06-4.6,9.31c-1.148,3.544-1.86,7.214-2.12,10.93l-3.63,33.19	C452.68,349.74,437.15,344.55,422.81,334.26z"/><path fill="#FFF" d="M418.579,364.01l-3.189-21.59c-0.305-1.758-0.476-3.536-0.51-5.319c0-5,2.199-9.771,4.329-14.32	c17.65,8.24,36.73,11.17,56.2,11.18c2.57,0,5.5-0.24,7.101-2.25c3.31,3.811,3.41,9.939,2,14.779c-1.41,4.841-4.12,9.201-5.92,13.921	c-0.91,2.39-1.65,5-3.391,6.84c-2.7,2.91-7.08,3.41-11.06,3.39c-4.188-0.025-8.363-0.424-12.48-1.189	C441,367.47,429.24,362.101,418.579,364.01z"/><path fill="#06B0D1" d="M484.409,363.13c-13.699-1.561-27.31-3.76-40.83-6.6c-6.63-1.391-13.319-2.94-20.079-2.67	c-4.4,0.18-9.131,1.06-13-1.12c3.77,12.829,4,26.35-0.511,38.94c-2.67,7.5-6.739,14.489-8.7,22.209	c-4.079,16.15,1.521,33.761-3.579,49.62c-0.54,2.072-1.6,3.973-3.08,5.521c-1.561,1.43-3.69,2.17-5.13,3.72	c-2.12,2.28-2.25,5.71-2.261,8.82l-0.09,27.55c-0.06,17.54,0.17,36.14,9.43,51c10.561,17,32.79,25.81,52.141,20.64	c5.145-1.315,9.965-3.674,14.16-6.93c6.72-5.34,11-13.061,15.189-20.58c5-9,10-18.2,11.61-28.33c1.14-7.17,0.5-14.49-0.32-21.7	c-4.52-40-14.33-79.66-12.22-119.81C477.455,376.07,479.99,368.999,484.409,363.13z"/><path fill="#EFB7B9" d="M541.67,529.13c-6.95,0.4-13.95,0.8-20.87,0c-5-0.6-9.88-1.83-14.841-2.67	c-27.412-4.427-55.39,3.347-76.59,21.28c-3.84,3.279-7.72,8.31-5.6,12.899c2.28,4.94,9.25,4.801,14.62,3.88	c-5.797,2.769-10.916,6.772-15,11.73c-1.5,1.83-2.92,4-2.63,6.37c0.609,4.95,7.33,5.85,12.3,5.42c-1.62,1.74-0.53,4.82,1.53,6	c2.06,1.18,4.619,0.94,6.949,0.51c5.151-0.943,10.129-2.666,14.761-5.109c-0.94,2.449,0.689,5.319,3,6.54	c2.31,1.22,5.12,1.13,7.71,0.71c12.22-2,22.42-10.5,34.34-13.841c19.06-5.33,39,3.17,58.81,3.771c6.2,0.189,12.561-0.44,18.21-3	c6.931-3.15,12.521-9.061,19.841-11.16c8.13-2.32,17.46,0.35,24.899-3.66c5.41-2.91,0.53-25.34-0.85-29.66	c-2.53-7.899-5.07-13.14-13.5-13.939C587.43,523.11,563.159,527.89,541.67,529.13z"/><path fill="#FFF" d="M594.88,523.01c0,0,32.29,27.33,13.659,57.15l36-12.43V541.64c0-1.239-13.67-19.87-13.67-19.87	l-16.149-2.489L594.88,523.01z"/><path fill="#3F3D56" d="M256.79,521.32H268.9c13.808,0,25,11.192,25,25v37.109l0,0H231.79l0,0V546.32	C231.79,532.513,242.983,521.32,256.79,521.32L256.79,521.32z"/><path d="M256.79,521.32H268.9c13.808,0,25,11.192,25,25v37.109l0,0H231.79l0,0V546.32	C231.79,532.513,242.983,521.32,256.79,521.32L256.79,521.32z" enable-background="new" opacity=".1"/><circle cx="260.36" cy="530.01" r="4.97" fill="#3F3D56"/><circle cx="260.36" cy="523.8" r="4.97" fill="#3F3D56"/><circle cx="260.36" cy="517.59" r="4.97" fill="#3F3D56"/><circle cx="260.36" cy="511.38" r="4.97" fill="#3F3D56"/><circle cx="260.36" cy="505.17" r="4.97" fill="#3F3D56"/><circle cx="260.36" cy="498.96" r="4.97" fill="#3F3D56"/><circle cx="260.36" cy="492.74" r="4.97" fill="#3F3D56"/><circle cx="267.82" cy="495.23" r="4.97" fill="#3F3D56"/><circle cx="272.79" cy="492.74" r="4.97" fill="#3F3D56"/><circle cx="277.76" cy="490.26" r="4.97" fill="#3F3D56"/><circle cx="260.36" cy="486.53" r="4.97" fill="#3F3D56"/><circle cx="260.36" cy="480.32" r="4.97" fill="#3F3D56"/><circle cx="260.36" cy="474.11" r="4.97" fill="#3F3D56"/><circle cx="260.36" cy="467.9" r="4.97" fill="#3F3D56"/><path fill="#0BC2E7" d="M281,451.87c-1.24,0.18-2.48,0.31-3.721,0.39c1.153-1.006,2.224-2.103,3.2-3.279	c-0.688-2.089-1.7-4.057-3-5.83c-1.231,0.691-2.594,1.121-4,1.26c-1.229,0.18-2.47,0.31-3.71,0.399c1.63-1.329,3.15-3.329,4.75-5	c-8.634-7.825-21.978-7.17-29.804,1.465c-7.826,8.634-7.171,21.978,1.464,29.804s21.979,7.17,29.804-1.464	c3.523-3.888,5.473-8.948,5.467-14.194c0-1.217-0.107-2.432-0.32-3.63L281,451.87z"/><path fill="#0BC2E7" d="M297.57,476.56c-1.267,0.78-2.697,1.256-4.18,1.391c-1.229,0.18-2.47,0.319-3.71,0.399	c1.318-1.182,2.548-2.458,3.68-3.819c-6.647-1.733-13.442,2.251-15.176,8.898c-1.733,6.648,2.251,13.443,8.899,15.177	c6.647,1.733,13.442-2.251,15.176-8.899c1.287-4.938-0.571-10.161-4.689-13.176V476.56z"/><circle cx="252.91" cy="495.23" r="4.97" fill="#3F3D56"/><circle cx="247.94" cy="492.74" r="4.97" fill="#3F3D56"/><circle cx="242.97" cy="490.26" r="4.97" fill="#3F3D56"/><path fill="#0BC2E7" d="M223.16,476.56c1.267,0.78,2.697,1.256,4.18,1.391c1.229,0.18,2.47,0.319,3.71,0.399	c-1.32-1.179-2.551-2.456-3.68-3.819c6.647-1.733,13.442,2.251,15.176,8.898c1.733,6.648-2.251,13.443-8.899,15.177	c-6.647,1.733-13.442-2.251-15.176-8.899c-1.287-4.938,0.571-10.161,4.689-13.176V476.56z"/><path fill="#3F3D56" d="M256.79,525H268.9c13.808,0,25,11.193,25,25l0,0v32.87c0,2.342-1.898,4.24-4.239,4.24H236	c-2.342,0-4.24-1.898-4.24-4.24V550c0-13.807,11.192-25,25-25C256.77,525,256.78,525,256.79,525z"/><g opacity=".1"><path d="M281.34,453.23c-0.503,0.537-1.037,1.045-1.601,1.52c0.57,0,1.131-0.09,1.7-0.15 C281.42,454.14,281.39,453.68,281.34,453.23z"/><path d="M272.28,447.29c1.25-0.08,2.48-0.21,3.721-0.39c1.112-0.142,2.199-0.438,3.229-0.881c-0.506-0.999-1.087-1.959-1.739-2.869 c-0.622,0.378-1.296,0.664-2,0.85C274.509,445.181,273.436,446.28,272.28,447.29z"/><path d="M241.73,457.96c-0.022-11.643,9.396-21.099,21.039-21.121c4.064-0.008,8.045,1.159,11.461,3.361l0.32-0.34 c-8.706-7.747-22.043-6.97-29.789,1.736c-7.747,8.706-6.969,22.043,1.736,29.789c0.077,0.069,0.154,0.137,0.232,0.204 C243.496,467.785,241.723,462.953,241.73,457.96z"/></g><g opacity=".1"><path d="M289.68,480.83c1.24-0.08,2.48-0.21,3.71-0.39c1.482-0.139,2.913-0.617,4.18-1.4c2.84,2.091,4.657,5.29,5,8.8 c0.049-0.435,0.072-0.872,0.07-1.31c0.019-3.939-1.838-7.652-5-10c-1.268,0.779-2.698,1.255-4.18,1.39l-1,0.13 C291.607,479.047,290.677,479.977,289.68,480.83z"/><path d="M290.18,476.59c0.415,0.005,0.829,0.035,1.24,0.09c0.649-0.689,1.29-1.43,1.939-2.149 c-6.616-1.768-13.412,2.163-15.18,8.779c-0.28,1.051-0.422,2.134-0.42,3.221c0,0.42,0,0.83,0.06,1.239 C278.457,481.422,283.8,476.589,290.18,476.59z"/></g><g opacity=".1"><path d="M231.05,480.83c-1.24-0.08-2.48-0.21-3.71-0.39c-1.482-0.139-2.913-0.617-4.18-1.4c-2.84,2.091-4.657,5.29-5,8.8 c-0.049-0.435-0.072-0.872-0.07-1.31c-0.02-3.939,1.837-7.652,5-10c1.268,0.779,2.698,1.255,4.18,1.39l1,0.13 C229.118,479.052,230.048,479.982,231.05,480.83z"/><path d="M230.55,476.59c-0.418,0.005-0.836,0.035-1.25,0.09c-0.64-0.689-1.28-1.43-1.93-2.149 c6.616-1.768,13.412,2.163,15.18,8.779c0.28,1.051,0.422,2.134,0.42,3.221c0,0.42,0,0.83-0.06,1.239 C242.273,481.422,236.93,476.589,230.55,476.59z"/></g><path fill="#007BFF" d="M196.85,599.13h-97.7c-2.292,0-4.149-1.858-4.149-4.149l0,0v-46.24c-0.001-2.292,1.856-4.15,4.148-4.151	c0.616,0,1.225,0.137,1.781,0.401c28.07,13.319,58.311,17.89,94,0.21c2.061-1.017,4.555-0.17,5.571,1.891	c0.279,0.566,0.426,1.188,0.429,1.819v46C200.969,597.201,199.143,599.091,196.85,599.13	C196.851,599.13,196.851,599.13,196.85,599.13z"/><path fill="#0BC0E3" d="M196.85,599.13h-97.7c-2.292,0-4.149-1.858-4.149-4.149l0,0	v-46.24c-0.001-2.292,1.856-4.15,4.148-4.151c0.616,0,1.225,0.137,1.781,0.401c28.07,13.319,58.311,17.89,94,0.21	c2.061-1.017,4.555-0.17,5.571,1.891c0.279,0.566,0.426,1.188,0.429,1.819v46C200.969,597.201,199.143,599.091,196.85,599.13	C196.851,599.13,196.851,599.13,196.85,599.13z" enable-background="new" opacity=".1"/><ellipse cx="147.32" cy="556.41" fill="#3F3D56" rx="5.78" ry="7.57"/><ellipse cx="147.32" cy="547.16" fill="#3F3D56" rx="5.78" ry="7.57"/><ellipse cx="147.32" cy="537.9" fill="#3F3D56" rx="5.78" ry="7.57"/><ellipse cx="147.32" cy="528.65" fill="#3F3D56" rx="5.78" ry="7.57"/><ellipse cx="147.32" cy="519.39" fill="#3F3D56" rx="5.78" ry="7.57"/><ellipse cx="147.32" cy="510.13" fill="#3F3D56" rx="5.78" ry="7.57"/><ellipse cx="147.32" cy="500.88" fill="#3F3D56" rx="5.78" ry="7.57"/><path fill="#0BC2E7" d="M169,437.54c0.784-1.009,1.503-2.067,2.149-3.17l-15.199-2.5l16.439,0.12c3.206-6.946,3.397-14.908,0.53-22	l-22.05,11.439l20.34-14.999c-7.661-13.249-24.611-17.779-37.859-10.118c-13.249,7.661-17.778,24.611-10.117,37.859	c0.657,1.137,1.395,2.226,2.206,3.258c-1.235,1.563-2.295,3.256-3.16,5.051L142,452.84l-21-7.1c-2.99,8.865-1.31,18.642,4.47,26	c-9.461,12.028-7.38,29.449,4.648,38.911c12.029,9.461,29.45,7.38,38.911-4.649c7.907-10.052,7.907-24.21,0-34.262	c7.906-10.052,7.906-24.208,0-34.26L169,437.54z"/><path d="M119.49,454.67c-0.01,6.215,2.08,12.251,5.93,17.13	c-9.462,12.029-7.38,29.45,4.648,38.911c12.029,9.461,29.45,7.38,38.911-4.648c7.907-10.053,7.907-24.21,0-34.263	C172.69,467.09,119.49,451.56,119.49,454.67z" enable-background="new" opacity=".1"/><path fill="#0A9CB9" d="M196.85,601.58h-97.7c-2.292,0-4.149-1.858-4.149-4.15l0,0V548.74c-0.001-2.292,1.856-4.15,4.148-4.151	c0.616,0,1.225,0.137,1.781,0.401c28.07,13.319,50.33,28.85,94,0.21c2.59-1.7,6,0.62,6,3.71v48.5	C200.942,599.683,199.122,601.542,196.85,601.58z"/><polygon fill="#9C9CA1" points="921.829 587.81 777.69 606.88 770.48 607.83 700.01 570.19 700.01 561.38 920.23 537.36"/><polygon fill="#939498" points="740.85 574.19 897 555.78 895.4 584.61 773.77 593.53"/><path d="M777.69,597.41v9.46l-7.21,1L700,570.19v-8.811l67.27,36	C767.27,597.38,776.09,598.21,777.69,597.41z" enable-background="new" opacity=".4"/><path fill="#3F3D56" d="M805.36,447.26L773,597.31c-1.123,5.171,2.158,10.272,7.328,11.396c1.081,0.234,2.194,0.28,3.291,0.135	l204.73-27.1c3.639-0.48,6.684-2.997,7.84-6.48l44.17-133.2c1.662-5.034-1.071-10.463-6.105-12.126	c-1.113-0.367-2.283-0.527-3.454-0.474L814.28,439.74C809.949,439.945,806.294,443.027,805.36,447.26z"/><ellipse cx="912.296" cy="502.032" fill="#FFF" rx="5.59" ry="8.7" transform="matrix(-0.9945 -0.1046 0.1046 -0.9945 1767.097 1096.7029)"/></svg>