<svg xmlns="http://www.w3.org/2000/svg" xmlns:xlink="http://www.w3.org/1999/xlink" id="Layer_1" width="1136.636" height="643.182" x="0" y="0" enable-background="new 0 0 1136.636 643.182" version="1.1" viewBox="0 0 1136.636 643.182" xml:space="preserve"><rect id="backgroundrect" width="1136.636" height="643.182" fill="none"/><title>status update</title><g><title>Layer 1</title><path id="svg_1" fill="#3C74F3" d="M647.255,139.098 c-70.76,0.54-138.73-15.45-203.73-33.27s-129.47-37.83-198.84-46c-44.62-5.28-95.4-4.45-130.48,16 c-33.75,19.66-43.73,51.88-48.66,81.62c-3.71,22.38-5.52,45.86,7.54,66.23c9.07,14.13,24.69,25.73,35.68,39.19 c38.26,46.84,14.54,107.11-23.4,155.511c-17.77,22.67-38.57,44.49-52.11,68.49s-19.18,51.109-5.79,74.6 c13.28,23.289,43.54,40.061,76.08,51.449c66.1,23.141,143.17,27.701,218.23,29.17c166.14,3.24,332.71-6.639,498.82-16.51 c61.48-3.65,123.23-7.33,183.48-17.15c33.459-5.449,67.93-13.43,91.75-30.6c30.24-21.799,36.68-57.119,15-82.34 c-36.371-42.289-133-49.68-159-95.529c-14.311-25.24-1.57-54.371,17-78.912c39.939-52.649,108.34-100,109.949-158.629 c1.111-40.25-34-79.28-86.68-96.43c-55.24-18-130.779-12.79-169.84,21.62C782.095,122.978,709.755,138.628,647.255,139.098z" enable-background="new" opacity=".21"/><path id="svg_2" fill="#3A2F2F" d="M928.97,550.93c0,0-12.291-8.109-24.471-2.35c0,0,3.75,7.229,19.17,6.54L928.97,550.93z"/><path id="svg_3" fill="#3A2F2F" d="M930.48,551.36c0,0,3.74,14.239-5.631,23.93c0,0-5.639-5.87-0.049-20.25L930.48,551.36z"/><path id="svg_4" fill="#3A2F2F" d="M945.81,537.69c0,0-0.91-12.11-28.26-8.101c0,0-0.121,7.82,9.48,11.521 C936.63,544.811,941.021,541.69,945.81,537.69z"/><path id="svg_5" fill="#3A2F2F" d="M947.49,537.61c0,0,11.561,3.71,1.25,29.359c0,0-7.619-1.7-9-11.91 C938.361,544.85,942.48,541.32,947.49,537.61z"/><path id="svg_6" fill="#3A2F2F" d="M962.97,520.42c0,0,1.57-19.93-26.381-17.88c0,0-2,18,21.451,22.68L962.97,520.42z"/><path id="svg_7" fill="#3A2F2F" d="M981.4,497.93c0,0-3.83-22.59-31.76-15.859c0,0-0.109,19.529,27.199,21.239L981.4,497.93z"/><path id="svg_8" fill="#3A2F2F" d="M994.941,474.67c0,0-6.42-22-34.102-15.42c0,0,6.592,19.79,32.262,19.48L994.941,474.67z"/><path id="svg_9" fill="#3A2F2F" d="M1007.759,451.95c0,0-6.27-22.83-33-16c0,0,8.92,21.689,31.23,19.87L1007.759,451.95z"/><path id="svg_10" fill="#3A2F2F" d="M1016.031,430.37c0,0-4.82-27.92-29.74-21.74c0,0,7.23,25.4,27.9,25.8L1016.031,430.37z"/><path id="svg_11" fill="#3A2F2F" d="M1023.771,404.3c0,0-5.781-28.149-31-20c0,0,9.889,26.601,29.219,23.851L1023.771,404.3z"/><path id="svg_12" fill="#3A2F2F" d="M1028.57,380.03c0,0-9.189-28.141-28.68-27.38c0,0,9.4,29.729,27,33L1028.57,380.03z"/><path id="svg_13" fill="#3A2F2F" d="M1031.621,356.36c0,0-10-33.88-25.871-31.271c0,0,6.93,25.9,25.301,36.55L1031.621,356.36z"/><path id="svg_14" fill="#3A2F2F" d="M1033.4,328.08c0,0-9.369-28.23-25-29.36c0,0,6.371,27.78,24.68,36.69L1033.4,328.08z"/><path id="svg_15" fill="#3A2F2F" d="M1035.24,301.8c0,0-11.689-28.26-22-28.9c0,0,5.08,27.831,21,33.541L1035.24,301.8z"/><path id="svg_16" fill="#3A2F2F" d="M1036.541,277.23c0,0-7.18-30.7-17.52-33.24c0,0,1.408,25.11,16.479,35.54L1036.541,277.23z"/><path id="svg_17" fill="#3A2F2F" d="M1040.4,245.14c0,0-7.561-24.46-15.93-28.19c0,0,1.66,28.84,14,34.18L1040.4,245.14z"/><path id="svg_18" fill="#3A2F2F" d="M1043.66,224.07l1.531-43.14c0,0-15.621,32.56-2.682,50.75L1043.66,224.07z"/><path id="svg_19" fill="#3A2F2F" d="M1055.75,181.2c0,0,11.26-31.5,14-33.26c0,0-22.1,20.44-19.939,46.73L1055.75,181.2z"/><path id="svg_20" fill="#3A2F2F" d="M963.74,520.28c0,0,19.82-2.601,19.221,25.42c0,0-17.91,2.91-23.75-20.25L963.74,520.28z"/><path id="svg_21" fill="#3A2F2F" d="M982.4,497.17c0,0,22.91-0.07,21,28.6c0,0-19.221,3.431-25.57-23.18L982.4,497.17z"/><path id="svg_22" fill="#3A2F2F" d="M995.16,476.52c0,0,20.791-9.75,34.1,15.421c0,0-19.209,8.119-35.93-11.351L995.16,476.52z"/><path id="svg_23" fill="#3A2F2F" d="M1008.22,452.16c0,0,21.289-10.37,33.789,14.21c0,0-22.17,7.64-35.539-10.32L1008.22,452.16z"/><path id="svg_24" fill="#3A2F2F" d="M1015.75,430.98c0,0,20.49-19.58,36.85,0.22c0,0-20.939,16.1-37.789,4.14L1015.75,430.98z"/><path id="svg_25" fill="#3A2F2F" d="M1022.611,403.63c0,0,20.619-20,36.84,0.92c0,0-23.141,16.431-37.57,3.28L1022.611,403.63z"/><path id="svg_26" fill="#3A2F2F" d="M1026.47,379.23c0,0,15.879-25,34.57-19.41c0,0-16.471,26.47-34.4,25.29L1026.47,379.23z"/><path id="svg_27" fill="#3A2F2F" d="M1031.15,356.2c0,0,16-31.49,31.131-26c0,0-11.531,24.2-31.541,31.31L1031.15,356.2z"/><path id="svg_28" fill="#3A2F2F" d="M1032.25,326.47c0,0,16.451-24.779,31.861-21.76c0,0-13.451,25.13-33.451,28.93L1032.25,326.47 z"/><path id="svg_29" fill="#3A2F2F" d="M1033.5,301.19c0,0,12.75-27.8,23.121-28c0,0-6.131,27.61-22.26,32.72L1033.5,301.19z"/><path id="svg_30" fill="#3A2F2F" d="M1036.031,276.63c0,0,14.17-28.17,24.818-28.22c0,0-7.25,24.08-24.35,30.69L1036.031,276.63z"/><path id="svg_31" fill="#3A2F2F" d="M1038.16,246.87c0,0,10.6-23.3,19.381-25.94c0,0-5.301,28.4-18.211,32.12L1038.16,246.87z"/><path id="svg_32" fill="#3A2F2F" d="M1044.919,223.25l23.691-36.08c0,0-6.07,35.6-27.141,43L1044.919,223.25z"/><path id="svg_33" fill="#3A2F2F" d="M1061.179,184.1c0,0,27.541-19,28.531-22.08c0,0-14,26.62-40,31.32L1061.179,184.1z"/><path id="svg_34" fill="#3A2F2F" d="M1062.83,175.55c0,0,31.611-30.38,39.68-30.35c0,0-26.068,1.19-40.439,28.74L1062.83,175.55z"/><path id="svg_35" fill="#3A2F2F" d="M1038.47,251.38l1.15,0.15c5.939-46.5,14.6-74,24.389-77.37l-0.379-1.1 C1053.25,176.66,1044.55,203.74,1038.47,251.38z"/><path id="svg_36" fill="#3A2F2F" d="M1029.74,362.55l1.74,0.15c0.359-4.34,0.641-8.79,0.83-13.21 c1.66-38.48,4.23-73.82,7.619-100.31l-1-1.25c-3.389,26.54-6.689,62.95-8.35,101.49C1030.4,353.8,1030.099,358.24,1029.74,362.55z"/><path id="svg_37" fill="#3A2F2F" d="M896.509,573.06c0.311-0.13,30.941-13.81,62.73-46.439c18.623-19.107,34.098-41.047,45.85-65 c14.691-29.93,23.65-66.71,26.66-102.44l-1.82,0.851c-6.738,80.2-43.26,135-72.289,164.85c-31.48,32.33-61.76,45.87-62.061,46 L896.509,573.06z"/><path id="svg_38" fill="#FFF" d="M977.479,32.055v518.42 c0,15.41-14.871,28-33.23,28H240.877c-18.36,0-33.23-12.539-33.23-28V32.055c0-15.44,14.87-31.19,33.23-31.19l703.33,1.71 C962.569,2.575,977.479,16.665,977.479,32.055z" enable-background="new" opacity=".24"/><path id="svg_39" fill="#3F3D56" d="M977.479,32.215v24H207.647v-24c0-17.314,14.036-31.35,31.35-31.35c0.01,0,0.02,0,0.03,0 h707.11C963.448,0.871,977.479,14.905,977.479,32.215z"/><circle id="svg_40" cx="244.947" cy="28.53" r="11.08" fill="#FA5959" enable-background="new" opacity=".8"/><circle id="svg_41" cx="277.177" cy="28.53" r="11.08" fill="#FED253" enable-background="new" opacity=".8"/><circle id="svg_42" cx="309.407" cy="28.53" r="11.08" fill="#8CCF4D" enable-background="new" opacity=".8"/><g id="svg_43"><path id="svg_44" fill="#C1D5FF" d="M661.028,190.66v56c0,1.67-3.129,3-7,3H506.307c-3.859,0-7-1.35-7-3v-56 c0-1.67,3.12-3.37,7-3.37h147.721C657.909,187.28,661.028,188.98,661.028,190.66z"/></g><rect id="svg_45" width="76.961" height="2.72" x="570.297" y="207.28" fill="#3C74F3"/><path id="svg_46" fill="#3C74F3" d="M531.358,201.32 c-10.08,0.006-18.246,8.181-18.24,18.261c0.004,6.121,3.075,11.832,8.18,15.209v-1.21c0.005-2.095,1.57-3.858,3.65-4.11 c1.921,3.507,6.32,4.793,9.827,2.873c1.212-0.664,2.209-1.661,2.873-2.873c2.079,0.252,3.645,2.015,3.649,4.11v1.29 c8.45-5.494,10.846-16.798,5.352-25.248C543.284,204.446,537.531,201.323,531.358,201.32L531.358,201.32z M538.517,224.46 c-0.257,3.985-3.695,7.006-7.68,6.75c-3.627-0.234-6.516-3.124-6.75-6.75c-1.823-3.976-0.077-8.677,3.898-10.5 c0.084-0.038,0.167-0.075,0.252-0.11c-0.252-0.391-0.387-0.846-0.391-1.31c0-1.331,1.079-2.41,2.41-2.41c0.004,0,0.007,0,0.01,0 h0.17c-1.26,0.089-2.237,1.136-2.239,2.4c0.001,0.421,0.111,0.834,0.319,1.2h0.07c-0.015-0.16-0.015-0.32,0-0.48 c-0.001-0.504,0.16-0.995,0.46-1.4c0.309-1.012,1.243-1.702,2.3-1.7h0.17c-0.748,0.051-1.43,0.451-1.84,1.08 c0.393-0.265,0.856-0.404,1.33-0.4c1.331,0,2.41,1.079,2.41,2.41c0.005,0.09,0.005,0.18,0,0.27c3.468,0.928,5.88,4.07,5.88,7.66 C539.273,222.309,539.007,223.431,538.517,224.46L538.517,224.46z" enable-background="new" opacity=".2"/><rect id="svg_47" width="76.961" height="2.72" x="570.297" y="213.9" fill="#3C74F3" enable-background="new" opacity=".2"/><rect id="svg_48" width="76.961" height="2.72" x="570.297" y="220.52" fill="#3C74F3" enable-background="new" opacity=".2"/><rect id="svg_49" width="76.961" height="2.72" x="570.297" y="227.15" fill="#3C74F3" enable-background="new" opacity=".2"/><g id="svg_50"><path id="svg_51" fill="#C1D5FF" d="M488.527,300.33v56c0,1.66-3.12,3-7,3h-147.72c-3.86,0-7-1.359-7-3v-56 c0-1.67,3.12-3.37,7-3.37h147.74C485.407,296.96,488.527,298.66,488.527,300.33z"/></g><rect id="svg_52" width="76.96" height="2.721" x="396.877" y="316.96" fill="#3C74F3"/><path id="svg_53" fill="#3C74F3" d="M357.947,310.99 c-10.079-0.003-18.252,8.166-18.254,18.246c-0.001,6.133,3.077,11.855,8.194,15.234v-1.221c0.006-2.092,1.572-3.852,3.65-4.1 c1.92,3.508,6.321,4.793,9.828,2.873c1.212-0.664,2.208-1.66,2.872-2.873c2.078,0.248,3.645,2.008,3.65,4.1v1.301 c8.456-5.486,10.863-16.787,5.377-25.242C369.898,314.118,364.132,310.988,357.947,310.99z M365.098,334.13 c-0.257,3.984-3.696,7.006-7.681,6.75c-3.626-0.234-6.516-3.123-6.75-6.75c-0.467-1.033-0.709-2.156-0.71-3.289 c-0.001-3.197,1.915-6.082,4.86-7.32c-0.25-0.389-0.381-0.84-0.38-1.301c0-1.332,1.077-2.414,2.41-2.42h0.18 c-1.328,0.09-2.332,1.239-2.242,2.566c0.024,0.363,0.131,0.717,0.312,1.033h0.08c-0.015-0.156-0.015-0.313,0-0.469 c0.15-1.525,1.264-2.781,2.76-3.111h0.09c-0.748,0.057-1.427,0.456-1.84,1.081c0.391-0.26,0.85-0.398,1.32-0.4 c1.336,0,2.42,1.084,2.42,2.419l0,0c0.005,0.092,0.005,0.182,0,0.271c4.229,1.115,6.754,5.449,5.638,9.678 c-0.12,0.453-0.279,0.896-0.478,1.322L365.098,334.13z" enable-background="new" opacity=".2"/><rect id="svg_54" width="76.96" height="2.721" x="396.877" y="323.579" fill="#3C74F3" enable-background="new" opacity=".2"/><rect id="svg_55" width="76.96" height="2.719" x="396.877" y="330.2" fill="#3C74F3" enable-background="new" opacity=".2"/><rect id="svg_56" width="76.96" height="2.721" x="396.877" y="336.819" fill="#3C74F3" enable-background="new" opacity=".2"/><g id="svg_57"><path id="svg_58" fill="#C1D5FF" d="M447.727,123.649v56c0,1.66-3.119,3-7,3h-147.7c-3.85,0-7-1.36-7-3v-56 c0-1.67,3.13-3.37,7-3.37h147.72C444.607,120.279,447.727,121.979,447.727,123.649z"/></g><rect id="svg_59" width="76.96" height="2.72" x="356.987" y="139.37" fill="#3C74F3"/><rect id="svg_60" width="76.96" height="2.72" x="356.987" y="145.99" fill="#3C74F3" enable-background="new" opacity=".2"/><rect id="svg_61" width="76.96" height="2.72" x="356.987" y="152.61" fill="#3C74F3" enable-background="new" opacity=".2"/><rect id="svg_62" width="76.96" height="2.72" x="356.987" y="159.23" fill="#3C74F3" enable-background="new" opacity=".2"/><path id="svg_63" fill="#3C74F3" d="M318.027,133.4 c-10.084,0.049-18.22,8.263-18.171,18.348c0.029,6.091,3.094,11.767,8.171,15.132v-3.09c0.005-2.095,1.57-3.858,3.65-4.11 c1.921,3.507,6.321,4.793,9.828,2.873c1.212-0.664,2.208-1.661,2.872-2.873c2.082,0.249,3.649,2.014,3.65,4.11v3.16 c8.45-5.494,10.846-16.798,5.352-25.248C330.002,136.508,324.222,133.382,318.027,133.4z M326.027,155.68 c-0.063,0.116-0.144,0.22-0.24,0.31c-0.156,0.109-0.34,0.172-0.53,0.18h-0.37c-1.158,3.833-5.204,6.001-9.037,4.843 c-3.046-0.92-5.136-3.72-5.153-6.903c0-1.25,0.328-2.477,0.95-3.56l-0.08-0.05c-0.839-0.998-0.733-2.482,0.24-3.35 c0.466-0.266,0.973-0.452,1.5-0.55c1.582-0.469,2.935-1.505,3.8-2.91c0.025,0.366,0.025,0.733,0,1.1 c0.602-0.654,1.621-0.696,2.275-0.094c0.005,0.005,0.01,0.009,0.015,0.014c0.189,0.269,0.408,0.517,0.65,0.74 c0.25,0.133,0.527,0.212,0.81,0.23l1.82,0.23c0.753,0.02,1.479,0.283,2.07,0.75c0.315,0.353,0.55,0.769,0.69,1.22 c0.538,1.235,0.937,2.527,1.19,3.85c0.254,1.335,0.061,2.716-0.55,3.93L326.027,155.68z" enable-background="new" opacity=".2"/><g id="svg_64"><path id="svg_65" fill="#C1D5FF" d="M701.399,387.659v56c0,1.67-3.121,3-7,3H546.667c-3.86,0-7-1.35-7-3v-56 c0-1.67,3.12-3.359,7-3.359h147.751C698.278,384.249,701.399,385.94,701.399,387.659z"/></g><rect id="svg_66" width="76.959" height="2.721" x="610.659" y="404.239" fill="#3C74F3"/><rect id="svg_67" width="76.959" height="2.719" x="610.659" y="410.86" fill="#3C74F3" enable-background="new" opacity=".2"/><rect id="svg_68" width="76.959" height="2.721" x="610.659" y="417.489" fill="#3C74F3" enable-background="new" opacity=".2"/><rect id="svg_69" width="76.959" height="2.719" x="610.659" y="424.11" fill="#3C74F3" enable-background="new" opacity=".2"/><path id="svg_70" fill="#3C74F3" d="M571.717,398.28 c-10.079,0.006-18.245,8.182-18.239,18.26c0.004,6.121,3.075,11.832,8.18,15.209v-3.09c0.01-2.09,1.574-3.848,3.649-4.1 c1.921,3.508,6.321,4.793,9.828,2.873c1.212-0.664,2.209-1.66,2.873-2.873c2.078,0.248,3.645,2.008,3.65,4.1v3.17 c8.449-5.494,10.846-16.797,5.352-25.248C583.645,401.405,577.891,398.282,571.717,398.28L571.717,398.28z M579.717,420.55 c-0.059,0.121-0.141,0.229-0.24,0.32c-0.154,0.109-0.34,0.172-0.529,0.18h-0.379c-1.109,3.842-5.122,6.059-8.964,4.951 s-6.059-5.121-4.951-8.963c0.162-0.563,0.392-1.102,0.684-1.607h-0.08c-0.839-0.998-0.732-2.482,0.24-3.352 c0.466-0.266,0.973-0.451,1.5-0.549c1.58-0.467,2.934-1.498,3.8-2.9c0.025,0.367,0.025,0.734,0,1.1 c0.603-0.654,1.621-0.695,2.275-0.094c0.005,0.004,0.01,0.01,0.015,0.014c0.188,0.27,0.405,0.514,0.65,0.73 c0.248,0.139,0.525,0.221,0.81,0.24l1.82,0.23c0.754,0.014,1.482,0.277,2.07,0.75c0.314,0.352,0.551,0.768,0.689,1.219 c0.539,1.236,0.939,2.527,1.191,3.85c0.238,1.322,0.039,2.686-0.57,3.881H579.717z" enable-background="new" opacity=".2"/><linearGradient id="svg_71_1_" x1="88.532" x2="88.532" y1="601.202" y2="602.202" gradientTransform="matrix(178.4723 0 0 -212.3223 -15362.5879 128256.0078)" gradientUnits="userSpaceOnUse"><stop offset="0" stop-color="gray" stop-opacity=".25"/><stop offset=".54" stop-color="gray" stop-opacity=".12"/><stop offset="1" stop-color="gray" stop-opacity=".1"/></linearGradient><path id="svg_71" fill="url(#svg_71_1_)" d="M527.187,571.14l-21.939-31.811c0,0-0.41-7.879-1.85-9.719 c-1.44-1.84-0.311-5.93-0.311-5.93s1.54-2.25,0.21-2.461c-1.33-0.209-0.21-5.221-0.21-5.221l-0.1-8c0,0,1.229-7.68,0.21-9.52 c-0.616-1.014-0.577-2.295,0.1-3.27c0,0,1.23-4.4,0-5.529c-1.229-1.131-0.93-8-0.62-13.4c0.311-5.4-2.149-8.49-2.149-9.311 s-8.101-8.789-8.101-9.51s-5.13-3.68-8.21-4.5s-4.609-1.43-4.51-1.84s-4.82-2-4.82-2s-4.3-0.311-5.95-2.451 c-1.649-2.139-6.649-2.779-6.8-2.789l-0.09-0.43l-0.09-0.461c0.38-0.65,0.74-1.32,1.07-2c0.1-0.209,0.189-0.41,0.279-0.619 c1.805,0.008,3.568-0.541,5.05-1.57c1.466-1.225,2.354-3.004,2.45-4.91c0.086-1.889-0.324-3.768-1.189-5.449 c-0.9-1.84-2.22-3.75-1.771-5.75c0.2-0.861,0.721-1.621,1-2.461c0.396-1.65,0.131-3.393-0.739-4.85 c-0.771-1.48-1.851-2.791-2.721-4.23c-1.104-1.84-1.839-3.877-2.16-6c-0.065-1.127-0.336-2.23-0.8-3.26 c-0.468-0.725-1.08-1.344-1.8-1.82c-3.203-2.285-7.066-3.459-11-3.34c-2.79,0.1-5.58,0.85-8.35,0.51 c-1.656-0.289-3.284-0.713-4.87-1.27c-3.44-1-7.41-1.439-10.4,0.529c-2.99,1.971-4.19,5.84-6.22,8.871 c-1.8,2.67-4.42,4.92-5.79,7.76c0-0.061,0-0.109,0-0.17c-0.33,0.66-0.585,1.354-0.76,2.07c-0.38,2.264-0.226,4.586,0.45,6.779 c0.158,1.174,0.75,2.244,1.66,3c1,0.65,2.4,0.5,3.59,0.711c-0.05,0.189-0.1,0.389-0.14,0.58c-0.343,1.6-0.514,3.232-0.51,4.869 c-0.004,10.367,6.805,19.506,16.74,22.471c0,0.209,0,0.42,0,0.619c-0.002,0.588-0.035,1.176-0.101,1.76l0,0 c0,0-10.31-2.119-13.07-0.68s-8.21,2.551-9,3.371c-0.79,0.818-2.87,0.209-4.72,5c-1.85,4.789-2.05,9.719-4.4,12 c-2.35,2.279-3.59,3.789-3.7,5.43c-0.11,1.639,0.31,2-0.61,2.549c-0.92,0.551-2.26,2.66-1.85,3.48 c0.292,1.158-0.157,2.377-1.13,3.07c-0.987,0.697-1.531,1.865-1.43,3.07c0,0-0.62,2.25-2.05,2.76c-1.43,0.51-2.36,3.891-2.36,3.891 l-4.65,5.35l-9.22-10.201c-1.438-1.584-3.887-1.709-5.48-0.279l-4.54,4.029c-1.747,0.424-3.326,1.365-4.53,2.701 c-0.983,1.014-1.776,2.195-2.34,3.49l-2.48,2.229c-1.6,1.975-1.853,4.719-0.64,6.951l5.91,6.529v0.061 c-2.095,0.174-4.087,0.984-5.71,2.32c-8.81,7.779-8.92,14.939-7.58,18.209c1.34,3.271,12.51,15.861,12.51,15.861 s6.49,8.439,15.86,12.93l0,0l-0.07,0.07c-0.19,0.199-0.37,0.408-0.55,0.639l-0.15,0.201c-0.052,0.063-0.099,0.129-0.14,0.199 l-0.17,0.24l-0.13,0.199l-0.18,0.301l-0.11,0.189l-0.21,0.4c0,0-0.05,0.09-0.07,0.131c-0.02,0.039-0.17,0.369-0.25,0.559 l-0.09,0.211c0,0.129-0.1,0.27-0.16,0.4l-0.09,0.27c0,0.129-0.09,0.26-0.13,0.4l-0.09,0.289c-0.04,0.141-0.08,0.291-0.12,0.451 c0,0.09-0.05,0.18-0.07,0.27s-0.11,0.49-0.16,0.74c-0.005,0.096-0.005,0.193,0,0.289c-0.041,0.176-0.07,0.352-0.09,0.531 c0,0.119,0,0.238-0.05,0.369c-0.05,0.131-0.05,0.33-0.07,0.51s0,0.25,0,0.391s0,0.379,0,0.58v0.359c0,0.32,0,0.65,0,1 c-0.21,12,0.49,13.711,0.49,13.711c0.926,2.256,3.015,3.822,5.44,4.08c0.588,0.041,1.179,0.012,1.76-0.09 c5.33-0.932,17.84-3.07,22.25-2.25c2.65,0.488,7.56-0.24,11.05-0.9l0.92-0.18l0.64,2l2-0.561l1.72,1l1.09,0.619 c2,6.861,10.24,4.521,10.24,4.521l1.95,1.129l19.79,0.51c2.218,1.346,4.563,2.471,7,3.361c0.326,0.1,0.661,0.174,1,0.219 c1.833,0.148,3.673,0.182,5.51,0.1c1.52,0,2.69-0.1,2.69-0.1s-0.2-5.369-0.49-11.391c6.134-0.15,12.253-0.65,18.33-1.5 c10.569-1.859,15-11.469,16.6-16.6c0.479,2.098,0.813,4.227,1,6.371c0.433,1.871,0.979,3.715,1.64,5.52 c0.576,1.457,1.336,2.834,2.261,4.1c7.79-2.66,3.069-6.65,1.43-8.391c-1.64-1.738,1.13-3.17,1.13-3.17s2.16-1.439,2-2.77 s-0.31-2.76,6.67-2.66C527.658,576.909,527.187,571.14,527.187,571.14z M418.907,505.819c0.09,0.59,1.06,6.891,1.94,8.551 c0.251,1.104,0.329,2.242,0.23,3.369c-4.13-0.33-8.43-0.51-8.43-0.51c0.124,0.152,0.2,0.336,0.22,0.531l-0.65-0.15l-0.95-0.23 l7.62-11.57L418.907,505.819z M403.828,529.819l7.15,1.141l0.6,0.09c-0.199,1.117-0.322,2.246-0.37,3.381 c0,0.1,0.16,0.229,0.39,0.379c-0.091,0.559-0.138,1.125-0.14,1.689c0.12,0.57,3.46,1.791,7.3,2.811c-0.06,0.201-0.11,0.4-0.16,0.58 l0,0c-3.39-1.779-8.72-2.609-9.34-3.93s-18.76-7.67-18.76-7.67s-0.67-0.35-1.81-0.9l4.78,0.9l1.31-0.131 c2.978,0.744,6.001,1.295,9.05,1.65V529.819z"/><path id="svg_72" fill="#65617D" d="M503.847,575.591c0,0-2.85,17.18-17.279,19.719c-14.431,2.541-62.601,2-62.601,2 s-27.54-4-37.5-27.23c-9.96-23.229-16.37-32.529-7.83-32.93c8.54-0.4,54.58,15.551,57.221,15.75 C438.498,553.101,506.387,517.56,503.847,575.591z"/><path id="svg_73" d="M503.847,575.591c0,0-2.85,17.18-17.279,19.719 c-14.431,2.541-62.601,2-62.601,2s-27.54-4-37.5-27.23c-9.96-23.229-16.37-32.529-7.83-32.93c8.54-0.4,54.58,15.551,57.221,15.75 C438.498,553.101,506.387,517.56,503.847,575.591z" enable-background="new" opacity=".05"/><path id="svg_74" fill="#3F3D56" d="M374.657,594.659c0.9,2.25,2.962,3.826,5.37,4.102c0.582,0.039,1.167,0.004,1.74-0.102 c5.28-0.91,17.68-3,22.05-2.229c2.63,0.488,7.5-0.24,11-0.891c2.3-0.43,4-0.84,4-0.84s-4.06-13.52-4.57-13.92 c-0.51-0.4-18.33-11.121-18.33-11.121l-14.09-1l0,0c-1.894,0.285-3.603,1.293-4.77,2.811c-1.49,1.801-2.77,4.75-2.85,9.59 C373.958,592.97,374.657,594.659,374.657,594.659z"/><path id="svg_75" d="M374.657,594.659c0.9,2.25,2.962,3.826,5.37,4.102 c-1.381-1.785-2.657-3.648-3.82-5.58l0.07-9.861c-0.584-5.49,1.476-10.932,5.55-14.66l0,0c0,0-7.42,0.51-7.62,12.4 C374.007,592.95,374.657,594.659,374.657,594.659z" enable-background="new" opacity=".05"/><path id="svg_76" d="M435.757,573.149l13.11-10.26l20.63-20.33l-5.59-0.25 c-0.84,0.531-3.181,2.211-3.271,4.25c-0.1,2.48-5.569,0.17-8.42,1.59c-2.85,1.42-16.77,19.24-19.189,19.131 c-2.421-0.111-4.37-1.24-5.38,0.49c-0.024,0.037-0.051,0.074-0.08,0.109L435.757,573.149z" enable-background="new" opacity=".1"/><path id="svg_77" d="M377.027,571.489l1.42,0.65c10,4.27,22.25,13.211,23.17,14.84 c0.56,1,7.69,5.32,13.19,8.561c2.3-0.43,4-0.84,4-0.84s-4.06-13.52-4.57-13.92c-0.51-0.4-18.32-11.121-18.32-11.121l-14.09-1l0,0 C379.92,568.942,378.198,569.958,377.027,571.489z" enable-background="new" opacity=".1"/><path id="svg_78" fill="#65617D" d="M349.368,542.36c1.32,3.25,12.4,15.75,12.4,15.75s7,9.15,17,13.42s22.26,13.209,23.17,14.84 c0.59,1,8.53,5.82,14.12,9.109l1.26,0.73l2.77,1.609l1.47,0.84c0,0,3.4-2.729,6.79-5.479s6.68-5.441,6.73-5.59 c0.1-0.311,1.42-3.762,1.109-4c-0.159-0.102-0.85-1.512-2.14-3.141c-1.362-1.814-3.134-3.281-5.17-4.281 c-2.965-1.506-5.331-3.973-6.71-7c0,0-0.45-0.318-1.12-0.75c-1.387-0.941-2.937-1.619-4.57-2c-2.24-0.279-6.4-4.85-6.4-4.85 c-1.64-1.059-3.01-2.486-4-4.17c-1.07-2.23-16.83-13-18.29-14l38.24,24.49l9.15,5.871l13.11-10.262l20.63-20.33l-6.811-0.299 c-10-0.439-27.829-1.121-30.079-0.609c-1.831,0.428-3.72,0.549-5.59,0.359c0,0-5.08,0.23-8.43-1.541c-3.35-1.77-8.65-2.6-9.26-3.91 c-0.61-1.309-18.6-7.619-18.6-7.619s-24.49-13-33.23-5.279C348.177,531.989,348.027,539.11,349.368,542.36z"/><path id="svg_79" fill="#EE8E9E" d="M428.337,467.761l3.15,10.469l4.06,23.58l14.94,1l4.33-7.18l4.31-7.15 c0,0,2.69-9.529,4.63-18.75c1.71-8.15,2.82-16.07,1-16.93c-1.65-0.76-2.729-3.51-3.439-6.459c-0.091-0.361-0.171-0.73-0.24-1.102 c-0.501-2.502-0.835-5.033-1-7.58c0,0-31.311-1.629-26.94,11.281c0.784,2.201,1.184,4.521,1.181,6.859 c-0.002,0.584-0.036,1.168-0.101,1.75C433.775,461.626,431.642,465.331,428.337,467.761z"/><path id="svg_80" fill="#E3E8F4" d="M421.828,466.03l1.12,17.789l2.54,15.141l2.85,7l2.54,38.359c0,0,24.5,2.84,30.46,0 c0.429-0.178,0.801-0.469,1.08-0.84c7.2-10.869,4.84-42.35,4.84-42.35l2.771-20.359l-1.83-10.551l-4.42-0.471l-3.41-0.359 c0,0-0.771,0.939-1.87,2.41c-3,4-8.561,11.801-8.19,15.07c0.511,4.471-0.609,9-2.34,9.75c-1.729,0.75-3.149,1.939-3.45,0.721 c-0.43-1.027-0.538-2.162-0.31-3.25c0.31-1.73-1.32-7-1.32-7s-2.74-6.201-2.54-8.842c0.2-2.639-0.3-5.689-1.12-6.398 c-0.819-0.711-1.93-1.432-1-4.682c0.931-3.25-4-9.578-4-9.578L421.828,466.03z"/><path id="svg_81" d="M454.198,510.45l1,30.391l5.87,3.26 c0.431-0.18,0.805-0.473,1.08-0.852c7.199-10.869,4.84-42.35,4.84-42.35l2.739-20.33l-1.829-10.549l-4.421-0.471 c1.71-8.15,2.83-16.061,1-16.92c-1.649-0.77-2.739-3.51-3.439-6.461l0,0l-3.181,21.49c0,0,0.271,1.932,0.36,3.932 c0.131,1.268,0.043,2.551-0.26,3.789c-0.71,1.83-0.2,5.08-0.2,5.08c-1.83,3.23-2.75,9.209-3.189,15 C453.967,503.14,454.198,510.45,454.198,510.45z" enable-background="new" opacity=".1"/><path id="svg_82" fill="#3A2F2F" d="M461.127,445.659c0,0,5.12,0.641,6.74,2.771c1.62,2.129,5.899,2.439,5.899,2.439 s4.881,1.629,4.771,2c-0.11,0.369,1.43,1,4.479,1.83c3.051,0.83,8.131,3.76,8.131,4.48c0,0.719,8,8.629,8,9.449 s2.43,3.859,2.13,9.25c-0.301,5.391-0.61,12.189,0.609,13.311c1.22,1.119,0,5.49,0,5.49c-0.668,0.969-0.707,2.24-0.1,3.25 c1,1.83-0.21,9.449-0.21,9.449l0.109,7.93c0,0-1.119,5,0.2,5.18c1.32,0.18-0.2,2.441-0.2,2.441s-1.119,4.068,0.301,5.898 s1.83,9.65,1.83,9.65l21.75,31.611c0,0,0.3,5.789-6.61,5.689s-6.811,1.32-6.601,2.641c0.211,1.318-1.93,2.75-1.93,2.75 s-2.75,1.42-1.12,3.148c1.63,1.73,6.3,5.691-1.42,8.33c-0.915-1.252-1.668-2.617-2.24-4.059c-0.653-1.797-1.197-3.629-1.63-5.49 c0,0-0.71-7.73-2.13-8.74s-1.22-5.9-1.22-5.9s2-4-0.811-5.59c-2.81-1.59-44.109-24.49-44.109-24.49l-1-30.391 c0,0-0.71-22.459,3.56-30c0,0-0.51-3.25,0.2-5.08s-0.1-7.729-0.1-7.729L461.127,445.659z"/><path id="svg_83" d="M434.488,457.88c0,0-10.22-2.109-13-0.689 c-2.78,1.42-8.13,2.539-8.94,3.359s-2.85,0.199-4.68,5c-1.83,4.801-2,9.65-4.37,11.891s-3.56,3.76-3.66,5.379 c-0.1,1.621,0.31,2-0.61,2.541c-0.92,0.539-2.23,2.65-1.83,3.459c0.4,0.811,21.14,18.701,21.14,18.701s1,6.809,1.93,8.539 c0.93,1.73-1,25.51-3.05,27.131c-2.05,1.619,13.76,1.469,13.76,1.469s0.72-15.6,1.33-16.42s-0.41-17.479-0.41-17.479 s-0.1-14.23,1.221-18c1.319-3.771,1.17-16.262,1.17-16.262s1.17-7.5,2.59-9.25S434.488,457.88,434.488,457.88z" enable-background="new" opacity=".1"/><path id="svg_84" fill="#3A2F2F" d="M434.187,457.569c0,0-10.22-2.1-13-0.68c-2.78,1.42-8.13,2.541-8.94,3.35 c-0.81,0.811-2.85,0.211-4.67,5c-1.82,4.791-2,9.66-4.37,11.891s-3.56,3.76-3.66,5.391c-0.1,1.629,0.3,2-0.61,2.539 c-0.91,0.541-2.24,2.641-1.83,3.461s21.14,18.699,21.14,18.699s1,6.811,1.93,8.529c0.93,1.721-1,25.512-3.05,27.141 c-2.05,1.631,13.72,1.471,13.72,1.471s0.71-15.6,1.32-16.41s-0.41-17.48-0.41-17.48s-0.1-14.23,1.22-18 c1.32-3.77,1.181-16.26,1.181-16.26s1.16-7.5,2.58-9.25S434.187,457.569,434.187,457.569z"/><path id="svg_85" d="M433.107,448.96c0.784,2.201,1.184,4.523,1.181,6.859 c10.281,3.063,21.324-1.299,26.74-10.559c-0.501-2.502-0.836-5.035-1-7.58C460.028,437.681,428.738,436.05,433.107,448.96z" enable-background="new" opacity=".1"/><path id="svg_86" fill="#EE8E9E" d="M417.667,432.899c0.026,12.824,10.443,23.199,23.267,23.174 c12.824-0.027,23.199-10.443,23.173-23.268c-0.025-12.824-10.442-23.199-23.267-23.172c-10.959,0.021-20.411,7.703-22.673,18.426 C417.832,429.651,417.665,431.274,417.667,432.899z"/><path id="svg_87" fill="#3F3D56" d="M402.728,486.771l-5.59,1.729c0.269,1.135-0.174,2.32-1.12,3c-0.964,0.686-1.502,1.822-1.42,3 c0,0-0.61,2.24-2,2.75c-1.39,0.512-2.33,3.861-2.33,3.861l-4.68,5.389c0,0-1.73,1.42-1.42,2.131s-1.83,0.91-1.83,0.91l1.12,18.1 l9.65,1.82l6-0.609l4.88-1.82l4.27-2.551l1.93-5l8.53-13L402.728,486.771z"/><path id="svg_88" fill="#EE8E9E" d="M383.717,511.06c0,0-12.4-17.891-21.65-8.23s3.76,25.301,6.81,24.791s17.59-1.32,17.59-1.32 L383.717,511.06z"/><path id="svg_89" d="M418.167,428.06c0.641,0.055,1.245,0.326,1.71,0.77 c0.78,0.83,0.82,2.301,1.85,2.82c0.381,0.162,0.801,0.211,1.21,0.141c2.7-0.391,4.26-3.439,6.86-4.279 c1.518-0.383,3.12-0.246,4.55,0.389c0.58,0.195,1.098,0.541,1.5,1c0.87,1.131,0.26,2.781,0.66,4.141 c0.561,1.891,2.811,2.641,4.771,2.881c1.96,0.238,4.149,0.389,5.449,1.859c0.874,1.109,1.237,2.537,1,3.93 c-0.114,0.48-0.114,0.98,0,1.459c0.54,1.521,3.181,1.301,3.87,0.092c0.5-0.871,0.351-1.602,1.53-1.842 c0.854-0.07,1.711,0.076,2.49,0.432c2.068,0.719,4.25,1.059,6.439,1c5.471-11.637,0.474-25.504-11.162-30.975 c-11.635-5.469-25.502-0.473-30.973,11.162c-0.761,1.619-1.333,3.322-1.705,5.072L418.167,428.06z" enable-background="new" opacity=".1"/><path id="svg_90" fill="#3F3D56" d="M447.677,442.53c-0.114-0.48-0.114-0.98,0-1.461c0.237-1.393-0.126-2.82-1-3.93 c-1.3-1.471-3.5-1.609-5.45-1.859c-1.949-0.25-4.21-1-4.77-2.881c-0.4-1.359,0.21-3-0.66-4.139c-0.399-0.465-0.918-0.811-1.5-1 c-1.43-0.639-3.031-0.779-4.55-0.4c-2.6,0.84-4.16,3.889-6.86,4.279c-0.408,0.07-0.828,0.021-1.21-0.141c-1-0.52-1.07-2-1.85-2.818 c-1.24-1.311-3.58-0.471-5.09-1.441c-0.909-0.754-1.496-1.826-1.64-3c-0.676-2.18-0.83-4.488-0.45-6.74 c0.88-3.779,4.26-6.369,6.42-9.6c2-3,3.14-6.809,6.16-8.809s6.9-1.541,10.31-0.531c1.57,0.563,3.187,0.988,4.83,1.27 c2.739,0.34,5.5-0.41,8.27-0.5c3.907-0.127,7.746,1.039,10.92,3.32c0.715,0.467,1.321,1.08,1.78,1.801 c0.465,1.021,0.736,2.119,0.8,3.24c0.323,2.1,1.05,4.117,2.141,5.939c0.859,1.43,1.93,2.73,2.699,4.209 c0.864,1.447,1.126,3.174,0.73,4.811c-0.26,0.84-0.771,1.59-1,2.451c-0.45,2,0.86,3.879,1.75,5.709 c0.862,1.672,1.273,3.541,1.19,5.42c-0.104,1.891-0.988,3.654-2.44,4.871c-1.51,1.049-3.312,1.596-5.15,1.559 c-2.232,0.07-4.459-0.268-6.569-1c-0.776-0.352-1.631-0.5-2.48-0.43c-1.189,0.24-1,1-1.54,1.84 C450.857,443.829,448.217,444.05,447.677,442.53z"/><path id="svg_91" d="M435.147,573.761l13.11-10.262l20.63-20.33l-6.81-0.299 c-0.8,0.719-1.312,1.703-1.44,2.77c-0.1,2.49-5.569,0.18-8.42,1.6c-2.85,1.42-16.77,19.24-19.189,19.121 c-2.421-0.121-4.37-1.23-5.38,0.49l-0.08,0.119c-0.405,0.465-0.948,0.787-1.55,0.92L435.147,573.761z" enable-background="new" opacity=".1"/><path id="svg_92" fill="#65617D" d="M408.717,573.05l6.59,21l1,3.301l3.14-0.861l6.92-1.898l30.8-8.461 c3.87-0.184,7.654-1.207,11.09-3c5.821-3.268,12.486-4.723,19.141-4.18c4.069,0.379,8.6-1.371,12.359-8.32 c0,0,8.53-25.199-13-32.41c-21.53-7.209-22.58,3.83-22.58,3.83l-0.29,0.18c-0.84,0.531-3.18,2.211-3.27,4.25 c-0.101,2.48-5.57,0.17-8.42,1.59c-2.851,1.42-16.75,19.32-19.17,19.211c-2.421-0.111-4.37-1.24-5.38,0.49 c-0.024,0.037-0.051,0.074-0.08,0.109c-0.75,1-3,1.279-4.51,1.32c-0.82,0-1.41,0-1.41,0l-0.19,0.061l-1.56,0.459L408.717,573.05z"/><path id="svg_93" d="M410.427,532.2l3.17,0.51l1.32-13.109c0,0-1.45-0.221-3.27-0.641 C412.127,520.78,411.027,527.86,410.427,532.2z" enable-background="new" opacity=".1"/><path id="svg_94" d="M493.528,470.94c0,0,9.449-2.74,7.12,24.09 c-2.33,26.83-19.82,43.799-19.82,43.799s-20.13,8.842-29.17,7.42c-9.04-1.42-15.63-1.729-15.63-1.729 c-2.85-1.436-5.965-2.268-9.15-2.441c-5.08-0.199-15.75-3.35-16-4.369s2.65-15.949,1.43-17.07c0,0,14.23,0.58,15.65,1.609 c1.42,1.031,3.45,0.291,5,0c1.55-0.289,6.2-4.35,15.45-0.799c0,0,3.149,0.311,4.37-0.51c0.997-0.465,2.132-0.535,3.18-0.201 c0.782-0.268,1.523-0.645,2.2-1.119c0.31-0.4,2.75,0,2.75,0c0.536,0.26,1.183,0.037,1.443-0.5c0.032-0.066,0.059-0.137,0.076-0.211 c0.319-0.83,0.803-1.588,1.42-2.229c0,0,2.75-15.451,7.931-21.24c0.847-0.732,1.268-1.842,1.12-2.951 C472.488,490.86,481.328,467.659,493.528,470.94z" enable-background="new" opacity=".1"/><path id="svg_95" d="M419.877,569.71l13.42,16.25l0.09-0.1 c0.101-0.301,1.42-3.76,1.11-4c-0.311-0.24-2.641-5.291-7.32-7.42c-2.37-1.164-4.361-2.979-5.74-5.23L419.877,569.71z" enable-background="new" opacity=".1"/><path id="svg_96" d="M420.027,597.819l1.47,0.84c0,0,3.4-2.729,6.79-5.479 c3.39-2.75,6.68-5.441,6.729-5.59c0.101-0.311,1.42-3.762,1.11-4c-0.16-0.102-0.85-1.512-2.14-3.141 c-9.101-2.551-3.301,3.77-2.53,4.061c0,0-11.08-2.541-11.69,9.52C419.687,595.3,419.774,596.573,420.027,597.819z" enable-background="new" opacity=".1"/><path id="svg_97" fill="#3F3D56" d="M431.278,602.931l1.939,1.119l19.61,0.51c2.199,1.336,4.523,2.455,6.939,3.34 c0.327,0.1,0.662,0.174,1,0.221c1.82,0.143,3.646,0.176,5.471,0.1c1.5,0,2.66-0.1,2.66-0.1s-0.931-24.74-1.631-27.34 c-0.33-1.25-2-1-3.6-0.35c-1.219,0.492-2.393,1.088-3.51,1.779c0,0-8.33,0.801-9.66,1.52c-1.33,0.721-5.08-0.41-7.42,0 s-6.5-2.75-6.5-2.75c-11.38-3.76-5,3.25-4.17,3.561c0,0-11.07-2.541-11.68,9.52S431.278,602.931,431.278,602.931z"/><path id="svg_98" fill="#565387" d="M459.637,593.38c0.21,5.119,4.2,11.48,6.59,14.84c1.5,0,2.66-0.1,2.66-0.1 s-0.93-24.74-1.63-27.34c-0.33-1.25-2-1-3.6-0.35C461.687,584.12,459.467,589.249,459.637,593.38z"/><path id="svg_99" d="M459.637,593.38c0.21,5.119,4.2,11.48,6.59,14.84 c1.5,0,2.66-0.1,2.66-0.1s-0.93-24.74-1.63-27.34c-0.33-1.25-2-1-3.6-0.35C461.687,584.12,459.467,589.249,459.637,593.38z" enable-background="new" opacity=".1"/><path id="svg_100" d="M456.288,594.06c1.35,4.939,1.33,10.49,3.479,13.84 c0.327,0.1,0.662,0.174,1,0.221c1.82,0.143,3.646,0.176,5.471,0.1c1.5,0,2.66-0.1,2.66-0.1s-0.931-24.74-1.631-27.34 c-0.33-1.25-2-1-3.6-0.35c-1.219,0.492-2.393,1.088-3.51,1.779C460.158,582.21,454.557,587.729,456.288,594.06z" enable-background="new" opacity=".05"/><path id="svg_101" d="M388.618,543.919c0,0,9.74,3.16,18,14.391L388.618,543.919z" enable-background="new" opacity=".1"/><g id="svg_102" opacity=".1"><path id="svg_103" d="M467.788,421.96l-0.061,0.221c-0.094,0.289-0.207,0.574-0.34,0.85 C467.487,422.661,467.621,422.304,467.788,421.96z"/><path id="svg_104" d="M412.667,417.03c0.171-0.693,0.423-1.365,0.75-2c-0.05,0.17-0.1,0.35-0.14,0.529 c-0.379,2.252-0.226,4.561,0.45,6.74c0.144,1.172,0.73,2.246,1.64,3c1.51,1,3.85,0.131,5.08,1.43c0.79,0.83,0.83,2.311,1.85,2.82 c0.382,0.174,0.809,0.223,1.22,0.141c2.7-0.381,4.26-3.43,6.86-4.271c1.514-0.391,3.115-0.252,4.54,0.391 c0.586,0.189,1.108,0.535,1.51,1c0.87,1.121,0.26,2.781,0.66,4.141c0.561,1.879,2.811,2.629,4.76,2.879 c1.95,0.25,4.15,0.381,5.46,1.861c0.883,1.105,1.247,2.537,1,3.93c-0.109,0.477-0.109,0.973,0,1.449 c0.54,1.531,3.181,1.301,3.87,0.1c0.5-0.879,0.351-1.6,1.53-1.85c0.853-0.066,1.709,0.08,2.49,0.43c2.11,0.732,4.337,1.07,6.569,1 c1.837,0.027,3.637-0.518,5.15-1.559c0.653-0.529,1.19-1.186,1.58-1.93c-0.34,1.355-1.108,2.564-2.19,3.449 c-1.509,1.051-3.312,1.596-5.149,1.561c-2.233,0.07-4.46-0.27-6.57-1c-0.779-0.355-1.637-0.502-2.49-0.43 c-1.18,0.238-1,1-1.529,1.84c-0.69,1.209-3.33,1.43-3.87-0.09c-0.11-0.48-0.11-0.98,0-1.461c0.247-1.393-0.117-2.824-1-3.93 c-1.311-1.471-3.5-1.609-5.46-1.859s-4.2-1-4.761-2.881c-0.399-1.359,0.21-3-0.659-4.141c-0.399-0.463-0.918-0.809-1.5-1 c-1.43-0.639-3.031-0.779-4.551-0.398c-2.6,0.84-4.16,3.889-6.859,4.279c-0.412,0.07-0.835,0.021-1.22-0.141 c-1-0.52-1.06-2-1.85-2.82c-1.23-1.309-3.57-0.469-5.08-1.439c-0.909-0.754-1.496-1.828-1.64-3 C412.437,421.61,412.283,419.29,412.667,417.03z"/></g><path id="svg_105" d="M469.357,498.38c-1.859,2.51-4,4.84-5.63,7.5 c-1.783,2.602-2.652,5.721-2.47,8.869c1.7-1.75,2.48-4.17,3.561-6.359c1.819-3.721,4.539-6.869,6.829-10.279 c0.44-0.65,3.25-4.42,1.83-4.6C472.307,493.36,470.028,497.521,469.357,498.38z" enable-background="new" opacity=".1"/><path id="svg_106" fill="#C1D5FF" d="M417.907,457.341l20.371,38.52c0.609,1.139-1.051,3.209-3.7,4.619l-101.67,53.77 c-2.65,1.4-5.3,1.611-5.9,0.461l-20.37-38.51c-0.61-1.15,0.92-3.461,3.57-4.859l101.67-53.771 C414.538,456.159,417.308,456.19,417.907,457.341z"/><rect id="svg_109" width="59.91" height="2.11" x="358.512" y="487.739" fill="#3C74F3" transform="matrix(-0.884 0.4675 -0.4675 -0.884 960.3709 739.2996)"/><rect id="svg_110" width="59.91" height="2.11" x="360.924" y="492.303" fill="#3C74F3" enable-background="new" opacity=".2" transform="matrix(-0.884 0.4675 -0.4675 -0.884 967.0491 746.7715)"/><rect id="svg_111" width="59.91" height="2.11" x="363.332" y="496.85" fill="#3C74F3" enable-background="new" opacity=".2" transform="matrix(-0.884 0.4675 -0.4675 -0.884 973.7112 754.2102)"/><rect id="svg_112" width="59.91" height="2.11" x="365.744" y="501.415" fill="#3C74F3" enable-background="new" opacity=".2" transform="matrix(-0.884 0.4675 -0.4675 -0.884 980.3894 761.6821)"/><path id="svg_113" fill="#3C74F3" d="M332.558,511.88 c-6.935,3.662-9.587,12.254-5.925,19.188c2.23,4.223,6.433,7.041,11.185,7.502l-1.12-2.119c-0.764-1.441-0.335-3.225,1-4.16 c2.592,1.717,6.085,1.01,7.803-1.582c0.598-0.902,0.923-1.957,0.937-3.039c1.521-0.574,3.232,0.068,4,1.5l1.15,2.182 c3.825-6.848,1.375-15.498-5.472-19.322c-4.208-2.352-9.32-2.406-13.578-0.148H332.558z M346.188,524.29 c0.003,0.102-0.013,0.205-0.05,0.299c-0.07,0.133-0.173,0.242-0.3,0.32l-0.25,0.141c0.634,3.049-1.324,6.035-4.374,6.67 s-6.036-1.324-6.67-4.375c-0.088-0.426-0.127-0.859-0.116-1.295h-0.07c-0.938-0.389-1.401-1.447-1.05-2.4 c0.221-0.352,0.502-0.662,0.83-0.92c0.919-0.896,1.474-2.1,1.56-3.379c0.142,0.246,0.265,0.504,0.37,0.77 c0.181-0.67,0.869-1.068,1.54-0.891c0.231,0.111,0.472,0.203,0.72,0.27c0.223,0.002,0.444-0.043,0.65-0.129l1.33-0.51 c0.839-0.557,1.962-0.402,2.62,0.359c0.818,0.654,1.562,1.395,2.22,2.211C345.796,522.245,346.161,523.249,346.188,524.29 L346.188,524.29z" enable-background="new" opacity=".2"/><path id="svg_114" fill="#EE8E9E" d="M375.688,514.819c-0.1,13.41,27.65,16.26,27.65,16.26l7.09,1.121l3.17,0.51l1.32-13.109 c0,0-1.45-0.221-3.27-0.641c-2.68-0.631-6.16-1.711-6.89-3.23C403.538,513.19,375.788,501.399,375.688,514.819z"/><path id="svg_115" fill="#3A2F2F" d="M493.278,468.88c0,0,9.449-2.74,7.12,24.09c-2.33,26.83-19.82,43.801-19.82,43.801 s-20.13,8.84-29.17,7.42s-15.65-1.73-15.65-1.73c-2.849-1.436-5.964-2.266-9.15-2.439c-5.08-0.201-15.75-3.352-16-4.371 s2.65-16,1.43-17.07c0,0,14.23,0.58,15.65,1.611c1.419,1.029,3.45,0.289,5,0c1.551-0.291,6.2-4.361,15.45-0.801 c0,0,3.15,0.311,4.37-0.51c0.997-0.463,2.133-0.535,3.18-0.199c0.783-0.268,1.523-0.645,2.2-1.121c0.311-0.4,2.75,0,2.75,0 c0.528,0.266,1.172,0.051,1.436-0.479c0.037-0.072,0.065-0.15,0.085-0.23c0.32-0.834,0.803-1.596,1.42-2.24 c0,0,2.75-15.441,7.93-21.24c0.848-0.727,1.27-1.834,1.12-2.939C472.238,488.8,481.087,465.659,493.278,468.88z"/><path id="svg_116" fill="#FFF" d="M885.788,137v56c0,1.67-3.119,3-7,3h-147.76c-3.859,0-7-1.35-7-3v-56 c0-1.67,3.121-3.37,7-3.37h147.779C882.668,133.66,885.788,135.33,885.788,137z"/><g id="svg_117" opacity=".1"><path id="svg_118" fill="#3C74F3" d="M883.932,138.099v56c0,1.66-3.129,3-7,3h-147.73c-3.859,0-7-1.36-7-3v-56 c0-1.67,3.121-3.37,7-3.37h147.75C880.803,134.729,883.932,136.429,883.932,138.099z"/></g><path id="svg_119" fill="#C1D5FF" d="M885.859,131.712v56c0,1.67-3.121,3-7,3h-147.76c-3.861,0-7-1.35-7-3v-56 c0-1.67,3.119-3.37,7-3.37h147.779C882.738,128.372,885.859,130.042,885.859,131.712z"/><rect id="svg_122" width="76.961" height="2.72" x="795.337" y="145.65" fill="#3C74F3"/><rect id="svg_123" width="76.961" height="2.72" x="795.337" y="152.271" fill="#3C74F3" enable-background="new" opacity=".2"/><rect id="svg_124" width="76.961" height="2.72" x="795.337" y="158.89" fill="#3C74F3" enable-background="new" opacity=".2"/><rect id="svg_125" width="76.961" height="2.72" x="795.337" y="165.51" fill="#3C74F3" enable-background="new" opacity=".2"/><path id="svg_126" fill="#3C74F3" d="M757.427,142.11 c-10.078-0.019-18.266,8.136-18.285,18.215c-0.012,6.143,3.068,11.88,8.195,15.265v-3.09c0.01-2.093,1.572-3.854,3.65-4.11 c1.92,3.507,6.32,4.793,9.828,2.872c1.211-0.664,2.207-1.66,2.871-2.872c2.078,0.256,3.641,2.017,3.65,4.11v3.17 c8.455-5.486,10.863-16.788,5.377-25.243C769.353,145.247,763.603,142.118,757.427,142.11z M765.427,158.803 c-0.127,0.31-0.436,0.507-0.77,0.49c-0.123,0.01-0.246,0.01-0.371,0c-1.139,3.833-5.168,6.017-9.002,4.877 c-3.07-0.913-5.176-3.734-5.178-6.938c-0.002-1.248,0.322-2.476,0.941-3.56l-0.08-0.05c-0.834-1-0.729-2.48,0.24-3.35 c0.465-0.264,0.973-0.45,1.5-0.55c1.582-0.462,2.936-1.496,3.799-2.9c0.029,0.366,0.029,0.734,0,1.1 c0.602-0.654,1.621-0.696,2.275-0.094c0.004,0.004,0.01,0.009,0.016,0.014c0.229,0.23,0.379,0.55,0.658,0.73 c0.248,0.143,0.525,0.221,0.811,0.23l1.811,0.24c1.295-0.132,2.482,0.729,2.76,2c0.543,1.233,0.943,2.525,1.189,3.85 c0.25,1.334,0.047,2.715-0.58,3.92L765.427,158.803z" enable-background="new" opacity=".2"/><linearGradient id="svg_127_1_" x1="-962.26" x2="-962.26" y1="-109.126" y2="332.993" gradientTransform="matrix(224.0093 -16.7817 -8.6056 -436.8408 222082.2344 274009.2188)" gradientUnits="userSpaceOnUse"><stop offset="0" stop-color="gray" stop-opacity=".25"/><stop offset=".54" stop-color="gray" stop-opacity=".12"/><stop offset="1" stop-color="gray" stop-opacity=".1"/></linearGradient><path id="svg_127" fill="url(#svg_127_1_)" d="M930.544,588.786c-1.381-5-2.279-9.379-2.279-9.379s0.059-5.49-2.561-9.51 l-0.051-1.371l0,0l-0.4-10.16c0.631-1.863,1.42-3.67,2.361-5.398c1.699-3.25-0.57-14.852-0.57-14.852s-7.4-16.189-6.15-26.68 s-15.67-45.789-15.67-45.789c-0.031-3.457,0.328-6.904,1.07-10.281c0.133-0.711,0.168-1.438,0.109-2.16 c0.006-0.086,0.006-0.172,0-0.26c0,0,0,0,0,0.08c-0.5-6.869-6.43-19.549-6.43-19.549l-0.221-24.611c0,0,2.92-14.629-3.5-33.859 c-2.238-6.709-3.709-12.1-4.67-16.26c-0.109-0.471-0.219-0.92-0.309-1.359c11.59-2.221,20.43-4,20.43-4s-7.84-28-12.6-32.801 c-4.76-4.801-9-20.19-9-20.19s-3.141-19.89,0.469-25.87c3.611-5.98,3.75-16.16,3.75-16.16s8.521-6.71,9.51-9.58 c0.99-2.87,2.57-9.31,2.441-12.66c-0.131-3.35-1.34-6.33-1-8.11c0.34-1.78-2.891-8.39-1.551-11.63 c0.344-0.993,0.504-2.04,0.471-3.09v-0.13c-0.096-2.782-0.461-5.548-1.09-8.26c-2.617-2.045-5.637-3.514-8.861-4.31l-0.219-0.75 l-0.57-2c-0.301-0.18-0.59-0.34-0.881-0.48v-0.72l-0.189-2.87l1.119-6.51c2.271-11.33-12.779-12.43-12.779-12.43 c-0.967-1.687-2.529-2.953-4.381-3.55c-3.059-1,0.141,16.91,1.602,18c1.09,0.82,4.58,6.32,6.26,9l0,0l0.279,0.44 c-0.238,0.233-0.459,0.484-0.66,0.75l0.721,3.87l0.109,0.6c-0.949,1.266-1.701,2.669-2.23,4.16c0,0,2.852,2.9,2.432,6.28 c-0.42,3.38,1.129,7.52,1.209,7.74c-0.17-0.18-2.18-2.19-4.08-1.6s-7.23,2.4-7.23,2.4s-4,0.86-3.59,1.73s-2.549,4.88-2.549,4.88 l-11.201-9.82c-0.119-0.3-0.24-0.6-0.35-0.91c-0.502-1.447-0.873-2.937-1.109-4.45c1.166-0.325,2.305-0.736,3.41-1.23 c1.119-0.423,2.121-1.109,2.92-2c1-1.33,1.18-3.1,1.559-4.72c0.73-3.18,2.461-6.05,3.66-9.09c1.996-5.107,2.506-10.675,1.471-16.06 c-0.238-1.667-0.869-3.253-1.84-4.63c-1.859-2.36-5.09-3.23-7.49-5.07c-2.4-1.84-4-4.74-6.779-6.09c-2.5-1.22-5.48-1-8.221-0.39 c-5.373,1.089-10.494,3.175-15.1,6.15c-1.529,1-3.221,2.14-5,1.88c-1.561-0.22-2.74-1.42-3.791-2.57c-0.004-0.05-0.004-0.1,0-0.15 l-0.129-0.13c-1.041,2.582-1.506,5.36-1.359,8.14c0,0.43,0,0.86,0.1,1.29c0,0.15,0,0.3,0,0.45c0.01,0.126,0.01,0.254,0,0.38l0,0 c0.004,0.195-0.016,0.39-0.061,0.58c-0.221,0.564-0.563,1.072-1,1.49c-0.314,0.389-0.596,0.804-0.84,1.24 c0-0.15,0.08-0.3,0.131-0.45c-0.66,1.029-1.008,2.228-1,3.45c-0.027,0.891,0.295,1.756,0.898,2.41 c0.563,0.508,1.172,0.959,1.82,1.35c-0.174,1.191-0.238,2.396-0.189,3.6c0.32,7.31,4.439,13.92,10.859,17.43 c0.141,0.3,0.27,0.6,0.41,0.91c1.52,3.58,2.721,7.77,2.41,11.7c0,0.29-0.061,0.58-0.1,0.86c-0.041,0.28-0.26,0.31-0.371,0.47l0,0 c0,0-17.83,0.86-22.17-2.78s-10.24,9.69-10.24,9.69s-6.34,1.49-7.67,0.3c-1.328-1.19-8.779,0.16-8.779,0.16 c-3.162-2.608-7.199-3.91-11.289-3.64c-2.572-1.799-5.387-3.224-8.361-4.23l0,0l-0.209-0.06l0,0c-1.291-0.414-2.656-0.537-4-0.36 c0,0-9.051-6.91-11.76-10.7c-2.711-3.79-15.441-17.75-15.5-17.82l-0.07-0.69l-0.221-2.1c-0.359,0.073-0.723,0.12-1.09,0.14 l-0.27-0.72c-0.773-2.023-1.717-3.977-2.82-5.84c0,0-0.1-2.66,0.65-3.35c0.75-0.69-0.721-10.38-0.721-10.38s-8.609-18.17-15.16-4.1 c0,0-13,9.44-1.41,19.39c0,0,4.57,2,5.271,3.7c0.459,1.1,2.1,4.16,3.199,6.19c0.18,0.34,0.35,0.64,0.49,0.91l-0.121,0.11l0.23,1.73 l0.09,0.67c-2.059,1.28-3.449,2.53-3.07,3.42c0.688,1.504,1.178,3.091,1.461,4.72c0,0,16.279,18.85,18.609,27.09 c0,0,42.6,23.15,56.371,24.39l-1.801,12.44c-0.227,3.362-0.279,6.733-0.16,10.1c0.281,2.65-1.08,14.74-1.08,14.74 s-1.699,17.77-3.609,20.33s-1.15,13.141-1.15,13.141c-0.285,5.098-1.008,10.164-2.16,15.139c-1.75,6.791,0,15.051,0,15.051 s-6.33,16.18,9.881,4.75c0,0,8.139-0.82,17.52-1.5c0,0.311,0,0.619,0,0.939c0,1.211,0.061,2.521,0.1,3.9 c0.221,9.121,0.65,21.68,1.43,31.17c1.391,16.77,7.781,49.77,7.781,49.77l0.639,16.701c-0.264,1.582-0.359,3.188-0.289,4.789 c0.086,5.902,1.855,11.658,5.1,16.59l1.711,11.08c0,0,3.279,7.23,3.51,11.611c0.002,0.357-0.029,0.717-0.09,1.068 c-0.094,0.566-0.121,1.141-0.08,1.711c0,5.061,3.539,17.051,3.539,17.051s0.65,12.189,2.5,12.83c1.59,0.539-1.811,7.109-2.83,9 c-0.031-0.115-0.059-0.232-0.08-0.352c-0.129,0.25-0.209,0.381-0.209,0.381c-0.338,1-0.49,2.055-0.451,3.109 c-0.148,1.709,0.705,3.352,2.191,4.211c3.549,2,5.479,3.68,2.568,4.5c-1.08,0.213-2.148,0.482-3.199,0.809 c0-0.139-0.119-0.279-0.17-0.408c-0.826,0.385-1.287,1.281-1.119,2.18c0.088,1.445,0.516,2.85,1.25,4.1 c3.18,6.43,5.299,8.83,5.299,8.83l1.391-0.211c-0.189,0.541-0.441,1.059-0.75,1.541c-0.508,0.785-1.193,1.439-2,1.91 c-0.74,0.504-1.578,0.844-2.461,1c-2.004,0.135-3.855,1.125-5.08,2.719c-1.729,2.42-2.75,5.682,1,8.361l13.24,4 c0,0,22.58,2.059,21.189-2.941c-1.389-5-2.279-9.379-2.279-9.379c-0.029-3.084-0.771-6.121-2.17-8.871 c-0.25-0.449-0.529-0.879-0.84-1.289l0.789-0.121c0,0,1.211-11.199,3.32-13.408c0.49-0.5,0.59-0.881,0.461-1.17 c0.199-0.621-0.381-1-1.131-1.121c0,0.141-0.09,0.291-0.139,0.439c-0.725-0.125-1.457-0.178-2.191-0.16c0,0-1-5.799,1.34-8 c0.369-0.502,0.51-1.137,0.391-1.75c-0.014-0.797-0.127-1.59-0.34-2.359c-0.029,0.043-0.053,0.092-0.07,0.141 c-1.41-5.25-5.779-13.51-5.779-13.51s-0.381-5.301,1-7.471c1.379-2.17-1.301-28.82-1.301-28.82s0.061-12.93-1.82-18.869 c-1.879-5.939,1.51-13.16,1.51-13.16s0-0.141-0.059-0.391v-0.09c0,0-0.111-0.789-0.291-2c0.004,0.043,0.004,0.088,0,0.131 c-0.49-3.4-1.43-9.561-2-12.41c-0.889-4-0.719-23.52-0.719-23.52l3-8.441l6.398,14.1l6.951,18.861c0,0,3.23,3.91,3.459,8 c0,0.199,0,0.4,0,0.6c-0.023,0.426-0.023,0.854,0,1.279c-0.012,2.412,0.74,4.766,2.15,6.721c0,0,2,9,4.641,11.16 s2.82,6.619,2.82,6.619s3.609,13,5.16,15.211c1.299,1.891,1.568,7.209,1.619,8.84l0,0c0,0.301,0,0.48,0,0.48s0.619,4.66,0.75,8.59 c0,0.48,0,1,0,1.4c0,0,0-0.07,0-0.102c0.033,1.07-0.053,2.141-0.26,3.191c0,0.059,0,0.119,0,0.189c0-0.234,0-0.453,0-0.66 c-0.541,2.691-0.748,5.438-0.621,8.18c0.102,4.711,1,10.25,4,13.41c5.15,5.471,8.23,4.641,8.23,4.641s-2.1,7.16-5,8.689 c-0.109,0.061-0.213,0.131-0.309,0.211c0-0.131-0.061-0.271-0.08-0.4c-0.617,0.74-0.893,1.705-0.762,2.66 c-0.09,3.119,2.07,8.1,4,10.35c0.717,0.648,1.582,1.109,2.521,1.34c-0.141,0.111-0.289,0.215-0.441,0.311 c-0.322,0.189-0.656,0.359-1,0.51c-0.467,0.223-0.965,0.373-1.479,0.439c-2.004,0.143-3.852,1.131-5.08,2.721 c-1.721,2.42-2.75,5.67,1,8.359l13.24,4C909.435,591.837,931.974,593.786,930.544,588.786z"/><path id="svg_128" fill="#2D293D" d="M844.95,599.042l-12.82-4c-3.59-2.689-2.6-5.949-0.93-8.369 c1.166-1.572,2.957-2.563,4.91-2.711c0.855-0.156,1.668-0.498,2.379-1c0.791-0.469,1.453-1.125,1.932-1.91 c0.867-1.498,1.305-3.207,1.26-4.939c0,0,13.719-4.6,17.68-0.68c0.703,0.713,1.301,1.52,1.779,2.4 c1.357,2.766,2.078,5.799,2.111,8.879c0,0,0.879,4.381,2.219,9.381S844.95,599.042,844.95,599.042z"/><path id="svg_129" fill="#2D293D" d="M906.59,590.433l-12.811-4c-3.6-2.68-2.609-5.939-0.939-8.35 c1.158-1.58,2.955-2.572,4.91-2.711c0.496-0.076,0.979-0.229,1.43-0.449c0.344-0.148,0.678-0.318,1-0.51 c3.469-2.08,3.189-6.852,3.189-6.852s13.73-4.6,17.68-0.68c0.533,0.529,1.002,1.115,1.4,1.75c2.539,4,2.49,9.521,2.49,9.521 s0.879,4.398,2.219,9.389S906.59,590.433,906.59,590.433z"/><path id="svg_130" d="M861.508,583.159c0.703,0.713,1.301,1.521,1.779,2.4l0,0 l-20.719,3.211c0.869-1.498,1.305-3.209,1.26-4.941C843.829,583.829,857.547,579.239,861.508,583.159z" enable-background="new" opacity=".1"/><path id="svg_131" fill="#3A2F2F" d="M916.919,575.44l0.15,3.899 c-3,5.46-18.719,4.891-23.369,2.391c0.344-0.147,0.678-0.318,1-0.511c3.469-2.08,3.189-6.85,3.189-6.85s13.73-4.6,17.68-0.68 C916.085,574.221,916.539,574.808,916.919,575.44z" enable-background="new" opacity=".1"/><path id="svg_132" fill="#65617D" d="M924.229,551.731c-0.908,1.732-1.668,3.539-2.27,5.4l0.529,14 c-3.309,6-21.77,4.74-24.369,1.65s-5.57-11.289-2.791-12.82c2.781-1.529,4.801-8.68,4.801-8.68s-3,0.82-8-4.65 c-5-5.469-4.061-18.08-3.289-21.119c0.77-3.041-0.512-13.09-0.512-13.09s-0.09-7.08-1.59-9.32s-5-15.211-5-15.211 s-0.17-4.42-2.729-6.629c-2.561-2.211-4.5-11.16-4.5-11.16c-1.537-2.197-2.264-4.857-2.061-7.529 c0.359-4.441-3.359-9.08-3.359-9.08l-6.75-18.861l-6.211-14.109l-2.85,8.449c0,0-0.141,19.48,0.73,23.521 c0.869,4.039,2.34,14.779,2.34,14.779s-3.271,7.209-1.441,13.16c1.83,5.949,1.791,18.879,1.791,18.879s2.609,26.631,1.279,28.811 s-1,7.471-1,7.471s7.85,15.279,5.631,17.49c-2.221,2.209-1.291,8-1.291,8s5-0.191,2.92,2c-2.08,2.189-3.209,13.41-3.209,13.41 l-21.279,3.299c0,0-2.061-2.4-5.141-8.84s0.311-5.85,3.129-6.67c2.82-0.82,1-2.51-2.488-4.51c-3.49-2-1.682-6.84-1.682-6.84 s4.791-8.859,3-9.5c-1.789-0.641-2.439-12.83-2.439-12.83s-4.09-14.359-3.359-18.291c0.73-3.93-3.34-13.148-3.34-13.148 l-1.66-11.09c-4.029-6.172-5.697-13.59-4.701-20.891l-0.619-17.211c0,0-6.23-33-7.58-49.818c-0.869-10.74-1.311-25.422-1.51-34.592 c-0.109-5.139-0.15-8.549-0.15-8.549l76.07-10.891c0.266,3.811,0.875,7.59,1.82,11.291c0.939,4.16,2.369,9.549,4.549,16.26 c6.23,19.24,3.43,33.869,3.43,33.869l0.24,24.6c0,0,7.352,16.182,6.15,21.9c-0.707,3.391-1.043,6.848-1,10.311 c0,0,16.41,35.311,15.221,45.801c-1.191,10.488,6,26.689,6,26.689S925.879,548.481,924.229,551.731z"/><path id="svg_133" d="M879.159,468.979l23.129-4 C902.288,464.979,889.637,478.94,879.159,468.979z" enable-background="new" opacity=".05"/><path id="svg_134" d="M898.028,442.399c0,0,1.109,8.191-3.811,11.48 C894.249,453.88,903.217,452.12,898.028,442.399z" enable-background="new" opacity=".1"/><path id="svg_135" d="M895.627,416.29c0,0-18.82,16.75-26,15.699 C862.448,430.94,895.627,416.29,895.627,416.29z" enable-background="new" opacity=".1"/><path id="svg_136" d="M850.627,477.659c0,0-14.629,3.92-14.84,9.861 C835.579,493.46,850.627,477.659,850.627,477.659z" enable-background="new" opacity=".1"/><path id="svg_137" d="M856.717,551.21c0,0-20.689,4.689-14.689,7.109 s15.83,4.18,15.83,4.18S864.588,562.591,856.717,551.21z" enable-background="new" opacity=".05"/><g id="svg_138" opacity=".05"><path id="svg_139" fill="#3A2F2F" d="M838.028,562.659c-1.076-0.631-1.811-1.715-2-2.949c-0.119,0.24-0.199,0.381-0.199,0.381 s-1.76,4.84,1.68,6.84c0.4,0.229,0.77,0.449,1.119,0.67c0.621-0.141,1.281-0.25,1.92-0.441 C843.288,566.39,841.418,564.659,838.028,562.659z"/><path id="svg_140" fill="#3A2F2F" d="M864.797,560.249c0.551-0.549,0.48-1.908,0.061-3.639c-0.795,1.598-1.143,3.381-1,5.16 C864.055,561.2,864.377,560.681,864.797,560.249z"/><path id="svg_141" fill="#3A2F2F" d="M858.198,472.409c-0.689,2.123-1.08,4.33-1.16,6.561c0.342-1.551,0.826-3.068,1.451-4.529 C858.489,474.44,858.377,473.659,858.198,472.409z"/><path id="svg_142" fill="#3A2F2F" d="M905.608,461.29c0.121-0.639,0.16-1.291,0.119-1.939c-0.209,1.33-0.35,2.559-0.439,3.639 C905.387,462.44,905.489,461.87,905.608,461.29z"/><path id="svg_143" fill="#3A2F2F" d="M860.118,535.28c0.355-1.281,0.48-2.615,0.371-3.939c-0.592,1.598-0.869,3.295-0.82,5 C859.776,535.97,859.926,535.614,860.118,535.28z"/><path id="svg_144" fill="#3A2F2F" d="M865.778,568.46c-0.961,3.607-1.629,7.285-2,11l-21.279,3.301c0,0-2.051-2.4-5.131-8.83 c-0.27-0.57-0.49-1.08-0.67-1.541c-1.26,0.641-1.709,2,0.121,5.811c3.08,6.43,5.139,8.83,5.139,8.83l21.281-3.301 c0,0,1.16-11.199,3.199-13.4C867.428,569.2,866.739,568.659,865.778,568.46z"/><path id="svg_145" fill="#3A2F2F" d="M836.307,537.79c0,0,0.65,12.199,2.441,12.84l0,0c0.82-2.051,1.34-4,0.539-4.27 c-1.799-0.641-2.439-12.84-2.439-12.84s-4.1-14.361-3.359-18.281c0.738-3.92-3.34-13.15-3.34-13.15l-1.672-11.09 c-4.027-6.17-5.695-13.588-4.699-20.889l-0.66-17.15c0,0-6.23-33-7.58-49.82c-0.869-10.74-1.311-25.43-1.51-34.59 c0-1.66-0.061-3.131-0.09-4.369l-0.609,0.09c0,0,0,3.398,0.16,8.549c0.199,9.16,0.639,23.85,1.5,34.59 c1.359,16.771,7.59,49.82,7.59,49.82l0.66,17.15c-0.998,7.303,0.672,14.719,4.699,20.891l1.66,11.09c0,0,4.08,9.219,3.34,13.15 C832.198,523.44,836.307,537.79,836.307,537.79z"/><path id="svg_146" fill="#3A2F2F" d="M900.797,575.659c-1.828-2.445-3.092-5.266-3.699-8.26c-2.109,2,0.689,9.6,3.16,12.531 c2.6,3.09,21.061,4.33,24.369-1.641l-0.129-3.371C919.909,579.86,903.258,578.601,900.797,575.659z"/><path id="svg_147" fill="#3A2F2F" d="M926.909,554.659c-0.91,1.732-1.67,3.539-2.271,5.4l0.09,2.48 c0.371-0.92,0.9-2.15,1.641-3.609c0.506-1.412,0.711-2.914,0.6-4.41L926.909,554.659z"/><path id="svg_148" fill="#3A2F2F" d="M901.227,558.45c0.625-1.387,1.152-2.813,1.58-4.27c0,0-3,0.818-8-4.65 c-3.629-4-4.129-11.75-3.83-16.85c-0.77,3-1.699,15.648,3.291,21.119C897.557,557.38,899.958,558.261,901.227,558.45z"/><path id="svg_149" fill="#3A2F2F" d="M890.499,519.601c0.443,3.469,0.697,6.961,0.76,10.459c0.064-0.555,0.164-1.107,0.299-1.65 c0.771-3-0.51-13.08-0.51-13.08s-0.1-7.08-1.6-9.33s-5-15.209-5-15.209s-0.17-4.42-2.74-6.621c-2.57-2.199-4.5-11.158-4.5-11.158 c-1.535-2.201-2.262-4.865-2.059-7.541c0.359-4.439-3.361-9.07-3.361-9.07l-6.76-18.869l-6.209-14.1l-2.861,8.43c0,0,0,1,0,2.689 l2.33-6.85l6.211,14.1l6.74,18.859c0,0,3.719,4.631,3.359,9.07c-0.209,2.676,0.52,5.342,2.061,7.541c0,0,1.93,9,4.5,11.16 c2.568,2.16,2.729,6.619,2.729,6.619s3.512,13,5,15.211C890.377,512.47,890.499,519.601,890.499,519.601z"/></g><path id="svg_150" fill="#FFCDD3" d="M892.829,193.73l-1.08,6.51l0.189,2.87l0.141,2.12l-7.352,1l-0.889-1.5l0,0 c-1.631-2.71-5-8.22-6.08-9c-1.4-1.09-4.531-18.95-1.57-18c1.811,0.62,3.328,1.888,4.26,3.56 C880.448,181.29,895.028,182.41,892.829,193.73z"/><path id="svg_151" d="M892.079,205.23l-7.352,1l-0.889-1.5l0,0 c1.959-2.414,5.35-3.108,8.1-1.66L892.079,205.23z" enable-background="new" opacity=".1"/><path id="svg_152" fill="#DCE6F2" d="M894.028,208.66l-9.641,2.63l-0.26-1.44l-0.699-3.88c0,0,3.65-5.28,9.369-1.64l0.561,2 L894.028,208.66z"/><path id="svg_153" fill="#FFCDD3" d="M735.938,200.48l-10.17,6c0,0-0.43-0.8-1-1.92c-1.07-2-2.66-5.1-3.109-6.2 c-0.682-1.69-5.102-3.7-5.102-3.7c-11.27-10,1.342-19.39,1.342-19.39c6.318-14.06,14.67,4.12,14.67,4.12s1.439,9.69,0.709,10.38 s-0.619,3.34-0.619,3.34c1.068,1.872,1.98,3.829,2.729,5.85C735.749,199.88,735.938,200.48,735.938,200.48z"/><path id="svg_154" d="M735.938,200.48l-10.17,6c0,0-0.43-0.8-1-1.92 c1.41-1.28,6.449-5.7,8.16-5.57c0.818,0.077,1.641,0.077,2.459,0C735.749,199.88,735.938,200.48,735.938,200.48z" enable-background="new" opacity=".1"/><path id="svg_155" fill="#DCE6F2" d="M737.118,203.58l-11.449,6.2l-0.33-2.5l-0.23-1.73c0,0,6.541-6.05,8.551-5.91 c1,0.1,2.01,0.059,3-0.12l0.219,2.09L737.118,203.58z"/><path id="svg_156" fill="#FFCDD3" d="M866.188,237.66c0,0-50.66,7.7-41.27,4.25c6.539-2.42,9-6.73,9.379-11.41 c0.291-3.93-0.869-8.12-2.35-11.71c-1.328-3.157-2.969-6.172-4.9-9c0,0,38.07-22.89,31-3.14c-1.09,2.986-1.715,6.124-1.85,9.3 c-0.113,3.154,0.348,6.302,1.359,9.29C859.231,230.098,862.219,234.397,866.188,237.66z"/><path id="svg_157" d="M858.088,206.66c-1.092,2.987-1.715,6.124-1.85,9.3 c-3.541,3.22-7.57,3.17-12.73,3.37c-4,0.15-8.32,1.28-11.561-0.51c-1.328-3.157-2.969-6.172-4.9-9 C827.047,209.82,865.118,186.92,858.088,206.66z" enable-background="new" opacity=".1"/><circle id="svg_158" cx="842.069" cy="199.67" r="21.06" fill="#FFCDD3"/><path id="svg_159" d="M866.188,237.66c0,0-50.66,7.7-41.27,4.25 c6.539-2.42,9-6.73,9.379-11.41c2.43-2.85,7.441-5,10.67-6.2c2.945-1.117,6.162-1.292,9.211-0.5c1.203,0.306,2.354,0.784,3.42,1.42 C859.256,230.081,862.231,234.386,866.188,237.66z" enable-background="new" opacity=".1"/><path id="svg_160" d="M894.028,208.66l-9.641,2.63l-0.26-1.44 c2.021-3.01,5.711-4.433,9.23-3.56L894.028,208.66z" enable-background="new" opacity=".1"/><path id="svg_161" d="M737.118,203.58l-11.449,6.2l-0.33-2.5 c3.711-2.164,7.582-4.043,11.58-5.62L737.118,203.58z" enable-background="new" opacity=".1"/><path id="svg_162" d="M891.249,365.14c-19.58,3.871-47.471,9-52,7.811 c-3.74-1-15.521-0.41-25.771,0.34c-0.109-5.141-0.148-8.551-0.148-8.551l76.068-10.889 C889.674,357.661,890.293,361.44,891.249,365.14z" enable-background="new" opacity=".1"/><path id="svg_163" fill="#3A2F2F" d="M908.579,352.073c0,0-64.459,13.629-71.51,11.779c-7.049-1.85-42.709,1.82-42.709,1.82 c-15.67,11.4-9.57-4.77-9.57-4.77s-1.73-8.25,0-15.051c1.105-4.979,1.799-10.039,2.07-15.131c0,0-0.76-10.59,1.09-13.139 c1.85-2.551,3.471-20.321,3.471-20.321s1.299-12.09,1-14.74c-0.301-2.65,0.148-10.09,0.148-10.09l1.801-12.46 c-13.33-1.26-54.59-24.46-54.59-24.46c-2.27-8.23-18-27.1-18-27.1c-0.279-1.629-0.756-3.217-1.42-4.73 c-1.17-2.79,14.529-9.06,14.529-9.06s12.4,14,15,17.84s11.391,10.72,11.391,10.72c1.313-0.19,2.652-0.07,3.91,0.35l0.199,0.06l0,0 c2.889,1.015,5.613,2.443,8.09,4.24c3.982-0.25,7.906,1.059,10.941,3.65c0,0,7.209-1.34,8.488-0.15 c1.281,1.19,7.432-0.28,7.432-0.28s5.68-13.33,9.889-9.68c4.211,3.65,21.471,2.8,21.471,2.8c2.18-3.14,7.689-5.55,11.15-6.81 c2.943-1.121,6.16-1.299,9.209-0.51c1.32,0.322,2.576,0.871,3.711,1.62l10.859,9.85c0,0,2.859-4,2.471-4.88 c-0.391-0.88,3.479-1.72,3.479-1.72s5.061-1.79,7-2.4c1.941-0.61,3.781,1.44,3.951,1.61c-0.08-0.22-1.57-4.45-1.18-7.74 c0.389-3.29-2.371-6.28-2.371-6.28c5.611-15.44,20.061-3.25,20.061-3.25s1.92,8.25,0.619,11.49c-1.299,3.24,1.801,9.84,1.512,11.62 c-0.291,1.78,0.889,4.75,1,8.11c0.109,3.36-1.391,9.79-2.342,12.66c-0.949,2.87-9.199,9.56-9.199,9.56s-0.141,10.1-3.629,16.08 c-3.49,5.98-0.422,25.87-0.422,25.87s4.141,15.419,8.75,20.201C900.94,324.032,908.579,352.073,908.579,352.073z"/><path id="svg_164" d="M811.659,247.06c0,0-2.17-5.76-4-6.22 c-1.781-0.584-3.521-1.286-5.211-2.1l1-2.22c0,0,6.711,1.56,7.85,3.47C812.438,241.9,811.659,247.06,811.659,247.06z" enable-background="new" opacity=".1"/><path id="svg_165" d="M775.627,235.52c-0.289,1.78-16,4-16,4l7.65-8.29l0,0l0.199,0.06 l0,0C770.385,232.296,773.131,233.721,775.627,235.52z" enable-background="new" opacity=".1"/><circle id="svg_166" cx="729.168" cy="213" r="1.42" fill="#575988"/><circle id="svg_167" cx="731.088" cy="215.76" r="1.42" fill="#575988"/><circle id="svg_168" cx="732.958" cy="218.3" r="1.42" fill="#575988"/><circle id="svg_169" cx="734.918" cy="221.06" r="1.42" fill="#575988"/><circle id="svg_170" cx="893.951" cy="213.63" r="1.15" fill="#D84F4F"/><path id="svg_173" d="M813.588,294.97c-0.17-0.2,41.619,48.6,71.449,18.32 C885.028,313.29,836.399,321.8,813.588,294.97z" enable-background="new" opacity=".1"/><path id="svg_174" d="M791.698,322.021c0,0,23.881-0.271,26.641,6.49l0.27,7.139 c-1.35,0.824-3.031,0.889-4.439,0.17c-2.451-1.199-17.15-8-22.1-4.25L791.698,322.021z" enable-background="new" opacity=".1"/><path id="svg_175" fill="#656691" d="M792.149,322c0,0,22.828-0.26,25.469,6.191l0.26,6.809c-1.293,0.785-2.9,0.846-4.25,0.16 c-2.34-1.148-16.4-7.6-21.129-4.049L792.149,322z"/><path id="svg_176" d="M802.727,269.73c2.654,5.546,5.965,10.754,9.861,15.51 c4.238,5.258,9.305,9.791,15,13.42C827.588,298.66,803.249,272.99,802.727,269.73z" enable-background="new" opacity=".1"/><path id="svg_177" d="M793.858,242.32c0,0,4.641,17,15.119,22.46L793.858,242.32z" enable-background="new" opacity=".1"/><path id="svg_178" d="M787.829,244.29c-0.121-0.32-3,13.72,14,20.76 C801.858,265.05,794.649,262.91,787.829,244.29z" enable-background="new" opacity=".1"/><path id="svg_179" d="M891.518,228.76c-0.26,0,8.48,5.11,10.891,7.55 C902.409,236.31,896.547,228.21,891.518,228.76z" enable-background="new" opacity=".1"/><path id="svg_180" fill="#2D293D" d="M834.959,211.272c0.072,1.827,1.611,3.249,3.438,3.177c0.105-0.004,0.209-0.013,0.313-0.027 c6.43,0.15,13.119,0.18,19-2.52c1.086-0.428,2.051-1.114,2.811-2c1-1.33,1.139-3.09,1.51-4.72c0.709-3.17,2.369-6,3.539-9.08 c1.939-5.146,2.432-10.725,1.42-16.13c-0.223-1.661-0.832-3.247-1.779-4.63c-1.801-2.37-4.939-3.23-7.26-5.08 c-2.32-1.85-3.891-4.75-6.57-6.1c-2.42-1.22-5.311-1-8-0.4c-5.213,1.097-10.17,3.181-14.6,6.14c-1.49,1-3.121,2.13-4.891,1.87 c-1.549-0.23-2.709-1.48-3.75-2.65c-1.141,2.934-1.561,6.1-1.219,9.23c0.078,0.457,0.078,0.923,0,1.38 c-0.203,0.556-0.52,1.063-0.932,1.49c-1.51,1.9-2.389,4.85-0.75,6.64c0.711,0.79,1.771,1.19,2.471,2c1.24,1.43,0.92,3.57,1,5.46 c-0.047,0.662,0.145,1.318,0.539,1.85c0.725,0.618,1.717,0.815,2.621,0.52c0.883-0.304,1.818-0.43,2.75-0.37 c1.002,0.287,1.877,0.908,2.48,1.76C832.229,202.692,833.54,206.792,834.959,211.272z"/><g id="svg_181" opacity=".1"><path id="svg_182" d="M863.278,215.91c-0.762,0.887-1.73,1.574-2.82,2c-5.84,2.7-12.52,2.68-18.949,2.52 c-1.811,0.25-3.482-1.015-3.732-2.826c-0.014-0.104-0.023-0.209-0.027-0.314c-1.41-4.49-2.73-8.59-5.84-12.24 c-0.602-0.849-1.473-1.469-2.471-1.76c-0.936-0.055-1.873,0.071-2.76,0.37c-0.904,0.295-1.896,0.098-2.621-0.52 c-0.391-0.534-0.582-1.189-0.539-1.85c0-1.89,0.279-4-1-5.46c-0.689-0.8-1.76-1.2-2.471-2c-0.945-1.193-1.164-2.808-0.57-4.21 c-1.049,1.83-1.449,4.14-0.078,5.65c0.709,0.78,1.779,1.18,2.469,2c1.24,1.43,0.93,3.57,1,5.47 c-0.045,0.658,0.146,1.311,0.541,1.84c0.719,0.624,1.715,0.821,2.619,0.521c0.889-0.3,1.824-0.426,2.76-0.37 c0.998,0.294,1.867,0.914,2.471,1.76c3.109,3.66,4.42,7.75,5.84,12.24c0.207,1.116,0.834,2.11,1.75,2.78 c0.629,0.274,1.314,0.401,2,0.37c6.43,0.15,13.119,0.17,19-2.53c1.088-0.43,2.055-1.116,2.82-2c0.377-0.528,0.66-1.117,0.84-1.74 C863.438,215.715,863.362,215.815,863.278,215.91z"/><path id="svg_183" d="M821.159,186.83c0.273-0.318,0.479-0.689,0.6-1.09c0.084-0.456,0.084-0.924,0-1.38 c-0.273-2.571-0.037-5.171,0.699-7.65l-0.129-0.14c-1.141,2.935-1.561,6.1-1.221,9.23 C821.155,186.141,821.17,186.486,821.159,186.83z"/></g><path id="svg_184" d="M833.848,231.86c0,0,26.42,2.48,28.629-1.57" enable-background="new" opacity=".1"/><path id="svg_185" d="M884.528,219.02c0,0,14.6-0.54,18,4.81" enable-background="new" opacity=".1"/><path id="svg_186" fill="#FFF" d="M169.337,172.91v56c0,1.67-3.13,3-7,3H14.607c-3.86,0-7-1.35-7-3v-56c0-1.67,3.12-3.37,7-3.37 h147.75C166.208,169.54,169.337,171.24,169.337,172.91z"/><g id="svg_187"><path id="svg_188" fill="#C1D5FF" d="M169.337,172.91v56c0,1.67-3.13,3-7,3H14.607c-3.86,0-7-1.35-7-3v-56 c0-1.67,3.12-3.37,7-3.37h147.75C166.208,169.54,169.337,171.24,169.337,172.91z"/></g><rect id="svg_189" width="76.96" height="2.72" x="78.598" y="189.54" fill="#3C74F3"/><path id="svg_190" fill="#3C74F3" d="M384.931,189.606 c-10.079,0.005-18.245,8.181-18.239,18.26c0.003,6.121,3.075,11.832,8.18,15.209v-1.22c0.005-2.093,1.572-3.853,3.65-4.1 c1.92,3.507,6.321,4.793,9.828,2.872c1.212-0.664,2.208-1.66,2.872-2.872c2.078,0.248,3.645,2.007,3.65,4.1v1.3 c8.45-5.495,10.846-16.798,5.351-25.249C396.858,192.732,391.104,189.609,384.931,189.606z M392.082,212.736 c-0.297,3.982-3.766,6.969-7.748,6.672c-3.569-0.266-6.407-3.104-6.673-6.672c-1.823-3.976-0.077-8.677,3.899-10.5 c0.083-0.038,0.167-0.075,0.251-0.11c-0.257-0.385-0.393-0.838-0.39-1.3c0-1.331,1.079-2.41,2.41-2.41c0.003,0,0.006,0,0.01,0h0.17 c-1.264,0.089-2.243,1.143-2.24,2.41c-0.003,0.418,0.107,0.83,0.32,1.19h0.07c-0.015-0.156-0.015-0.313,0-0.47 c0-0.502,0.157-0.992,0.45-1.4c0.313-1.013,1.25-1.703,2.31-1.7h0.17c-0.748,0.056-1.427,0.455-1.84,1.08 c1.11-0.735,2.605-0.43,3.34,0.68c0.259,0.392,0.398,0.851,0.4,1.32c0.005,0.09,0.005,0.18,0,0.27 c4.227,1.127,6.739,5.467,5.612,9.693c-0.115,0.431-0.266,0.851-0.452,1.256L392.082,212.736z" enable-background="new" opacity=".2"/><rect id="svg_191" width="76.96" height="2.72" x="78.598" y="196.16" fill="#3C74F3" enable-background="new" opacity=".2"/><rect id="svg_192" width="76.96" height="2.72" x="78.598" y="202.78" fill="#3C74F3" enable-background="new" opacity=".2"/><rect id="svg_193" width="76.96" height="2.72" x="78.598" y="209.4" fill="#3C74F3" enable-background="new" opacity=".2"/><linearGradient id="svg_194_1_" x1="88.635" x2="88.635" y1="-142.411" y2="262.419" gradientTransform="matrix(205.3006 0 0 -404.8932 -18028.4219 244013.2969)" gradientUnits="userSpaceOnUse"><stop offset="0" stop-color="gray" stop-opacity=".25"/><stop offset=".54" stop-color="gray" stop-opacity=".12"/><stop offset="1" stop-color="gray" stop-opacity=".1"/></linearGradient><path id="svg_194" fill="url(#svg_194_1_)" d="M271.027,344.12c-0.568-3.041-0.902-6.119-1-9.211c0-3.699-5-7-5-7 s-3.11-7.199-5.15-8.25c-2.04-1.049-8.47-10.479-8.47-10.479c-0.073-1.858-0.75-3.643-1.93-5.08 c-1.917-2.521-3.667-5.162-5.24-7.91l0,0c-0.86-1.06-0.43-1.8-1.72-7.94c-0.073-0.32-0.153-0.63-0.24-0.93 c0-0.14-0.09-0.26-0.13-0.39c2.802-2.818,3.75-6.988,2.44-10.74c-0.238-0.729-0.662-1.385-1.23-1.9c-1.46-1.19-3.79-0.7-5.29-1.83 l1.59-7.06c0.39-1.72,0.59-3.92-0.93-4.85c-0.566-0.272-1.164-0.474-1.78-0.6c-2.62-0.83-4.09-3.59-4.76-6.23 c-0.652-2.546-0.828-5.19-0.52-7.8c0.29-2.5,1-4.94,1.3-7.45c0.481-4.652-0.637-9.329-3.17-13.26 c-0.995-1.687-2.447-3.057-4.19-3.95c-1.61-0.72-3.48-0.81-5-1.76c-3.22-2-3.06-6.89-5.62-9.7s-7.11-2.78-10.85-1.82 c-3.74,0.96-7.45,2.61-11.29,2.18c-2.47-0.27-4.79-1.39-7.26-1.65c-0.711-0.072-1.429-0.038-2.13,0.1l0.05-0.09 c-1.84,0.33-3.52,1.35-3.95,3.09c-0.096,0.413-0.136,0.836-0.12,1.26c0,1,0.24,2.06,0.26,3c0.06,0.775-0.192,1.542-0.7,2.13 c-0.49,0.53-1.22,0.81-1.7,1.35c-0.416,0.423-0.643,0.997-0.63,1.59c0,1.54,1.92,2.89,3.21,3.51l0,0c-0.35,0.35-0.69,0.71-1,1.08 c-3.666,4.184-5.669,9.567-5.63,15.13c0.036,9.2,5.539,17.498,14,21.11c-0.06,0.19-0.11,0.37-0.18,0.56 c-0.355,1.114-0.776,2.206-1.26,3.27c-1.81-0.61-3.797-0.39-5.43,0.6c-2.47,1.69-7.29,1.59-8.58,1.27 c-1.29-0.32-14.69-2-15.76-1.59c-1.07,0.41-3.22-1.48-4.61,1.06c-1.39,2.54-2,3.92-3.43,4.55c-1.43,0.63-3.86,2.65-3.54,3.07 c0.32,0.42-3.54,3-3.54,3s-3.32,3.49-5.25,3.92c-1.93,0.43-6,3.07-6,3.07l-4.72,3.7c0,0-3.54,0.53-2.47-1.9 c1.07-2.43-1.93-5.51-1.93-5.51s-6-12.17-6-14.7c0-2.53-4.93-13.23-4.93-13.23l-0.61-0.06c-0.09-0.26-0.18-0.52-0.28-0.79 c-0.9-2.55-2.07-5.67-3-7.51c-1.7-3.49-2.8-3.89-2.8-3.89s-20.8-15.62-34.31-10.86c-13.51,4.76,24.66,18.94,28.09,20.43 c1.2,0.51,2.06,2.19,2.67,4.14c-3.037,1.486-5.586,3.807-7.35,6.69c0,0,8.25,18.3,8.46,22.85c0.21,4.55,5.69,17.25,5.69,17.25 s2,9.42,13.08,8.891c0,0,15.22,2.79,18.54,0c3.32-2.79,6.33-5,7.94-5.311c1.19-0.39,2.235-1.129,3-2.12c0,0-5,31.741-7.5,34.5 s-24.34,38.41-16.52,44.75c6.205,4.818,12.764,9.164,19.62,13c0.67,0.33,2.66-3,5.51-5.35c0,0.59,0,1.199,0,1.83 c0.05,12.68,1.7,32,4.05,36.32c3.43,6.35,2,18.629,2,18.629c1.819,0.852,3.792,1.326,5.8,1.391c0.1,0.41,0.22,0.84,0.34,1.289 c1.89,7.141,4.95,18.18,6.51,21.121c2.37,4.449,4.08,18.52,4.08,18.52s1.39,13.859,0.86,15.77c-0.21,0.73,0.7,6.48,2.12,13.781l0,0 c-0.87,9.92-2.5,29.049-2.78,36l0,0c0,0.129,0,0.26,0,0.389v0.35c0,0.15,0,0.291,0,0.42l0,0c-0.036,0.434-0.036,0.869,0,1.301 c0.121,0.668,0.072,1.355-0.14,2c-0.602,1.916-1.382,3.77-2.33,5.541c-0.05,0.18-0.63,1.379-1,2.689 c-0.85,0.369-1.91,1.299-2.5,3.549c-1.07,4.131-2.68,15.561-2.68,15.561s-0.64,7-1.93,8.57s-2.57,11.529,6.54,12.801 c9.11,1.27,13.08-4.842,13.08-4.842l-0.32-27.699l0,0c0.185-0.234,0.342-0.49,0.47-0.76v-0.061c0.06-0.139,0.13-0.27,0.19-0.43 s0-0.131,0.08-0.199c0.08-0.07,0.09-0.221,0.13-0.34c-0.004-0.041-0.004-0.08,0-0.121c0.888-2.654,1.151-5.477,0.77-8.25 c0,0,0-0.09,0-0.141v-0.219c0-0.07,0-0.141,0-0.211c0.005-0.063,0.005-0.127,0-0.189c-0.005-0.08-0.005-0.16,0-0.24v-0.17 c0-0.18,0-0.369,0.06-0.561c-0.005-0.035-0.005-0.072,0-0.109c0-0.109,0-0.221,0-0.33c0.005-0.049,0.005-0.1,0-0.15 c0-0.109,0.05-0.229,0.07-0.35v-0.08c0.08-0.41,0.19-0.82,0.3-1.25v-0.09l0.12-0.42l0,0c0.14-0.449,0.29-0.891,0.44-1.33v-0.09 l0.15-0.41v-0.051c0.15-0.42,0.31-0.83,0.47-1.219v-0.111l0.15-0.35v-0.1l0.33-0.779l0,0l2.53,7.809c0,0,1.39,5.82,0.64,7.191 c-0.75,1.369,0.86,7.1,1.93,7.199l-1,7.201c-0.552,3.979-0.886,7.984-1,12c-0.07,0.449-0.14,0.84-0.19,1.139 c-0.69,3.68,1,9.4,1,9.4c8.47,10,18.55,0.779,18.55,0.779s1.18-5.299,0-6.35c-1.18-1.049-0.64-4.869-0.64-4.869 s0.53-9.42,0.64-16.301c0.11-6.879-5.63-12.93-5.63-12.93l-0.32,0.291c-1-2.691-2.23-5.842-2-7.25 c0.43-2.432-1.18-28.141-1.18-28.141c0.588-6.877,0.712-13.787,0.37-20.68l0,0c0.14-1.17,0.27-2.32,0.4-3.43 c0.65-5.531,1.17-10.262,1.38-12.73l0,0v-0.291c0.05-0.67,0.08-1.139,0.07-1.369c0-0.82,0-1.85,0.08-2.93 c0.21-3,0.67-6.281,0.67-6.281l2.25-13.648c0,0,1.71-6.66,4.18-10.371l0.29-0.471l0,0c0.1-0.158,0.2-0.34,0.3-0.529v-0.08l0.3-0.57 v-0.08c0.35-0.68,0.72-1.469,1.1-2.33l0.09-0.189l0.29-0.66l0.11-0.26l0.29-0.66c0-0.09,0.07-0.17,0.11-0.26 c0.11-0.27,0.22-0.539,0.34-0.811l0.16-0.389c0.09-0.201,0.17-0.4,0.25-0.611l0.22-0.52l0.15-0.391l0.24-0.59 c0-0.09,0.08-0.18,0.11-0.27c0.61-1.529,1.21-3,1.73-4.42l0,0c0.17-0.43,0.33-0.84,0.48-1.24c5.49,0.34,9.22,0.65,9.22,0.65 s1.72-12.381,1.18-20.529c-0.37-5.561,0.66-12.561,1.35-16.432c0.08-0.43,0.15-0.809,0.21-1.148l0.15,0.119 c2.69,2.109,4.61-4.869,4.61-4.869s-0.72-6.531-1.69-14.42c0-0.262-0.07-0.531-0.1-0.791c1.548,0.33,3.114,0.57,4.69,0.721 c0,0,0.86-0.08,2-0.23c3.235,1.85,6.645,3.377,10.18,4.561l5.68-10.58c1.072-2.182,2.327-4.27,3.75-6.24 c1.72-2.121,7.83-8.891,7.72-10.16c-0.11-1.27,2-8.57,4.18-11.85C269.877,351.319,271.147,344.659,271.027,344.12z M247.228,352.12 c-2.25,0.949-4.4,6.24-4.5,7.83s-2.47,8.57-4.94,9.42c-2.26,0.779-6.6,4.76-7.29,5.4c-0.71,0.07-1.51,0.16-2.35,0.299 c-0.94-6.68-1.87-12.199-2.47-13.32c-1.71-3.18,1.89-13.33,1.89-13.33s0.36-10.26,2.61-12.699s1.72-8.57,1.72-8.57 s0.53-2.539,0.75-3.699s3.19,0,3.21,0l0,0c0,0,5.79,3.17,6.65,7.93s7.18,13,7.18,13s-1,2.85,0,4.34s-0.2,2.49-2.45,3.439 L247.228,352.12z"/><path id="svg_195" fill="#4C4981" d="M92.177,261.73c3.611-5.949,10.437-9.152,17.32-8.13v12.36h-7.47l-5.92-1.53L92.177,261.73z"/><path id="svg_196" d="M92.177,261.73c3.611-5.949,10.437-9.152,17.32-8.13v12.36h-7.47 l-5.92-1.53L92.177,261.73z" enable-background="new" opacity=".1"/><path id="svg_197" fill="#AE6E79" d="M110.027,256.87l-9.19,6.45c0,0-0.08-1.3-0.31-3.06c-0.46-3.33-1.49-8.33-3.71-9.3 c-3.38-1.48-41-15.63-27.66-20.38c13.34-4.75,33.79,10.83,33.79,10.83s1.06,0.36,2.74,3.85c0.89,1.83,2,4.95,2.94,7.49 C109.438,255.05,110.027,256.87,110.027,256.87z"/><polygon id="svg_198" fill="#4C4981" points="183.507 266.8 184.547 266.3 187.487 269.65 185.087 274.77 180.998 273.13 181.947 269.04"/><path id="svg_199" fill="#444053" d="M169.587,566.729c0,0-2.64-0.311-3.7,3.801c-1.06,4.109-2.64,15.529-2.64,15.529 s-0.63,7-1.9,8.551c-1.27,1.549-2.53,11.51,6.44,12.779c8.97,1.27,12.89-4.83,12.89-4.83l-0.32-27.699L169.587,566.729z"/><path id="svg_200" fill="#444053" d="M200.897,567.979c0,0,5.65,6,5.55,12.9c-0.1,6.9-0.64,16.27-0.64,16.27 s-0.52,3.801,0.64,4.861c1.16,1.059,0,6.33,0,6.33s-9.93,9.219-18.27-0.771c0,0-1.63-5.709-1-9.389 c0.63-3.682,2.53-20.25,2.53-20.25L200.897,567.979z"/><path id="svg_201" fill="#AE6E79" d="M214.897,441.659c0,0-5.71,16-8.14,19.641c-2.43,3.641-4.11,10.359-4.11,10.359l-2.22,13.631 c-0.436,3.045-0.683,6.113-0.74,9.189c0.1,3.061-5.49,47.73-5.49,47.73l-8.87,11.301c0,0-3.91,7.92-3.28,11.199 s-0.42,8.551-1.69,10.131c0,0-0.21,10.35-0.53,12.68c-0.32,2.33,1.17,8.869,0,10c-1.17,1.129-16.68,0.629-17.11-1.271 c-0.43-1.898,1.91-11.09,1.91-11.09l1.37-8.869c0,0,2.74-4.859,2.11-6.439s1.16-5.281,1.27-5.602c0.11-0.318,3-5.488,2.43-7.488 c-0.57-2,3.27-44.57,3.27-44.57l10.88-76.361L214.897,441.659z"/><path id="svg_202" d="M214.897,441.659c0,0-0.86,2.4-2.06,5.561 c-1.88,5-4.59,11.82-6.08,14.08c-2.43,3.699-4.12,10.35-4.12,10.35l-2.21,13.631c-0.435,3.041-0.682,6.107-0.74,9.18 c0,1.209-0.81,8.93-1.85,17.811c-1.6,13.59-3.64,29.93-3.64,29.93l-8.88,11.299c0,0-0.45,0.91-1,2.23c-1.11,2.59-2.68,6.801-2.26,9 c0.63,3.281-0.42,8.561-1.69,10.141c0,0-0.21,10.359-0.53,12.67s1.17,8.879,0,10c-1.17,1.119-16.68,0.641-17.11-1.27 c-0.43-1.91,1.9-11.08,1.9-11.08l1.38-8.881c0,0,2.74-4.859,2.11-6.439c-0.63-1.58,1.16-5.281,1.27-5.6c0.11-0.32,3-5.49,2.43-7.5 c-0.41-1.531,1.7-26.541,2.72-38.4c0.33-3.74,0.55-6.16,0.55-6.16l9.36-65.689l0.75-5.301l0.77-5.369L214.897,441.659z" enable-background="new" opacity=".1"/><path id="svg_203" fill="#AE6E79" d="M205.387,600.53c0.1,1.16-14.89,2.85-17,1.58c-2.11-1.27,0-17,0-17l1-7.18 c-1.06-0.111-2.64-5.811-1.9-7.191c0.74-1.379-0.64-7.18-0.64-7.18l-2.49-7.799l-1.52-4.762c-2.46-5.449-6-21-8.26-32.6 c-1.4-7.289-2.29-13-2.09-13.77c0.53-1.9-0.85-15.73-0.85-15.73s-1.68-14-4-18.48c-1.54-2.939-4.55-14-6.42-21.09 c-0.95-3.648-1.61-6.27-1.61-6.27s16-1.34,25.64-1.811c4.46-0.209,7.58-0.238,7.21,0.131s-0.45,2.301-0.43,5.09 c0,7.25,1.05,20,2.12,23.42c1.48,4.75,3,19,2.32,20.381c-0.68,1.379-0.42,10.559-0.42,10.559c1.084,3.734,1.706,7.586,1.85,11.471 c0.336,6.881,0.212,13.775-0.37,20.641c0,0,1.59,25.66,1.16,28.09s3.38,10,3.38,11.51s0.96,11.51,0.96,11.51 S205.288,599.37,205.387,600.53z"/><path id="svg_204" fill="#AE6E79" d="M213.728,292.04l-1.82,2l-1.18,1.27l-6.92,7.35l-17.85,2l-9.48-2.54l-2.35-0.62 c0,0,0-4.77,0.43-10.49c0.6-7.33,2.05-16.24,5.49-18.66c1.723-1.352,3.095-3.097,4-5.09c0.691-1.374,1.27-2.802,1.73-4.27 c0.07-0.19,0.12-0.37,0.18-0.55c0.783-2.561,1.345-5.184,1.68-7.84c0,0,2.28-1.26,5.44-2.73c8.27-3.86,22.55-9.18,17.58,2.73 c-0.732,1.746-1.354,3.536-1.86,5.36c-0.08,0.26-0.15,0.53-0.21,0.79c-1.66,6.64-0.56,10.66,0.68,12.88l0,0 c0.213,0.38,0.454,0.745,0.72,1.09c0.334,0.467,0.739,0.878,1.2,1.22l2.06,13.05l0.17,1.08L213.728,292.04z"/><path id="svg_205" d="M210.667,255.29C209.728,257.55,211.127,253.44,210.667,255.29 c-3.76,2.68-12.63,10.3-17.62,10.3c-3.36,0-4.37-0.61-7.26-1.91c0.875-2.734,1.498-5.542,1.86-8.39 C187.647,255.29,217.527,238.81,210.667,255.29z" enable-background="new" opacity=".1"/><path id="svg_206" fill="#AE6E79" d="M218.257,241.41c0.008,11.783-8.891,21.666-20.61,22.89c-0.8,0.089-1.605,0.132-2.41,0.13 c-12.703,0-23-10.297-23-23c0-12.702,10.297-23,23-23s23,10.298,23,23l0,0L218.257,241.41z"/><path id="svg_207" d="M221.547,343.47l-3.27,8.561c0,0-2.68,0.119-6.84,0.25 c-14,0.449-45,1-46.39-2.58c-0.317-0.914-0.479-1.873-0.48-2.84c-0.19-5.5,2.38-13.951,2.38-13.951s1.48-16.898,1.48-17.629 c0-0.729-1.27-12.62-1.27-12.62l2.53-9.5l7.08-5c0,0,3.17,4.86,5.07,5.28s4.44,2.75,4.44,2.75s6.22,3.8,8.23,1.68 c2.01-2.12,17.64-11.4,17.64-11.4l8.24,9.08L221.547,343.47z" enable-background="new" opacity=".1"/><path id="svg_208" fill="#D84F4F" d="M221.547,344.739l-3.27,8.561c0,0-2.68,0.119-6.84,0.24h-0.41l-6.07,0.16 c-11.16,0.25-26.55,0.32-34.58-0.85c-3-0.441-5-1-5.33-1.9c-0.187-0.508-0.314-1.033-0.38-1.57c-0.055-0.422-0.088-0.846-0.1-1.27 c-0.19-5.5,2.38-14,2.38-14s1.48-16.9,1.48-17.641c0-0.74-1.27-12.57-1.27-12.57l2.53-9.5l4.87-3.41l2.21-1.55 c0.742,1.113,1.554,2.179,2.43,3.19c0.678,0.917,1.589,1.636,2.64,2.08c1.9,0.43,4.44,2.75,4.44,2.75s6.22,3.81,8.23,1.69 c1.54-1.62,11-7.43,15.42-10.08l2.22-1.33l1.11,1.23l7.13,7.86L221.547,344.739z"/><path id="svg_209" d="M110.027,256.87l-9.19,6.45c0,0-0.08-1.3-0.31-3.06 c4.54-1.91,7.3-6.15,8.1-7.51C109.438,255.05,110.027,256.87,110.027,256.87z" enable-background="new" opacity=".1"/><path id="svg_210" fill="#3A2F2F" d="M142.337,278.73l-2-0.52c0,0-3.28,3.48-5.18,3.9c-1.9,0.42-5.91,3.07-5.91,3.07l-4.65,3.69 c0,0-3.49,0.53-2.43-1.9c1.06-2.43-1.9-5.49-1.9-5.49s-5.91-12.15-5.91-14.68c0-2.53-4.86-13.2-4.86-13.2s-6.13,11.93-17.32,8.13 c0,0,8.13,18.27,8.34,22.81s5.6,17.22,5.6,17.22s2,9.399,12.88,8.869c0,0,15,2.79,18.27,0c3.27-2.789,6.23-5,7.82-5.3 c1.172-0.393,2.199-1.128,2.95-2.109V290.66L142.337,278.73z"/><path id="svg_211" fill="#3A2F2F" d="M123.538,290.66c0,0,2.64,9.82,1,10.88 L123.538,290.66z" enable-background="new" opacity=".1"/><path id="svg_212" d="M211.438,353.54c-14,0.449-45,1-46.39-2.57 c-0.317-0.914-0.479-1.873-0.48-2.84l45.89,2.42L211.438,353.54z" enable-background="new" opacity=".1"/><path id="svg_213" d="M214.897,441.659c0,0-0.86,2.4-2.05,5.561 c-5.83-0.359-13.55-0.73-20.88-0.779c-2.6,0-5.14,0-7.53,0.08c-4.141,0.002-8.27,0.463-12.31,1.369 c-3.559,1.098-7.28,1.574-11,1.41c-0.95-3.65-1.61-6.27-1.61-6.27s16-1.34,25.64-1.811l0.77-5.369L214.897,441.659z" enable-background="new" opacity=".1"/><path id="svg_214" fill="#65617D" d="M227.248,403.04l-1.79,3.801c0,0-0.25,1.129-0.57,2.93c-0.68,3.859-1.7,10.85-1.34,16.398 c0.54,8.131-1.16,20.48-1.16,20.48s-38.86-3.27-50.26,0s-17,0-17,0s1.37-12.25-2-18.58c-2.32-4.34-3.94-23.6-4-36.25 c0-5.85,0.29-10.279,1-11.17c2.32-2.859,12.25-31.369,12.25-31.369l2.26,0.119l6,0.32l34.39,1.811l5.39,0.279l0.57,1.75 L227.248,403.04z"/><path id="svg_215" fill="#4C4981" d="M244.357,390.36l0.32,3.379c0,0-17-5.539-16.16-12.35c0.84-6.811,0-6,0-6l13.68,1.16 L244.357,390.36z"/><path id="svg_216" d="M244.357,390.36l0.32,3.379c0,0-17-5.539-16.16-12.35 c0.84-6.811,0-6,0-6l13.68,1.16L244.357,390.36z" enable-background="new" opacity=".1"/><path id="svg_217" d="M134.897,293.39c1.74,1.478,3.791,2.544,6,3.12 c-0.651-0.122-1.26-0.407-1.77-0.83c-1.22-0.87-2.38-1.81-3.55-2.73c-0.94-0.74-2.13-2-3.3-2.27 C133.055,291.671,133.933,292.58,134.897,293.39z" enable-background="new" opacity=".1"/><path id="svg_218" d="M135.157,297.84c0.551,0.618,0.995,1.325,1.31,2.09 c0.273,0.873,0.401,1.785,0.38,2.699c0.138,1.296-0.022,2.606-0.47,3.83l-2.77-6.569c-0.47-1.12-1-2.24-1.52-3.32 c-0.25-0.46-1.82-2.36-1.64-2.76C130.967,292.66,134.647,297.21,135.157,297.84z" enable-background="new" opacity=".1"/><path id="svg_219" d="M211.297,334.28c1.87-0.219,3.622-1.027,5-2.311 c-2.81,0.35-5.46,1.449-8.23,2c-2.565,0.6-5.255,0.354-7.67-0.699C203.547,334.851,207.877,334.899,211.297,334.28z" enable-background="new" opacity=".1"/><path id="svg_220" d="M203.368,314.95c-0.506,0.079-1.022-0.051-1.43-0.359 c-2.107-1.2-4.187-2.46-6.24-3.78c-2.167-1.204-4.209-2.617-6.1-4.22C193.788,310.379,197.688,313.58,203.368,314.95z" enable-background="new" opacity=".1"/><path id="svg_221" d="M209.228,337.351c1.103,0.049,2.208-0.039,3.29-0.26 c1.095-0.232,2.063-0.867,2.71-1.781c-0.392-0.094-0.805-0.029-1.15,0.18c-3.346,1.406-7.018,1.846-10.6,1.271 C205.188,337.489,207.397,337.341,209.228,337.351z" enable-background="new" opacity=".1"/><path id="svg_222" d="M189.217,386.38c-2.199,0.672-4.46,1.117-6.75,1.33 c-1.78,0.082-3.564,0.049-5.34-0.1l-8.65-0.551l-4.33-0.279c-0.51,0-2.6,0-1.57-1c0.52-0.49,3.41-0.18,4.15-0.201 c1.44,0,2.87-0.068,4.3-0.08c2.86,0,5.73,0,8.59,0.182C182.831,385.806,186.031,386.04,189.217,386.38z" enable-background="new" opacity=".1"/><path id="svg_223" d="M179.208,390.659c-1.47-0.059-3.36,0.82-4.87,1 c-1.688,0.205-3.391,0.275-5.09,0.211c-3.369-0.084-6.697-0.76-9.83-2C166.027,390.2,172.618,390.399,179.208,390.659z" enable-background="new" opacity=".1"/><path id="svg_224" d="M160.708,395.19c0.64,0.129,1.271,0.301,1.89,0.51 c3.64,1.049,7.52,0.129,11.19-0.781c-0.92,1.381-2.63,2-4.25,2.361c-2.712,0.678-5.536,0.779-8.29,0.299 c-0.87-0.17-3-0.479-3.48-1.379C157.107,394.87,159.897,395.06,160.708,395.19z" enable-background="new" opacity=".1"/><path id="svg_225" d="M181.157,401.999c1.091,0.223,2.169,0.502,3.23,0.842 c4.1,1,8.36-0.381,12.48-1.32c4.953-1.131,10.033-1.602,15.11-1.4c-0.91,0-2.35,0.799-3.24,1.07c-1.17,0.35-2.35,0.67-3.53,1 c-2.329,0.578-4.685,1.039-7.06,1.379c-4.793,0.695-9.645,0.906-14.48,0.631c-2.21-0.121-6,0.109-7.94-1 C177.359,402.222,179.265,401.802,181.157,401.999z" enable-background="new" opacity=".1"/><path id="svg_226" d="M182.688,271.75c0,0,0.21,9.73-1.38,14.16 c-0.49,1.38-1.27,3.93-2.11,6.79c-0.93,3.17-1.94,6.72-2.72,9.47c-0.78,2.75-1.29,4.65-1.29,4.65s-3.57,29.06-4.5,42.9 c0,0.24,0,0.49,0,0.721c-0.05,0.779-0.14,1.59-0.26,2.43c-2.06,13.75-13.92,34.949-17.9,36.65c-1.239,0.57-2.372,1.348-3.35,2.299 c0-5.85,0.29-10.279,1-11.17c2.32-2.859,12.25-31.369,12.25-31.369l2.26,0.119c-0.055-0.422-0.088-0.846-0.1-1.27 c-0.19-5.5,2.38-14,2.38-14s1.48-16.9,1.48-17.641c0-0.74-1.27-12.57-1.27-12.57l2.53-9.5l4.87-3.41 c0.6-7.33,2.05-16.24,5.49-18.66c1.723-1.352,3.095-3.097,4-5.09c0.69,0.09-0.56-0.51-0.56-0.51L182.688,271.75z" enable-background="new" opacity=".1"/><path id="svg_227" fill="#3A2F2F" d="M184.547,266.3c-1.785-0.604-3.747-0.381-5.35,0.61c-2.43,1.68-7.18,1.58-8.45,1.26 s-14.47-2-15.52-1.58c-1.05,0.42-3.17-1.48-4.54,1.05c-1.37,2.53-2,3.91-3.38,4.55c-1.38,0.64-3.81,2.64-3.49,3.06s-3.48,3-3.48,3 l7.7,25c0,0-5,31.681-7.39,34.419c-2.39,2.74-24,38.342-16.26,44.682c6.107,4.809,12.565,9.154,19.32,13 c0.85,0.42,3.91-5.281,8.14-7.08c4.23-1.801,17.32-25.611,18.18-39.09c0.86-13.48,4.54-43.621,4.54-43.621s4.54-16.48,6.13-20.91 c1.59-4.43,1.33-14.17,1.33-14.17L184.547,266.3z"/><path id="svg_228" d="M227.248,403.04l-1.79,3.801c0,0-0.25,1.129-0.57,2.93 c-0.336-0.035-0.653-0.172-0.91-0.391c-2.64-2.119-18.17-18.061-18.9-32.221c-0.55-10.439-0.29-19.43-0.12-23.439 c0.06-1.26,0.1-2,0.11-2.189l0,0c0,0,12-14.58,10.66-19.75c-1.34-5.17-4.54-32.85-4.54-32.85l-0.47-3.63l-0.8-6.13l-1.89-14.86 l2,0.46c0.334,0.467,0.739,0.878,1.2,1.22l2.06,13.05l7.13,7.86l1.16,47.839l-3.27,8.561c0,0-2.68,0.119-6.84,0.24h-0.41 L227.248,403.04z" enable-background="new" opacity=".1"/><path id="svg_229" fill="#3A2F2F" d="M233.907,324.04c0,0-3-1.16-3.17,0s-0.74,3.689-0.74,3.689s0.52,6.131-1.69,8.561 c-2.21,2.43-2.57,12.67-2.57,12.67s-3.55,10.141-1.87,13.311c0.61,1.148,1.56,6.92,2.51,13.82c0.6,4.309,1.2,9.059,1.74,13.389 c1,7.891,1.67,14.4,1.67,14.4s-1.9,7-4.54,4.859c-2.64-2.139-18.17-18.08-18.91-32.209c-0.52-9.951-0.31-18.58-0.14-22.84 c0.08-1.811,0.14-2.83,0.14-2.83s12-14.57,10.67-19.74s-4.54-32.85-4.54-32.85l-0.56-4.27l-0.59-4.6l-0.13-1l-1.91-14.74l0,0 c0.34,0.07,12.19,2.75,13.75,4.31s11.19,3.8,11.19,3.8c2.971,0.81,5.269,3.168,6,6.16c0.09,0.29,0.16,0.6,0.23,0.92 c1.27,6.13,0.85,6.86,1.7,7.92S233.907,324.04,233.907,324.04z"/><path id="svg_230" d="M228.118,389.479c-4.34-0.84-10.73-2.85-10.59-7.25 c0.14-4.129,5.1-5.609,8.85-6.139C227.027,380.399,227.578,385.149,228.118,389.479z" enable-background="new" opacity=".1"/><path id="svg_231" fill="#AE6E79" d="M241.507,387.3c-0.17,0.369-0.89,0.689-1.84,1c-2.302,0.551-4.642,0.932-7,1.141 c0,0-14.68-1.16-14.47-7.811c0.15-4.779,6.78-6,10.51-6.33c1.46-0.131,2.48-0.109,2.48-0.109S242.147,385.931,241.507,387.3z"/><path id="svg_232" d="M241.507,387.3c-0.17,0.369-0.89,0.689-1.84,1 c-3.83-5.119-9.17-11.689-11.78-12.27c0,0,0.3-0.291,0.79-0.73c1.46-0.131,2.48-0.109,2.48-0.109S242.147,385.931,241.507,387.3z" enable-background="new" opacity=".1"/><path id="svg_233" fill="#3A2F2F" d="M237.808,296.16l4.33,0.63c1.557,2.747,3.287,5.392,5.18,7.919 c1.162,1.442,1.829,3.22,1.9,5.07c0,0,6.34,9.401,8.34,10.46c2,1.061,5.07,8.24,5.07,8.24s5,3.27,5,7 c0.084,3.08,0.402,6.148,0.95,9.18c0.1,0.531-0.74,7.08-2.86,10.352c-2.12,3.27-4.22,10.559-4.11,11.83 c0.11,1.27-5.92,8-7.61,10.139c-1.404,1.969-2.639,4.053-3.69,6.23l-5.6,10.561c0,0-11.83-17.42-16.16-18.371 c0,0,4.86-4.65,7.29-5.49c2.43-0.84,4.75-7.818,4.86-9.398c0.11-1.58,2.21-6.871,4.43-7.82c2.22-0.951,3.38-1.9,2.43-3.381 c-0.95-1.48,0-4.33,0-4.33s-6.23-8.24-7.08-13s-6.54-7.92-6.54-7.92l-3.28-8L237.808,296.16z"/><path id="svg_234" d="M253.518,335.579c2.39-2.02,5.401-3.16,8.53-3.229 c-2,0.35-4.12,0.779-5.58,2.18c-0.578,0.613-1.094,1.283-1.54,2c-0.51,0.719-4.58,5.9-5.23,5.09 C248.728,340.38,252.697,336.28,253.518,335.579z" enable-background="new" opacity=".1"/><path id="svg_235" d="M243.958,330.579c1.312-0.115,2.459-0.93,3-2.129 c0.514-1.191,0.831-2.457,0.94-3.75c0.311-2.16,0.748-4.3,1.31-6.41c0.144-0.432,0.215-0.885,0.21-1.34 c-0.052-0.449-0.184-0.887-0.39-1.291c-0.231-0.673-0.54-1.317-0.92-1.92c-0.79,0.89-1,2.88-1.33,4 c-0.387,1.441-0.756,2.881-1.11,4.321C245.498,322.819,244.027,330.579,243.958,330.579z" enable-background="new" opacity=".1"/><path id="svg_236" d="M240.217,287.95c-0.429,0.553-0.919,1.056-1.46,1.5 c-1.69,1.37-4,2.53-4.24,4.69c0.061,0.706-0.024,1.417-0.25,2.09c-0.55,0.94-1.91,0.87-3,0.68c-0.91-0.085-1.782-0.406-2.53-0.93 c-1.13-1-1.24-2.7-2.1-3.91c-1.054-1.266-2.633-1.975-4.28-1.92c-1.62-0.05-3.23,0.31-4.84,0.39c-1.038,0.05-2.079-0.02-3.1-0.21 c-0.34-0.06-0.67-0.13-1-0.21c-0.723-0.18-1.428-0.421-2.11-0.72c-0.342-0.143-0.675-0.303-1-0.48c-1.088-0.552-2.098-1.249-3-2.07 c-1.58-1.46-2.89-3.45-2.76-5.61c0.227-1.296,0.527-2.578,0.9-3.84c0.65-3.73-1.83-7.26-4.52-9.93c-1.07-1.05-2.21-2.09-3.28-3.17 c-1.669-1.535-2.989-3.411-3.87-5.5c-0.706-2.22-0.94-4.563-0.69-6.88c0.25-2.354,0.319-4.725,0.21-7.09 c-0.8-8.4-8-14.83-15.14-18.34l-0.31-0.16c8.45-9.484,22.989-10.322,32.473-1.871c9.484,8.45,10.322,22.989,1.871,32.473 c-1.01,1.134-2.13,2.165-3.344,3.078c-0.08,0.26-0.15,0.53-0.21,0.79c-1.66,6.64-0.56,10.66,0.68,12.88l0,0 c0.34,0.07,12.19,2.75,13.75,4.31s11.19,3.8,11.19,3.8C237.213,282.612,239.493,284.969,240.217,287.95z" enable-background="new" opacity=".1"/><path id="svg_237" fill="#444053" d="M176.257,220.21c0.47-0.54,1.19-0.82,1.67-1.35c1.49-1.62,0-4.27,0.55-6.41 c0.59-2.38,3.5-3.42,5.94-3.16c2.44,0.26,4.72,1.37,7.15,1.64c3.78,0.43,7.44-1.21,11.13-2.17s8.14-1,10.69,1.81 c2.55,2.81,2.36,7.64,5.521,9.69c1.46,0.94,3.3,1,4.88,1.75c1.728,0.893,3.161,2.264,4.13,3.95c2.497,3.934,3.593,8.596,3.11,13.23 c-0.26,2.5-1,4.94-1.28,7.44c-0.301,2.603-0.128,5.239,0.51,7.78c0.67,2.63,2.11,5.39,4.7,6.22c0.606,0.126,1.194,0.327,1.75,0.6 c1.49,0.92,1.3,3.12,0.92,4.83l-1.6,7.05c1.48,1.13,3.77,0.64,5.21,1.83c0.568,0.512,0.986,1.169,1.21,1.9 c1.41,4.058,0.178,8.564-3.1,11.34c-1.69,1.38-4,2.53-4.24,4.7c0.064,0.703-0.021,1.412-0.25,2.08c-0.55,0.94-1.91,0.87-3,0.68 c-0.907-0.083-1.776-0.404-2.52-0.93c-1.14-1-1.24-2.7-2.1-3.91c-1.054-1.266-2.633-1.975-4.28-1.92 c-1.63-0.05-3.23,0.31-4.85,0.39c-3.756,0.163-7.426-1.163-10.21-3.69c-1.705-1.366-2.719-3.416-2.77-5.6 c0.231-1.299,0.532-2.584,0.9-3.85c0.65-3.72-1.83-7.26-4.51-9.92c-2.68-2.66-5.84-5.13-7.15-8.68c-1.64-4.4,0-9.3-0.49-14 c-0.8-8.4-8-14.83-15.13-18.33C177.118,224.41,174.397,222.32,176.257,220.21z"/><path id="svg_238" d="M232.728,292.73c-1.13-1-1.23-2.69-2.09-3.91 c-1.062-1.26-2.643-1.964-4.29-1.91c-1.62-0.05-3.22,0.31-4.84,0.39c-3.749,0.171-7.415-1.136-10.21-3.64 c-1.59-1.46-2.89-3.46-2.77-5.61c0.231-1.295,0.532-2.577,0.9-3.84c0.65-3.73-1.83-7.26-4.52-9.93c-2.69-2.67-5.83-5.13-7.15-8.68 c-1.63-4.39,0-9.3-0.48-14c-0.8-8.4-8-14.84-15.14-18.34c-1.67-0.82-4.39-2.9-2.53-5c0.47-0.54,1.18-0.81,1.67-1.34 c1.49-1.62,0-4.28,0.55-6.42c0.104-0.421,0.287-0.818,0.54-1.17c-1.787,0.17-3.309,1.371-3.89,3.07c-0.53,2.14,0.94,4.8-0.55,6.42 c-0.48,0.53-1.2,0.8-1.67,1.34c-1.86,2.12,0.86,4.2,2.54,5c7.17,3.51,14.33,9.94,15.13,18.34c0.44,4.66-1.15,9.57,0.49,14 c1.31,3.55,4.46,6,7.15,8.68c2.69,2.68,5.16,6.2,4.51,9.93c-0.367,1.263-0.668,2.545-0.9,3.84c-0.12,2.15,1.18,4.15,2.77,5.61 c2.785,2.527,6.454,3.853,10.21,3.69c1.62-0.08,3.22-0.44,4.85-0.39c1.645-0.054,3.222,0.65,4.28,1.91c0.86,1.22,1,2.95,2.1,3.91 c0.744,0.526,1.613,0.847,2.521,0.93c1.08,0.2,2.44,0.27,3-0.68c0.191-0.384,0.274-0.813,0.24-1.24 C234.269,293.596,233.432,293.264,232.728,292.73z" enable-background="new" opacity=".1"/></g></svg>