<?xml version="1.0" encoding="utf-8"?>
<!-- Generator: Adobe Illustrator 16.0.0, SVG Export Plug-In . SVG Version: 6.00 Build 0)  -->
<!DOCTYPE svg PUBLIC "-//W3C//DTD SVG 1.1//EN" "http://www.w3.org/Graphics/SVG/1.1/DTD/svg11.dtd">
<svg version="1.1" id="_x38_13c2686-e70f-4fb0-bf6b-a2eb7b1db384"
	 xmlns="http://www.w3.org/2000/svg" xmlns:xlink="http://www.w3.org/1999/xlink" x="0px" y="0px" width="1121.039px"
	 height="851.8px" viewBox="0 0 1121.039 851.8" enable-background="new 0 0 1121.039 851.8" xml:space="preserve">
<title>interaction design</title>
<g opacity="0.9">
	<path opacity="0.1" fill="#007BFF" enable-background="new    " d="M1119.76,402.74c0,0,0,0.08,0,0.12
		c-0.004,0.02-0.004,0.041,0,0.06c0,0.29-0.08,0.58-0.13,0.87c-0.37,2.36-0.811,4.729-1.341,7.1
		c-3.609,16.19-11,32.231-20.89,46.731c-0.391,0.559-0.78,1.119-1.181,1.67c-0.761,1.09-1.53,2.16-2.319,3.229
		c-0.551,0.73-1.101,1.461-1.67,2.189c-3.884,5.041-8.071,9.84-12.541,14.369c-2.438,2.461-5,4.84-7.529,7.111l-1.12,1
		c-1.38,1.199-2.779,2.365-4.199,3.5c-0.61,0.488-1.229,1-1.851,1.449l-1.08,0.84l-0.771,0.57c-0.689,0.529-1.39,1-2.101,1.549
		l-0.5,0.352c-1.67,1.189-3.35,2.34-5.061,3.449c-3.646,2.363-7.414,4.533-11.289,6.5c-1.793,0.914-3.598,1.77-5.41,2.57
		c-2.2,0.98-4.417,1.877-6.65,2.689c-0.6,0.229-1.209,0.438-1.819,0.66c-1.71,0.59-3.439,1.141-5.159,1.641l-0.881,0.26
		l-0.439,0.119l0,0l-1.061,0.291c-5.145,1.393-10.367,2.48-15.641,3.26l-0.859,0.131l-0.449,0.068c-6.689,1-13.36,1.5-20,1.83
		c-9.145,0.5-18.308,0.5-27.45,0l-2.5-0.17h-0.449c-1.729-0.129-3.461-0.289-5.181-0.469c-1-0.104-2-0.211-3-0.34
		c-1.521-0.184-3-0.393-4.54-0.611h-0.069l-1.45-0.23c-1.311-0.211-2.601-0.432-3.891-0.689l-1.319-0.24l-2-0.41l-0.391-0.08
		c-4.188-0.898-8.293-1.992-12.319-3.279l-0.92-0.311c-2.92-0.973-5.787-2.057-8.601-3.25c-2.087-0.898-4.138-1.855-6.149-2.869
		c-2.881-1.461-5.688-3.029-8.42-4.711c-3.82-2.34-7.521-4.859-11.101-7.559c-4.71-3.51-9.24-7.291-13.641-11.211l-0.91-0.82
		l-1.659-1.5c-22.608-20.443-41.587-44.572-56.13-71.359c-1.521-2.841-2.993-5.728-4.42-8.66c-0.44-0.9-0.87-1.801-1.301-2.71
		c-0.038-0.071-0.07-0.146-0.101-0.221l-0.659-1.399c-1.801-3.88-3.5-7.851-5.101-11.87l-0.721-1.82l-1.12-2.939l-0.449-1.23
		c-1.38-3.733-2.666-7.517-3.859-11.35c-0.2-0.66-0.41-1.32-0.61-2c-0.634-2.08-1.235-4.175-1.81-6.28c-0.53-1.94-1-3.91-1.511-5.9
		c-0.08-0.31-0.149-0.619-0.22-0.939c-4-16.88-5.711-35.12-1.65-53.63c0.271-1.26,0.57-2.521,0.91-3.771
		c0.479-1.87,1-3.74,1.66-5.61c0.14-0.44,0.289-0.88,0.439-1.32l0.18-0.48c0-0.11,0.07-0.23,0.11-0.34
		c0.033-0.063,0.057-0.13,0.069-0.2c0.351-0.92,0.699-1.84,1.08-2.77c0.38-0.93,0.779-1.85,1.189-2.77l0,0l0.061-0.13
		c0-0.12,0.109-0.23,0.159-0.35c0.33-0.72,0.67-1.44,1-2.14l0.36-0.72l0.1-0.36c0.19-0.37,0.391-0.75,0.591-1.11
		c2.738-5.201,5.98-10.121,9.68-14.69c2.056-2.545,4.26-4.966,6.601-7.25c3.53-3.487,7.415-6.597,11.59-9.28
		c0.668-0.4,1.308-0.79,1.921-1.17c5.326-3.207,11.227-5.346,17.369-6.3c7.94-1.12,15.391,0.17,22.641,1.9l0.729,0.18
		c1.221,0.29,2.439,0.6,3.649,0.91c4.229,1.07,8.49,2.18,12.79,3.13c4,0.89,8,1.65,12.131,2.18c4.16,0.542,8.354,0.776,12.55,0.7
		c0.62,0,1.26,0,1.89-0.06c7.727-0.36,15.334-2.03,22.5-4.94c5.488-2.191,10.472-5.482,14.641-9.67
		c0.799-0.827,1.553-1.695,2.261-2.6l0,0c1.221-1.559,2.286-3.233,3.18-5c0.28-0.53,0.551-1.07,0.811-1.6l0,0
		c0.101-0.18,0.2-0.38,0.301-0.57l0,0l1.529-3l0,0c0.061-0.11,0.109-0.22,0.17-0.32c0.74-1.43,1.479-2.84,2.24-4.22
		c2.959-5.726,6.592-11.077,10.819-15.94l0,0c4.439-4.979,9.924-8.916,16.061-11.53c1-0.43,2-0.84,3.109-1.22
		c4.652-1.649,9.545-2.524,14.48-2.59c0.59,0,1.159,0,1.729,0c4.905,0.146,9.764,1.005,14.42,2.55l0,0
		c7.08,2.408,13.759,5.867,19.812,10.26c9.198,6.52,17.534,14.177,24.81,22.79c0.58,0.68,1.16,1.38,1.73,2.08
		c6.218,7.668,11.769,15.854,16.59,24.47c14.46,25.62,23.939,55.63,30.779,86.189l0.33,1.46c0.16,0.721,0.319,1.44,0.471,2.15
		c0.318,1.479,0.64,3,0.938,4.43c0.23,1.09,0.46,2.19,0.681,3.28l0,0c0.16,0.79,0.319,1.57,0.471,2.37c0.1,0.49,0.199,1,0.29,1.49
		c1.642,8.181,2.854,16.441,3.63,24.75c0,0.31,0,0.619,0.069,0.93C1121.412,382.269,1121.164,392.567,1119.76,402.74z"/>
	<path fill="#3F3D56" d="M1046.869,483.98c-1.101-0.289-3,1-5.439,3.109c-1.18,1-2.489,2.25-3.909,3.611l-0.671,0.646l-0.3,0.281
		c-1.88,1.813-3.939,3.813-6.12,5.83c-1.359,1.26-2.76,2.529-4.21,3.779c-1.91,1.65-3,6.18-3.521,12.381
		c-5.146,1.393-10.367,2.48-15.641,3.26l-0.859,0.129l-0.449,0.07c-0.312-1.859-0.541-3.08-0.541-3.08s-9-7.51-6.38-16.889
		c1.511-5.381,16.28-15.451,28.609-23.07c1.511-0.92,3-1.82,4.391-2.66l0.91-0.551c0.569-0.34,1.109-0.67,1.649-1l4.101-2.4
		c2.84-1.639,4.899-2.789,5.63-3.197l0.301-0.172C1044.42,464.06,1049.68,484.72,1046.869,483.98z"/>
	<path opacity="0.1" enable-background="new    " d="M1046.869,483.98c-1.101-0.289-3,1-5.439,3.109c-1.18,1-2.489,2.25-3.909,3.611
		l-0.671,0.646l-0.3,0.281c-1.88,1.813-3.939,3.813-6.12,5.83c-1.359,1.26-2.76,2.529-4.21,3.779c-1.91,1.65-3,6.18-3.521,12.381
		c-5.146,1.393-10.367,2.48-15.641,3.26l-0.859,0.129l-0.449,0.07c-0.312-1.859-0.541-3.08-0.541-3.08s-9-7.51-6.38-16.889
		c1.511-5.381,16.28-15.451,28.609-23.07c1.511-0.92,3-1.82,4.391-2.66l0.91-0.551c0.569-0.34,1.109-0.67,1.649-1l4.101-2.4
		c2.84-1.639,4.899-2.789,5.63-3.197l0.301-0.172C1044.42,464.06,1049.68,484.72,1046.869,483.98z"/>
	<path fill="#3A2F2F" d="M1044.709,472.72c0,0-1.84,1.891-4.699,4.879c-1.2,1.25-2.59,2.701-4.09,4.291l-0.141,0.15l-0.779,0.809
		c-1.78,1.881-3.7,3.91-5.671,6c-10.22,10.941-21.779,23.75-21.779,25.791c-0.035,0.762-0.2,1.514-0.49,2.221l-0.859,0.129
		l-0.449,0.07c-6.689,1-13.359,1.5-20,1.83c-9.144,0.5-18.308,0.5-27.45,0l-2.5-0.17h-0.45c-1.729-0.131-3.46-0.291-5.18-0.471
		c-1-0.1-2-0.209-3-0.34c1.18-1.643,2.409-3.359,3.63-5.119c2.45-3.521,4.88-7.16,6.899-10.461c0.12-0.189,0.229-0.379,0.351-0.563
		c1.21-2,2.261-3.889,3.069-5.52c0.798-1.438,1.349-3,1.631-4.619c0.366-1.975,0.967-3.896,1.789-5.729
		c4.41-11.199,15.939-34,22.381-46.592l0.579-1.117l0.561-1.08c2.069-4,3.399-6.563,3.399-6.563l15.75-4.25l1-0.27l3.48-0.94
		l1.34-0.358l7.449-2h0.091l0.271-0.08l7.859-2.11l2.609-0.71l3-0.79l7.601,12.95l2.22,32.34L1044.709,472.72z"/>
	<path opacity="0.1" enable-background="new    " d="M937.271,516.32c-3.08-4-4.87-6.449-4.87-6.449s4.37-1.061,10.069-2.67
		c2.91-0.83,6.17-1.791,9.37-2.84c2-0.67,4-1.371,5.91-2.08c1-0.361,1.909-0.74,2.8-1.111c4.141-1.74,7.25-3.51,7.88-5.09
		c0.134-0.631,0.077-1.289-0.159-1.891c-0.978-2.883-2.209-5.674-3.681-8.34c-0.53-1-1.109-2.09-1.729-3.219
		c-2-3.65-4.391-7.83-7-12.24c-2.189-3.68-4.54-7.529-6.92-11.391c-2.101-3.389-4.229-6.799-6.32-10.1
		c-0.061-0.102-0.13-0.199-0.189-0.313c-9.529-15.059-18.09-28-18.439-28.489l0,0l-5.62,13.489l-0.239,0.221l-9.25,8.209
		l-0.221,0.213c-2.88,2.551-6.149,5.471-9.479,8.447c-2.47,2.211-5,4.451-7.35,6.611c-3.41,3.059-6.601,5.949-9.19,8.32
		c-2.186,1.875-4.259,3.879-6.21,6c-1.65,3.477-2.989,7.094-4,10.809c4.4,3.92,8.931,7.701,13.641,11.221
		c3.591,2.682,7.28,5.209,11.101,7.551c2.739,1.682,5.546,3.25,8.42,4.711c2,1.006,4.05,1.963,6.149,2.867
		c2.807,1.201,5.674,2.283,8.601,3.25l0.92,0.313c4,1.293,8.106,2.387,12.32,3.281l0.39,0.078l2,0.408L937.271,516.32z"/>
	<path fill="#3A2F2F" d="M1014.03,421.49l-0.899,1.38c-0.36,0.57-0.83,1.3-1.399,2.17c-0.57,0.87-1.36,2.139-2.211,3.45l-0.619,1
		c-1.461,2.26-3.16,4.91-5,7.84c-0.229,0.35-0.461,0.701-0.689,1.07c-0.23,0.371-0.471,0.74-0.71,1.109
		c-12,18.801-29.74,46.66-34.2,54.701c-0.366,0.611-0.7,1.242-1,1.889c-0.57,1.432-3.141,3-6.689,4.57
		c-0.79,0.361-1.641,0.711-2.511,1.07c-1.939,0.77-4.06,1.52-6.22,2.25c-3.15,1.061-6.4,2-9.359,2.891c-6.261,1.811-11.24,3-11.24,3
		s1.721,2.33,4.67,6.209l-2-0.41l-0.391-0.08c-4.187-0.898-8.293-1.992-12.319-3.279l-0.92-0.311
		c-2.92-0.973-5.786-2.057-8.601-3.25c-2.087-0.898-4.137-1.855-6.149-2.869c-2.88-1.461-5.688-3.029-8.42-4.711
		c-3.819-2.34-7.521-4.859-11.101-7.559c-4.71-3.51-9.24-7.291-13.64-11.211l-0.91-0.82c0.993-3.426,2.254-6.77,3.771-10
		c0-0.219,2.92-3,7.22-6.898c2.649-2.432,5.841-5.311,9.189-8.32l7.351-6.59l8.689-7.76l0.221-0.201l9-8l0.239-0.221l5.63-13.5
		h1.141l20.471,0.32h0.1h2h1.12l6.42,0.101l7.641,0.109l8.891,0.141l34.851,0.541h1.13l6.609,0.1L1014.03,421.49z"/>
	<path fill="#FBBEBE" d="M1014.59,282.17l-3.381,30.73c0,0-34.619,13.79-35.46,13.51c-0.84-0.28-23.079-20.271-19.42-33.5
		c1.83-6.63,2.681-15.83,3.061-23.34c0.381-7.51,0.319-13.25,0.319-13.25s50.381-18,45.87-5.63c-1.63,4.5-0.899,9.89,0.71,14.92
		C1008.308,271.475,1011.099,277.043,1014.59,282.17z"/>
	<path opacity="0.1" enable-background="new    " d="M1006.289,265.56c-0.3,0.36-0.619,0.7-0.93,1
		c-12.179,12.922-32.286,14.199-46,2.92c0.38-7.45,0.319-13.25,0.319-13.25s50.381-18,45.87-5.63
		C1003.949,255.14,1004.68,260.53,1006.289,265.56z"/>
	<path fill="#FBBEBE" d="M1014.59,242.29c-0.012,18.645-15.135,33.751-33.78,33.74c-18.646-0.011-33.75-15.135-33.739-33.78
		c0.011-18.633,15.116-33.734,33.75-33.74c18.534-0.116,33.653,14.814,33.771,33.349
		C1014.591,242.002,1014.591,242.146,1014.59,242.29z"/>
	<path opacity="0.1" enable-background="new    " d="M972.93,314.02c0,0-13.22-29.319-17.729-29.319s-11.54,151.649-11.54,151.649
		l69,1.092l2.819-79.631l-14.079-70.58C1001.4,287.23,988.699,315.1,972.93,314.02z"/>
	<path opacity="0.1" enable-background="new    " d="M972.93,316.27c0,0-13.22-29.319-17.729-29.319s-11.54,151.661-11.54,151.661
		l78.25,1.18l-6.47-79.73l-14.08-70.57C1001.36,289.49,988.699,317.36,972.93,316.27z"/>
	<path fill="#65617D" d="M972.93,315.14c0,0-13.22-29.31-17.729-29.31s-11.54,151.65-11.54,151.65l78.25,1.18l-6.47-79.759
		l-14.08-70.581C1001.36,288.32,988.699,316.23,972.93,315.14z"/>
	<path opacity="0.1" enable-background="new    " d="M960.1,276.62c0,0-2.359-3.46-5.739-2.33c-3.381,1.13-5.91-2-9.29,1.12
		c-3.38,3.12-16.891,7.32-19.42,5.91c-2.53-1.41-11.54,4.79-13.511,8.45c-1.97,3.66-8.449,13.51-8.449,13.51s-5.62,6.75-4.78,10.41
		c0.841,3.659-2,7.88-5.351,9.569c-3.35,1.69-10.13,18.58-10.13,18.58s1.82,22.58-5.779,26.521c-7.601,3.939-2,21.109-2,21.109
		l35.899-8.51l10.16-23.06c0,0-3.94,67.55-8.73,73.74c-4.789,6.189-5.34,10.141-5.34,10.141s18.57,3.939,22.511,7.309
		c3.939,3.371,14.359-0.84,14.359-0.84l10.13-89.79c0,0,3.66-16.88,3.66-25.61C958.3,324.12,960.1,276.62,960.1,276.62z"/>
	<path fill="#06B0D1" d="M958.979,276.62c0,0-2.369-3.46-5.75-2.33c-3.38,1.13-5.909-2-9.289,1.12
		c-3.381,3.12-16.881,7.32-19.42,5.91c-2.54-1.41-11.54,4.79-13.511,8.45s-8.439,13.51-8.439,13.51s-5.63,6.75-4.79,10.41
		c0.84,3.659-2,7.88-5.34,9.569c-3.341,1.69-10.141,18.58-10.141,18.58s1.819,22.58-5.78,26.521c-1.899,1-3,3.18-3.51,5.92
		c-2.181,11,6.859,21.12,18.101,20.77l19.34-8l10.13-29.149c0,0-3.939,67.55-8.72,73.74c-4.779,6.189-5.341,10.119-5.341,10.119
		s18.58,3.941,22.521,7.311c3.939,3.371,14.351-0.84,14.351-0.84l10.13-89.79c0,0,3.66-16.881,3.66-25.61
		C957.181,324.1,958.979,276.62,958.979,276.62z"/>
	<path opacity="0.1" enable-background="new    " d="M896.94,325.51c0,0,3.38,9.29,12.67,8.45S896.94,325.51,896.94,325.51z"/>
	<path opacity="0.1" enable-background="new    " d="M905.949,311.44c0,0,6.189,1.13,8.439,6.47
		C916.64,323.25,905.949,311.44,905.949,311.44z"/>
	<path opacity="0.1" enable-background="new    " d="M923.4,301.9c0,1.13,3.939,20.83,0,29s-3.38,17.729-3.38,17.729L923.4,301.9z"
		/>
	<path opacity="0.1" enable-background="new    " d="M1006.521,269.84c0,0,2.209-2.59,4.459-2.31c2.25,0.28,3.66,1.69,6.479,2.82
		c2.82,1.13,9.562,1.4,9.562,2.25s5.92,4.22,9.859,5.06c3.939,0.84,16.319,9.29,19.42,25.62s8.439,21.109,8.439,21.109l-29.83,14.63
		c0,0,23.08,97.951,25.891,105c2.811,7.051,3.101,48.691,3.101,48.691s-18.301,8.16-23.08,10.699
		c-4.779,2.541-2.819-24.209-12.67-39.689s-21.11-38-21.11-38l-17.17-48.13c0,0-11-64.17-1.689-76
		C997.49,289.76,1007.32,274.07,1006.521,269.84z"/>
	<path fill="#06B0D1" d="M1064.959,492.121c0,0.379,0,0.58,0,0.58l-1.09,0.49l-0.771,0.34l-7.641,3.459
		c-4.189,1.91-8.819,4-11.739,5.48c-0.729,0.35-1.351,0.67-1.83,0.93c-0.348,0.223-0.792,0.223-1.14,0
		c-1.5-1-2.181-6.08-3.24-12.699c-0.439-2.74-0.939-5.74-1.601-8.811c-0.101-0.48-0.21-1-0.319-1.439
		c-0.725-3.271-1.681-6.486-2.859-9.621c-0.934-2.482-2.108-4.867-3.511-7.119c-1.3-2-2.609-4.18-3.92-6.381
		c-3.521-5.92-7-12.23-9.92-17.639c-0.2-0.391-0.399-0.762-0.601-1.131c-0.74-1.381-1.439-2.689-2.069-3.91
		c-1.311-2.5-2.41-4.619-3.2-6.16l-1.271-2.509c-0.038-0.09-0.081-0.177-0.13-0.261l-1.551-4.34l-3-8.38l-3.489-9.79l-1.649-4.61
		l-1.189-3.35l-0.381-1.06l-5.92-16.61c0,0-0.42-2.41-1-6.38c-1.569-10.44-4.42-31.67-4.409-48.3
		c-0.04-4.055,0.192-8.107,0.7-12.131c0.068-0.439,0.129-0.869,0.209-1.29c0.08-0.42,0.16-0.92,0.25-1.359
		c0.368-2.339,1.246-4.568,2.569-6.53c9.28-11.82,19.181-27.52,18.341-31.74l0.189-0.21c0.414-0.437,0.869-0.832,1.359-1.18
		c0.598-0.436,1.278-0.742,2-0.9c0.299-0.04,0.602-0.04,0.899,0l0,0c2.25,0.28,3.66,1.69,6.471,2.82s9.569,1.4,9.569,2.25
		s5.91,4.22,9.851,5.07c3.939,0.85,16.329,9.28,19.421,25.609c3,15.73,8.06,20.74,8.43,21.101l0,0l-1.11,0.54l-16.93,8.31
		l-3.63,1.771l-8.17,4c0,0,2.14,9.069,5.188,21.89c0,0.17,0.09,0.35,0.13,0.53c0.091,0.38,0.182,0.77,0.28,1.16
		c2.24,9.399,4.92,20.6,7.59,31.649l0,0l0.24,1l0.78,3.2c0.238,1,0.488,2,0.729,3l0.391,1.59c0.739,3.061,1.479,6.08,2.199,9
		c1.07,4.33,2.09,8.44,3,12.2c2.602,10.361,4.61,17.951,5.33,19.73c1,2.58,1.721,9.83,2.182,18
		C1064.771,474.48,1064.94,489.07,1064.959,492.121z"/>
	<path opacity="0.1" enable-background="new    " d="M1068.63,393.06c-0.83,0.141-1.891,0.261-3.12,0.381c-9,0.819-26.71,1-26.71,1
		s-13.229-26.181-24.49-25.33c0,0,10.41-11.82,14.641-10.41c0.7,0.229,1.141-0.29,1.359-1.3c1.12-5-2.771-22.351-2.771-22.351
		l-5.35-23.359l31,7.6c2.819,0.56,11.54,5.07,11.54,5.07s0.279,12.1,2.529,14.909c2.25,2.811,4.79,16.33,4.511,19.711
		c-0.28,3.38,3.09,19.14-0.28,23.359S1075.67,391.9,1068.63,393.06z"/>
	<path fill="#06B0D1" d="M1069.76,393.06c-0.84,0.141-1.891,0.261-3.12,0.381c-9,0.819-26.72,1-26.72,1s-13.229-26.181-24.479-25.33
		c0,0,10.41-11.82,14.63-10.41c0.71,0.229,1.149-0.29,1.359-1.3c1.13-5-2.771-22.351-2.771-22.351l-5.34-23.359l31,7.6
		c2.811,0.56,11.54,5.07,11.54,5.07s0.28,12.1,2.53,14.909c2.25,2.811,4.779,16.33,4.5,19.711c-0.28,3.38,3.1,19.14-0.28,23.359
		S1076.789,391.9,1069.76,393.06z"/>
	<path opacity="0.1" enable-background="new    " d="M1037.949,331.7c0,0,25.899,2.819,27,9.29
		C1066.05,347.46,1037.949,331.7,1037.949,331.7z"/>
	<path opacity="0.1" enable-background="new    " d="M1014.59,242.29c0.018,8.626-3.289,16.927-9.229,23.18
		c-0.036-0.048-0.063-0.102-0.08-0.16c-1-2.14-2-4.36-1.88-6.71c0.09-2.83,1.72-5.39,2.25-8.19c0.67-3.54-0.49-7.13-1.63-10.54
		c-0.83-2.5-2.439-5.53-5.062-5.22c-0.508,0.119-1.026,0.179-1.55,0.18c-1.399-0.22-1.68-2-1.83-3.44
		c-0.872-6.752-6.026-12.157-12.729-13.35c-0.742-0.167-1.518-0.115-2.23,0.15c-1,0.44-1.5,1.49-2.38,2.1c-2.859,2-6.5-1.81-10-1.52
		c-3,0.25-4.75,3.27-6,6s-2.739,5.77-5.63,6.4c-0.457,0.145-0.954,0.09-1.37-0.15c-0.899-0.66-0.28-2,0.189-3.07
		c1.181-2.67,0.391-4.8-1.061-6.71c11.629-14.575,32.87-16.964,47.445-5.335c8.036,6.411,12.713,16.135,12.704,26.415
		L1014.59,242.29z"/>
	<path fill="#B2B1BB" d="M905.57,505.9c-2.88-1.459-5.688-3.029-8.42-4.709c-3.82-2.342-7.521-4.861-11.101-7.561l-3.45-28
		l-0.109-0.92l-6.55-53.281l-0.391-3.149l10.88-0.33l7.7-0.23l0.521,4.53l4.38,37.55l0.109,0.9L905.57,505.9z"/>
	<path opacity="0.1" enable-background="new    " d="M897.15,501.169c-3.82-2.34-7.521-4.859-11.101-7.559l-3.45-28l-0.109-0.92
		l-6.55-53.282l-0.391-3.15l10.88-0.33l-0.47,1.74l0.271,2.19l5.449,44.511l0.11,0.92L897.15,501.169z"/>
	<path fill="#B2B1BB" d="M972.09,408.82l-0.59,4.77l-0.91,7.23l-2,15.929l-0.141,1.1l-0.14,1.133l-5.461,43.648l-1.689,13.57
		l-0.561,4.449l-0.061,0.52l-2.199,17.73l-2.5-0.17h-0.45c-1.729-0.131-3.46-0.289-5.18-0.471c-1-0.1-2-0.209-3-0.34
		c-1.521-0.18-3-0.389-4.54-0.609h-0.07l-1.449-0.23l1.369-9.879v-0.34l6.4-47.861l2.71-20.27l0.149-1.119l0.149-1.121l2.13-15.919
		l0.9-6.681l0.521-3.939l0.649-0.05L972.09,408.82z"/>
	<path opacity="0.2" enable-background="new    " d="M962.8,411.36l-0.28,2.39l-0.819,6.93l-1.88,15.931l-0.13,1.109l-0.171,1.18
		l-3.72,31.541l-4,33.578v0.391l-1,8.381l-0.641,5.459c-1-0.1-2-0.209-3-0.34c-1.521-0.18-3-0.391-4.54-0.609h-0.069l-1.45-0.229
		l1.421-9.869v-0.34l6.399-47.861l2.71-20.271l0.149-1.117l0.149-1.121l2.131-15.92l0.899-6.681l0.521-3.939l0.649-0.05
		L962.8,411.36z"/>
	<path fill="#65617D" d="M1043.729,502.47l0.431,2.91c-1.793,0.912-3.597,1.77-5.409,2.57c-2.2,0.979-4.417,1.875-6.65,2.688
		l-1.67-13.18l-1.101-8.59l-1.89-14.83l-1.82-14.32l-0.311-2.391l-4.431-34.758l-0.779-6.102l-0.239-2l-0.23-1.8l-0.529-4.16h0.271
		h0.09l7.61-0.83l2.439-0.25l0.76,5.09l1.08,7.24l7.141,47.701l1.521,10.15l1.42,9.488l2.221,14.861L1043.729,502.47z"/>
	<path opacity="0.1" fill="#CCCCCC" enable-background="new    " d="M1043.729,502.47l0.431,2.91
		c-1.793,0.912-3.597,1.77-5.409,2.57c-2.2,0.979-4.417,1.875-6.65,2.688l-1.67-13.18l-1.101-8.59l-1.89-14.83l-1.82-14.32
		l-0.311-2.391l-4.431-34.758l-0.779-6.102l-0.239-2l-0.23-1.8l-0.529-4.16h0.271h0.09l7.61-0.83l2.439-0.25l0.76,5.09l1.08,7.24
		l7.141,47.701l1.521,10.15l1.42,9.488l2.221,14.861L1043.729,502.47z"/>
	<path fill="#B2B1BB" d="M1044.159,505.38c-1.793,0.912-3.598,1.77-5.409,2.57l-1.141-9.941l-0.761-6.66l-1.069-9.309l-0.181-1.59
		l-1.21-10.604l-5.649-49.388l-0.91-7.91l-0.29-2.6l-0.47-2.28l2.439-0.25l0.76,5.09l1.08,7.24l7.141,47.702l1.521,10.146l1.42,9.49
		l2.22,14.861l0.08,0.52L1044.159,505.38z"/>
	<path fill="#65617D" d="M1068.07,407.98l-0.061,3.829l-1.2,78.86c-0.609,0.49-1.229,1-1.85,1.451c0,0.379,0,0.58,0,0.58
		l-1.091,0.49l-0.771,0.34c-0.688,0.527-1.39,1-2.1,1.549l-0.5,0.35c-1.67,1.191-3.351,2.34-5.061,3.451v-1.891v-0.521l1-68
		l0.061-4.179l0.18-12.26l0.08-5.45l7.58,0.95L1068.07,407.98z"/>
	<path opacity="0.1" fill="#CCCCCC" enable-background="new    " d="M1068.07,407.98l-0.061,3.829l-1.2,78.86
		c-0.609,0.49-1.229,1-1.85,1.451c0,0.379,0,0.58,0,0.58l-1.091,0.49l-0.771,0.34c-0.688,0.527-1.39,1-2.1,1.549l-0.5,0.35
		c-1.67,1.191-3.351,2.34-5.061,3.451v-1.891v-0.521l1-68l0.061-4.179l0.18-12.26l0.08-5.45l7.58,0.95L1068.07,407.98z"/>
	<path fill="#B2B1BB" d="M1068.07,407.98l-0.061,3.829l-1.2,78.86c-0.609,0.49-1.229,1-1.85,1.451c0,0.379,0,0.58,0,0.58
		l-1.091,0.49v-0.23l0.181-31l0.301-50.111v-4.359L1068.07,407.98z"/>
	<path fill="#65617D" d="M1119.74,402.9c-0.004,0.02-0.004,0.041,0,0.06c0,0.29-0.08,0.58-0.13,0.87
		c-0.37,2.36-0.811,4.729-1.34,7.1l-50.25,0.92l-3.65,0.07l-7.63,0.14l-3.21,0.061h-1.12l-22.13,0.41h-2.439l-8,0.149h-0.17
		l-6.141,0.12l-9.91,0.181h-1.109l0,0l-31,0.569l-9,0.16l-7.561,0.14l-6.59,0.12h-1.13h-2.37h-0.109l-5,0.09l-22.771-1l-1.12-0.05
		l-21.181-0.91l-8.42-0.369l-10.29-0.45l-62.229-2.69c-1.521-2.84-2.993-5.727-4.42-8.66c-0.439-0.899-0.87-1.8-1.3-2.71l63.34-1
		l0,0l39-0.6l0,0l7.37-0.11h1.13l20-0.31l6.851,0.38h0.12l3.439,0.19l1.12,0.06l13.659,0.76l0,0l33.211,1.83l1.148,0.061
		l15.521,0.859l4.688,0.26h0.101l31,1.71l1.141,0.07h0.25L1119.74,402.9z"/>
	<path fill="#B2B1BB" d="M1119.74,402.9c0.005,0.02,0.005,0.041,0,0.06c0,0.29-0.08,0.58-0.13,0.87c-0.37,2.36-0.811,4.729-1.34,7.1
		l-50.25,0.92l-3.641,0.07l-7.641,0.14l-3.21,0.061h-1.12l-22.13,0.41h-2.439l-8,0.149h-0.17l-6.141,0.12l-9.91,0.181h-1.109l0,0
		l-31,0.569l-9,0.16l-7.561,0.14l-6.59,0.12h-1.13h-2.37h-0.109l-5,0.09l-22.78-1h-1.119l-21.171-0.92l-8.43-0.359l-10.29-0.44
		l-62.229-2.7c-1.521-2.84-2.993-5.727-4.42-8.659c-0.44-0.9-0.87-1.801-1.301-2.711l63.341-1l0,0l39-0.6l0,0l7.369-0.11h1.131
		l20-0.31l6.85,0.38h0.131l3.439,0.19l1.12,0.069l13.659,0.75l0,0l33.211,1.83l1.14,0.061l15.521,0.859l4.689,0.261h0.1l31,1.71
		l1.142,0.069h0.25L1119.74,402.9z"/>
	<path opacity="0.1" enable-background="new    " d="M1119.74,402.9c0.005,0.02,0.005,0.041,0,0.06l-68.41,0.17h-1.12l-31.17,0.08
		h-5.199h-13.74h-1.13l-49.38,0.12h-4.271l-27.25,0.07h-1.12l-28.449,0.069l-79.211-3.42c-0.439-0.899-0.869-1.8-1.3-2.71l63.34-1
		l0,0l39-0.6l0,0l7.37-0.11h1.13l20-0.31l6.851,0.38h0.131l3.439,0.189l1.119,0.07l13.66,0.75l0,0l33.21,1.83l1.141,0.06
		l15.521,0.86l4.689,0.26h0.101l31,1.71l1.14,0.07h0.25L1119.74,402.9z"/>
	<path opacity="0.1" enable-background="new    " d="M1053.43,357.04c1.689,0.56,11.54,3.09,13.511,9
		C1068.91,371.95,1053.43,357.04,1053.43,357.04z"/>
	<path fill="#FBBEBE" d="M1024.38,366.9c0,0-14.351,4.359-20.83,4.359s-31.8-0.14-31.8-0.14s-66.15-22.101-46.301,8.16
		c19.851,30.26,51.221,13.37,51.221,13.37s2.54,0.56,5.63,1.27s62.91,0.14,64.88-2.25S1024.38,366.9,1024.38,366.9z"/>
	<path opacity="0.1" enable-background="new    " d="M1065.521,393.44c-9,0.819-26.711,1-26.711,1s-13.229-26.181-24.489-25.33
		c0,0,10.41-11.82,14.641-10.41c0.699,0.229,1.14-0.29,1.359-1.3c11,3.369,32,11.609,34.101,26.06
		C1064.959,387.37,1065.31,390.65,1065.521,393.44z"/>
	<path fill="#464353" d="M1066.64,393.44c-9,0.819-26.72,1-26.72,1s-13.229-26.181-24.479-25.33c0,0,10.41-11.82,14.63-10.41
		c0.71,0.229,1.149-0.29,1.359-1.3c11,3.369,32,11.609,34.109,26.06C1066.09,387.37,1066.44,390.65,1066.64,393.44z"/>
	<path opacity="0.1" enable-background="new    " d="M1065.521,393.44c-9,0.829-26.711,1-26.711,1s-13.229-26.181-24.489-25.33
		c0,0,10.41-11.82,14.641-10.42c0.699,0.239,1.14-0.28,1.359-1.29c11,3.369,32,11.609,34.101,26.06
		C1064.959,387.38,1065.31,390.66,1065.521,393.44z"/>
	<path opacity="0.1" enable-background="new    " d="M987.57,468.781c0,0,25.33-6.201,29.271-2.82
		C1020.78,469.339,987.57,468.781,987.57,468.781z"/>
	<path opacity="0.1" enable-background="new    " d="M914.949,492.98c0,0,10.7,6.189,11.819,11.26
		C927.889,509.31,914.949,492.98,914.949,492.98z"/>
	<path fill="#333F4F" d="M869.68,282.9v110.92c0,1.91,1,2.18,2.689,3.1c5.631,3.12,19.49,8.68,36.131-0.12
		c1.71-0.899,2.76-1.2,2.76-3.14V283.59C911.26,283.59,890.11,292.12,869.68,282.9z"/>
	<ellipse fill="#2D394A" stroke="#40868E" stroke-miterlimit="10" cx="890.47" cy="282.81" rx="20.79" ry="4.42"/>
	<g opacity="0.2">
		<circle cx="871.57" cy="328.95" r="0.47"/>
		<circle cx="873.94" cy="329.61" r="0.47"/>
		<circle cx="876.86" cy="330.54" r="0.47"/>
		<circle cx="882.11" cy="331.67" r="0.47"/>
		<circle cx="887.64" cy="332.34" r="0.47"/>
		<circle cx="893.369" cy="332.61" r="0.47"/>
		<circle cx="901.59" cy="331.48" r="0.47"/>
		<circle cx="898.869" cy="332.14" r="0.47"/>
		<circle cx="906.68" cy="330.54" r="0.47"/>
		<circle cx="904.229" cy="331.01" r="0.47"/>
		<circle cx="909.369" cy="329.61" r="0.47"/>
		<circle cx="879.539" cy="331.21" r="0.47"/>
		<circle cx="884.96" cy="332.14" r="0.47"/>
		<circle cx="890.829" cy="332.61" r="0.47"/>
		<circle cx="896.17" cy="332.61" r="0.47"/>
	</g>
	<g opacity="0.2">
		<circle cx="871.57" cy="331.24" r="0.47"/>
		<circle cx="873.94" cy="331.91" r="0.47"/>
		<circle cx="876.86" cy="332.84" r="0.47"/>
		<circle cx="882.11" cy="333.97" r="0.47"/>
		<circle cx="887.64" cy="334.64" r="0.47"/>
		<circle cx="893.369" cy="334.9" r="0.47"/>
		<circle cx="901.59" cy="333.77" r="0.47"/>
		<circle cx="898.869" cy="334.44" r="0.47"/>
		<circle cx="906.68" cy="332.84" r="0.47"/>
		<circle cx="904.229" cy="333.31" r="0.47"/>
		<circle cx="909.369" cy="331.91" r="0.47"/>
		<circle cx="879.539" cy="333.5" r="0.47"/>
		<circle cx="884.96" cy="334.44" r="0.47"/>
		<circle cx="890.829" cy="334.9" r="0.47"/>
		<circle cx="896.17" cy="334.9" r="0.47"/>
	</g>
	<g opacity="0.2">
		<circle cx="871.57" cy="333.54" r="0.47"/>
		<circle cx="873.94" cy="334.2" r="0.47"/>
		<circle cx="876.86" cy="335.14" r="0.47"/>
		<circle cx="882.11" cy="336.27" r="0.47"/>
		<circle cx="887.64" cy="336.94" r="0.47"/>
		<circle cx="893.369" cy="337.2" r="0.47"/>
		<circle cx="901.59" cy="336.07" r="0.47"/>
		<circle cx="898.869" cy="336.73" r="0.47"/>
		<circle cx="906.68" cy="335.14" r="0.47"/>
		<circle cx="904.229" cy="335.6" r="0.47"/>
		<circle cx="909.369" cy="334.2" r="0.47"/>
		<circle cx="879.539" cy="335.8" r="0.47"/>
		<circle cx="884.96" cy="336.73" r="0.47"/>
		<circle cx="890.829" cy="337.2" r="0.47"/>
		<circle cx="896.17" cy="337.2" r="0.47"/>
	</g>
	<g opacity="0.2">
		<circle cx="871.57" cy="335.84" r="0.47"/>
		<circle cx="873.94" cy="336.5" r="0.47"/>
		<circle cx="876.86" cy="337.43" r="0.47"/>
		<circle cx="882.11" cy="338.56" r="0.47"/>
		<circle cx="887.64" cy="339.23" r="0.47"/>
		<circle cx="893.369" cy="339.49" r="0.47"/>
		<circle cx="901.59" cy="338.36" r="0.47"/>
		<circle cx="898.869" cy="339.03" r="0.47"/>
		<circle cx="906.68" cy="337.43" r="0.47"/>
		<circle cx="904.229" cy="337.9" r="0.47"/>
		<circle cx="909.369" cy="336.5" r="0.47"/>
		<circle cx="879.539" cy="338.09" r="0.47"/>
		<circle cx="884.96" cy="339.03" r="0.47"/>
		<circle cx="890.829" cy="339.49" r="0.47"/>
		<circle cx="896.17" cy="339.49" r="0.47"/>
	</g>
	<g opacity="0.2">
		<circle cx="871.57" cy="338.13" r="0.47"/>
		<circle cx="873.94" cy="338.79" r="0.47"/>
		<circle cx="876.86" cy="339.73" r="0.47"/>
		<circle cx="882.11" cy="340.86" r="0.47"/>
		<circle cx="887.64" cy="341.53" r="0.47"/>
		<circle cx="893.369" cy="341.79" r="0.47"/>
		<circle cx="901.59" cy="340.66" r="0.47"/>
		<circle cx="898.869" cy="341.32" r="0.47"/>
		<circle cx="906.68" cy="339.73" r="0.47"/>
		<circle cx="904.229" cy="340.19" r="0.47"/>
		<circle cx="909.369" cy="338.79" r="0.47"/>
		<circle cx="879.539" cy="340.39" r="0.47"/>
		<circle cx="884.96" cy="341.32" r="0.47"/>
		<circle cx="890.829" cy="341.79" r="0.47"/>
		<circle cx="896.17" cy="341.79" r="0.47"/>
	</g>
	<g opacity="0.2">
		<circle cx="871.57" cy="340.43" r="0.47"/>
		<circle cx="873.94" cy="341.09" r="0.47"/>
		<circle cx="876.86" cy="342.02" r="0.47"/>
		<circle cx="882.11" cy="343.15" r="0.47"/>
		<circle cx="887.64" cy="343.82" r="0.47"/>
		<circle cx="893.369" cy="344.09" r="0.47"/>
		<circle cx="901.59" cy="342.95" r="0.47"/>
		<circle cx="898.869" cy="343.62" r="0.47"/>
		<circle cx="906.68" cy="342.02" r="0.47"/>
		<circle cx="904.229" cy="342.49" r="0.47"/>
		<circle cx="909.369" cy="341.09" r="0.47"/>
		<circle cx="879.539" cy="342.69" r="0.47"/>
		<circle cx="884.96" cy="343.62" r="0.47"/>
		<circle cx="890.829" cy="344.09" r="0.47"/>
		<circle cx="896.17" cy="344.09" r="0.47"/>
	</g>
	<g opacity="0.2">
		<circle cx="871.57" cy="342.72" r="0.47"/>
		<circle cx="873.94" cy="343.38" r="0.47"/>
		<circle cx="876.86" cy="344.32" r="0.47"/>
		<circle cx="882.11" cy="345.45" r="0.47"/>
		<circle cx="887.64" cy="346.12" r="0.47"/>
		<circle cx="893.369" cy="346.38" r="0.47"/>
		<circle cx="901.59" cy="345.25" r="0.47"/>
		<circle cx="898.869" cy="345.91" r="0.47"/>
		<circle cx="906.68" cy="344.32" r="0.47"/>
		<circle cx="904.229" cy="344.78" r="0.47"/>
		<circle cx="909.369" cy="343.38" r="0.47"/>
		<circle cx="879.539" cy="344.98" r="0.47"/>
		<circle cx="884.96" cy="345.91" r="0.47"/>
		<circle cx="890.829" cy="346.38" r="0.47"/>
		<circle cx="896.17" cy="346.38" r="0.47"/>
	</g>
	<g opacity="0.2">
		<circle cx="871.57" cy="345.02" r="0.47"/>
		<circle cx="873.94" cy="345.68" r="0.47"/>
		<circle cx="876.86" cy="346.61" r="0.47"/>
		<circle cx="882.11" cy="347.74" r="0.47"/>
		<circle cx="887.64" cy="348.41" r="0.47"/>
		<circle cx="893.369" cy="348.68" r="0.47"/>
		<circle cx="901.59" cy="347.55" r="0.47"/>
		<circle cx="898.869" cy="348.21" r="0.47"/>
		<circle cx="906.68" cy="346.61" r="0.47"/>
		<circle cx="904.229" cy="347.08" r="0.47"/>
		<circle cx="909.369" cy="345.68" r="0.47"/>
		<circle cx="879.539" cy="347.28" r="0.47"/>
		<circle cx="884.96" cy="348.21" r="0.47"/>
		<circle cx="890.829" cy="348.68" r="0.47"/>
		<circle cx="896.17" cy="348.68" r="0.47"/>
	</g>
	<g opacity="0.2">
		<circle cx="871.57" cy="347.31" r="0.47"/>
		<circle cx="873.94" cy="347.98" r="0.47"/>
		<circle cx="876.86" cy="348.91" r="0.47"/>
		<circle cx="882.11" cy="350.04" r="0.47"/>
		<circle cx="887.64" cy="350.71" r="0.47"/>
		<circle cx="893.369" cy="350.97" r="0.47"/>
		<circle cx="901.59" cy="349.84" r="0.47"/>
		<circle cx="898.869" cy="350.51" r="0.47"/>
		<circle cx="906.68" cy="348.91" r="0.47"/>
		<circle cx="904.229" cy="349.38" r="0.47"/>
		<circle cx="909.369" cy="347.98" r="0.47"/>
		<circle cx="879.539" cy="349.57" r="0.47"/>
		<circle cx="884.96" cy="350.51" r="0.47"/>
		<circle cx="890.829" cy="350.97" r="0.47"/>
		<circle cx="896.17" cy="350.97" r="0.47"/>
	</g>
	<g opacity="0.2">
		<circle cx="871.57" cy="349.61" r="0.47"/>
		<circle cx="873.94" cy="350.27" r="0.47"/>
		<circle cx="876.86" cy="351.2" r="0.47"/>
		<circle cx="882.11" cy="352.33" r="0.47"/>
		<circle cx="887.64" cy="353" r="0.47"/>
		<circle cx="893.369" cy="353.27" r="0.47"/>
		<circle cx="901.59" cy="352.14" r="0.47"/>
		<circle cx="898.869" cy="352.8" r="0.47"/>
		<circle cx="906.68" cy="351.2" r="0.47"/>
		<circle cx="904.229" cy="351.67" r="0.47"/>
		<circle cx="909.369" cy="350.27" r="0.47"/>
		<circle cx="879.539" cy="351.87" r="0.47"/>
		<circle cx="884.96" cy="352.8" r="0.47"/>
		<circle cx="890.829" cy="353.27" r="0.47"/>
		<circle cx="896.17" cy="353.27" r="0.47"/>
	</g>
	<g opacity="0.2">
		<circle cx="871.57" cy="351.9" r="0.47"/>
		<circle cx="873.94" cy="352.57" r="0.47"/>
		<circle cx="876.86" cy="353.5" r="0.47"/>
		<circle cx="882.11" cy="354.63" r="0.47"/>
		<circle cx="887.64" cy="355.3" r="0.47"/>
		<circle cx="893.369" cy="355.56" r="0.47"/>
		<circle cx="901.59" cy="354.43" r="0.47"/>
		<circle cx="898.869" cy="355.1" r="0.47"/>
		<circle cx="906.68" cy="353.5" r="0.47"/>
		<circle cx="904.229" cy="353.97" r="0.47"/>
		<circle cx="909.369" cy="352.57" r="0.47"/>
		<circle cx="879.539" cy="354.16" r="0.47"/>
		<circle cx="884.96" cy="355.1" r="0.47"/>
		<circle cx="890.829" cy="355.56" r="0.47"/>
		<circle cx="896.17" cy="355.56" r="0.47"/>
	</g>
	<g opacity="0.2">
		<circle cx="871.57" cy="354.2" r="0.47"/>
		<circle cx="873.94" cy="354.86" r="0.47"/>
		<circle cx="876.86" cy="355.8" r="0.47"/>
		<circle cx="882.11" cy="356.93" r="0.47"/>
		<circle cx="887.64" cy="357.6" r="0.47"/>
		<circle cx="893.369" cy="357.86" r="0.47"/>
		<circle cx="901.59" cy="356.73" r="0.47"/>
		<circle cx="898.869" cy="357.39" r="0.47"/>
		<circle cx="906.68" cy="355.8" r="0.47"/>
		<circle cx="904.229" cy="356.26" r="0.47"/>
		<circle cx="909.369" cy="354.86" r="0.47"/>
		<circle cx="879.539" cy="356.46" r="0.47"/>
		<circle cx="884.96" cy="357.39" r="0.47"/>
		<circle cx="890.829" cy="357.86" r="0.47"/>
		<circle cx="896.17" cy="357.86" r="0.47"/>
	</g>
	<g opacity="0.2">
		<circle cx="871.57" cy="356.5" r="0.47"/>
		<circle cx="873.94" cy="357.16" r="0.47"/>
		<circle cx="876.86" cy="358.09" r="0.47"/>
		<circle cx="882.11" cy="359.22" r="0.47"/>
		<circle cx="887.64" cy="359.89" r="0.47"/>
		<circle cx="893.369" cy="360.15" r="0.47"/>
		<circle cx="901.59" cy="359.02" r="0.47"/>
		<circle cx="898.869" cy="359.69" r="0.47"/>
		<circle cx="906.68" cy="358.09" r="0.47"/>
		<circle cx="904.229" cy="358.56" r="0.47"/>
		<circle cx="909.369" cy="357.16" r="0.47"/>
		<circle cx="879.539" cy="358.75" r="0.47"/>
		<circle cx="884.96" cy="359.69" r="0.47"/>
		<circle cx="890.829" cy="360.15" r="0.47"/>
		<circle cx="896.17" cy="360.15" r="0.47"/>
	</g>
	<g opacity="0.2">
		<circle cx="871.57" cy="358.79" r="0.47"/>
		<circle cx="873.94" cy="359.45" r="0.47"/>
		<circle cx="876.86" cy="360.39" r="0.47"/>
		<circle cx="882.11" cy="361.52" r="0.47"/>
		<circle cx="887.64" cy="362.19" r="0.47"/>
		<circle cx="893.369" cy="362.45" r="0.47"/>
		<circle cx="901.59" cy="361.32" r="0.47"/>
		<circle cx="898.869" cy="361.98" r="0.47"/>
		<circle cx="906.68" cy="360.39" r="0.47"/>
		<circle cx="904.229" cy="360.85" r="0.47"/>
		<circle cx="909.369" cy="359.45" r="0.47"/>
		<circle cx="879.539" cy="361.05" r="0.47"/>
		<circle cx="884.96" cy="361.98" r="0.47"/>
		<circle cx="890.829" cy="362.45" r="0.47"/>
		<circle cx="896.17" cy="362.45" r="0.47"/>
	</g>
	<g opacity="0.2">
		<circle cx="871.57" cy="361.09" r="0.47"/>
		<circle cx="873.94" cy="361.75" r="0.47"/>
		<circle cx="876.86" cy="362.68" r="0.47"/>
		<circle cx="882.11" cy="363.81" r="0.47"/>
		<circle cx="887.64" cy="364.48" r="0.47"/>
		<circle cx="893.369" cy="364.75" r="0.47"/>
		<circle cx="901.59" cy="363.61" r="0.47"/>
		<circle cx="898.869" cy="364.28" r="0.47"/>
		<circle cx="906.68" cy="362.68" r="0.47"/>
		<circle cx="904.229" cy="363.15" r="0.47"/>
		<circle cx="909.369" cy="361.75" r="0.47"/>
		<circle cx="879.539" cy="363.35" r="0.47"/>
		<circle cx="884.96" cy="364.28" r="0.47"/>
		<circle cx="890.829" cy="364.75" r="0.47"/>
		<circle cx="896.17" cy="364.75" r="0.47"/>
	</g>
	<g opacity="0.2">
		<circle cx="871.57" cy="363.38" r="0.47"/>
		<circle cx="873.94" cy="364.04" r="0.47"/>
		<circle cx="876.86" cy="364.98" r="0.47"/>
		<circle cx="882.11" cy="366.11" r="0.47"/>
		<circle cx="887.64" cy="366.78" r="0.47"/>
		<circle cx="893.369" cy="367.04" r="0.47"/>
		<circle cx="901.59" cy="365.91" r="0.47"/>
		<circle cx="898.869" cy="366.57" r="0.47"/>
		<circle cx="906.68" cy="364.98" r="0.47"/>
		<circle cx="904.229" cy="365.44" r="0.47"/>
		<circle cx="909.369" cy="364.04" r="0.47"/>
		<circle cx="879.539" cy="365.64" r="0.47"/>
		<circle cx="884.96" cy="366.57" r="0.47"/>
		<circle cx="890.829" cy="367.04" r="0.47"/>
		<circle cx="896.17" cy="367.04" r="0.47"/>
	</g>
	<g opacity="0.2">
		<circle cx="871.57" cy="365.68" r="0.47"/>
		<circle cx="873.94" cy="366.34" r="0.47"/>
		<circle cx="876.86" cy="367.27" r="0.47"/>
		<circle cx="882.11" cy="368.4" r="0.47"/>
		<circle cx="887.64" cy="369.07" r="0.47"/>
		<circle cx="893.369" cy="369.34" r="0.47"/>
		<circle cx="901.59" cy="368.21" r="0.47"/>
		<circle cx="898.869" cy="368.87" r="0.47"/>
		<circle cx="906.68" cy="367.27" r="0.47"/>
		<circle cx="904.229" cy="367.74" r="0.47"/>
		<circle cx="909.369" cy="366.34" r="0.47"/>
		<circle cx="879.539" cy="367.94" r="0.47"/>
		<circle cx="884.96" cy="368.87" r="0.47"/>
		<circle cx="890.829" cy="369.34" r="0.47"/>
		<circle cx="896.17" cy="369.34" r="0.47"/>
	</g>
	<g opacity="0.2">
		<circle cx="871.57" cy="367.97" r="0.47"/>
		<circle cx="873.94" cy="368.64" r="0.47"/>
		<circle cx="876.86" cy="369.57" r="0.47"/>
		<circle cx="882.11" cy="370.7" r="0.47"/>
		<circle cx="887.64" cy="371.37" r="0.47"/>
		<circle cx="893.369" cy="371.63" r="0.47"/>
		<circle cx="901.59" cy="370.5" r="0.47"/>
		<circle cx="898.869" cy="371.17" r="0.47"/>
		<circle cx="906.68" cy="369.57" r="0.47"/>
		<circle cx="904.229" cy="370.04" r="0.47"/>
		<circle cx="909.369" cy="368.64" r="0.47"/>
		<circle cx="879.539" cy="370.23" r="0.47"/>
		<circle cx="884.96" cy="371.17" r="0.47"/>
		<circle cx="890.829" cy="371.63" r="0.47"/>
		<circle cx="896.17" cy="371.63" r="0.47"/>
	</g>
	<g opacity="0.2">
		<circle cx="871.57" cy="370.27" r="0.47"/>
		<circle cx="873.94" cy="370.93" r="0.47"/>
		<circle cx="876.86" cy="371.86" r="0.47"/>
		<circle cx="882.11" cy="372.99" r="0.47"/>
		<circle cx="887.64" cy="373.66" r="0.47"/>
		<circle cx="893.369" cy="373.93" r="0.47"/>
		<circle cx="901.59" cy="372.8" r="0.47"/>
		<circle cx="898.869" cy="373.46" r="0.47"/>
		<circle cx="906.68" cy="371.86" r="0.47"/>
		<circle cx="904.229" cy="372.33" r="0.47"/>
		<circle cx="909.369" cy="370.93" r="0.47"/>
		<circle cx="879.539" cy="372.53" r="0.47"/>
		<circle cx="884.96" cy="373.46" r="0.47"/>
		<circle cx="890.829" cy="373.93" r="0.47"/>
		<circle cx="896.17" cy="373.93" r="0.47"/>
	</g>
	<g opacity="0.2">
		<circle cx="871.57" cy="372.56" r="0.47"/>
		<circle cx="873.94" cy="373.23" r="0.47"/>
		<circle cx="876.86" cy="374.16" r="0.47"/>
		<circle cx="882.11" cy="375.29" r="0.47"/>
		<circle cx="887.64" cy="375.96" r="0.47"/>
		<circle cx="893.369" cy="376.22" r="0.47"/>
		<circle cx="901.59" cy="375.09" r="0.47"/>
		<circle cx="898.869" cy="375.76" r="0.47"/>
		<circle cx="906.68" cy="374.16" r="0.47"/>
		<circle cx="904.229" cy="374.63" r="0.47"/>
		<circle cx="909.369" cy="373.23" r="0.47"/>
		<circle cx="879.539" cy="374.82" r="0.47"/>
		<circle cx="884.96" cy="375.76" r="0.47"/>
		<circle cx="890.829" cy="376.22" r="0.47"/>
		<circle cx="896.17" cy="376.22" r="0.47"/>
	</g>
	<g opacity="0.2">
		<circle cx="871.57" cy="374.86" r="0.47"/>
		<circle cx="873.94" cy="375.52" r="0.47"/>
		<circle cx="876.86" cy="376.46" r="0.47"/>
		<circle cx="882.11" cy="377.59" r="0.47"/>
		<circle cx="887.64" cy="378.26" r="0.47"/>
		<circle cx="893.369" cy="378.52" r="0.47"/>
		<circle cx="901.59" cy="377.39" r="0.47"/>
		<circle cx="898.869" cy="378.05" r="0.47"/>
		<circle cx="906.68" cy="376.46" r="0.47"/>
		<circle cx="904.229" cy="376.92" r="0.47"/>
		<circle cx="909.369" cy="375.52" r="0.47"/>
		<circle cx="879.539" cy="377.12" r="0.47"/>
		<circle cx="884.96" cy="378.05" r="0.47"/>
		<circle cx="890.829" cy="378.52" r="0.47"/>
		<circle cx="896.17" cy="378.52" r="0.47"/>
	</g>
	<g opacity="0.2">
		<circle cx="871.57" cy="377.16" r="0.47"/>
		<circle cx="873.94" cy="377.82" r="0.47"/>
		<circle cx="876.86" cy="378.75" r="0.47"/>
		<circle cx="882.11" cy="379.88" r="0.47"/>
		<circle cx="887.64" cy="380.55" r="0.47"/>
		<circle cx="893.369" cy="380.81" r="0.47"/>
		<circle cx="901.59" cy="379.68" r="0.47"/>
		<circle cx="898.869" cy="380.35" r="0.47"/>
		<circle cx="906.68" cy="378.75" r="0.47"/>
		<circle cx="904.229" cy="379.22" r="0.47"/>
		<circle cx="909.369" cy="377.82" r="0.47"/>
		<circle cx="879.539" cy="379.41" r="0.47"/>
		<circle cx="884.96" cy="380.35" r="0.47"/>
		<circle cx="890.829" cy="380.81" r="0.47"/>
		<circle cx="896.17" cy="380.81" r="0.47"/>
	</g>
	<g opacity="0.2">
		<circle cx="871.57" cy="379.45" r="0.47"/>
		<circle cx="873.94" cy="380.11" r="0.47"/>
		<circle cx="876.86" cy="381.05" r="0.47"/>
		<circle cx="882.11" cy="382.18" r="0.47"/>
		<circle cx="887.64" cy="382.85" r="0.47"/>
		<circle cx="893.369" cy="383.11" r="0.47"/>
		<circle cx="901.59" cy="381.98" r="0.47"/>
		<circle cx="898.869" cy="382.64" r="0.47"/>
		<circle cx="906.68" cy="381.05" r="0.47"/>
		<circle cx="904.229" cy="381.51" r="0.47"/>
		<circle cx="909.369" cy="380.11" r="0.47"/>
		<circle cx="879.539" cy="381.71" r="0.47"/>
		<circle cx="884.96" cy="382.64" r="0.47"/>
		<circle cx="890.829" cy="383.11" r="0.47"/>
		<circle cx="896.17" cy="383.11" r="0.47"/>
	</g>
	<g opacity="0.2">
		<circle cx="871.57" cy="381.75" r="0.47"/>
		<circle cx="873.94" cy="382.41" r="0.47"/>
		<circle cx="876.86" cy="383.34" r="0.47"/>
		<circle cx="882.11" cy="384.47" r="0.47"/>
		<circle cx="887.64" cy="385.14" r="0.47"/>
		<circle cx="893.369" cy="385.4" r="0.47"/>
		<circle cx="901.59" cy="384.27" r="0.47"/>
		<circle cx="898.869" cy="384.94" r="0.47"/>
		<circle cx="906.68" cy="383.34" r="0.47"/>
		<circle cx="904.229" cy="383.81" r="0.47"/>
		<circle cx="909.369" cy="382.41" r="0.47"/>
		<circle cx="879.539" cy="384.01" r="0.47"/>
		<circle cx="884.96" cy="384.94" r="0.47"/>
		<circle cx="890.829" cy="385.4" r="0.47"/>
		<circle cx="896.17" cy="385.4" r="0.47"/>
	</g>
	<path fill="#3F3D56" d="M945.75,226.7c0,0,13.689-5.12,18.239,5.43l1.279,0.33l2.87,0.74c7.25-10.83,26.341,0,26.341,0l26.8,11.85
		l-1,1.67l-26.859-9.37c0,0-3.551,11-8.21,13.65c-4.66,2.65-12.23-1.47-12.23-1.47c-4.72-1.89-5.079-10.18-5-14.18l-4.06-0.81
		c-0.28,4-1.761,11.71-9,12.58c-9.851,1.18-10.54-7.51-10.54-7.51S944.13,228.55,945.75,226.7z"/>
	<path fill="#464353" d="M955.521,226.8c-0.45,1-1.08,2.41-0.171,3.06c0.41,0.243,0.904,0.301,1.36,0.16
		c2.89-0.63,4.42-3.71,5.63-6.41c1.21-2.7,3-5.72,6-6c3.47-0.29,7.101,3.49,10,1.51c0.88-0.6,1.41-1.66,2.39-2.1
		c0.712-0.262,1.482-0.311,2.221-0.14c6.702,1.189,11.855,6.59,12.729,13.34c0.15,1.4,0.439,3.22,1.83,3.44
		c0.522,0.009,1.043-0.052,1.55-0.18c2.62-0.3,4.221,2.72,5.061,5.22c1.141,3.41,2.291,7,1.631,10.55
		c-0.521,2.79-2.16,5.35-2.25,8.19c-0.08,2.34,0.91,4.57,1.88,6.7c0.97,2.13,2.55,4.63,4.87,4.33c1.898-0.25,2.949-2.27,3.869-4
		c0.921-1.729,2.561-3.51,4.41-3c0.819,0.24,1.681,0.94,2.431,0.51c0.397-0.289,0.655-0.732,0.71-1.22
		c0.899-3.94-0.391-8.36,1.521-11.91c1.471-2.73,4.46-4.21,6.891-6.15c8.502-6.789,9.89-19.185,3.101-27.687
		c-0.144-0.18-0.291-0.358-0.439-0.533c-2.591-3-6.33-5.73-6.541-9.72c-0.159-3,1.9-5.84,1.921-8.88s-1.88-5.61-4-7.63
		c-6.362-5.82-15.178-8.141-23.58-6.21c-2.181,0.52-4.37,1.34-6.601,1.06c-2.58-0.32-4.739-2-7.061-3.22
		c-7.62-3.85-17.93-1.05-22.54,6.13c-2.67,4.15-3.71,9.57-7.689,12.48c-2.62,1.91-6.359,2.62-7.811,5.52
		c-0.87,1.74-0.62,3.8-0.359,5.73c0.411,3.15,1.929,6.053,4.279,8.19C955.039,220.51,957.119,223.13,955.521,226.8z"/>
	<g opacity="0.1">
		<path d="M1027.33,199.42c0.263-0.762,0.463-1.545,0.6-2.34C1027.662,197.841,1027.461,198.624,1027.33,199.42z"/>
		<path d="M956.06,224.36c0.14-0.517,0.326-1.019,0.561-1.5c1.62-3.67-0.46-6.29-2.88-8.76c-2.352-2.137-3.868-5.04-4.28-8.19
			c-0.135-0.864-0.215-1.736-0.239-2.61c-0.2,0.258-0.377,0.532-0.53,0.82c-0.869,1.74-0.619,3.8-0.359,5.73
			c0.412,3.15,1.929,6.053,4.28,8.19C954.46,219.9,956.11,221.9,956.06,224.36z"/>
		<path d="M1019.521,257.64c-1.851-0.54-3.49,1.28-4.4,3c-0.91,1.72-2,3.71-3.88,4c-2.311,0.3-3.899-2.2-4.87-4.33
			c-0.97-2.13-2-4.36-1.88-6.7c0-0.28,0-0.56,0.08-0.83c-0.652,1.515-1.059,3.126-1.2,4.77c-0.08,2.34,0.91,4.57,1.881,6.7
			c0.97,2.13,2.55,4.63,4.869,4.33c1.9-0.25,2.95-2.27,3.87-4s2.561-3.51,4.409-3c0.82,0.24,1.682,0.94,2.432,0.51
			c0.396-0.289,0.654-0.731,0.709-1.22c0.189-0.882,0.301-1.779,0.33-2.68C1021.17,258.51,1020.35,257.9,1019.521,257.64z"/>
		<path d="M1031.1,238.9c-2.42,1.94-5.409,3.42-6.891,6.15c-0.584,1.19-0.924,2.486-1,3.81c1.5-2.65,4.421-4.11,6.812-6
			c3.729-3.019,6.248-7.278,7.1-12C1035.829,234.008,1033.758,236.776,1031.1,238.9z"/>
		<path d="M1005.709,248.82c0.449-1.126,0.807-2.287,1.07-3.47c0.659-3.54-0.5-7.14-1.641-10.55c-0.83-2.5-2.439-5.52-5-5.22
			c-0.51,0.129-1.034,0.189-1.561,0.18c-1.39-0.22-1.681-2-1.819-3.439c-0.877-6.749-6.029-12.148-12.729-13.34
			c-0.741-0.17-1.517-0.122-2.229,0.14c-1,0.44-1.511,1.5-2.38,2.1c-2.87,2-6.5-1.8-10-1.51c-2.94,0.24-4.75,3.26-6,6
			c-1.25,2.74-2.74,5.78-5.631,6.41c-0.455,0.141-0.949,0.083-1.359-0.16c-0.271-0.195-0.438-0.505-0.449-0.84
			c-0.09,0.594-0.262,1.173-0.511,1.72c-0.449,1-1.08,2.41-0.17,3.06c0.41,0.243,0.904,0.301,1.359,0.16
			c2.891-0.63,4.42-3.71,5.63-6.41c1.21-2.7,3-5.72,6-6c3.471-0.29,7.101,3.49,10,1.51c0.881-0.6,1.41-1.66,2.391-2.1
			c0.71-0.262,1.481-0.311,2.221-0.14c6.702,1.189,11.855,6.59,12.729,13.34c0.15,1.4,0.44,3.22,1.83,3.44
			c0.522,0.009,1.044-0.052,1.551-0.18c2.619-0.3,4.22,2.72,5.061,5.22C1005.11,242,1006.19,245.43,1005.709,248.82z"/>
	</g>
</g>
<g opacity="0.9">
	<path opacity="0.1" fill="#007BFF" enable-background="new    " d="M0.03,206.81c0,0.93,0,1.86,0.07,2.8
		c0.381,10.196,1.558,20.347,3.521,30.36c5.729,29.8,17.699,59.6,31.859,88c0.23,0.45,0.46,0.9,0.681,1.351c0.34,0.67,0.67,1.34,1,2
		c0.666,1.374,1.359,2.732,2.08,4.08l1.569,3l0,0c0.37,0.72,0.76,1.439,1.141,2.17c0.229,0.439,0.47,0.89,0.72,1.34
		c3.913,7.465,8.202,14.728,12.85,21.76l0.53,0.78c5.828,8.766,12.661,16.819,20.36,24c13.54,12.45,30.739,21.45,49.109,26.59
		c0.62,0.18,1.24,0.34,1.87,0.51c1.2,0.311,2.42,0.61,3.64,0.9c0.841,0.2,1.681,0.39,2.53,0.56
		c5.858,1.256,11.796,2.115,17.771,2.57c3.239,0.25,6.489,0.37,9.72,0.37h1.4c3.992-0.032,7.98-0.267,11.949-0.7l0.57-0.07
		c10.761-1.151,21.275-3.982,31.16-8.39c1.58-0.707,3.13-1.457,4.649-2.25l0.78-0.4l0.38-0.21l0,0
		c5.091-2.718,9.989-5.781,14.66-9.17c5.45-3.91,10.59-8.149,15.561-12.51c7.418-6.456,14.431-13.362,21-20.68l0.3-0.33
		c2.819-3.181,5.51-6.447,8.069-9.8v-0.061c1.78-2.34,3.487-4.723,5.12-7.149c0.08-0.101,0.15-0.211,0.23-0.33
		c2.39-3.57,4.609-7.23,6.63-11l0.46-0.87c1.46-2.761,2.793-5.567,4-8.42c6.92-16.08,10-33.49,11.689-50.94
		c3.45-35.26,1.44-71.59-7.89-106.86c-1.26-4.773-2.656-9.523-4.189-14.25c-0.21-0.63-0.41-1.27-0.63-1.9c-0.33-1-0.681-2-1-3.05
		c-0.141-0.42-0.29-0.85-0.44-1.27c-1.333-3.84-2.776-7.656-4.33-11.45l-0.81-2c-0.851-2-1.721-4.09-2.631-6.12
		c-0.829-1.87-1.689-3.75-2.59-5.61c-0.149-0.3-0.29-0.59-0.43-0.89c-7.7-15.81-17.8-31.18-32.16-42.77c-1-0.79-2-1.56-3-2.31
		c-1.5-1.12-3.05-2.193-4.649-3.22l-1.131-0.72l-0.42-0.26l-0.3-0.18l-0.17-0.1c-0.81-0.49-1.64-1-2.47-1.42s-1.7-0.9-2.561-1.33
		l0,0h-0.12l-0.34-0.16c-0.67-0.34-1.35-0.66-2-1l-0.699-0.31l-0.271-0.12l-1.13-0.47c-5.131-2.146-10.474-3.746-15.94-4.77
		c-3.026-0.564-6.086-0.938-9.159-1.12c-4.657-0.286-9.331-0.035-13.931,0.75c-0.7,0.12-1.39,0.25-2.08,0.4
		c-5.813,1.18-11.314,3.564-16.149,7c-6.29,4.56-10.73,10.67-14.761,17l-0.409,0.64c-0.681,1.07-1.341,2.14-2,3.21
		c-2.311,3.74-4.62,7.5-7.061,11.19c-2.26,3.42-4.63,6.78-7.189,10c-2.574,3.247-5.382,6.302-8.4,9.14
		c-0.45,0.42-0.91,0.84-1.38,1.25c-5.563,4.953-11.968,8.872-18.91,11.57c-6.28,2.35-13,3.41-19.53,2.05l0,0
		c-1.85-0.377-3.654-0.954-5.38-1.72c-3.26-1.44-6.45-2.85-9.59-4.1c-5.604-2.413-11.496-4.094-17.53-5l0,0
		c-6.234-0.834-12.578-0.148-18.489,2c-1,0.35-1.95,0.75-2.94,1.19c-4.363,1.941-8.361,4.617-11.82,7.91
		c-0.409,0.39-0.81,0.79-1.21,1.19c-8.75,8.94-13.569,21.31-16.16,33.41C0.868,183.5-0.222,195.15,0.03,206.81z"/>
	
		<linearGradient id="SVGID_1_" gradientUnits="userSpaceOnUse" x1="1395.8613" y1="189.9004" x2="1395.8613" y2="-230.0073" gradientTransform="matrix(-1 0 0 1 1618.2402 230.0498)">
		<stop  offset="0" style="stop-color:#808080;stop-opacity:0.25"/>
		<stop  offset="0.54" style="stop-color:#808080;stop-opacity:0.12"/>
		<stop  offset="1" style="stop-color:#808080;stop-opacity:0.1"/>
	</linearGradient>
	<path fill="url(#SVGID_1_)" d="M127.52,412.72l-2,2.32c0.62,0.18,1.24,0.34,1.87,0.51c1.2,0.311,2.42,0.61,3.64,0.9
		c0.841,0.2,1.681,0.39,2.53,0.56c5.858,1.256,11.796,2.115,17.771,2.57c3.239,0.25,6.489,0.37,9.72,0.37
		c0.644-0.902,1.187-1.871,1.62-2.891c1.32-3.09,6.47-8.569,12-13.84c-0.11,0.891-0.18,1.4-0.18,1.4v0.35l-0.061,14.271l0.57-0.07
		c10.761-1.152,21.275-3.983,31.16-8.39c1.58-0.707,3.13-1.457,4.649-2.25l0.78-0.4l0.38-0.21c0.69-3.439,1.32-6.74,1.83-9.37
		l0.06-0.37c0.07-0.35,0.131-0.699,0.2-1c0.07-0.3,0.11-0.62,0.17-0.899c0.061-0.28,0.07-0.41,0.11-0.601
		c0.34-1.81,0.53-2.89,0.53-2.89c0.027-0.55,0.088-1.097,0.18-1.64l0,0c0.396-3.042,1.752-5.88,3.87-8.101
		c0.876-0.898,1.515-2.002,1.859-3.21l0,0c1.101-3.399,0.91-7.84,0.75-9.859c-0.05-0.671-0.109-1.07-0.109-1.07s3.81-2,6.06-8.21
		c0.476-1.3,0.841-2.64,1.09-4c1.631-8.79,6.66-27.33,7.28-29.61l0,0l0.061-0.22c0,0,0.13-0.32,0.359-0.93
		c0-0.07,0.05-0.141,0.07-0.221l0.09-0.229l0,0c2.26-6.19,11-31.28,10.29-47.94c-0.77-19.13,1.16-29.09,1.16-29.09l2.26-41.58v-0.44
		l0.13-2.43v-0.69c0.33,0.25,0.63,0.49,0.87,0.69l0.55,0.46l0.19,0.18c0,0,0-0.18,0-0.48c0.35,0.29,0.55,0.48,0.55,0.48
		s1-16.15,0.9-25.28c0-1.07,0-2.06-0.08-2.9c6.76-2.29,17-6.07,17.63-8c0.49-1.59,4.29-5.09,7.56-7.89l1.79-1.5l0.931-0.77
		c1.3-1.06,2.189-1.75,2.189-1.75c-0.252-0.044-0.492-0.135-0.71-0.27c0.36-0.16,0.75-0.35,1.15-0.57c1-0.52,2-1.16,3.16-1.91
		c4.81-3.17,10.68-8.17,13.949-13c1.82-2.71,2.83-5.38,2.39-7.65c-0.036-0.217-0.09-0.431-0.159-0.64l13.819-19.87l1.61-2.32
		c1.019-1.463,0.876-3.438-0.34-4.74l0.06-0.08l-0.1-0.07l-0.601-0.4l0.11,0.1c-0.883-0.5-2.001-0.259-2.6,0.56l-0.24,0.35
		l-13.33,19.12l-2.35,3.39c-5.2-1.57-12.771,2.85-18.74,7.35c-2.16,1.63-4.12,3.26-5.67,4.63l-1,0.91c-0.47-1-0.74-1.7-0.74-1.7
		c-0.29,3.16-11.45,7.9-14.05,9.62c-1.186,0.714-2.514,1.162-3.89,1.31c0.37-12-8.92-24.65-8.92-24.65l-18-22.95l0,0l-1.11-1.41
		l-3.56-4.53c-0.254-1.412-0.361-2.846-0.32-4.28c0.024-2.347,0.361-4.681,1-6.94c0.109-0.36,0.229-0.73,0.35-1.1
		c0.348-1.028,0.766-2.03,1.25-3c0.19-0.37,0.38-0.75,0.59-1.12h0.101c-0.391,1.38-0.8,2.77-1.08,4.16
		c-0.08,0.38-0.15,0.75-0.2,1.13l-0.06,0.47c-0.063,0.595-0.089,1.192-0.08,1.79c0,0.07,0,0.16,0,0.26
		c0.18,2.41,1.95,11.15,4.37,10.76c0.516,0.042,1.014-0.199,1.3-0.63c0.272-0.309,0.514-0.644,0.72-1
		c0.156-0.27,0.294-0.551,0.41-0.84c0.163-0.39,0.301-0.791,0.41-1.2c0.529-2.293,0.722-4.651,0.569-7
		c-0.031,1.095-0.151,2.185-0.359,3.26c0.13-2.53-0.08-5.19-0.16-7.35c0-0.47,0-0.93,0-1.35s0-0.91,0-1.37l0,0
		c0-0.46,0-0.92,0.05-1.39h0.09h0.19c0,0.35,0,0.73,0,1.12c0-0.37,0-0.75,0-1.13h0.11h0.18c2.279-0.409,4.505-1.08,6.63-2
		c2.606-1.126,5.044-2.61,7.24-4.41c0.479-0.021,0.954-0.088,1.42-0.2c1.359-0.319,2.603-1.012,3.59-2l0.2-0.22
		c0.475,1.576,0.154,3.284-0.86,4.58c-0.031,0.051-0.067,0.098-0.109,0.14h0.14c2.87-0.2,5.32-2.39,6.51-5
		c0.049-0.086,0.089-0.177,0.12-0.27c1.02-2.846,1.318-5.9,0.87-8.89c-0.442-2.979-0.659-5.988-0.65-9c0-0.73,0.13-1.46,0.2-2.19
		c0-0.09,0-0.17,0-0.26c0.07-0.812,0.07-1.628,0-2.44c0.005-0.057,0.005-0.113,0-0.17c-0.049-0.442-0.129-0.879-0.24-1.31h0.091
		c0.65-0.018,1.258-0.331,1.649-0.85l0.18-0.15c0.223-0.201,0.417-0.429,0.58-0.68c0.22-0.312,0.404-0.647,0.55-1
		c0.292-0.798,0.522-1.617,0.69-2.45c0.865-3.359,1.259-6.822,1.17-10.29c-0.07,1-0.2,2.1-0.36,3.15c0.28-4-0.279-7.84-2.909-10.72
		c-1.801-2-4.33-3.15-6.771-4.3c-0.856-0.314-1.613-0.853-2.189-1.56c-0.427-0.852-0.659-1.788-0.681-2.74
		c-0.85-5.82-6.319-9.85-11.76-12.21c-7-3-15.43-4.35-22.16-0.73c-3.27,1.75-5.85,4.51-8.8,6.76c-3.74,2.83-8,4.82-12,7.3
		c-4,2.479-7.82,5.62-9.74,9.84c-1.92,4.22-1.62,9.2-1.09,14c0.271,2.44,0.6,4.88,0.73,7.28c0,0.2,0,0.4,0,0.59
		c0.196,5.521-0.828,11.019-3,16.1c-2.191,5.248-5.761,9.805-10.33,13.19c-1.107,0.675-2.095,1.53-2.92,2.53
		c-0.832,1.033-0.929,2.476-0.24,3.61c0.232,0.291,0.505,0.547,0.81,0.76c0.335,0.236,0.646,0.504,0.931,0.8
		c0.226,0.259,0.401,0.557,0.52,0.88c0.298,0.944,0.325,1.952,0.08,2.91c0,0.09,0,0.18-0.05,0.26l-0.12,0.5
		c-1.345,4.984-4.021,9.51-7.74,13.09c0.16,1.18,1.601,1.64,2.79,1.82l0,0c3.129,0.457,6.288,0.684,9.45,0.68h1.36
		c-0.15,0.36-0.29,0.73-0.44,1.12l0,0c-0.32,0.85-0.67,1.8-1,2.8l0,0c-1.44,4.25-2.78,9.45-2.18,12.89
		c1.159,6.7,4.63,37.31,2.899,42.67c-1.729,5.36,2.7,44.58,2.7,44.58s0.12,0.61,0.35,1.68c0.28,1.32,0.73,3.34,1.311,5.81
		c0,0.1-0.08,0.21-0.13,0.31c-2.7,6.35-5.74,13.3-7.28,16.12c-2.07,3.79-2.1,17.83,1.23,30.68c1.71,6.62,4.319,12.92,8,17.34
		c0,0,3.779,5.33,3.489,8c-0.023,0.223-0.088,0.44-0.189,0.64c-0.82,1.6-0.4,4.05-0.07,5.37c0.14,0.58,0.271,0.94,0.271,0.94v1
		l1.67,36.93c-0.037,3.869-0.305,7.732-0.801,11.57c-4.609,5.71-11.72,14-15.079,15.399c-5.181,2.11-43.82,49-43.82,49
		s0.31,0.561,0.91,1.48L127.52,412.72z"/>
	<path fill="#A1616A" d="M282.28,159.02c-1.127,0.708-2.386,1.185-3.699,1.4c-4.83,0.15-8.811-12.93-8.811-12.93
		s1.38-1.39,3.57-3.34c6.47-5.76,20.05-16.39,26.42-10.44C306.9,140.38,290.6,154.52,282.28,159.02z"/>
	<path fill="#A1616A" d="M133.52,417.01c5.858,1.257,11.796,2.116,17.771,2.57c-2.53-4.47-19-9.78-19-9.78l-2.23,2.601l-1.06,1.25
		l-1.62,1.899c1.2,0.311,2.42,0.61,3.64,0.9C131.84,416.65,132.68,416.84,133.52,417.01z"/>
	<path opacity="0.1" enable-background="new    " d="M282.28,159.02c-1.127,0.708-2.386,1.185-3.699,1.4
		c-4.83,0.15-8.811-12.93-8.811-12.93s1.38-1.39,3.57-3.34C274.88,147.71,279.24,157.25,282.28,159.02z"/>
	<path fill="#FF748E" d="M251.3,154.31c0,0,4,0.29,6.54-1.42s13.5-6.39,13.78-9.52c0,0,6.54,15.92,10.229,16.49
		c0,0-11.37,8.95-12.22,11.79c-0.851,2.84-23,9.8-23,9.8L251.3,154.31z"/>
	<path fill="#5E5A6B" d="M251.3,154.31c0,0,4,0.29,6.54-1.42s13.5-6.39,13.78-9.52c0,0,6.54,15.92,10.229,16.49
		c0,0-11.37,8.95-12.22,11.79c-0.851,2.84-23,9.8-23,9.8L251.3,154.31z"/>
	<path opacity="0.1" enable-background="new    " d="M128.98,413.65c0.49,0.75,1.16,1.71,2,2.8c0.84,0.2,1.681,0.39,2.53,0.56
		c5.858,1.257,11.796,2.116,17.77,2.57c-2.529-4.47-19-9.78-19-9.78l-2.229,2.601L128.98,413.65z"/>
	<path fill="#5E5A6B" d="M129.15,410.9c0,0,0.301,0.56,0.891,1.47c1.057,1.614,2.224,3.154,3.489,4.61
		c5.859,1.257,11.796,2.114,17.771,2.569c3.24,0.25,6.49,0.37,9.72,0.37h1.4c0.385-0.64,0.719-1.308,1-2c1.229-2.92,5.89-8,11-13
		c0.24-0.25,0.5-0.49,0.74-0.729c7.29-7.07,15.17-13.761,15.17-13.761l0.76-48.689c0,0-1.73,2.31-4.19,5.39
		c-4.52,5.65-11.51,13.9-14.79,15.25C167.04,364.52,129.15,410.9,129.15,410.9z"/>
	<path opacity="0.1" enable-background="new    " d="M129.15,410.9c0,0,0.301,0.56,0.891,1.47c1.057,1.614,2.224,3.154,3.489,4.61
		c5.859,1.257,11.796,2.114,17.771,2.569c3.24,0.25,6.49,0.37,9.72,0.37h1.4c0.385-0.64,0.719-1.308,1-2c1.229-2.92,5.89-8,11-13
		c0.24-0.25,0.5-0.49,0.74-0.729c7.29-7.07,15.17-13.761,15.17-13.761l0.76-48.689c0,0-1.73,2.31-4.19,5.39
		c-4.52,5.65-11.51,13.9-14.79,15.25C167.04,364.52,129.15,410.9,129.15,410.9z"/>
	<path opacity="0.1" enable-background="new    " d="M148.99,403.97c4.204,0.443,8.444,0.443,12.649,0
		C169.17,403.26,163.52,407.81,148.99,403.97z"/>
	<path opacity="0.1" enable-background="new    " d="M145.58,408.81c0,0,9.949,5.681,13.79,2.841
		C163.21,408.81,155.67,414.39,145.58,408.81z"/>
	<path fill="#5E5A6B" d="M185.65,289.18c0.394,0.875,0.451,1.865,0.16,2.78c-0.424,1.021-0.569,2.135-0.42,3.23
		c0.06,0.64,0.163,1.275,0.311,1.9c0.159,0.67,0.31,1.12,0.31,1.12l1.68,37.51c-0.036,3.832-0.296,7.658-0.779,11.46
		c-0.54,4-1.46,8.11-3,10.521c-3.391,5.2-7.82,39.2-8.74,46.54l-0.17,1.39l-0.061,13.54c10.762-1.152,21.275-3.982,31.16-8.39
		c1.58-0.707,3.13-1.457,4.65-2.25l0.779-0.4l0.381-0.21l0,0c0.689-3.52,1.319-6.83,1.79-9.35l0.06-0.37c0.07-0.36,0.14-0.7,0.2-1
		s0.109-0.62,0.17-0.9c0.06-0.28,0.07-0.41,0.109-0.6c0.2-1.12,0.32-1.76,0.32-1.76c0.055-0.933,0.186-1.859,0.391-2.771l0,0
		c0.499-2.59,1.739-4.979,3.569-6.88c1.137-1.235,1.888-2.774,2.16-4.43l0,0c0.564-3.159,0.662-6.384,0.29-9.57
		c0.191-0.118,0.375-0.248,0.55-0.39c1.16-0.82,4.271-3.46,5.95-9.28c0.246-0.838,0.447-1.69,0.6-2.55
		c1.71-9.28,7.2-29.561,7.2-29.561s0.21-0.55,0.57-1.54l0,0c0.13-0.33,0.27-0.72,0.42-1.149c0-0.07,0.05-0.141,0.07-0.221
		l0.09-0.229l0,0c2.87-8.21,10.06-30.49,9.46-45.68c-0.771-18.94,1.13-28.8,1.13-28.8l2.37-44v-0.69v-0.41l0.22-4.14L227.8,201
		h-1.27l-5.181-0.16h-0.16h-0.56l-7-0.21l-3.13-0.09l-5.641-0.17h-0.909h-1.15l-4.35-0.13l-12.681,7.39c0,0-0.489,1.23-1.3,3.18
		c-0.17,0.44-0.37,0.93-0.59,1.44c-0.22,0.51-0.43,1.07-0.68,1.66l-1.801,4.32c-0.21,0.51-0.42,1-0.64,1.54
		c-2.68,6.38-5.729,13.44-7.27,16.27c-1.91,3.52-2,16,0.63,28c1.649,7.41,4.37,14.66,8.41,19.57
		C183.779,285.342,184.825,287.21,185.65,289.18z"/>
	<path opacity="0.1" enable-background="new    " d="M199.86,390.33c0,0,7.771,6.13,11,6.11
		C214.09,396.42,199.86,390.33,199.86,390.33z"/>
	<path fill="#A1616A" d="M246.61,133.9v12.51l-8.26-3.56l-8.22-3.55l-17.9-17.62c0,0-14.17-9.21-21.75-17.59
		c-4.33-4.79-6.51-9.3-2.689-11.68c1.845-1.212,3.511-2.677,4.949-4.35c3.814-4.486,7.128-9.375,9.881-14.58
		c0.119-0.21,0.239-0.42,0.35-0.63c3.69-6.77,6.13-12.55,6.13-12.55s10.38,3.33,17.061,8c0.54,0.37,1.05,0.76,1.54,1.16
		c3.729,3.06,5.569,6.59,2.149,10.12c-0.885,0.914-1.704,1.89-2.45,2.92l0,0c-0.558,0.763-1.065,1.561-1.52,2.39
		c-0.21,0.37-0.4,0.74-0.58,1.11c-2.296,4.704-3.092,9.999-2.28,15.17L246.61,133.9z"/>
	<path fill="#464353" d="M245.1,44.6c0.43,0.74,1,1.39,1.43,2.15c0.841,1.6,0.7,3.5,0.62,5.31c-0.213,2.832-0.027,5.68,0.551,8.46
		c0.59,2.49,1.68,4.9,1.77,7.46c0.13,3.62-1.75,7-3.57,10.09c1.992-0.061,3.871-0.936,5.2-2.42c0.479,1.625,0.104,3.383-1,4.67
		c3-0.14,5.51-2.48,6.65-5.23c0.993-2.817,1.284-5.834,0.85-8.79c-0.438-2.943-0.651-5.915-0.64-8.89
		c0.201-1.608,0.288-3.229,0.26-4.85c-0.28-3.22-2.26-6-4.16-8.62l-3.85-5.27c-0.255-0.424-0.622-0.77-1.061-1
		C244.52,36.12,244.08,42.82,245.1,44.6z"/>
	<path opacity="0.1" enable-background="new    " d="M229.85,79.57c-0.885,0.914-1.704,1.89-2.45,2.92l0,0
		c-0.558,0.763-1.065,1.561-1.52,2.39c-0.21,0.37-0.4,0.74-0.58,1.11c-5.037-0.269-9.922-1.821-14.19-4.51
		c-3.163-1.996-5.924-4.567-8.14-7.58c-0.12-0.16-0.24-0.33-0.35-0.5c0.119-0.21,0.239-0.42,0.35-0.63
		c3.69-6.77,6.13-12.55,6.13-12.55s10.38,3.33,17.061,8c0.54,0.37,1.05,0.76,1.54,1.16C231.43,72.51,233.27,76.04,229.85,79.57z"/>
	<path fill="#A1616A" d="M256.82,55.07c-0.001,14.396-10.273,26.742-24.43,29.36c-1.786,0.317-3.596,0.478-5.41,0.48h-0.13
		c-0.32,0-0.649,0-1,0c-5.238-0.178-10.336-1.745-14.77-4.54c-3.16-1.988-5.92-4.549-8.141-7.55
		c-9.729-13.288-6.844-31.947,6.444-41.676c13.288-9.729,31.947-6.844,41.677,6.444C254.776,42.662,256.792,48.781,256.82,55.07z"/>
	<path opacity="0.1" enable-background="new    " d="M230.89,128.83c0,0,15,8.48,11.18,1.33l-19.609-29l0,0l22.26,28.61
		c0,0,14.21,19.51,6.44,33c0,0-1.141,11.18,0.189,13.83s-0.38,30.89-0.38,30.89s-5.3-4.93-8.15-4c-2.85,0.93-22.92,2.65-22.92,2.65
		L230.89,128.83z"/>
	<path opacity="0.1" enable-background="new    " d="M249.64,201.59l-0.28,5.24c-1.8-1.31-4.3-2.77-6-2.22
		c-2.84,0.95-22.92,2.66-22.92,2.66l0.92-6.52L249.64,201.59z"/>
	<path fill="#464353" d="M231.46,128.83c0,0,15,8.48,11.17,1.33l-19.61-29l0,0l22.271,28.61c0,0,14.21,19.51,6.439,33
		c0,0-1.14,11.18,0.19,13.83s-0.38,30.89-0.38,30.89s-5.311-4.93-8.15-4c-2.84,0.93-22.87,2.64-22.87,2.64L231.46,128.83z"/>
	<path opacity="0.1" enable-background="new    " d="M239.52,143.37c-0.88,9.1-4.63,19.94-4.63,19.94s-2.64,26.91-6,34.87
		c-3.36,7.96-1.899,18.94-3.8,39.21c-0.68,7.3-3,12.31-6.2,15.7c-5.22,5.57-12.67,6.73-18.55,6.38c-0.48,0-0.94-0.06-1.39-0.1
		c-9.48-1-18.57-46.61-18.57-46.61s-4.351-38.84-2.65-44.14c1.7-5.3-1.7-35.62-2.84-42.25c-0.72-4.2,1.45-11.07,3.13-15.54
		c1-2.58,1.79-4.36,1.79-4.36s3.22-10.23,8.53-15.53c1.474-1.519,3.503-2.372,5.62-2.36c2.487,0.095,4.905,0.854,7,2.2l0.24,0.16
		c0,0,34.489,35.24,37.699,43.38C239.74,136.6,239.83,139.9,239.52,143.37z"/>
	<path fill="#3A2F2F" d="M238.35,142.8c-0.88,9.1-4.62,19.94-4.62,19.94s-2.649,26.91-6.06,34.87s-1.9,18.94-3.79,39.22
		c-0.68,7.29-3,12.31-6.21,15.69c-5.22,5.57-12.66,6.73-18.55,6.39l-1.391-0.11c-9.47-0.94-18.569-46.61-18.569-46.61
		s-4.351-38.84-2.65-44.14c1.7-5.3-1.7-35.62-2.84-42.25c-0.72-4.2,1.45-11.07,3.13-15.54c1-2.58,1.79-4.36,1.79-4.36
		s3.229-10.23,8.53-15.53c1.478-1.514,3.505-2.365,5.619-2.36c2.488,0.094,4.905,0.854,7,2.2l0.25,0.16c0,0,34.479,35.24,37.7,43.39
		C238.6,136.03,238.7,139.29,238.35,142.8z"/>
	<path opacity="0.1" enable-background="new    " d="M199.72,281.49c0,0-7.81,7-10.51,6.68
		C186.51,287.85,199.72,281.49,199.72,281.49z"/>
	<path opacity="0.1" enable-background="new    " d="M201.8,288.18c0,0-8.24,3.82-10.7,4.39
		C188.64,293.14,198.62,287.19,201.8,288.18z"/>
	<path opacity="0.1" enable-background="new    " d="M233.68,183.58c0,0,12.22,0.15,14.07,4S237.66,182.02,233.68,183.58z"/>
	<path opacity="0.1" enable-background="new    " d="M231.98,190.26c0,0,9.38,2,12.221,4.271
		C247.04,196.8,231.98,190.26,231.98,190.26z"/>
	<path opacity="0.1" enable-background="new    " d="M216.21,167.1c0,0-1.13,38.51-5.33,43.48
		C206.68,215.55,216.21,167.1,216.21,167.1z"/>
	<path opacity="0.1" enable-background="new    " d="M205.69,275.95c0,0-7.8,34,7.891,36.09c15.689,2.09,10.87-38.65,10.87-38.65
		L205.69,275.95z"/>
	<path fill="#A1616A" d="M205.12,275.38c0,0-7.801,34,7.89,36.09c15.69,2.09,10.87-38.65,10.87-38.65L205.12,275.38z"/>
	<path opacity="0.1" enable-background="new    " d="M256.63,51.78c-0.443-0.646-0.815-1.336-1.11-2.061
		c-2.09-4.35-7.45-2.229-11.39-0.14l-2.11,2.7c-0.952,1.127-1.759,2.37-2.399,3.7c-0.398,1.086-0.732,2.195-1,3.32
		c-0.54,1.92-1.341,3.76-2.061,5.63c-2.381,6.25-3.8,12.825-4.21,19.5c-1.786,0.317-3.596,0.478-5.41,0.48h-0.13v-0.14
		c0.2-0.75,0.37-1.51,0.521-2.27l0,0c0.819-4.287,0.921-8.68,0.3-13c0-0.09,0-0.19,0-0.28c-0.15-1-0.33-1.93-0.42-2.9
		c-0.36,0.67-0.71,1.34-1.08,2c-2.37,4.46-4.87,8.83-9.36,10.78c-1.821,0.709-3.739,1.141-5.689,1.28
		c-2.406,0.129-4.791,0.524-7.11,1.18c-0.791,0.22-1.507,0.652-2.07,1.25c-0.606,0.928-0.952,2.002-1,3.11
		c-0.249,1.471-0.627,2.916-1.13,4.32c-2.024,5.228-5.184,9.941-9.25,13.8l-1,1c-1.748,1.805-3.834,3.249-6.14,4.25
		c-2.093,0.719-4.298,1.058-6.51,1c1-2.58,1.79-4.36,1.79-4.36s3.229-10.23,8.529-15.53c1.478-1.513,3.505-2.365,5.62-2.36
		c3.938-4.691,7.345-9.802,10.16-15.24c-9.794-13.254-6.988-31.938,6.267-41.732c13.255-9.794,31.938-6.988,41.732,6.266
		c3.131,4.238,5.084,9.229,5.661,14.466L256.63,51.78L256.63,51.78z"/>
	<path fill="#464353" d="M258.52,28.51c-1.77-2-4.25-3.12-6.64-4.25c-0.846-0.319-1.589-0.862-2.15-1.57
		c-0.411-0.846-0.64-1.77-0.67-2.71c-0.83-5.77-6.189-9.76-11.53-12.1c-6.869-3-15.119-4.3-21.72-0.72
		c-3.2,1.74-5.74,4.47-8.63,6.69c-3.66,2.81-7.89,4.77-11.8,7.23c-3.91,2.46-7.641,5.55-9.5,9.78c-2.87,6.52-0.72,14-0.351,21.12
		c0.561,11.21-4,22.94-13.06,29.58c-1.089,0.671-2.06,1.52-2.87,2.51c-0.811,1.027-0.902,2.448-0.229,3.57
		c0.449,0.62,1.199,1,1.699,1.55c1,1.18,0.82,3,0.42,4.5c-1.303,4.939-3.923,9.433-7.579,13c0.149,1.17,1.569,1.63,2.729,1.8
		c3.066,0.451,6.161,0.678,9.26,0.68c4.917,0.414,9.739-1.526,13-5.23c5.5-5.19,10.19-11.68,11.44-19.14
		c0.052-1.11,0.397-2.186,1-3.12c0.568-0.591,1.282-1.022,2.07-1.25c4.119-1.42,8.8-0.72,12.8-2.46c5.18-2.25,7.7-7.7,10.439-12.8
		c0.09,1,0.271,1.94,0.42,2.9c0.791,5.203,0.529,10.511-0.77,15.61c-0.74,2.88-1.82,5.75-1.74,8.73c0.061,2.18,2.3,13.75,5.25,10.29
		c2.95-3.46,1.86-11.1,1.87-15.39c0.005-8.026,1.477-15.983,4.34-23.48c0.71-1.87,1.51-3.7,2.061-5.63
		c0.262-1.124,0.596-2.229,1-3.31c0.638-1.331,1.444-2.575,2.399-3.7l2.11-2.71c3.939-2.08,9.3-4.21,11.39,0.14
		c0.811,1.67,1.23,3.51,3.3,1.89c1.24-1,1.641-2.85,2-4.28C261.58,40.17,262.66,33.09,258.52,28.51z"/>
	<path opacity="0.1" enable-background="new    " d="M218.52,132.82c-0.81-20.41-29.359-24.63-36-5.33
		c-0.05,0.13-0.09,0.26-0.13,0.39c-4.36,13.08-2.47,46.18-2.47,46.18s0.57,22.22,2.66,29.61s7.949,28.61,7.949,32
		s5.45,16.48,7.74,17.43c2.29,0.95,3.46,8.33,4,9.66c0.54,1.33,2.25,18.59,2.25,18.59s21.41-1.33,21.79-4.74
		c0.38-3.41-4.74-20.08-4.74-20.08s-3.77-6.82-4.25-12.32c-0.479-5.5-3.51-8-2.949-11.74c0.56-3.74-1.7-5.69-1.7-8.15
		c0-2.46-1.71-9.1-1.71-9.1s-3.601-2.84-3-6.25c0.6-3.41-5.11-10.23-3.601-12.69c1.511-2.46,1.9-8.53,1.9-8.53
		s1.89-27.28,3.22-34.67s9.09-19.32,9.09-19.32S218.57,133.42,218.52,132.82z"/>
	<path opacity="0.1" enable-background="new    " d="M217.67,252.52c-5.22,5.57-12.66,6.73-18.55,6.39
		c-0.67-2.59-1.67-5.76-3.12-6.36c-2.3-0.95-7.74-14-7.74-17.43c0-3.43-5.87-24.63-8-32c-2.13-7.37-2.65-29.61-2.65-29.61
		s-1.899-33.1,2.46-46.17c0-0.14,0.091-0.27,0.131-0.4c6.67-19.3,35.229-15.08,36,5.33c0,0.6,0,0.94,0,0.94
		s-7.771,11.93-9.091,19.32c-1.319,7.39-3.229,34.67-3.229,34.67s-0.38,6.07-1.89,8.53c-1.511,2.46,4.17,9.29,3.6,12.7
		c-0.57,3.41,3,6.25,3,6.25s1.7,6.63,1.7,9.09s2.279,4.36,1.71,8.15c-0.57,3.79,2.47,6.25,2.95,11.75
		C215.401,246.741,216.318,249.726,217.67,252.52z"/>
	<path fill="#3A2F2F" d="M217.41,132.25c-0.801-20.41-29.36-24.63-36-5.33c0,0.13-0.091,0.26-0.131,0.4
		c-4.359,13.07-2.46,46.17-2.46,46.17s0.561,22.22,2.65,29.61c2.089,7.39,8,28.61,8,32s5.44,16.48,7.74,17.43
		c2.3,0.95,3.45,8.33,4,9.66s2.27,18.57,2.27,18.57s21.4-1.33,21.78-4.74c0.38-3.41-4.74-20.06-4.74-20.06s-3.77-6.82-4.26-12.32
		c-0.49-5.5-3.51-7.95-2.94-11.74c0.57-3.79-1.71-5.69-1.71-8.15s-1.699-9.09-1.699-9.09s-3.601-2.85-3-6.26
		c0.6-3.41-5.12-10.23-3.601-12.69c1.521-2.46,1.891-8.53,1.891-8.53s1.899-27.28,3.22-34.67c1.32-7.39,9.1-19.32,9.1-19.32
		S217.44,132.9,217.41,132.25z"/>
	<path opacity="0.1" enable-background="new    " d="M182.24,184.72c0.569-0.57,11.369-12.5,14.779-8.24
		C200.43,180.74,182.24,184.72,182.24,184.72z"/>
	<path opacity="0.1" enable-background="new    " d="M183.24,193.96c0.42-0.43,10.8-0.85,13.359-6.68
		C199.16,181.45,183.24,193.96,183.24,193.96z"/>
	<g opacity="0.1">
		<path d="M171.42,89.19c0.257,0.29,0.451,0.631,0.57,1c0.417-1.309,0.207-2.737-0.57-3.87c-0.51-0.58-1.25-0.92-1.71-1.54
			l-0.09-0.16c-0.509,0.944-0.475,2.088,0.09,3C170.17,88.26,170.91,88.61,171.42,89.19z"/>
		<path d="M185.88,52.36c0-1.08,0-2.15,0-3.22c-0.2-3.87-0.91-7.84-1.08-11.71c-0.22,4.74,0.84,9.73,1.08,14.55
			C185.88,52.1,185.87,52.23,185.88,52.36z"/>
		<path d="M230.16,99.82c-2.631,3.09-4.69-5.79-5.15-9.29c-0.075,0.61-0.104,1.225-0.09,1.84c0.06,2.18,2.29,13.75,5.24,10.29
			c2-2.34,2.189-6.33,2.069-10C232.13,95.42,231.65,98.08,230.16,99.82z"/>
		<path d="M227.42,68.03c0.227,1.49,0.363,2.993,0.41,4.5c0.093-2.454-0.044-4.912-0.41-7.34c-0.15-1-0.33-1.93-0.41-2.9
			c-2.74,5.1-5.27,10.55-10.44,12.8c-4,1.73-8.68,1-12.81,2.46c-0.787,0.222-1.499,0.654-2.06,1.25c-0.608,0.931-0.954,2.009-1,3.12
			c-1.25,7.46-5.94,14-11.45,19.14c-3.255,3.71-8.083,5.649-13,5.22c-3.1,0.007-6.194-0.217-9.26-0.67
			c-0.477-0.065-0.942-0.186-1.391-0.36c-0.43,0.48-0.88,1-1.35,1.4c0.16,1.17,1.58,1.63,2.74,1.8c3.065,0.451,6.16,0.679,9.26,0.68
			c4.918,0.42,9.743-1.521,13-5.23c5.51-5.19,10.2-11.68,11.45-19.14c0.048-1.11,0.393-2.188,1-3.12
			c0.563-0.593,1.273-1.024,2.06-1.25c4.13-1.42,8.81-0.72,12.81-2.46c5.171-2.25,7.7-7.7,10.44-12.8
			C227.09,66.1,227.27,67.07,227.42,68.03z"/>
		<path d="M260.58,43.35c-0.32,1.43-0.721,3.32-1.95,4.28c-2.07,1.62-2.5-0.22-3.3-1.89c-2.09-4.35-7.46-2.23-11.391-0.14
			l-2.109,2.7c-0.954,1.126-1.761,2.37-2.4,3.7c-0.398,1.086-0.732,2.195-1,3.32c-0.54,1.92-1.34,3.76-2.06,5.63
			c-2.866,7.497-4.337,15.454-4.341,23.48c0,0.36,0,0.76,0,1.16c0.201-7.458,1.661-14.829,4.32-21.8c0.72-1.87,1.521-3.7,2.061-5.63
			c0.267-1.123,0.601-2.228,1-3.31c0.635-1.333,1.441-2.577,2.399-3.7l2.11-2.71c3.93-2.08,9.3-4.21,11.39,0.14
			c0.8,1.67,1.23,3.51,3.3,1.89c1.23-1,1.631-2.85,1.95-4.28c0.854-3.327,1.242-6.756,1.15-10.19
			C261.528,38.476,261.15,40.934,260.58,43.35z"/>
	</g>
	<path fill="#464353" d="M286.42,150.9l0.59,0.41c-1.065-0.731-1.336-2.188-0.604-3.253c0.002-0.002,0.003-0.004,0.005-0.007
		l26.329-38.229c0.736-1.063,2.193-1.331,3.261-0.6l-0.58-0.4c1.719,1.164,2.17,3.501,1.006,5.221
		c-0.002,0.003-0.004,0.006-0.006,0.008l-24.76,35.85c-1.17,1.723-3.514,2.172-5.237,1.002
		C286.422,150.901,286.421,150.901,286.42,150.9z"/>
	<path fill="#9F9EFF" d="M315.516,108.871l0.593,0.408l0,0l-28.992,42.091l0,0l-0.594-0.409c-0.791-0.545-0.99-1.628-0.445-2.42
		l27.019-39.225C313.641,108.525,314.725,108.326,315.516,108.871z"/>
	<path fill="#464353" d="M312.327,114.654l0.107,0.074c0.077,0.053,0.097,0.159,0.043,0.236l-2.172,3.154
		c-0.054,0.077-0.159,0.097-0.237,0.043l-0.106-0.074c-0.077-0.053-0.097-0.159-0.044-0.236l2.173-3.154
		C312.145,114.621,312.25,114.601,312.327,114.654z"/>
</g>
<linearGradient id="SVGID_2_" gradientUnits="userSpaceOnUse" x1="491.8291" y1="621.5884" x2="491.8291" y2="65.2305" gradientTransform="matrix(1 0 0 1 -38.04 230.0498)">
	<stop  offset="0" style="stop-color:#808080;stop-opacity:0.25"/>
	<stop  offset="0.54" style="stop-color:#808080;stop-opacity:0.12"/>
	<stop  offset="1" style="stop-color:#808080;stop-opacity:0.1"/>
</linearGradient>
<path fill="url(#SVGID_2_)" d="M814.229,759.57l-8-25.459c0,0-6.699-18.07-5.619-27.762c1.08-9.689-2.25-20.27-2.25-20.27
	l6.58-34.25c0,0,0.359-3.73,0.34-8.65c0-8.199-1.16-19.699-6.84-22.689c-9.08-4.789-27.689-45.279-31.591-45.279
	c-3.9,0-16.439-2.611-16.439-7c0.015-0.16,0.015-0.32,0-0.48c0,0,0-0.1,0-0.148s-0.061-0.23-0.101-0.352l-0.06-0.17l-0.181-0.398
	l-0.061-0.109c-0.489-0.871-1.099-1.668-1.811-2.371c16.939-3.229,33.801-6.779,50.54-10.91h-0.62l0.62-0.148
	c-2.225-0.023-4.444-0.178-6.649-0.461l-0.49,0.109c-24.619-3.359-46.75-22.609-52.771-47c-6.68-27,5-55.18,4.479-83
	c-0.359-17.604-5.591-34.767-15.109-49.58c-1.279-2-2.641-3.921-4.061-5.801c18.877-9.171,26.745-31.908,17.573-50.785
	c-0.851-1.752-1.835-3.435-2.943-5.035c-0.43-0.62-0.88-1.221-1.34-1.811c9.187,15.239,6.604,34.807-6.22,47.141
	c10.06-18.273,3.401-41.243-14.872-51.304c-18.272-10.06-41.243-3.401-51.303,14.872c-0.121,0.219-0.239,0.439-0.355,0.661
	c-0.811-0.36-1.62-0.72-2.43-1.05c5.15-14.097,18.16-23.805,33.14-24.73c-0.75-0.05-1.489-0.07-2.25-0.07
	c-15.228,0.022-28.949,9.196-34.79,23.26c-11.319-4.15-23.13-5.87-34.75-2.92c-2.159,0.545-4.268,1.278-6.3,2.189l0.521-0.409
	c-2.883,1.217-5.543,2.906-7.87,5c-3.479,3.21-5.93,7.369-8.88,11.09c-3.007,3.712-6.565,6.942-10.55,9.58
	c0.33-0.16,0.659-0.351,1-0.521c-13.4,9.48-31.61,12.21-46.931,6.11c-4.301-1.721-8.45-4.07-13-4.7
	c-3.503-0.434-7.058,0.084-10.29,1.5c0.141-0.11,0.271-0.23,0.42-0.34c-4.229,1.738-7.946,4.525-10.8,8.1
	c-5,6.17-7.511,14-9.301,21.71c-1.33,5.475-2.001,11.087-2,16.721c0.07,7.22,1.69,14.189,6,19.84c6.681,8.66,15.801,11,25.32,12.56
	c-0.28,1-0.551,1.92-0.79,2.901c-11.353,44.902,14.896,90.73,59.37,103.66l1.85,3.139l0.601,0.141c4.431,7.49,9.28,15.9,13.78,24
	c0.239,0.432,0.47,0.859,0.71,1.279l-8.511,4.381l0,0c-2.229,1.15-7.771,4.16-10.84,7.119c-0.888,0.768-1.573,1.738-2,2.83
	c-1.3,4.361-8.22,15.68-13,18.721c-4.78,3.039-8.66,17.852-8.22,25.67c0.438,7.82-2.602,7-10.391,7.42c-7.791,0.42,0,11.75,0,11.75
	l0.199,0.762c-0.359,0.619-0.771,1.291-1.22,2c-2,3.068-4.63,6.471-6.551,6.291c-3.47-0.33-5.63,8.156-5.409,9.459
	c0.22,1.301-6.061,11.75-8.439,12.84c-2.381,1.09-12.551,3.17-9.74,12.91L510,693.88l-10,9.58c0,0-14.28-8.061-37.44,17
	c2.582-0.244,5.188,0,7.681,0.719l-0.66,0.32c-6.101,2.891-16.659,7.82-24.47,11l-41.59,1.291v-31c0,0-3.68-8.701-8,0l-1.09,31.32
	l-90.4,2.93l16.94-18l0,0l0.22-0.24c3.691-3.922,4.967-9.539,3.33-14.67l-70.68-222.17l0,0l-0.49-1.561
	c-1.418-4.482-5.292-7.744-9.95-8.383l-98.18-13.25l-0.68-0.09l-9.021,2.451c-4.71,1.285-7.486,6.146-6.2,10.855
	c0.013,0.049,0.026,0.096,0.04,0.145c2.32,8,6.131,21.063,11,37.469H126.8l10.39,89.684l6.33,34.5
	c1.62,8.799,3.51,17.547,5.67,26.236c5.21,21,15.521,65.791,15.75,91.771l-76,82.859v16.83h485.45
	c0.021,0.057,0.047,0.109,0.08,0.16H810.98c0,0-2.591-4.57,3-11.1c5.59-6.531,2.819-32.43,2.819-32.43s-3.141-4.143,0.7-13.281
	C821.34,785.691,814.229,759.57,814.229,759.57z M211.04,740.019l-12.9,0.422l-12-78.061
	C195.03,690.9,203.65,718.041,211.04,740.019z M543.22,787.46l-8.37-17.08c1.916,0.088,3.813-0.42,5.431-1.451
	c5.41-3.92,8.649-13.059,8.649-13.059l14.521-17.25l1.2-1.441c2.939,8.211,6.399,14.691,9.17,17.82
	c6.92,7.84,7.79,30.471,9.92,38.74c2.13,8.268,0.471,4.791,0,9.58c-0.067,1.172,0.03,2.346,0.29,3.488
	C574.46,796.541,560.85,787.201,543.22,787.46z"/>
<polygon fill="#514E7F" points="93.83,834.98 179.18,742.47 518.18,731.56 577.36,851.64 93.83,851.64 "/>
<polygon opacity="0.2" enable-background="new    " points="93.83,834.98 179.18,742.47 518.18,731.56 577.36,851.64 93.83,851.64 
	"/>
<path fill="#514E7F" d="M535.42,827.259v3.201c0,3.445-2.794,6.24-6.24,6.24H346.96c-3.45,0,0-6.893,0-6.893l-2.061-45.131
	c-0.159-3.533,2.189-6.691,5.62-7.559c10.14-2.561,17.12,1.549,17.12,1.549l112.879-2.869c2.34-0.117,4.684-0.006,7,0.33
	c8.278,1.098,15.752,5.525,20.69,12.26l25.939,35.17C534.959,824.625,535.404,825.923,535.42,827.259z"/>
<path opacity="0.1" enable-background="new    " d="M535.42,830.46L535.42,830.46c0,3.445-2.794,6.24-6.24,6.24H346.96
	c-3.45,0,0-6.893,0-6.893s10.06-4.881,25-4l133-2.881c0,0,15.71,0.361,24.899,1.361C533.014,824.63,535.407,827.289,535.42,830.46z"
	/>
<polygon fill="#0BBDE1" points="483.699,783.55 369.36,783.55 372.52,818.32 504.96,816.019 "/>
<path fill="#514E7F" d="M289.79,807.97v12.07L170,824.9c0,0-27.391-1.869-30.75-18.699c-0.268-1.76-0.233-3.553,0.1-5.301
	c1.21-7.09,7.29-19.471,34.09-25.189l33-3.391h73.58C280.02,772.32,289.52,781.83,289.79,807.97z"/>
<path opacity="0.1" enable-background="new    " d="M289.79,808.349v11.691L170,824.9c0,0-27.391-1.869-30.75-18.699
	c-0.268-1.76-0.233-3.553,0.1-5.301c0,0,16.561,15.66,39,13.359l105.44-4.59C285.812,809.333,287.814,808.894,289.79,808.349z"/>
<ellipse transform="matrix(-0.9987 0.0514 -0.0514 -0.9987 436.0399 1568.6279)" opacity="0.1" enable-background="new    " cx="197.855" cy="789.919" rx="36.83" ry="6.321"/>
<path fill="#514E7F" d="M209.52,786.9l-19.38,9.58l-20.62-4.881l-0.1-33.609c1.31-24.529-10-73.629-15.59-95.879
	c-2.153-8.602-4.037-17.268-5.65-26l-6.34-34.15l-10.32-88.74h24.561l14.439,20.682L209.52,786.9z"/>
<path fill="#514E7F" d="M209.52,786.9l-19.38,9.58l-12.36-71.779c0.24-12.23-15.09-70.291-16.09-72.68
	C149.47,622.849,139,513.259,139,513.259h17.09l14.43,20.641L209.52,786.9z"/>
<path opacity="0.15" enable-background="new    " d="M209.52,786.9l-19.38,9.58l-12.36-71.779c0.24-12.23-15.09-70.291-16.09-72.68
	C149.47,622.849,139,513.259,139,513.259h17.09l14.43,20.641L209.52,786.9z"/>
<path fill="#514E7F" d="M325.05,720.32l-66,69.551l-7.74,0.549l-9.43,0.68c-4.47,0.322-8.662-2.191-10.48-6.289
	c-20-45-83.939-262.59-97.399-308.68c-1.357-4.633,1.299-9.488,5.931-10.844c0.066-0.02,0.133-0.039,0.199-0.057l9-2.42l0.67,0.08
	l96.15,12.9c5.606,0.754,10.277,4.67,12,10.059l70.379,219.932C329.97,710.863,328.713,716.435,325.05,720.32z"/>
<path opacity="0.1" enable-background="new    " d="M325.05,720.32l-66,69.551l-7.74,0.549l-9.43,0.68
	c-4.47,0.322-8.662-2.191-10.48-6.289c-20-45-83.939-262.59-97.399-308.68c-1.357-4.633,1.299-9.488,5.931-10.844
	c0.066-0.02,0.133-0.039,0.199-0.057l9-2.42l0.67,0.08l96.15,12.9c5.606,0.754,10.277,4.67,12,10.059l70.379,219.932
	C329.97,710.863,328.713,716.435,325.05,720.32z"/>
<path fill="#514E7F" d="M324.82,720.56l-65.77,69.34l-7.74,0.551l-98.7-316c-1.68-3.629-2.621-7.555-2.77-11.551l97.76,13.119
	c4.627,0.623,8.481,3.854,9.9,8.301l70.77,221.15C329.959,710.753,328.637,716.537,324.82,720.56z"/>
<path fill="#0BBDE1" d="M320,708.9c-0.723,1.223-1.619,2.334-2.66,3.301L252.59,772.4l-88.34-292.789l84.83,8.398
	c6.005,0.59,11.058,4.75,12.79,10.531l59.59,198.43C322.666,700.976,322.136,705.304,320,708.9z"/>
<path opacity="0.1" enable-background="new    " d="M320,708.9l-70.92-220.891c6.005,0.59,11.058,4.75,12.79,10.531l59.59,198.43
	C322.666,700.976,322.136,705.304,320,708.9z"/>
<circle fill="#945B79" cx="700.271" cy="344.15" r="37.55"/>
<path fill="#945B79" d="M662.329,338.58c-0.003-19.871,15.475-36.305,35.311-37.49c-0.739,0-1.479-0.07-2.229-0.07
	c-20.74-0.339-37.829,16.201-38.168,36.941c-0.339,20.741,16.2,37.83,36.94,38.168c0.409,0.007,0.818,0.007,1.228,0
	c0.75,0,1.489,0,2.229-0.07C677.808,374.875,662.331,358.447,662.329,338.58z"/>
<path opacity="0.1" enable-background="new    " d="M667.19,344.15c0.002-19.875,15.489-36.306,35.33-37.48
	c-0.74,0-1.49-0.07-2.24-0.07c-20.741,0.338-37.28,17.427-36.942,38.167c0.33,20.265,16.679,36.612,36.942,36.942
	c0.75,0,1.5,0,2.24-0.08C682.678,380.46,667.187,364.026,667.19,344.15z"/>
<path fill="#FFC1C7" d="M507,765.179c-3.508,1.854-7.121,3.5-10.82,4.932c-9.659,3.799-24.38,8.158-38.09,6.488
	c-23.051-2.799-36.84,4.74-36.84,4.74l-5.171-38.35c0,0,17-5,23.91-6.25c5.181-1,23.87-9.609,32.84-13.84c3-1.4,4.87-2.32,4.87-2.32
	h17.239L507,765.179z"/>
<path opacity="0.1" enable-background="new    " d="M507,765.179c-3.508,1.854-7.121,3.5-10.82,4.932
	c-1.17-34.15-14.271-44.291-23.351-47.211c3-1.4,4.87-2.32,4.87-2.32h17.239L507,765.179z"/>
<path fill="#D84F4F" d="M570.78,650.56v84l-4.51,5.34L551.82,757c0,0-3.229,9-8.62,12.92s-17.68-1.289-17.68-1.289l-3.45,5.6
	c0,0-7.75,1.512-11.41,0c-3.659-1.51-12.72,4.313-12.72,4.313c1.3-61.621-32.101-56.66-32.101-56.66
	c23.05-24.781,37.271-16.811,37.271-16.811l9.92-9.48l12.279-12.439c-2.8-9.631,7.32-11.689,9.69-12.77
	c2.369-1.08,8.619-11.42,8.409-12.711c-0.21-1.289,1.931-9.699,5.38-9.369c1.921,0.18,4.551-3.189,6.53-6.221
	c1.58-2.439,2.739-4.66,2.739-4.66L570.78,650.56z"/>
<path fill="#FF6584" d="M600.61,566.589l25.399-13l-1.439,15.23l5,15.301c0,0-4.591,11.85-5.16,13.139
	c-0.569,1.291-11.489,28.301-11.489,28.301L604.16,614.5L600.61,566.589z"/>
<polyline opacity="0.1" enable-background="new    " points="604.17,614.5 600.61,566.589 626.01,553.599 "/>
<path fill="#FFC1C7" d="M709.75,552.31c0,0-8.44,12.141-20,27.609c-26.9,36-70.66,90-64,50.82c0.22-1.279,0.39-2.563,0.539-3.852
	c-1.64,1.102-5.399,0.143-9.5-1.811l-0.279-0.129c-2.021-0.992-3.974-2.121-5.84-3.381c-0.211-0.129-0.41-0.27-0.61-0.41
	c-4.55-3.17-8.189-6.879-8-9.439c3.229-56.238,16.32-29.42,20-23.18c0.208,0.436,0.492,0.832,0.841,1.17
	c-0.16-0.441-0.341-0.9-0.54-1.381c-2.58-6.33-7.511-15.789-13.141-25.9v-0.1l-0.75-1.34c-4.681-8.35-9.75-17.08-14.311-24.74
	l-1.229-2.059c-7.199-12.08-12.8-21.092-12.8-21.092s32.71-29.92,60.279-48.1c23-15.189,42.479-22.199,36.25,3.281
	c-4,16.379-2.83,30.389,0.859,42c0.131,0.43,0.271,0.857,0.421,1.277c0.74,2.213,1.596,4.387,2.561,6.512
	c1.307,2.928,2.804,5.768,4.479,8.5C691.254,536.859,699.71,545.644,709.75,552.31z"/>
<path opacity="0.15" enable-background="new    " d="M658.9,506.9c-15.511,16.85-18.811,33-43.521,33
	c-7.188,0.004-14.35-0.902-21.311-2.699c-7.79-13.102-14-23.15-14-23.15s110.22-100.791,96.529-44.818
	C672.42,486.14,654.89,495,658.9,506.9z"/>
<path fill="#FFC1C7" d="M700.271,452.339c0,46.889-38.012,84.9-84.9,84.9s-84.899-38.014-84.899-84.9
	c0-46.888,38.012-84.899,84.899-84.899c0.004,0,0.007,0,0.011,0c46.679-0.205,84.686,37.47,84.89,84.147
	C700.271,451.839,700.271,452.089,700.271,452.339z"/>
<path opacity="0.1" enable-background="new    " d="M613.44,599.281c0,0,1.51,24.129,16.811,22.189
	c15.3-1.939,3.659,51.279,3.659,51.279l-17,15.51l-18.34,5.641c0,0-16.16-4.74-15.939-5.609c0.22-0.871,6.46-51.271,6.46-51.271
	l9.479-26.938L613.44,599.281z"/>
<path fill="#1E1E23" d="M613.44,601c0,0,1.51,24.131,16.811,22.201c15.3-1.932,3.659,51.279,3.659,51.279l-17,15.51l-18.319,5.6
	c0,0-16.16-4.74-15.939-5.6c0.22-0.859,6.46-51.279,6.46-51.279l9.479-26.93L613.44,601z"/>
<path opacity="0.1" enable-background="new    " d="M570.78,650.56v84l-4.51,5.34c-4.65-12.34-8.19-29.07-6-44.109
	c2.85-19.941-2.83-45.461-4.891-53.73c1.58-2.438,2.739-4.658,2.739-4.658L570.78,650.56z"/>
<path opacity="0.1" enable-background="new    " d="M615.38,603.589c-0.546,4.732-1.775,9.361-3.65,13.74
	c-0.56,1.33-1.13,2.621-1.699,3.83c-4.551-3.17-8.189-6.879-8-9.439c3.229-56.24,16.319-29.42,20-23.18
	C620.229,589.9,616.21,593.9,615.38,603.589z"/>
<path opacity="0.1" enable-background="new    " d="M622.31,588.33c-2.699-6.629-8-16.699-13.93-27.34l0.75-0.379l13.72,27.379
	C622.657,588.083,622.477,588.197,622.31,588.33z"/>
<path opacity="0.1" enable-background="new    " d="M709.75,552.31c0,0-93.511,134.449-84,78.43c0.22-1.279,0.39-2.561,0.539-3.85
	c-1.68,1.119-5.569,0.1-9.779-1.939c0.641-3.74,1-6.301,1-6.301l10.351-29.279c0,0,6-23.271,5.17-28l0.279-0.191l51.461-34.549h0.05
	l0,0C691.148,536.914,699.658,545.679,709.75,552.31z"/>
<path fill="#D84F4F" d="M806.71,654.009l-7.33,37.891l-22,159.869H586.521c0,0,3.439-28,3.439-32.318
	c0-4.32-3.87-10.771-3.439-15.51c0.43-4.74,2.079-1.301,0-9.48c-2.08-8.178-3-30.6-9.87-38.35s-18.13-36.211-14.7-60.301
	c3.431-24.09-5.609-56.449-5.609-56.449s-7.75-11.211,0-11.641s10.779,0.391,10.351-7.34c-0.43-7.73,3.439-22.391,8.18-25.41
	s11.641-14.221,12.931-18.531c0.431-1.084,1.116-2.047,2-2.809c3.88-3.721,11.771-7.531,11.771-7.531l7.54-3.77v0.1l13.68,27.281
	c0,0-6.399,3.109-7.47,15.6c-0.544,4.732-1.774,9.361-3.649,13.74c-0.359,0.859-0.721,1.709-1.091,2.52
	c-1.1,2.439-2.22,4.6-3.17,6.32l0,0c-1.409,2.549-2.42,4.119-2.42,4.119s-0.37,2.92-0.93,7l0,0c-1.15,8.381-3.091,21.66-4.24,24.84
	c-1,2.82-3,7.67-4.109,12c-0.7,2.711-1.101,5.221-0.729,6.861c0,0.129,0.06,0.26,0.1,0.379c1.29,4,7.75-13.199,7.75-13.199
	s4.74-14.65,6.9-14.65c1.649,0,5.359-20.68,7-30.221c0.479-2.85,0.771-4.699,0.771-4.699l10.351-29.289c0,0,1.43-5.531,2.8-11.75
	c1.439-6.541,2.811-13.83,2.37-16.262l0.279-0.189l51.46-34.549h0.051l0.79-0.531h-0.08c-0.36,0-1.4-0.641-3.391-5.32
	c-0.511-1.188-1.08-2.629-1.71-4.41c0,0,16.46-6.607,22.33-1.77c0.381,0.305,0.717,0.662,1,1.061
	c0.166,0.223,0.312,0.459,0.43,0.709c3.881,8,5.601,14,9.479,19.184c0.421,0.551,0.875,1.074,1.36,1.566
	c4.688,4.91,14,10.66,12.43,12.223c-1.72,1.721,12.931,9,12.931,9s8.569,4.898,11.26,9c0.472,0.635,0.75,1.391,0.801,2.18
	c0,4.311,12.5,6.891,16.38,6.891s22.41,40.08,31.45,44.82S806.71,654.009,806.71,654.009z"/>
<g opacity="0.1">
	<path d="M613.369,589.71c0,0-6.399,3.109-7.47,15.6c-0.543,4.734-1.776,9.363-3.66,13.74c-1.251,3.023-2.669,5.975-4.25,8.84l0,0
		c-1.409,2.551-2.42,4.119-2.42,4.119s-0.37,2.92-0.931,7l0,0c-1.119,8.451-3.119,21.73-4.25,24.891c-1,2.82-3,7.67-4.109,12
		c-0.7,2.711-1.101,5.221-0.729,6.859c0,0.131,0.061,0.26,0.101,0.381c1.29,4,7.75-13.199,7.75-13.199s4.739-14.65,6.899-14.65
		c0.609,0,1.511-2.861,2.479-6.941c0.49-3.27,1-6.539,1.33-9.277l0,0c0.561-4.102,0.93-7,0.93-7s0.57-0.881,1.45-2.4
		c0.92-5.27,1.561-9.25,1.561-9.25l10.351-29.289c0,0,0.75-2.92,1.689-6.891l-11-21.869l-7.54,3.77l0,0L613.369,589.71z"/>
	<path d="M800.24,622.98c-9-4.74-27.569-44.82-31.45-44.82c-3.88,0-16.38-2.58-16.38-6.891c0-4.309-12.061-11.209-12.061-11.209
		s-14.649-7.32-12.93-9c1.55-1.561-7.74-7.311-12.431-12.221c-0.483-0.496-0.938-1.02-1.359-1.57
		c-3.88-5.18-5.601-11.209-9.479-19.18c-0.122-0.252-0.267-0.492-0.431-0.719c-0.288-0.396-0.624-0.75-1-1.063
		c-2.641-2.17-7.399-2-11.859-1.221c0.862,0.254,1.671,0.668,2.38,1.221c0.377,0.313,0.713,0.666,1,1.063
		c0.165,0.227,0.309,0.467,0.431,0.719c3.88,8,5.601,14,9.479,19.18c0.428,0.537,0.885,1.047,1.37,1.531
		c4.689,4.91,14,10.66,12.43,12.219c-1.72,1.721,12.931,9,12.931,9s12.061,6.9,12.061,11.211s12.5,6.891,16.38,6.891
		s22.41,40.08,31.45,44.82c9.04,4.738,6.47,31,6.47,31L789.9,691.9l-22,159.869h9.479l22-159.869l7.33-37.92
		C806.71,653.98,809.289,627.72,800.24,622.98z"/>
</g>
<path fill="#FFC1C7" d="M423.92,743.769c0,0-54.811-15.859-58.69,8.49c-3.88,24.352,22.41,38.352,39.21,37.92
	c16.8-0.43,24.13-16.379,24.13-16.379L423.92,743.769z"/>
<path fill="#FFC1C7" d="M698.76,818.621c0,0-12.28,8.83-38.351,8.83c-26.069,0-56.449,5.6-56.449,5.6s-38.78-91.35-116.561-13.148
	c0,0-14,18.1,58.601,20c0,0,25.64-0.859,31.239,11.85h145l19.83-14.85L698.76,818.621z"/>
<path fill="#514E7F" d="M407.03,704.419c0,0-3.66-8.609-8,0l-2.35,66.801l5.16,15.73l5.16-14L407.03,704.419z"/>
<path opacity="0.1" enable-background="new    " d="M703.72,517.339c-7.521,2.561-15.771,8.561-18.2,10.441c-0.449,0-2-1-5.1-9.73
	C680.409,518.05,699.021,510.58,703.72,517.339z"/>
<path fill="#FF6584" d="M622.85,589.71c0,0-6.399,3.109-7.47,15.6c-0.545,4.732-1.773,9.361-3.65,13.74l-4.21,8.85l0,0l-3.35,11.141
	l0,0l0.35,22.68l-8.76,14.182l-0.729,6.857l-2.271,21.221l-11.641-5.6c0,0,4.801-34.221,8.399-41.15
	c3.6-6.928,8.41-43.631,8.41-43.631s-0.22-13.469,1.51-15.84c1.73-2.369-3-1.938-3.449-6.889c-0.261-2.941-3.54-11.102-6.17-17.25
	c3.88-3.721,11.771-7.531,11.771-7.531l7.54-3.77L622.85,589.71z"/>
<path opacity="0.1" enable-background="new    " d="M622.85,589.71c0,0-6.399,3.109-7.47,15.6c-0.545,4.732-1.773,9.361-3.65,13.74
	l-4.21,8.85l0,0l-3.35,11.141l0,0l0.35,22.68l-8.76,14.182l-0.729,6.857l-2.271,21.221l-11.641-5.6c0,0,4.801-34.221,8.399-41.15
	c3.6-6.928,8.41-43.631,8.41-43.631s-0.22-13.469,1.51-15.84c1.73-2.369-3-1.938-3.449-6.889c-0.261-2.941-3.54-11.102-6.17-17.25
	c3.88-3.721,11.771-7.531,11.771-7.531l7.54-3.77L622.85,589.71z"/>
<path opacity="0.1" enable-background="new    " d="M714.99,540.531c-9.609,7.859-35.45,30.16-38.42,45.318
	c-3.66,18.691-14.649,16.881-14.649,16.881c-13.729-29.779-23.181-37.08-28.591-38.109l51.46-34.561c0,0,0,0,0.051,0l0.79-0.529
	h-0.109c-0.36,0-1.4-0.631-3.391-5.311l20.62-6.189c0.381,0.305,0.717,0.66,1,1.059c0.164,0.227,0.308,0.461,0.43,0.711
	c3.881,8,5.601,14,9.479,19.182C714.073,539.521,714.518,540.039,714.99,540.531z"/>
<path fill="#FF6584" d="M714.99,538.8c-9.609,7.859-35.45,30.17-38.42,45.33C672.909,602.81,661.92,601,661.92,601
	c-13.729-29.77-23.181-37.1-28.591-38.1l51.46-34.551h0.051l0.79-0.529h-0.109c-0.36,0-1.4-0.641-3.391-5.32l20.62-6.18
	c0.381,0.305,0.717,0.662,1,1.061c0.166,0.221,0.311,0.459,0.43,0.709c3.88,8,5.601,14,9.479,19.18
	C714.072,537.806,714.516,538.318,714.99,538.8z"/>
<path opacity="0.1" enable-background="new    " d="M656.75,689.769c0.64-0.209,34.22-19.219,30.359-4.76
	C683.25,699.47,656.75,689.769,656.75,689.769z"/>
<path opacity="0.1" enable-background="new    " d="M511.521,707.98c0,0,17.659,27.471,23.909,26.609
	C541.68,733.73,511.521,707.98,511.521,707.98z"/>
<path opacity="0.1" enable-background="new    " d="M533.521,697.75c0,0,1.079,21.33,10.35,22.83
	C553.14,722.08,533.521,697.75,533.521,697.75z"/>
<path opacity="0.1" enable-background="new    " d="M631.521,766.259c0,0,21.939,36.5,17.67,49.131L631.521,766.259z"/>
<path opacity="0.1" enable-background="new    " d="M656.96,770.57c0,0,29.68,39,24.54,42.23S656.96,770.57,656.96,770.57z"/>
<path opacity="0.1" enable-background="new    " d="M590.229,707.98c0,0-3.05,27.73,8.4,35.789L590.229,707.98z"/>
<path opacity="0.1" enable-background="new    " d="M723.329,584.63c0,0-50.811,39.43-42.67,80.369
	c8.141,40.941,16,43.951,16,43.951s3,16.369,8.62,23.27s4.739,11.42,4.739,11.42s5.17-2.371,6.891,9.48
	c1.721,11.85,10.771,20.25,10.771,20.25s3,9.479-4.739,14.646c-7.74,5.174-6,10.781-6,10.781l-31.461,18.313l35.04,34.688h90.5
	c0,0-2.59-4.52,3-11c5.591-6.479,2.811-32.1,2.811-32.1s-3.13-4.102,0.7-13.15c3.83-9.051-3.29-34.898-3.29-34.898l-8-25.209
	c0,0-6.681-17.883-5.601-27.473S798.44,687.9,798.44,687.9l-17.37-54.803C781.07,633.099,781.93,578.38,723.329,584.63z"/>
<path fill="#D84F4F" d="M725.05,584.63c0,0-50.851,39.43-42.66,80.369c8.19,40.941,15.94,43.951,15.94,43.951s3,16.369,8.619,23.27
	c5.62,6.9,4.74,11.42,4.74,11.42s5.17-2.371,6.899,9.48c1.729,11.85,10.771,20.25,10.771,20.25s3,9.479-4.74,14.646
	c-7.739,5.174-6,10.781-6,10.781l-31.46,18.313l35.12,34.688h90.489c0,0-2.579-4.52,3-11c5.58-6.479,2.801-32.1,2.801-32.1
	s-3.13-4.102,0.699-13.15c3.83-9.051-3.289-34.898-3.289-34.898l-8-25.209c0,0-6.681-17.883-5.601-27.473
	s-2.221-20.068-2.221-20.068l-17.37-54.803C782.789,633.099,783.65,578.38,725.05,584.63z"/>
<path opacity="0.1" enable-background="new    " d="M742.07,612.419c0,0,36.2,12.281,45.891,18.32
	C797.65,636.781,773.74,606.82,742.07,612.419z"/>
<path opacity="0.1" enable-background="new    " d="M761.03,798.8c0,0,51.49,6.459,48.49,16.59
	C806.521,825.519,761.03,798.8,761.03,798.8z"/>
<path opacity="0.1" enable-background="new    " d="M750.94,809.781c0,0,37.67,12.068,31,22
	C775.271,841.71,750.94,809.781,750.94,809.781z"/>
<path opacity="0.1" enable-background="new    " d="M751.61,569.089c-20.551,4-41.2,7.42-61.859,10.83l-5.381,0.891
	c-11.359,1.869-22.789,3.75-34.311,3.689c-5.609,0-11.39-0.58-16.369-3.18c-1.064-0.564-2.069-1.234-3-2
	c-3.49-2.801-6-6.869-5.939-11.289c0.06-8.063,7.71-13.65,14.289-18.313c9.631-6.83,19.141-15.5,22.86-26.391
	c0.708-2.041,1.193-4.154,1.449-6.299c1.101-9.25-2.271-18.381-5.859-27c-3.92-9.352-9.3-19.4-17.159-25.08
	c-3.182-2.34-6.898-3.842-10.811-4.371c-12.08-1.6-23.511,7-35.681,6.52c-9.891-0.43-18.29-6.777-24.24-14.25
	c-4.329-5.438-7.069-12.719-13.59-15.947c-7.061-3.512-15.09-4.342-22.939-5.512c11.563-45.44,57.772-72.904,103.215-61.341
	c45.439,11.563,72.904,57.775,61.342,103.214c-3.521,13.836-10.474,26.563-20.217,36.996c0.13,0.434,0.271,0.861,0.42,1.281
	c0.741,2.213,1.596,4.385,2.561,6.51c0,0,16.46-6.607,22.33-1.77c0.381,0.305,0.719,0.66,1,1.059
	c0.166,0.223,0.312,0.461,0.431,0.711c3.88,8,5.601,14,9.479,19.18c0.42,0.553,0.874,1.076,1.359,1.57
	c4.689,4.91,14,10.66,12.431,12.219c-1.721,1.723,12.93,9,12.93,9S748.92,564.97,751.61,569.089z"/>
<path fill="#945B79" d="M508.67,416.09c-7.66-9.88-6.83-23.84-4-36c1.779-7.67,4.31-15.38,9.271-21.49
	c4.96-6.109,12.771-10.39,20.58-9.33c4.569,0.62,8.699,2.95,13,4.65c19.3,7.64,43.239,1.29,56.22-14.92
	c2.939-3.67,5.37-7.79,8.851-11c3.897-3.361,8.562-5.713,13.58-6.85c21.72-5.48,44.12,5.31,62.699,17.819
	c15.859,10.681,30.939,23.15,41.351,39.181c9.46,14.646,14.653,31.638,15,49.07c0.53,27.6-11.109,55.439-4.45,82.221
	c6.57,26.449,32.4,46.809,59.65,47c-37.42,9.18-75.479,15.469-113.49,21.738c-11.369,1.881-22.79,3.762-34.311,3.691
	c-5.609,0-11.399-0.58-16.369-3.18c-4.971-2.604-9-7.65-9-13.264c0.061-8.066,7.72-13.646,14.29-18.309
	c11.42-8.1,22.67-18.791,24.319-32.691c1.101-9.25-2.271-18.389-5.87-27c-5.489-13.1-13.859-27.607-27.939-29.486
	c-12.069-1.611-23.51,7-35.681,6.51c-9.88-0.432-18.289-6.781-24.239-14.25c-4.33-5.441-7.07-12.723-13.58-15.951
	C542.46,426.29,521.229,432.281,508.67,416.09z"/>
<path fill="#945B79" d="M728.75,365.75c16.321-11.329,20.994-33.411,10.659-50.38c0.46,0.58,0.899,1.18,1.33,1.79
	c12.087,16.858,8.218,40.324-8.642,52.41c-16.858,12.086-40.323,8.218-52.409-8.642c-0.226-0.313-0.444-0.629-0.659-0.948
	c-0.42-0.62-0.83-1.25-1.21-1.881C690.098,373.725,712.423,377.078,728.75,365.75z"/>
<g opacity="0.1">
	<path d="M609.76,335.37c2.939-3.68,5.37-7.8,8.851-11c0.57-0.521,1.169-1.011,1.79-1.47c-2.863,1.187-5.508,2.847-7.82,4.909
		c-3.479,3.181-5.909,7.301-8.851,11c-2.984,3.701-6.522,6.918-10.489,9.54C599.647,345.313,605.292,340.876,609.76,335.37z"/>
	<path d="M692.99,574.611c-11.359,1.869-22.79,3.75-34.311,3.68c-5.609,0-11.391-0.57-16.37-3.17s-9-7.65-8.949-13.271
		c0.061-8.059,7.71-13.639,14.29-18.309c11.42-8.1,22.659-18.791,24.31-32.691c1.101-9.236-2.27-18.389-5.869-27
		c-5.49-13.1-13.851-27.617-27.939-29.486c-12.07-1.611-23.5,7-35.67,6.5c-9.881-0.42-18.29-6.771-24.24-14.24
		c-4.34-5.441-7.08-12.721-13.59-15.951c-16.16-8-37.391-2-50-18.219c-7.66-9.88-6.82-23.851-4-36c1.779-7.67,4.31-15.38,9.26-21.5
		c1.389-1.704,2.973-3.237,4.721-4.57c-4.202,1.715-7.9,4.467-10.75,8c-5,6.11-7.49,13.83-9.271,21.49c-2.83,12.18-3.66,26.15,4,36
		c12.561,16.19,33.79,10.2,50,18.219c6.51,3.24,9.25,10.521,13.58,16c6,7.461,14.359,13.82,24.239,14.24
		c12.17,0.52,23.609-8.119,35.681-6.51c14.08,1.881,22.449,16.391,27.939,29.5c3.601,8.58,7,17.721,5.87,27
		c-1.65,13.898-12.9,24.59-24.32,32.688c-6.569,4.66-14.229,10.25-14.29,18.313c0,5.607,4,10.67,9,13.27
		c5,2.602,10.761,3.141,16.37,3.17c11.521,0.07,23-1.809,34.311-3.689c38-6.27,76.069-12.551,113.49-21.74
		c-2.215-0.021-4.426-0.176-6.62-0.459C760.521,563.46,726.729,569.041,692.99,574.611z"/>
</g>
<ellipse fill="#FFC1C7" cx="410.72" cy="755.48" rx="16.399" ry="8.961"/>
<path opacity="0.3" fill="none" stroke="#000000" stroke-width="0.75" stroke-miterlimit="10" stroke-dasharray="12" enable-background="new    " d="
	M681.699,89.12c-18.25-4.87-36.681-9.76-55.561-10.54c-18.88-0.78-38.489,2.88-53.899,13.8c-7.71,5.46-14.109,12.53-20.601,19.41
	c-34.457,36.519-72.92,69.037-114.66,96.94c-16.81,11.23-34.779,21.94-54.81,24.73c-20.03,2.79-42.66-4.15-53-21.51l6.159-3.16"/>
<path fill="#514E7F" d="M842.81,62.84H713.58c-5.097,0-9.229-4.132-9.229-9.23V35.15c-0.011-5.098,4.112-9.239,9.211-9.25
	c0.007,0,0.014,0,0.02,0h129.23c5.098,0,9.229,4.132,9.229,9.23v18.48C852.039,58.708,847.907,62.84,842.81,62.84z M828.96,37.46
	c-3.822,0.006-6.916,3.108-6.91,6.93c0.005,3.822,3.108,6.916,6.931,6.91c3.817-0.005,6.909-3.102,6.909-6.92
	c0-3.822-3.099-6.92-6.92-6.92C828.966,37.46,828.963,37.46,828.96,37.46z M810.5,37.46c-3.822,0-6.921,3.098-6.921,6.92
	c0,3.822,3.099,6.92,6.92,6.92c3.822,0,6.921-3.098,6.921-6.92l0,0c0-3.814-3.086-6.909-6.9-6.92H810.5z M842.81,109H713.58
	c-5.099-0.005-9.229-4.141-9.229-9.24V81.3c0-5.097,4.134-9.23,9.229-9.23H842.81c5.099,0,9.229,4.133,9.229,9.23v18.46
	C852.039,104.859,847.908,108.995,842.81,109z M828.96,83.61c-3.828,0-6.931,3.103-6.931,6.93s3.103,6.93,6.931,6.93
	c3.827,0,6.93-3.103,6.93-6.93c0-0.003,0-0.007,0-0.01c0-3.822-3.099-6.92-6.92-6.92C828.966,83.61,828.963,83.61,828.96,83.61z
	 M810.5,83.61c-3.828-0.005-6.935,3.093-6.94,6.92c-0.006,3.827,3.094,6.934,6.92,6.94c3.827,0.005,6.936-3.093,6.94-6.92
	c0-0.006,0-0.013,0-0.02c0-3.814-3.086-6.909-6.9-6.92H810.5L810.5,83.61z M842.81,155.15H713.58c-5.097,0-9.229-4.132-9.229-9.23
	v-18.46c0-5.098,4.134-9.23,9.229-9.23H842.81c5.099,0,9.229,4.132,9.229,9.23v18.44c0.012,5.098-4.112,9.239-9.21,9.25
	C842.823,155.15,842.817,155.15,842.81,155.15z M828.96,129.76c-3.828,0-6.931,3.103-6.931,6.93c0,3.828,3.103,6.93,6.931,6.93
	c3.827,0,6.93-3.103,6.93-6.93l0,0c0.006-3.822-3.088-6.924-6.909-6.93C828.973,129.76,828.966,129.76,828.96,129.76z M810.5,129.76
	c-3.828-0.005-6.935,3.093-6.94,6.92c-0.006,3.827,3.094,6.934,6.92,6.94c3.827,0.005,6.936-3.093,6.94-6.92c0-0.003,0-0.007,0-0.01
	c0.005-3.818-3.082-6.919-6.9-6.93H810.5z"/>
<path opacity="0.3" fill="none" stroke="#000000" stroke-width="0.75" stroke-miterlimit="10" stroke-dasharray="12" enable-background="new    " d="
	M863.729,87.55c8.29-0.89,17.16-0.64,24.271,3.73c7.529,4.63,11.88,13.27,13.34,22c1.46,8.729,0.439,17.65-0.601,26.43l-5.601,47.36
	c-0.79,6.63-1.55,13.53,0.601,19.86c2.149,6.33,8.101,11.89,14.75,11.3"/>
<path opacity="0.3" fill="none" stroke="#000000" stroke-width="0.75" stroke-miterlimit="10" stroke-dasharray="12" enable-background="new    " d="
	M322.09,489.599c21.35,0.531,45.42,0,60.17-15.439c11.2-11.719,13.83-28.891,17.6-44.66c6.811-28.468,19.19-55.87,38-78.319
	s44.199-39.75,72.619-46.729c22.841-5.62,46.86-4.561,69.82-9.61s46.54-18.66,52.891-41.3"/>
<path opacity="0.5" fill="#007BFF" enable-background="new    " d="M680,203.95l-57.61,21c-0.583,0.222-0.877,0.874-0.654,1.458
	c0.085,0.222,0.236,0.412,0.436,0.542l8.6,4.77c0.49,0.287,0.85,0.753,1,1.3l4.931,15.6c0,0.66,1.2,1,1.311,0.36l0.689-12.2
	c0.198-0.882,0.663-1.681,1.33-2.29l31.659-23c0.187-0.125,0.42-0.154,0.631-0.08c0.328,0.132,0.486,0.504,0.354,0.832
	c-0.034,0.086-0.088,0.164-0.155,0.228l-28.149,25.67c-0.607,0.637-1.052,1.413-1.29,2.26l-3,10.19c0,0.92,0.641,1.37,1.341,0.64
	l6-5.27c0.423-0.428,1.113-0.432,1.541-0.008c0.003,0.002,0.006,0.005,0.009,0.008l11.819,11.6c0.424,0.42,1.106,0.417,1.526-0.006
	c0.113-0.114,0.2-0.252,0.254-0.404l18.71-51.72c0.224-0.559-0.05-1.193-0.608-1.417c-0.247-0.099-0.521-0.104-0.771-0.014
	L680,203.95z"/>
</svg>
