<svg xmlns="http://www.w3.org/2000/svg" viewBox="0 0 1121.039 851.8"><g opacity=".9"><path fill="#007BFF" d="M1119.76 402.74v.12a.151.151 0 000 .06c0 .29-.08.58-.13.87-.37 2.36-.811 4.729-1.341 7.1-3.609 16.19-11 32.231-20.89 46.731-.391.559-.78 1.119-1.181 1.67-.761 1.09-1.53 2.16-2.319 3.229-.551.73-1.101 1.461-1.67 2.189a155.96 155.96 0 01-12.541 14.369c-2.438 2.461-5 4.84-7.529 7.111l-1.12 1a133.225 133.225 0 01-4.199 3.5c-.61.488-1.229 1-1.851 1.449l-1.08.84-.771.57c-.689.529-1.39 1-2.101 1.549l-.5.352a140.19 140.19 0 01-5.061 3.449 123.737 123.737 0 01-11.289 6.5c-1.793.914-3.598 1.77-5.41 2.57-2.2.98-4.417 1.877-6.65 2.689-.6.229-1.209.438-1.819.66-1.71.59-3.439 1.141-5.159 1.641l-.881.26-.439.119-1.061.291a135.95 135.95 0 01-15.641 3.26l-.859.131-.449.068c-6.689 1-13.36 1.5-20 1.83-9.145.5-18.308.5-27.45 0l-2.5-.17h-.449a174.82 174.82 0 01-5.181-.469c-1-.104-2-.211-3-.34-1.521-.184-3-.393-4.54-.611h-.069l-1.45-.23a106.324 106.324 0 01-3.891-.689l-1.319-.24-2-.41-.391-.08a129.8 129.8 0 01-12.319-3.279l-.92-.311a115.885 115.885 0 01-8.601-3.25 111.84 111.84 0 01-6.149-2.869 116.872 116.872 0 01-8.42-4.711 139.048 139.048 0 01-11.101-7.559c-4.71-3.51-9.24-7.291-13.641-11.211l-.91-.82-1.659-1.5a269.688 269.688 0 01-56.13-71.359 251.917 251.917 0 01-4.42-8.66c-.44-.9-.87-1.801-1.301-2.71a2.453 2.453 0 01-.101-.221l-.659-1.399c-1.801-3.88-3.5-7.851-5.101-11.87l-.721-1.82-1.12-2.939-.449-1.23a228.988 228.988 0 01-3.859-11.35c-.2-.66-.41-1.32-.61-2a223.826 223.826 0 01-1.81-6.28c-.53-1.94-1-3.91-1.511-5.9-.08-.31-.149-.619-.22-.939-4-16.88-5.711-35.12-1.65-53.63.271-1.26.57-2.521.91-3.771.479-1.87 1-3.74 1.66-5.61.14-.44.289-.88.439-1.32l.18-.48c0-.11.07-.23.11-.34a.678.678 0 00.069-.2c.351-.92.699-1.84 1.08-2.77.38-.93.779-1.85 1.189-2.77l.061-.13c0-.12.109-.23.159-.35.33-.72.67-1.44 1-2.14l.36-.72.1-.36c.19-.37.391-.75.591-1.11a89.845 89.845 0 019.68-14.69 82.994 82.994 0 016.601-7.25 71.483 71.483 0 0111.59-9.28c.668-.4 1.308-.79 1.921-1.17a47.937 47.937 0 0117.369-6.3c7.94-1.12 15.391.17 22.641 1.9l.729.18c1.221.29 2.439.6 3.649.91 4.229 1.07 8.49 2.18 12.79 3.13 4 .89 8 1.65 12.131 2.18a85.19 85.19 0 0012.55.7c.62 0 1.26 0 1.89-.06a68.236 68.236 0 0022.5-4.94 43.328 43.328 0 0014.641-9.67 33.042 33.042 0 002.261-2.6 30.273 30.273 0 003.18-5c.28-.53.551-1.07.811-1.6.101-.18.2-.38.301-.57l1.529-3c.061-.11.109-.22.17-.32.74-1.43 1.479-2.84 2.24-4.22a80.944 80.944 0 0110.819-15.94 45.3 45.3 0 0116.061-11.53c1-.43 2-.84 3.109-1.22a45.153 45.153 0 0114.48-2.59h1.729a50.57 50.57 0 0114.42 2.55 74.662 74.662 0 0119.812 10.26 133.664 133.664 0 0124.81 22.79c.58.68 1.16 1.38 1.73 2.08a172.88 172.88 0 0116.59 24.47c14.46 25.62 23.939 55.63 30.779 86.189l.33 1.46c.16.721.319 1.44.471 2.15.318 1.479.64 3 .938 4.43.23 1.09.46 2.19.681 3.28.16.79.319 1.57.471 2.37.1.49.199 1 .29 1.49a238.43 238.43 0 013.63 24.75c0 .31 0 .619.069.93.914 10.23.666 20.528-.738 30.701z" opacity=".1"/><path fill="#3F3D56" d="M1046.869 483.98c-1.101-.289-3 1-5.439 3.109-1.18 1-2.489 2.25-3.909 3.611l-.671.646-.3.281c-1.88 1.813-3.939 3.813-6.12 5.83a156.364 156.364 0 01-4.21 3.779c-1.91 1.65-3 6.18-3.521 12.381a135.995 135.995 0 01-15.641 3.26l-.859.129-.449.07c-.312-1.859-.541-3.08-.541-3.08s-9-7.51-6.38-16.889c1.511-5.381 16.28-15.451 28.609-23.07 1.511-.92 3-1.82 4.391-2.66l.91-.551c.569-.34 1.109-.67 1.649-1l4.101-2.4a442.563 442.563 0 015.63-3.197l.301-.172c0 .003 5.26 20.663 2.449 19.923z"/><path d="M1046.869 483.98c-1.101-.289-3 1-5.439 3.109-1.18 1-2.489 2.25-3.909 3.611l-.671.646-.3.281c-1.88 1.813-3.939 3.813-6.12 5.83a156.364 156.364 0 01-4.21 3.779c-1.91 1.65-3 6.18-3.521 12.381a135.995 135.995 0 01-15.641 3.26l-.859.129-.449.07c-.312-1.859-.541-3.08-.541-3.08s-9-7.51-6.38-16.889c1.511-5.381 16.28-15.451 28.609-23.07 1.511-.92 3-1.82 4.391-2.66l.91-.551c.569-.34 1.109-.67 1.649-1l4.101-2.4a442.563 442.563 0 015.63-3.197l.301-.172c0 .003 5.26 20.663 2.449 19.923z" opacity=".1"/><path fill="#3A2F2F" d="M1044.709 472.72s-1.84 1.891-4.699 4.879a669.99 669.99 0 00-4.09 4.291l-.141.15-.779.809c-1.78 1.881-3.7 3.91-5.671 6-10.22 10.941-21.779 23.75-21.779 25.791a6.659 6.659 0 01-.49 2.221l-.859.129-.449.07c-6.689 1-13.359 1.5-20 1.83-9.144.5-18.308.5-27.45 0l-2.5-.17h-.45c-1.729-.131-3.46-.291-5.18-.471-1-.1-2-.209-3-.34a383.382 383.382 0 003.63-5.119c2.45-3.521 4.88-7.16 6.899-10.461.12-.189.229-.379.351-.563 1.21-2 2.261-3.889 3.069-5.52a14.73 14.73 0 001.631-4.619 25.23 25.23 0 011.789-5.729c4.41-11.199 15.939-34 22.381-46.592l.579-1.117.561-1.08c2.069-4 3.399-6.563 3.399-6.563l15.75-4.25 1-.27 3.48-.94 1.34-.358 7.449-2h.091l.271-.08 7.859-2.11 2.609-.71 3-.79 7.601 12.95 2.22 32.34.578 8.392z"/><path d="M937.271 516.32c-3.08-4-4.87-6.449-4.87-6.449s4.37-1.061 10.069-2.67c2.91-.83 6.17-1.791 9.37-2.84 2-.67 4-1.371 5.91-2.08 1-.361 1.909-.74 2.8-1.111 4.141-1.74 7.25-3.51 7.88-5.09a3.304 3.304 0 00-.159-1.891 51.443 51.443 0 00-3.681-8.34c-.53-1-1.109-2.09-1.729-3.219-2-3.65-4.391-7.83-7-12.24a861.196 861.196 0 00-6.92-11.391 1238.57 1238.57 0 00-6.32-10.1c-.061-.102-.13-.199-.189-.313-9.529-15.059-18.09-28-18.439-28.489l-5.62 13.489-.239.221-9.25 8.209-.221.213c-2.88 2.551-6.149 5.471-9.479 8.447-2.47 2.211-5 4.451-7.35 6.611-3.41 3.059-6.601 5.949-9.19 8.32a73.122 73.122 0 00-6.21 6 65.063 65.063 0 00-4 10.809c4.4 3.92 8.931 7.701 13.641 11.221a146.448 146.448 0 0011.101 7.551 119.956 119.956 0 008.42 4.711c2 1.006 4.05 1.963 6.149 2.867a107.889 107.889 0 008.601 3.25l.92.313c4 1.293 8.106 2.387 12.32 3.281l.39.078 2 .408 1.295.224z" opacity=".1"/><path fill="#3A2F2F" d="M1014.03 421.49l-.899 1.38c-.36.57-.83 1.3-1.399 2.17-.57.87-1.36 2.139-2.211 3.45l-.619 1c-1.461 2.26-3.16 4.91-5 7.84-.229.35-.461.701-.689 1.07-.23.371-.471.74-.71 1.109-12 18.801-29.74 46.66-34.2 54.701a20.27 20.27 0 00-1 1.889c-.57 1.432-3.141 3-6.689 4.57-.79.361-1.641.711-2.511 1.07-1.939.77-4.06 1.52-6.22 2.25-3.15 1.061-6.4 2-9.359 2.891-6.261 1.811-11.24 3-11.24 3s1.721 2.33 4.67 6.209l-2-.41-.391-.08a129.88 129.88 0 01-12.319-3.279l-.92-.311a116.054 116.054 0 01-8.601-3.25 112.185 112.185 0 01-6.149-2.869 117.087 117.087 0 01-8.42-4.711 139.23 139.23 0 01-11.101-7.559c-4.71-3.51-9.24-7.291-13.64-11.211l-.91-.82a68.16 68.16 0 013.771-10c0-.219 2.92-3 7.22-6.898 2.649-2.432 5.841-5.311 9.189-8.32l7.351-6.59 8.689-7.76.221-.201 9-8 .239-.221 5.63-13.5h1.141l20.471.32h3.22l6.42.101 7.641.109 8.891.141 34.851.541h1.13l6.609.1.843.079z"/><path fill="#FBBEBE" d="M1014.59 282.17l-3.381 30.73s-34.619 13.79-35.46 13.51c-.84-.28-23.079-20.271-19.42-33.5 1.83-6.63 2.681-15.83 3.061-23.34.381-7.51.319-13.25.319-13.25s50.381-18 45.87-5.63c-1.63 4.5-.899 9.89.71 14.92a69.771 69.771 0 008.301 16.56z"/><path d="M1006.289 265.56c-.3.36-.619.7-.93 1-12.179 12.922-32.286 14.199-46 2.92.38-7.45.319-13.25.319-13.25s50.381-18 45.87-5.63c-1.599 4.54-.868 9.93.741 14.96z" opacity=".1"/><path fill="#FBBEBE" d="M1014.59 242.29c-.012 18.645-15.135 33.751-33.78 33.74-18.646-.011-33.75-15.135-33.739-33.78.011-18.633 15.116-33.734 33.75-33.74 18.534-.116 33.653 14.814 33.771 33.349l-.002.431z"/><path d="M972.93 314.02s-13.22-29.319-17.729-29.319-11.54 151.649-11.54 151.649l69 1.092 2.819-79.631-14.079-70.58c-.001-.001-12.702 27.869-28.471 26.789z" opacity=".1"/><path d="M972.93 316.27s-13.22-29.319-17.729-29.319-11.54 151.661-11.54 151.661l78.25 1.18-6.47-79.73-14.08-70.57c-.001-.002-12.662 27.868-28.431 26.778z" opacity=".1"/><path fill="#65617D" d="M972.93 315.14s-13.22-29.31-17.729-29.31-11.54 151.65-11.54 151.65l78.25 1.18-6.47-79.759-14.08-70.581c-.001 0-12.662 27.91-28.431 26.82z"/><path d="M960.1 276.62s-2.359-3.46-5.739-2.33c-3.381 1.13-5.91-2-9.29 1.12-3.38 3.12-16.891 7.32-19.42 5.91-2.53-1.41-11.54 4.79-13.511 8.45-1.97 3.66-8.449 13.51-8.449 13.51s-5.62 6.75-4.78 10.41c.841 3.659-2 7.88-5.351 9.569-3.35 1.69-10.13 18.58-10.13 18.58s1.82 22.58-5.779 26.521c-7.601 3.939-2 21.109-2 21.109l35.899-8.51 10.16-23.06s-3.94 67.55-8.73 73.74c-4.789 6.189-5.34 10.141-5.34 10.141s18.57 3.939 22.511 7.309c3.939 3.371 14.359-.84 14.359-.84l10.13-89.79s3.66-16.88 3.66-25.61c0-8.729 1.8-56.229 1.8-56.229z" opacity=".1"/><path fill="#06B0D1" d="M958.979 276.62s-2.369-3.46-5.75-2.33c-3.38 1.13-5.909-2-9.289 1.12-3.381 3.12-16.881 7.32-19.42 5.91-2.54-1.41-11.54 4.79-13.511 8.45s-8.439 13.51-8.439 13.51-5.63 6.75-4.79 10.41c.84 3.659-2 7.88-5.34 9.569-3.341 1.69-10.141 18.58-10.141 18.58s1.819 22.58-5.78 26.521c-1.899 1-3 3.18-3.51 5.92-2.181 11 6.859 21.12 18.101 20.77l19.34-8 10.13-29.149s-3.939 67.55-8.72 73.74c-4.779 6.189-5.341 10.119-5.341 10.119s18.58 3.941 22.521 7.311c3.939 3.371 14.351-.84 14.351-.84l10.13-89.79s3.66-16.881 3.66-25.61c0-8.731 1.798-56.211 1.798-56.211z"/><path d="M896.94 325.51s3.38 9.29 12.67 8.45-12.67-8.45-12.67-8.45zM905.949 311.44s6.189 1.13 8.439 6.47c2.252 5.34-8.439-6.47-8.439-6.47zM923.4 301.9c0 1.13 3.939 20.83 0 29s-3.38 17.729-3.38 17.729l3.38-46.729zM1006.521 269.84s2.209-2.59 4.459-2.31c2.25.28 3.66 1.69 6.479 2.82 2.82 1.13 9.562 1.4 9.562 2.25s5.92 4.22 9.859 5.06c3.939.84 16.319 9.29 19.42 25.62s8.439 21.109 8.439 21.109l-29.83 14.63s23.08 97.951 25.891 105c2.811 7.051 3.101 48.691 3.101 48.691s-18.301 8.16-23.08 10.699c-4.779 2.541-2.819-24.209-12.67-39.689s-21.11-38-21.11-38l-17.17-48.13s-11-64.17-1.689-76c9.308-11.83 19.138-27.52 18.339-31.75z" opacity=".1"/><path fill="#06B0D1" d="M1064.959 492.121v.58l-1.09.49-.771.34-7.641 3.459c-4.189 1.91-8.819 4-11.739 5.48-.729.35-1.351.67-1.83.93a1.055 1.055 0 01-1.14 0c-1.5-1-2.181-6.08-3.24-12.699-.439-2.74-.939-5.74-1.601-8.811-.101-.48-.21-1-.319-1.439a71.085 71.085 0 00-2.859-9.621 40.305 40.305 0 00-3.511-7.119c-1.3-2-2.609-4.18-3.92-6.381-3.521-5.92-7-12.23-9.92-17.639-.2-.391-.399-.762-.601-1.131a290.985 290.985 0 01-2.069-3.91c-1.311-2.5-2.41-4.619-3.2-6.16l-1.271-2.509a2.266 2.266 0 00-.13-.261l-1.551-4.34-3-8.38-3.489-9.79-1.649-4.61-1.189-3.35-.381-1.06-5.92-16.61s-.42-2.41-1-6.38c-1.569-10.44-4.42-31.67-4.409-48.3-.04-4.055.192-8.107.7-12.131.068-.439.129-.869.209-1.29.08-.42.16-.92.25-1.359a16.179 16.179 0 012.569-6.53c9.28-11.82 19.181-27.52 18.341-31.74l.189-.21a9.248 9.248 0 011.359-1.18 5.324 5.324 0 012-.9c.299-.04.602-.04.899 0 2.25.28 3.66 1.69 6.471 2.82s9.569 1.4 9.569 2.25 5.91 4.22 9.851 5.07c3.939.85 16.329 9.28 19.421 25.609 3 15.73 8.06 20.74 8.43 21.101l-1.11.54-16.93 8.31-3.63 1.771-8.17 4s2.14 9.069 5.188 21.89c0 .17.09.35.13.53.091.38.182.77.28 1.16 2.24 9.399 4.92 20.6 7.59 31.649l.24 1 .78 3.2c.238 1 .488 2 .729 3l.391 1.59c.739 3.061 1.479 6.08 2.199 9 1.07 4.33 2.09 8.44 3 12.2 2.602 10.361 4.61 17.951 5.33 19.73 1 2.58 1.721 9.83 2.182 18 .795 12.5.964 27.09.983 30.141z"/><path d="M1068.63 393.06c-.83.141-1.891.261-3.12.381-9 .819-26.71 1-26.71 1s-13.229-26.181-24.49-25.33c0 0 10.41-11.82 14.641-10.41.7.229 1.141-.29 1.359-1.3 1.12-5-2.771-22.351-2.771-22.351l-5.35-23.359 31 7.6c2.819.56 11.54 5.07 11.54 5.07s.279 12.1 2.529 14.909c2.25 2.811 4.79 16.33 4.511 19.711-.28 3.38 3.09 19.14-.28 23.359s4.181 9.56-2.859 10.72z" opacity=".1"/><path fill="#06B0D1" d="M1069.76 393.06c-.84.141-1.891.261-3.12.381-9 .819-26.72 1-26.72 1s-13.229-26.181-24.479-25.33c0 0 10.41-11.82 14.63-10.41.71.229 1.149-.29 1.359-1.3 1.13-5-2.771-22.351-2.771-22.351l-5.34-23.359 31 7.6c2.811.56 11.54 5.07 11.54 5.07s.28 12.1 2.53 14.909c2.25 2.811 4.779 16.33 4.5 19.711-.28 3.38 3.1 19.14-.28 23.359s4.18 9.56-2.849 10.72z"/><path d="M1037.949 331.7s25.899 2.819 27 9.29c1.101 6.47-27-9.29-27-9.29zM1014.59 242.29a33.557 33.557 0 01-9.229 23.18.5.5 0 01-.08-.16c-1-2.14-2-4.36-1.88-6.71.09-2.83 1.72-5.39 2.25-8.19.67-3.54-.49-7.13-1.63-10.54-.83-2.5-2.439-5.53-5.062-5.22a6.84 6.84 0 01-1.55.18c-1.399-.22-1.68-2-1.83-3.44a15.589 15.589 0 00-12.729-13.35 3.926 3.926 0 00-2.23.15c-1 .44-1.5 1.49-2.38 2.1-2.859 2-6.5-1.81-10-1.52-3 .25-4.75 3.27-6 6s-2.739 5.77-5.63 6.4c-.457.145-.954.09-1.37-.15-.899-.66-.28-2 .189-3.07 1.181-2.67.391-4.8-1.061-6.71 11.629-14.575 32.87-16.964 47.445-5.335a33.754 33.754 0 0112.704 26.415l.073-.03z" opacity=".1"/><path fill="#B2B1BB" d="M905.57 505.9a117.065 117.065 0 01-8.42-4.709 139.605 139.605 0 01-11.101-7.561l-3.45-28-.109-.92-6.55-53.281-.391-3.149 10.88-.33 7.7-.23.521 4.53 4.38 37.55.109.9 6.431 55.2z"/><path d="M897.15 501.169a139.048 139.048 0 01-11.101-7.559l-3.45-28-.109-.92-6.55-53.282-.391-3.15 10.88-.33-.47 1.74.271 2.19 5.449 44.511.11.92 5.361 43.88z" opacity=".1"/><path fill="#B2B1BB" d="M972.09 408.82l-.59 4.77-.91 7.23-2 15.929-.141 1.1-.14 1.133-5.461 43.648-1.689 13.57-.561 4.449-.061.52-2.199 17.73-2.5-.17h-.45a174.76 174.76 0 01-5.18-.471c-1-.1-2-.209-3-.34-1.521-.18-3-.389-4.54-.609h-.07l-1.449-.23 1.369-9.879v-.34l6.4-47.861 2.71-20.27.149-1.119.149-1.121 2.13-15.919.9-6.681.521-3.939.649-.05 15.964-1.08z"/><path d="M962.8 411.36l-.28 2.39-.819 6.93-1.88 15.931-.13 1.109-.171 1.18-3.72 31.541-4 33.578v.391l-1 8.381-.641 5.459c-1-.1-2-.209-3-.34-1.521-.18-3-.391-4.54-.609h-.069l-1.45-.229 1.421-9.869v-.34l6.399-47.861 2.71-20.271.149-1.117.149-1.121 2.131-15.92.899-6.681.521-3.939.649-.05 6.672 1.457z" opacity=".2"/><path fill="#65617D" d="M1043.729 502.47l.431 2.91c-1.793.912-3.597 1.77-5.409 2.57-2.2.979-4.417 1.875-6.65 2.688l-1.67-13.18-1.101-8.59-1.89-14.83-1.82-14.32-.311-2.391-4.431-34.758-.779-6.102-.239-2-.23-1.8-.529-4.16h.361l7.61-.83 2.439-.25.76 5.09 1.08 7.24 7.141 47.701 1.521 10.15 1.42 9.488 2.221 14.861.075.513z"/><path fill="#CCC" d="M1043.729 502.47l.431 2.91c-1.793.912-3.597 1.77-5.409 2.57-2.2.979-4.417 1.875-6.65 2.688l-1.67-13.18-1.101-8.59-1.89-14.83-1.82-14.32-.311-2.391-4.431-34.758-.779-6.102-.239-2-.23-1.8-.529-4.16h.361l7.61-.83 2.439-.25.76 5.09 1.08 7.24 7.141 47.701 1.521 10.15 1.42 9.488 2.221 14.861.075.513z" opacity=".1"/><path fill="#B2B1BB" d="M1044.159 505.38c-1.793.912-3.598 1.77-5.409 2.57l-1.141-9.941-.761-6.66-1.069-9.309-.181-1.59-1.21-10.604-5.649-49.388-.91-7.91-.29-2.6-.47-2.28 2.439-.25.76 5.09 1.08 7.24 7.141 47.702 1.521 10.146 1.42 9.49 2.22 14.861.08.52.429 2.913z"/><path fill="#65617D" d="M1068.07 407.98l-.061 3.829-1.2 78.86c-.609.49-1.229 1-1.85 1.451v.58l-1.091.49-.771.34c-.688.527-1.39 1-2.1 1.549l-.5.35a141.137 141.137 0 01-5.061 3.451v-2.412l1-68 .061-4.179.18-12.26.08-5.45 7.58.95 3.733.451z"/><path fill="#CCC" d="M1068.07 407.98l-.061 3.829-1.2 78.86c-.609.49-1.229 1-1.85 1.451v.58l-1.091.49-.771.34c-.688.527-1.39 1-2.1 1.549l-.5.35a141.137 141.137 0 01-5.061 3.451v-2.412l1-68 .061-4.179.18-12.26.08-5.45 7.58.95 3.733.451z" opacity=".1"/><path fill="#B2B1BB" d="M1068.07 407.98l-.061 3.829-1.2 78.86c-.609.49-1.229 1-1.85 1.451v.58l-1.091.49v-.23l.181-31 .301-50.111v-4.359l3.72.49z"/><path fill="#65617D" d="M1119.74 402.9a.151.151 0 000 .06c0 .29-.08.58-.13.87-.37 2.36-.811 4.729-1.34 7.1l-50.25.92-3.65.07-7.63.14-3.21.061h-1.12l-22.13.41h-2.439l-8 .149h-.17l-6.141.12-9.91.181h-1.109l-31 .569-9 .16-7.561.14-6.59.12h-3.609l-5 .09-22.771-1-1.12-.05-21.181-.91-8.42-.369-10.29-.45-62.229-2.69a250.1 250.1 0 01-5.72-11.37l63.34-1 39-.6 7.37-.11h1.13l20-.31 6.851.38h.12l3.439.19 1.12.06 13.659.76 33.211 1.83 1.148.061 15.521.859 4.688.26h.101l31 1.71 1.141.07h.25l68.631 1.519z"/><path fill="#B2B1BB" d="M1119.74 402.9a.122.122 0 010 .06c0 .29-.08.58-.13.87-.37 2.36-.811 4.729-1.34 7.1l-50.25.92-3.641.07-7.641.14-3.21.061h-1.12l-22.13.41h-2.439l-8 .149h-.17l-6.141.12-9.91.181h-1.109l-31 .569-9 .16-7.561.14-6.59.12h-3.609l-5 .09-22.78-1h-1.119l-21.171-.92-8.43-.359-10.29-.44-62.229-2.7a250.955 250.955 0 01-5.721-11.37l63.341-1 39-.6 7.369-.11h1.131l20-.31 6.85.38h.131l3.439.19 1.12.069 13.659.75 33.211 1.83 1.14.061 15.521.859 4.689.261h.1l31 1.71 1.142.069h.25l68.638 1.47z"/><path d="M1119.74 402.9a.122.122 0 010 .06l-68.41.17h-1.12l-31.17.08h-20.069l-49.38.12h-4.271l-27.25.07h-1.12l-28.449.069-79.211-3.42c-.439-.899-.869-1.8-1.3-2.71l63.34-1 39-.6 7.37-.11h1.13l20-.31 6.851.38h.131l3.439.189 1.119.07 13.66.75 33.21 1.83 1.141.06 15.521.86 4.689.26h.101l31 1.71 1.14.07h.25l68.658 1.402zM1053.43 357.04c1.689.56 11.54 3.09 13.511 9 1.969 5.91-13.511-9-13.511-9z" opacity=".1"/><path fill="#FBBEBE" d="M1024.38 366.9s-14.351 4.359-20.83 4.359-31.8-.14-31.8-.14-66.15-22.101-46.301 8.16c19.851 30.26 51.221 13.37 51.221 13.37s2.54.56 5.63 1.27 62.91.14 64.88-2.25-22.8-24.769-22.8-24.769z"/><path d="M1065.521 393.44c-9 .819-26.711 1-26.711 1s-13.229-26.181-24.489-25.33c0 0 10.41-11.82 14.641-10.41.699.229 1.14-.29 1.359-1.3 11 3.369 32 11.609 34.101 26.06.537 3.91.888 7.19 1.099 9.98z" opacity=".1"/><path fill="#464353" d="M1066.64 393.44c-9 .819-26.72 1-26.72 1s-13.229-26.181-24.479-25.33c0 0 10.41-11.82 14.63-10.41.71.229 1.149-.29 1.359-1.3 11 3.369 32 11.609 34.109 26.06.551 3.91.901 7.19 1.101 9.98z"/><path d="M1065.521 393.44c-9 .829-26.711 1-26.711 1s-13.229-26.181-24.489-25.33c0 0 10.41-11.82 14.641-10.42.699.239 1.14-.28 1.359-1.29 11 3.369 32 11.609 34.101 26.06.537 3.92.888 7.2 1.099 9.98zM987.57 468.781s25.33-6.201 29.271-2.82c3.939 3.378-29.271 2.82-29.271 2.82zM914.949 492.98s10.7 6.189 11.819 11.26c1.121 5.07-11.819-11.26-11.819-11.26z" opacity=".1"/><path fill="#333F4F" d="M869.68 282.9v110.92c0 1.91 1 2.18 2.689 3.1 5.631 3.12 19.49 8.68 36.131-.12 1.71-.899 2.76-1.2 2.76-3.14V283.59s-21.15 8.53-41.58-.69z"/><ellipse cx="890.47" cy="282.81" fill="#2D394A" stroke="#40868E" stroke-miterlimit="10" rx="20.79" ry="4.42"/><g opacity=".2"><circle cx="871.57" cy="328.95" r=".47"/><circle cx="873.94" cy="329.61" r=".47"/><circle cx="876.86" cy="330.54" r=".47"/><circle cx="882.11" cy="331.67" r=".47"/><circle cx="887.64" cy="332.34" r=".47"/><circle cx="893.369" cy="332.61" r=".47"/><circle cx="901.59" cy="331.48" r=".47"/><circle cx="898.869" cy="332.14" r=".47"/><circle cx="906.68" cy="330.54" r=".47"/><circle cx="904.229" cy="331.01" r=".47"/><circle cx="909.369" cy="329.61" r=".47"/><circle cx="879.539" cy="331.21" r=".47"/><circle cx="884.96" cy="332.14" r=".47"/><circle cx="890.829" cy="332.61" r=".47"/><circle cx="896.17" cy="332.61" r=".47"/></g><g opacity=".2"><circle cx="871.57" cy="331.24" r=".47"/><circle cx="873.94" cy="331.91" r=".47"/><circle cx="876.86" cy="332.84" r=".47"/><circle cx="882.11" cy="333.97" r=".47"/><circle cx="887.64" cy="334.64" r=".47"/><circle cx="893.369" cy="334.9" r=".47"/><circle cx="901.59" cy="333.77" r=".47"/><circle cx="898.869" cy="334.44" r=".47"/><circle cx="906.68" cy="332.84" r=".47"/><circle cx="904.229" cy="333.31" r=".47"/><circle cx="909.369" cy="331.91" r=".47"/><circle cx="879.539" cy="333.5" r=".47"/><circle cx="884.96" cy="334.44" r=".47"/><circle cx="890.829" cy="334.9" r=".47"/><circle cx="896.17" cy="334.9" r=".47"/></g><g opacity=".2"><circle cx="871.57" cy="333.54" r=".47"/><circle cx="873.94" cy="334.2" r=".47"/><circle cx="876.86" cy="335.14" r=".47"/><circle cx="882.11" cy="336.27" r=".47"/><circle cx="887.64" cy="336.94" r=".47"/><circle cx="893.369" cy="337.2" r=".47"/><circle cx="901.59" cy="336.07" r=".47"/><circle cx="898.869" cy="336.73" r=".47"/><circle cx="906.68" cy="335.14" r=".47"/><circle cx="904.229" cy="335.6" r=".47"/><circle cx="909.369" cy="334.2" r=".47"/><circle cx="879.539" cy="335.8" r=".47"/><circle cx="884.96" cy="336.73" r=".47"/><circle cx="890.829" cy="337.2" r=".47"/><circle cx="896.17" cy="337.2" r=".47"/></g><g opacity=".2"><circle cx="871.57" cy="335.84" r=".47"/><circle cx="873.94" cy="336.5" r=".47"/><circle cx="876.86" cy="337.43" r=".47"/><circle cx="882.11" cy="338.56" r=".47"/><circle cx="887.64" cy="339.23" r=".47"/><circle cx="893.369" cy="339.49" r=".47"/><circle cx="901.59" cy="338.36" r=".47"/><circle cx="898.869" cy="339.03" r=".47"/><circle cx="906.68" cy="337.43" r=".47"/><circle cx="904.229" cy="337.9" r=".47"/><circle cx="909.369" cy="336.5" r=".47"/><circle cx="879.539" cy="338.09" r=".47"/><circle cx="884.96" cy="339.03" r=".47"/><circle cx="890.829" cy="339.49" r=".47"/><circle cx="896.17" cy="339.49" r=".47"/></g><g opacity=".2"><circle cx="871.57" cy="338.13" r=".47"/><circle cx="873.94" cy="338.79" r=".47"/><circle cx="876.86" cy="339.73" r=".47"/><circle cx="882.11" cy="340.86" r=".47"/><circle cx="887.64" cy="341.53" r=".47"/><circle cx="893.369" cy="341.79" r=".47"/><circle cx="901.59" cy="340.66" r=".47"/><circle cx="898.869" cy="341.32" r=".47"/><circle cx="906.68" cy="339.73" r=".47"/><circle cx="904.229" cy="340.19" r=".47"/><circle cx="909.369" cy="338.79" r=".47"/><circle cx="879.539" cy="340.39" r=".47"/><circle cx="884.96" cy="341.32" r=".47"/><circle cx="890.829" cy="341.79" r=".47"/><circle cx="896.17" cy="341.79" r=".47"/></g><g opacity=".2"><circle cx="871.57" cy="340.43" r=".47"/><circle cx="873.94" cy="341.09" r=".47"/><circle cx="876.86" cy="342.02" r=".47"/><circle cx="882.11" cy="343.15" r=".47"/><circle cx="887.64" cy="343.82" r=".47"/><circle cx="893.369" cy="344.09" r=".47"/><circle cx="901.59" cy="342.95" r=".47"/><circle cx="898.869" cy="343.62" r=".47"/><circle cx="906.68" cy="342.02" r=".47"/><circle cx="904.229" cy="342.49" r=".47"/><circle cx="909.369" cy="341.09" r=".47"/><circle cx="879.539" cy="342.69" r=".47"/><circle cx="884.96" cy="343.62" r=".47"/><circle cx="890.829" cy="344.09" r=".47"/><circle cx="896.17" cy="344.09" r=".47"/></g><g opacity=".2"><circle cx="871.57" cy="342.72" r=".47"/><circle cx="873.94" cy="343.38" r=".47"/><circle cx="876.86" cy="344.32" r=".47"/><circle cx="882.11" cy="345.45" r=".47"/><circle cx="887.64" cy="346.12" r=".47"/><circle cx="893.369" cy="346.38" r=".47"/><circle cx="901.59" cy="345.25" r=".47"/><circle cx="898.869" cy="345.91" r=".47"/><circle cx="906.68" cy="344.32" r=".47"/><circle cx="904.229" cy="344.78" r=".47"/><circle cx="909.369" cy="343.38" r=".47"/><circle cx="879.539" cy="344.98" r=".47"/><circle cx="884.96" cy="345.91" r=".47"/><circle cx="890.829" cy="346.38" r=".47"/><circle cx="896.17" cy="346.38" r=".47"/></g><g opacity=".2"><circle cx="871.57" cy="345.02" r=".47"/><circle cx="873.94" cy="345.68" r=".47"/><circle cx="876.86" cy="346.61" r=".47"/><circle cx="882.11" cy="347.74" r=".47"/><circle cx="887.64" cy="348.41" r=".47"/><circle cx="893.369" cy="348.68" r=".47"/><circle cx="901.59" cy="347.55" r=".47"/><circle cx="898.869" cy="348.21" r=".47"/><circle cx="906.68" cy="346.61" r=".47"/><circle cx="904.229" cy="347.08" r=".47"/><circle cx="909.369" cy="345.68" r=".47"/><circle cx="879.539" cy="347.28" r=".47"/><circle cx="884.96" cy="348.21" r=".47"/><circle cx="890.829" cy="348.68" r=".47"/><circle cx="896.17" cy="348.68" r=".47"/></g><g opacity=".2"><circle cx="871.57" cy="347.31" r=".47"/><circle cx="873.94" cy="347.98" r=".47"/><circle cx="876.86" cy="348.91" r=".47"/><circle cx="882.11" cy="350.04" r=".47"/><circle cx="887.64" cy="350.71" r=".47"/><circle cx="893.369" cy="350.97" r=".47"/><circle cx="901.59" cy="349.84" r=".47"/><circle cx="898.869" cy="350.51" r=".47"/><circle cx="906.68" cy="348.91" r=".47"/><circle cx="904.229" cy="349.38" r=".47"/><circle cx="909.369" cy="347.98" r=".47"/><circle cx="879.539" cy="349.57" r=".47"/><circle cx="884.96" cy="350.51" r=".47"/><circle cx="890.829" cy="350.97" r=".47"/><circle cx="896.17" cy="350.97" r=".47"/></g><g opacity=".2"><circle cx="871.57" cy="349.61" r=".47"/><circle cx="873.94" cy="350.27" r=".47"/><circle cx="876.86" cy="351.2" r=".47"/><circle cx="882.11" cy="352.33" r=".47"/><circle cx="887.64" cy="353" r=".47"/><circle cx="893.369" cy="353.27" r=".47"/><circle cx="901.59" cy="352.14" r=".47"/><circle cx="898.869" cy="352.8" r=".47"/><circle cx="906.68" cy="351.2" r=".47"/><circle cx="904.229" cy="351.67" r=".47"/><circle cx="909.369" cy="350.27" r=".47"/><circle cx="879.539" cy="351.87" r=".47"/><circle cx="884.96" cy="352.8" r=".47"/><circle cx="890.829" cy="353.27" r=".47"/><circle cx="896.17" cy="353.27" r=".47"/></g><g opacity=".2"><circle cx="871.57" cy="351.9" r=".47"/><circle cx="873.94" cy="352.57" r=".47"/><circle cx="876.86" cy="353.5" r=".47"/><circle cx="882.11" cy="354.63" r=".47"/><circle cx="887.64" cy="355.3" r=".47"/><circle cx="893.369" cy="355.56" r=".47"/><circle cx="901.59" cy="354.43" r=".47"/><circle cx="898.869" cy="355.1" r=".47"/><circle cx="906.68" cy="353.5" r=".47"/><circle cx="904.229" cy="353.97" r=".47"/><circle cx="909.369" cy="352.57" r=".47"/><circle cx="879.539" cy="354.16" r=".47"/><circle cx="884.96" cy="355.1" r=".47"/><circle cx="890.829" cy="355.56" r=".47"/><circle cx="896.17" cy="355.56" r=".47"/></g><g opacity=".2"><circle cx="871.57" cy="354.2" r=".47"/><circle cx="873.94" cy="354.86" r=".47"/><circle cx="876.86" cy="355.8" r=".47"/><circle cx="882.11" cy="356.93" r=".47"/><circle cx="887.64" cy="357.6" r=".47"/><circle cx="893.369" cy="357.86" r=".47"/><circle cx="901.59" cy="356.73" r=".47"/><circle cx="898.869" cy="357.39" r=".47"/><circle cx="906.68" cy="355.8" r=".47"/><circle cx="904.229" cy="356.26" r=".47"/><circle cx="909.369" cy="354.86" r=".47"/><circle cx="879.539" cy="356.46" r=".47"/><circle cx="884.96" cy="357.39" r=".47"/><circle cx="890.829" cy="357.86" r=".47"/><circle cx="896.17" cy="357.86" r=".47"/></g><g opacity=".2"><circle cx="871.57" cy="356.5" r=".47"/><circle cx="873.94" cy="357.16" r=".47"/><circle cx="876.86" cy="358.09" r=".47"/><circle cx="882.11" cy="359.22" r=".47"/><circle cx="887.64" cy="359.89" r=".47"/><circle cx="893.369" cy="360.15" r=".47"/><circle cx="901.59" cy="359.02" r=".47"/><circle cx="898.869" cy="359.69" r=".47"/><circle cx="906.68" cy="358.09" r=".47"/><circle cx="904.229" cy="358.56" r=".47"/><circle cx="909.369" cy="357.16" r=".47"/><circle cx="879.539" cy="358.75" r=".47"/><circle cx="884.96" cy="359.69" r=".47"/><circle cx="890.829" cy="360.15" r=".47"/><circle cx="896.17" cy="360.15" r=".47"/></g><g opacity=".2"><circle cx="871.57" cy="358.79" r=".47"/><circle cx="873.94" cy="359.45" r=".47"/><circle cx="876.86" cy="360.39" r=".47"/><circle cx="882.11" cy="361.52" r=".47"/><circle cx="887.64" cy="362.19" r=".47"/><circle cx="893.369" cy="362.45" r=".47"/><circle cx="901.59" cy="361.32" r=".47"/><circle cx="898.869" cy="361.98" r=".47"/><circle cx="906.68" cy="360.39" r=".47"/><circle cx="904.229" cy="360.85" r=".47"/><circle cx="909.369" cy="359.45" r=".47"/><circle cx="879.539" cy="361.05" r=".47"/><circle cx="884.96" cy="361.98" r=".47"/><circle cx="890.829" cy="362.45" r=".47"/><circle cx="896.17" cy="362.45" r=".47"/></g><g opacity=".2"><circle cx="871.57" cy="361.09" r=".47"/><circle cx="873.94" cy="361.75" r=".47"/><circle cx="876.86" cy="362.68" r=".47"/><circle cx="882.11" cy="363.81" r=".47"/><circle cx="887.64" cy="364.48" r=".47"/><circle cx="893.369" cy="364.75" r=".47"/><circle cx="901.59" cy="363.61" r=".47"/><circle cx="898.869" cy="364.28" r=".47"/><circle cx="906.68" cy="362.68" r=".47"/><circle cx="904.229" cy="363.15" r=".47"/><circle cx="909.369" cy="361.75" r=".47"/><circle cx="879.539" cy="363.35" r=".47"/><circle cx="884.96" cy="364.28" r=".47"/><circle cx="890.829" cy="364.75" r=".47"/><circle cx="896.17" cy="364.75" r=".47"/></g><g opacity=".2"><circle cx="871.57" cy="363.38" r=".47"/><circle cx="873.94" cy="364.04" r=".47"/><circle cx="876.86" cy="364.98" r=".47"/><circle cx="882.11" cy="366.11" r=".47"/><circle cx="887.64" cy="366.78" r=".47"/><circle cx="893.369" cy="367.04" r=".47"/><circle cx="901.59" cy="365.91" r=".47"/><circle cx="898.869" cy="366.57" r=".47"/><circle cx="906.68" cy="364.98" r=".47"/><circle cx="904.229" cy="365.44" r=".47"/><circle cx="909.369" cy="364.04" r=".47"/><circle cx="879.539" cy="365.64" r=".47"/><circle cx="884.96" cy="366.57" r=".47"/><circle cx="890.829" cy="367.04" r=".47"/><circle cx="896.17" cy="367.04" r=".47"/></g><g opacity=".2"><circle cx="871.57" cy="365.68" r=".47"/><circle cx="873.94" cy="366.34" r=".47"/><circle cx="876.86" cy="367.27" r=".47"/><circle cx="882.11" cy="368.4" r=".47"/><circle cx="887.64" cy="369.07" r=".47"/><circle cx="893.369" cy="369.34" r=".47"/><circle cx="901.59" cy="368.21" r=".47"/><circle cx="898.869" cy="368.87" r=".47"/><circle cx="906.68" cy="367.27" r=".47"/><circle cx="904.229" cy="367.74" r=".47"/><circle cx="909.369" cy="366.34" r=".47"/><circle cx="879.539" cy="367.94" r=".47"/><circle cx="884.96" cy="368.87" r=".47"/><circle cx="890.829" cy="369.34" r=".47"/><circle cx="896.17" cy="369.34" r=".47"/></g><g opacity=".2"><circle cx="871.57" cy="367.97" r=".47"/><circle cx="873.94" cy="368.64" r=".47"/><circle cx="876.86" cy="369.57" r=".47"/><circle cx="882.11" cy="370.7" r=".47"/><circle cx="887.64" cy="371.37" r=".47"/><circle cx="893.369" cy="371.63" r=".47"/><circle cx="901.59" cy="370.5" r=".47"/><circle cx="898.869" cy="371.17" r=".47"/><circle cx="906.68" cy="369.57" r=".47"/><circle cx="904.229" cy="370.04" r=".47"/><circle cx="909.369" cy="368.64" r=".47"/><circle cx="879.539" cy="370.23" r=".47"/><circle cx="884.96" cy="371.17" r=".47"/><circle cx="890.829" cy="371.63" r=".47"/><circle cx="896.17" cy="371.63" r=".47"/></g><g opacity=".2"><circle cx="871.57" cy="370.27" r=".47"/><circle cx="873.94" cy="370.93" r=".47"/><circle cx="876.86" cy="371.86" r=".47"/><circle cx="882.11" cy="372.99" r=".47"/><circle cx="887.64" cy="373.66" r=".47"/><circle cx="893.369" cy="373.93" r=".47"/><circle cx="901.59" cy="372.8" r=".47"/><circle cx="898.869" cy="373.46" r=".47"/><circle cx="906.68" cy="371.86" r=".47"/><circle cx="904.229" cy="372.33" r=".47"/><circle cx="909.369" cy="370.93" r=".47"/><circle cx="879.539" cy="372.53" r=".47"/><circle cx="884.96" cy="373.46" r=".47"/><circle cx="890.829" cy="373.93" r=".47"/><circle cx="896.17" cy="373.93" r=".47"/></g><g opacity=".2"><circle cx="871.57" cy="372.56" r=".47"/><circle cx="873.94" cy="373.23" r=".47"/><circle cx="876.86" cy="374.16" r=".47"/><circle cx="882.11" cy="375.29" r=".47"/><circle cx="887.64" cy="375.96" r=".47"/><circle cx="893.369" cy="376.22" r=".47"/><circle cx="901.59" cy="375.09" r=".47"/><circle cx="898.869" cy="375.76" r=".47"/><circle cx="906.68" cy="374.16" r=".47"/><circle cx="904.229" cy="374.63" r=".47"/><circle cx="909.369" cy="373.23" r=".47"/><circle cx="879.539" cy="374.82" r=".47"/><circle cx="884.96" cy="375.76" r=".47"/><circle cx="890.829" cy="376.22" r=".47"/><circle cx="896.17" cy="376.22" r=".47"/></g><g opacity=".2"><circle cx="871.57" cy="374.86" r=".47"/><circle cx="873.94" cy="375.52" r=".47"/><circle cx="876.86" cy="376.46" r=".47"/><circle cx="882.11" cy="377.59" r=".47"/><circle cx="887.64" cy="378.26" r=".47"/><circle cx="893.369" cy="378.52" r=".47"/><circle cx="901.59" cy="377.39" r=".47"/><circle cx="898.869" cy="378.05" r=".47"/><circle cx="906.68" cy="376.46" r=".47"/><circle cx="904.229" cy="376.92" r=".47"/><circle cx="909.369" cy="375.52" r=".47"/><circle cx="879.539" cy="377.12" r=".47"/><circle cx="884.96" cy="378.05" r=".47"/><circle cx="890.829" cy="378.52" r=".47"/><circle cx="896.17" cy="378.52" r=".47"/></g><g opacity=".2"><circle cx="871.57" cy="377.16" r=".47"/><circle cx="873.94" cy="377.82" r=".47"/><circle cx="876.86" cy="378.75" r=".47"/><circle cx="882.11" cy="379.88" r=".47"/><circle cx="887.64" cy="380.55" r=".47"/><circle cx="893.369" cy="380.81" r=".47"/><circle cx="901.59" cy="379.68" r=".47"/><circle cx="898.869" cy="380.35" r=".47"/><circle cx="906.68" cy="378.75" r=".47"/><circle cx="904.229" cy="379.22" r=".47"/><circle cx="909.369" cy="377.82" r=".47"/><circle cx="879.539" cy="379.41" r=".47"/><circle cx="884.96" cy="380.35" r=".47"/><circle cx="890.829" cy="380.81" r=".47"/><circle cx="896.17" cy="380.81" r=".47"/></g><g opacity=".2"><circle cx="871.57" cy="379.45" r=".47"/><circle cx="873.94" cy="380.11" r=".47"/><circle cx="876.86" cy="381.05" r=".47"/><circle cx="882.11" cy="382.18" r=".47"/><circle cx="887.64" cy="382.85" r=".47"/><circle cx="893.369" cy="383.11" r=".47"/><circle cx="901.59" cy="381.98" r=".47"/><circle cx="898.869" cy="382.64" r=".47"/><circle cx="906.68" cy="381.05" r=".47"/><circle cx="904.229" cy="381.51" r=".47"/><circle cx="909.369" cy="380.11" r=".47"/><circle cx="879.539" cy="381.71" r=".47"/><circle cx="884.96" cy="382.64" r=".47"/><circle cx="890.829" cy="383.11" r=".47"/><circle cx="896.17" cy="383.11" r=".47"/></g><g opacity=".2"><circle cx="871.57" cy="381.75" r=".47"/><circle cx="873.94" cy="382.41" r=".47"/><circle cx="876.86" cy="383.34" r=".47"/><circle cx="882.11" cy="384.47" r=".47"/><circle cx="887.64" cy="385.14" r=".47"/><circle cx="893.369" cy="385.4" r=".47"/><circle cx="901.59" cy="384.27" r=".47"/><circle cx="898.869" cy="384.94" r=".47"/><circle cx="906.68" cy="383.34" r=".47"/><circle cx="904.229" cy="383.81" r=".47"/><circle cx="909.369" cy="382.41" r=".47"/><circle cx="879.539" cy="384.01" r=".47"/><circle cx="884.96" cy="384.94" r=".47"/><circle cx="890.829" cy="385.4" r=".47"/><circle cx="896.17" cy="385.4" r=".47"/></g><path fill="#3F3D56" d="M945.75 226.7s13.689-5.12 18.239 5.43l1.279.33 2.87.74c7.25-10.83 26.341 0 26.341 0l26.8 11.85-1 1.67-26.859-9.37s-3.551 11-8.21 13.65c-4.66 2.65-12.23-1.47-12.23-1.47-4.72-1.89-5.079-10.18-5-14.18l-4.06-.81c-.28 4-1.761 11.71-9 12.58-9.851 1.18-10.54-7.51-10.54-7.51s-.25-11.06 1.37-12.91z"/><path fill="#464353" d="M955.521 226.8c-.45 1-1.08 2.41-.171 3.06.41.243.904.301 1.36.16 2.89-.63 4.42-3.71 5.63-6.41s3-5.72 6-6c3.47-.29 7.101 3.49 10 1.51.88-.6 1.41-1.66 2.39-2.1a3.886 3.886 0 012.221-.14 15.579 15.579 0 0112.729 13.34c.15 1.4.439 3.22 1.83 3.44a5.915 5.915 0 001.55-.18c2.62-.3 4.221 2.72 5.061 5.22 1.141 3.41 2.291 7 1.631 10.55-.521 2.79-2.16 5.35-2.25 8.19-.08 2.34.91 4.57 1.88 6.7.97 2.13 2.55 4.63 4.87 4.33 1.898-.25 2.949-2.27 3.869-4 .921-1.729 2.561-3.51 4.41-3 .819.24 1.681.94 2.431.51.397-.289.655-.732.71-1.22.899-3.94-.391-8.36 1.521-11.91 1.471-2.73 4.46-4.21 6.891-6.15 8.502-6.789 9.89-19.185 3.101-27.687-.144-.18-.291-.358-.439-.533-2.591-3-6.33-5.73-6.541-9.72-.159-3 1.9-5.84 1.921-8.88s-1.88-5.61-4-7.63a26.23 26.23 0 00-23.58-6.21c-2.181.52-4.37 1.34-6.601 1.06-2.58-.32-4.739-2-7.061-3.22-7.62-3.85-17.93-1.05-22.54 6.13-2.67 4.15-3.71 9.57-7.689 12.48-2.62 1.91-6.359 2.62-7.811 5.52-.87 1.74-.62 3.8-.359 5.73a13.42 13.42 0 004.279 8.19c2.275 2.58 4.355 5.2 2.757 8.87z"/><g opacity=".1"><path d="M1027.33 199.42c.263-.762.463-1.545.6-2.34a13.783 13.783 0 00-.6 2.34zM956.06 224.36c.14-.517.326-1.019.561-1.5 1.62-3.67-.46-6.29-2.88-8.76a13.417 13.417 0 01-4.28-8.19 20.566 20.566 0 01-.239-2.61 5.71 5.71 0 00-.53.82c-.869 1.74-.619 3.8-.359 5.73a13.422 13.422 0 004.28 8.19c1.847 1.86 3.497 3.86 3.447 6.32zM1019.521 257.64c-1.851-.54-3.49 1.28-4.4 3-.91 1.72-2 3.71-3.88 4-2.311.3-3.899-2.2-4.87-4.33-.97-2.13-2-4.36-1.88-6.7 0-.28 0-.56.08-.83a15.4 15.4 0 00-1.2 4.77c-.08 2.34.91 4.57 1.881 6.7.97 2.13 2.55 4.63 4.869 4.33 1.9-.25 2.95-2.27 3.87-4s2.561-3.51 4.409-3c.82.24 1.682.94 2.432.51.396-.289.654-.731.709-1.22.189-.882.301-1.779.33-2.68-.701.32-1.521-.29-2.35-.55zM1031.1 238.9c-2.42 1.94-5.409 3.42-6.891 6.15a9.943 9.943 0 00-1 3.81c1.5-2.65 4.421-4.11 6.812-6a20.01 20.01 0 007.1-12 20.02 20.02 0 01-6.021 8.04zM1005.709 248.82a22.63 22.63 0 001.07-3.47c.659-3.54-.5-7.14-1.641-10.55-.83-2.5-2.439-5.52-5-5.22a5.946 5.946 0 01-1.561.18c-1.39-.22-1.681-2-1.819-3.439a15.589 15.589 0 00-12.729-13.34 3.921 3.921 0 00-2.229.14c-1 .44-1.511 1.5-2.38 2.1-2.87 2-6.5-1.8-10-1.51-2.94.24-4.75 3.26-6 6s-2.74 5.78-5.631 6.41a1.687 1.687 0 01-1.359-.16 1.08 1.08 0 01-.449-.84 6.504 6.504 0 01-.511 1.72c-.449 1-1.08 2.41-.17 3.06.41.243.904.301 1.359.16 2.891-.63 4.42-3.71 5.63-6.41s3-5.72 6-6c3.471-.29 7.101 3.49 10 1.51.881-.6 1.41-1.66 2.391-2.1a3.885 3.885 0 012.221-.14 15.579 15.579 0 0112.729 13.34c.15 1.4.44 3.22 1.83 3.44a5.923 5.923 0 001.551-.18c2.619-.3 4.22 2.72 5.061 5.22 1.038 3.259 2.118 6.689 1.637 10.079z"/></g></g><g opacity=".9"><path fill="#007BFF" d="M.03 206.81c0 .93 0 1.86.07 2.8a195.819 195.819 0 003.521 30.36c5.729 29.8 17.699 59.6 31.859 88 .23.45.46.9.681 1.351.34.67.67 1.34 1 2a114.977 114.977 0 002.08 4.08l1.569 3c.37.72.76 1.439 1.141 2.17.229.439.47.89.72 1.34a249.7 249.7 0 0012.85 21.76l.53.78a135.11 135.11 0 0020.36 24c13.54 12.45 30.739 21.45 49.109 26.59.62.18 1.24.34 1.87.51 1.2.311 2.42.61 3.64.9.841.2 1.681.39 2.53.56a132.914 132.914 0 0017.771 2.57c3.239.25 6.489.37 9.72.37h1.4c3.992-.032 7.98-.267 11.949-.7l.57-.07a103.55 103.55 0 0031.16-8.39 85.53 85.53 0 004.649-2.25l.78-.4.38-.21a126.055 126.055 0 0014.66-9.17c5.45-3.91 10.59-8.149 15.561-12.51a239.549 239.549 0 0021-20.68l.3-.33a173.31 173.31 0 008.069-9.8v-.061c1.78-2.34 3.487-4.723 5.12-7.149.08-.101.15-.211.23-.33 2.39-3.57 4.609-7.23 6.63-11l.46-.87a108.13 108.13 0 004-8.42c6.92-16.08 10-33.49 11.689-50.94 3.45-35.26 1.44-71.59-7.89-106.86a267.563 267.563 0 00-4.189-14.25c-.21-.63-.41-1.27-.63-1.9-.33-1-.681-2-1-3.05-.141-.42-.29-.85-.44-1.27a224.05 224.05 0 00-4.33-11.45l-.81-2c-.851-2-1.721-4.09-2.631-6.12-.829-1.87-1.689-3.75-2.59-5.61-.149-.3-.29-.59-.43-.89-7.7-15.81-17.8-31.18-32.16-42.77-1-.79-2-1.56-3-2.31a80.286 80.286 0 00-4.649-3.22l-1.131-.72-.42-.26-.3-.18-.17-.1c-.81-.49-1.64-1-2.47-1.42s-1.7-.9-2.561-1.33h-.12l-.34-.16c-.67-.34-1.35-.66-2-1l-.699-.31-.271-.12-1.13-.47a79.027 79.027 0 00-15.94-4.77 73.81 73.81 0 00-9.159-1.12 60.693 60.693 0 00-13.931.75c-.7.12-1.39.25-2.08.4a42.457 42.457 0 00-16.149 7c-6.29 4.56-10.73 10.67-14.761 17l-.409.64c-.681 1.07-1.341 2.14-2 3.21-2.311 3.74-4.62 7.5-7.061 11.19-2.26 3.42-4.63 6.78-7.189 10a85.204 85.204 0 01-8.4 9.14c-.45.42-.91.84-1.38 1.25a62.472 62.472 0 01-18.91 11.57c-6.28 2.35-13 3.41-19.53 2.05a26.123 26.123 0 01-5.38-1.72c-3.26-1.44-6.45-2.85-9.59-4.1a70.974 70.974 0 00-17.53-5 38.997 38.997 0 00-18.489 2c-1 .35-1.95.75-2.94 1.19a41.763 41.763 0 00-11.82 7.91c-.409.39-.81.79-1.21 1.19-8.75 8.94-13.569 21.31-16.16 33.41A152.035 152.035 0 00.03 206.81z" opacity=".1"/><linearGradient id="a" x1="1395.861" x2="1395.861" y1="189.9" y2="-230.007" gradientTransform="matrix(-1 0 0 1 1618.24 230.05)" gradientUnits="userSpaceOnUse"><stop offset="0" stop-color="gray" stop-opacity=".25"/><stop offset=".54" stop-color="gray" stop-opacity=".12"/><stop offset="1" stop-color="gray" stop-opacity=".1"/></linearGradient><path fill="url(#a)" d="M127.52 412.72l-2 2.32c.62.18 1.24.34 1.87.51 1.2.311 2.42.61 3.64.9.841.2 1.681.39 2.53.56a132.914 132.914 0 0017.771 2.57c3.239.25 6.489.37 9.72.37a15.188 15.188 0 001.62-2.891c1.32-3.09 6.47-8.569 12-13.84-.11.891-.18 1.4-.18 1.4v.35l-.061 14.271.57-.07a103.608 103.608 0 0031.16-8.39 85.53 85.53 0 004.649-2.25l.78-.4.38-.21c.69-3.439 1.32-6.74 1.83-9.37l.06-.37c.07-.35.131-.699.2-1 .07-.3.11-.62.17-.899.061-.28.07-.41.11-.601.34-1.81.53-2.89.53-2.89.027-.55.088-1.097.18-1.64a14.442 14.442 0 013.87-8.101 7.565 7.565 0 001.859-3.21c1.101-3.399.91-7.84.75-9.859-.05-.671-.109-1.07-.109-1.07s3.81-2 6.06-8.21c.476-1.3.841-2.64 1.09-4 1.631-8.79 6.66-27.33 7.28-29.61l.061-.22s.13-.32.359-.93c0-.07.05-.141.07-.221l.09-.229c2.26-6.19 11-31.28 10.29-47.94-.77-19.13 1.16-29.09 1.16-29.09l2.26-41.58v-.44l.13-2.43v-.69c.33.25.63.49.87.69l.55.46.19.18v-.48c.35.29.55.48.55.48s1-16.15.9-25.28c0-1.07 0-2.06-.08-2.9 6.76-2.29 17-6.07 17.63-8 .49-1.59 4.29-5.09 7.56-7.89l1.79-1.5.931-.77c1.3-1.06 2.189-1.75 2.189-1.75a1.998 1.998 0 01-.71-.27c.36-.16.75-.35 1.15-.57 1-.52 2-1.16 3.16-1.91 4.81-3.17 10.68-8.17 13.949-13 1.82-2.71 2.83-5.38 2.39-7.65a4.276 4.276 0 00-.159-.64l13.819-19.87 1.61-2.32a3.78 3.78 0 00-.34-4.74l.06-.08-.1-.07-.601-.4.11.1a2 2 0 00-2.6.56l-.24.35-13.33 19.12-2.35 3.39c-5.2-1.57-12.771 2.85-18.74 7.35a96.47 96.47 0 00-5.67 4.63l-1 .91c-.47-1-.74-1.7-.74-1.7-.29 3.16-11.45 7.9-14.05 9.62a9.518 9.518 0 01-3.89 1.31c.37-12-8.92-24.65-8.92-24.65l-18-22.95-1.11-1.41-3.56-4.53a20.812 20.812 0 01-.32-4.28 26.495 26.495 0 011-6.94c.109-.36.229-.73.35-1.1.348-1.028.766-2.03 1.25-3 .19-.37.38-.75.59-1.12h.101c-.391 1.38-.8 2.77-1.08 4.16-.08.38-.15.75-.2 1.13l-.06.47a14.864 14.864 0 00-.08 1.79v.26c.18 2.41 1.95 11.15 4.37 10.76a1.421 1.421 0 001.3-.63c.272-.309.514-.644.72-1 .156-.27.294-.551.41-.84.163-.39.301-.791.41-1.2.529-2.293.722-4.651.569-7a20.162 20.162 0 01-.359 3.26c.13-2.53-.08-5.19-.16-7.35v-1.35-1.37c0-.46 0-.92.05-1.39h.28V80.39h.29a30.052 30.052 0 006.63-2 30.513 30.513 0 007.24-4.41 7.474 7.474 0 001.42-.2 7.498 7.498 0 003.59-2l.2-.22a5.062 5.062 0 01-.86 4.58.741.741 0 01-.109.14h.14c2.87-.2 5.32-2.39 6.51-5 .049-.086.089-.177.12-.27 1.02-2.846 1.318-5.9.87-8.89a60.104 60.104 0 01-.65-9c0-.73.13-1.46.2-2.19v-.26c.07-.812.07-1.628 0-2.44a.965.965 0 000-.17 9.401 9.401 0 00-.24-1.31h.091a2.14 2.14 0 001.649-.85l.18-.15c.223-.201.417-.429.58-.68.22-.312.404-.647.55-1 .292-.798.522-1.617.69-2.45a37.413 37.413 0 001.17-10.29c-.07 1-.2 2.1-.36 3.15.28-4-.279-7.84-2.909-10.72-1.801-2-4.33-3.15-6.771-4.3a5.082 5.082 0 01-2.189-1.56 6.448 6.448 0 01-.681-2.74c-.85-5.82-6.319-9.85-11.76-12.21-7-3-15.43-4.35-22.16-.73-3.27 1.75-5.85 4.51-8.8 6.76-3.74 2.83-8 4.82-12 7.3-4 2.479-7.82 5.62-9.74 9.84s-1.62 9.2-1.09 14c.271 2.44.6 4.88.73 7.28v.59a37.571 37.571 0 01-3 16.1 31.538 31.538 0 01-10.33 13.19 11.644 11.644 0 00-2.92 2.53 3.148 3.148 0 00-.24 3.61c.232.291.505.547.81.76.335.236.646.504.931.8.226.259.401.557.52.88.298.944.325 1.952.08 2.91 0 .09 0 .18-.05.26l-.12.5a28.466 28.466 0 01-7.74 13.09c.16 1.18 1.601 1.64 2.79 1.82 3.129.457 6.288.684 9.45.68h1.36c-.15.36-.29.73-.44 1.12-.32.85-.67 1.8-1 2.8-1.44 4.25-2.78 9.45-2.18 12.89 1.159 6.7 4.63 37.31 2.899 42.67-1.729 5.36 2.7 44.58 2.7 44.58s.12.61.35 1.68c.28 1.32.73 3.34 1.311 5.81 0 .1-.08.21-.13.31-2.7 6.35-5.74 13.3-7.28 16.12-2.07 3.79-2.1 17.83 1.23 30.68 1.71 6.62 4.319 12.92 8 17.34 0 0 3.779 5.33 3.489 8a1.84 1.84 0 01-.189.64c-.82 1.6-.4 4.05-.07 5.37.14.58.271.94.271.94v1l1.67 36.93a97.545 97.545 0 01-.801 11.57c-4.609 5.71-11.72 14-15.079 15.399-5.181 2.11-43.82 49-43.82 49s.31.561.91 1.48l-1.021 1.271z"/><path fill="#A1616A" d="M282.28 159.02a9.994 9.994 0 01-3.699 1.4c-4.83.15-8.811-12.93-8.811-12.93s1.38-1.39 3.57-3.34c6.47-5.76 20.05-16.39 26.42-10.44 7.14 6.67-9.16 20.81-17.48 25.31zM133.52 417.01a132.59 132.59 0 0017.771 2.57c-2.53-4.47-19-9.78-19-9.78l-2.23 2.601-1.06 1.25-1.62 1.899c1.2.311 2.42.61 3.64.9.819.2 1.659.39 2.499.56z"/><path d="M282.28 159.02a9.994 9.994 0 01-3.699 1.4c-4.83.15-8.811-12.93-8.811-12.93s1.38-1.39 3.57-3.34c1.54 3.56 5.9 13.1 8.94 14.87z" opacity=".1"/><path fill="#FF748E" d="M251.3 154.31s4 .29 6.54-1.42 13.5-6.39 13.78-9.52c0 0 6.54 15.92 10.229 16.49 0 0-11.37 8.95-12.22 11.79-.851 2.84-23 9.8-23 9.8l4.671-27.14z"/><path fill="#5E5A6B" d="M251.3 154.31s4 .29 6.54-1.42 13.5-6.39 13.78-9.52c0 0 6.54 15.92 10.229 16.49 0 0-11.37 8.95-12.22 11.79-.851 2.84-23 9.8-23 9.8l4.671-27.14z"/><path d="M128.98 413.65c.49.75 1.16 1.71 2 2.8.84.2 1.681.39 2.53.56a132.6 132.6 0 0017.77 2.57c-2.529-4.47-19-9.78-19-9.78l-2.229 2.601-1.071 1.249z" opacity=".1"/><path fill="#5E5A6B" d="M129.15 410.9s.301.56.891 1.47a42.704 42.704 0 003.489 4.61 132.774 132.774 0 0017.771 2.569c3.24.25 6.49.37 9.72.37h1.4c.385-.64.719-1.308 1-2 1.229-2.92 5.89-8 11-13 .24-.25.5-.49.74-.729 7.29-7.07 15.17-13.761 15.17-13.761l.76-48.689s-1.73 2.31-4.19 5.39c-4.52 5.65-11.51 13.9-14.79 15.25-5.071 2.14-42.961 48.52-42.961 48.52z"/><path d="M129.15 410.9s.301.56.891 1.47a42.704 42.704 0 003.489 4.61 132.774 132.774 0 0017.771 2.569c3.24.25 6.49.37 9.72.37h1.4c.385-.64.719-1.308 1-2 1.229-2.92 5.89-8 11-13 .24-.25.5-.49.74-.729 7.29-7.07 15.17-13.761 15.17-13.761l.76-48.689s-1.73 2.31-4.19 5.39c-4.52 5.65-11.51 13.9-14.79 15.25-5.071 2.14-42.961 48.52-42.961 48.52z" opacity=".1"/><path d="M148.99 403.97a60.36 60.36 0 0012.649 0c7.531-.71 1.881 3.84-12.649 0zM145.58 408.81s9.949 5.681 13.79 2.841c3.84-2.841-3.7 2.739-13.79-2.841z" opacity=".1"/><path fill="#5E5A6B" d="M185.65 289.18c.394.875.451 1.865.16 2.78a6.23 6.23 0 00-.42 3.23 14.185 14.185 0 00.621 3.02l1.68 37.51a98.251 98.251 0 01-.779 11.46c-.54 4-1.46 8.11-3 10.521-3.391 5.2-7.82 39.2-8.74 46.54l-.17 1.39-.061 13.54a103.57 103.57 0 0031.16-8.39 85.922 85.922 0 004.65-2.25l.779-.4.381-.21c.689-3.52 1.319-6.83 1.79-9.35l.06-.37c.07-.36.14-.7.2-1s.109-.62.17-.9c.06-.28.07-.41.109-.6.2-1.12.32-1.76.32-1.76.055-.933.186-1.859.391-2.771a13.641 13.641 0 013.569-6.88 8.597 8.597 0 002.16-4.43c.564-3.159.662-6.384.29-9.57.191-.118.375-.248.55-.39 1.16-.82 4.271-3.46 5.95-9.28.246-.838.447-1.69.6-2.55 1.71-9.28 7.2-29.561 7.2-29.561s.21-.55.57-1.54c.13-.33.27-.72.42-1.149 0-.07.05-.141.07-.221l.09-.229c2.87-8.21 10.06-30.49 9.46-45.68-.771-18.94 1.13-28.8 1.13-28.8l2.37-44V205.79l.22-4.14-21.8-.65h-1.27l-5.181-.16H220.629l-7-.21-3.13-.09-5.641-.17h-2.059l-4.35-.13-12.681 7.39s-.489 1.23-1.3 3.18c-.17.44-.37.93-.59 1.44-.22.51-.43 1.07-.68 1.66l-1.801 4.32c-.21.51-.42 1-.64 1.54-2.68 6.38-5.729 13.44-7.27 16.27-1.91 3.52-2 16 .63 28 1.649 7.41 4.37 14.66 8.41 19.57a27.897 27.897 0 013.123 5.57z"/><path d="M199.86 390.33s7.771 6.13 11 6.11c3.23-.02-11-6.11-11-6.11z" opacity=".1"/><path fill="#A1616A" d="M246.61 133.9v12.51l-8.26-3.56-8.22-3.55-17.9-17.62s-14.17-9.21-21.75-17.59c-4.33-4.79-6.51-9.3-2.689-11.68a23.648 23.648 0 004.949-4.35 80.919 80.919 0 009.881-14.58c.119-.21.239-.42.35-.63 3.69-6.77 6.13-12.55 6.13-12.55s10.38 3.33 17.061 8c.54.37 1.05.76 1.54 1.16 3.729 3.06 5.569 6.59 2.149 10.12a26.784 26.784 0 00-2.45 2.92 21.883 21.883 0 00-1.52 2.39c-.21.37-.4.74-.58 1.11a25.548 25.548 0 00-2.28 15.17l23.589 32.73z"/><path fill="#464353" d="M245.1 44.6c.43.74 1 1.39 1.43 2.15.841 1.6.7 3.5.62 5.31a30.372 30.372 0 00.551 8.46c.59 2.49 1.68 4.9 1.77 7.46.13 3.62-1.75 7-3.57 10.09a7.28 7.28 0 005.2-2.42 5 5 0 01-1 4.67c3-.14 5.51-2.48 6.65-5.23a18.4 18.4 0 00.85-8.79 58.912 58.912 0 01-.64-8.89c.201-1.608.288-3.229.26-4.85-.28-3.22-2.26-6-4.16-8.62l-3.85-5.27a2.7 2.7 0 00-1.061-1c-3.63-1.55-4.07 5.15-3.05 6.93z"/><path d="M229.85 79.57a26.784 26.784 0 00-2.45 2.92 21.883 21.883 0 00-1.52 2.39c-.21.37-.4.74-.58 1.11a29.579 29.579 0 01-14.19-4.51 29.936 29.936 0 01-8.14-7.58c-.12-.16-.24-.33-.35-.5.119-.21.239-.42.35-.63 3.69-6.77 6.13-12.55 6.13-12.55s10.38 3.33 17.061 8c.54.37 1.05.76 1.54 1.16 3.729 3.13 5.569 6.66 2.149 10.19z" opacity=".1"/><path fill="#A1616A" d="M256.82 55.07c-.001 14.396-10.273 26.742-24.43 29.36a31.152 31.152 0 01-5.41.48h-1.13a29.584 29.584 0 01-14.77-4.54 30.01 30.01 0 01-8.141-7.55c-9.729-13.288-6.844-31.947 6.444-41.676 13.288-9.729 31.947-6.844 41.677 6.444a29.812 29.812 0 015.76 17.482z"/><path d="M230.89 128.83s15 8.48 11.18 1.33l-19.609-29 22.26 28.61s14.21 19.51 6.44 33c0 0-1.141 11.18.189 13.83s-.38 30.89-.38 30.89-5.3-4.93-8.15-4c-2.85.93-22.92 2.65-22.92 2.65l10.99-77.31z" opacity=".1"/><path d="M249.64 201.59l-.28 5.24c-1.8-1.31-4.3-2.77-6-2.22-2.84.95-22.92 2.66-22.92 2.66l.92-6.52 28.28.84z" opacity=".1"/><path fill="#464353" d="M231.46 128.83s15 8.48 11.17 1.33l-19.61-29 22.271 28.61s14.21 19.51 6.439 33c0 0-1.14 11.18.19 13.83s-.38 30.89-.38 30.89-5.311-4.93-8.15-4c-2.84.93-22.87 2.64-22.87 2.64l10.94-77.3z"/><path d="M239.52 143.37c-.88 9.1-4.63 19.94-4.63 19.94s-2.64 26.91-6 34.87c-3.36 7.96-1.899 18.94-3.8 39.21-.68 7.3-3 12.31-6.2 15.7-5.22 5.57-12.67 6.73-18.55 6.38-.48 0-.94-.06-1.39-.1-9.48-1-18.57-46.61-18.57-46.61s-4.351-38.84-2.65-44.14c1.7-5.3-1.7-35.62-2.84-42.25-.72-4.2 1.45-11.07 3.13-15.54 1-2.58 1.79-4.36 1.79-4.36s3.22-10.23 8.53-15.53a7.77 7.77 0 015.62-2.36c2.487.095 4.905.854 7 2.2l.24.16s34.489 35.24 37.699 43.38c.841 2.28.931 5.58.621 9.05z" opacity=".1"/><path fill="#3A2F2F" d="M238.35 142.8c-.88 9.1-4.62 19.94-4.62 19.94s-2.649 26.91-6.06 34.87-1.9 18.94-3.79 39.22c-.68 7.29-3 12.31-6.21 15.69-5.22 5.57-12.66 6.73-18.55 6.39l-1.391-.11c-9.47-.94-18.569-46.61-18.569-46.61s-4.351-38.84-2.65-44.14c1.7-5.3-1.7-35.62-2.84-42.25-.72-4.2 1.45-11.07 3.13-15.54 1-2.58 1.79-4.36 1.79-4.36s3.229-10.23 8.53-15.53a7.827 7.827 0 015.619-2.36c2.488.094 4.905.854 7 2.2l.25.16s34.479 35.24 37.7 43.39c.911 2.27 1.011 5.53.661 9.04z"/><path d="M199.72 281.49s-7.81 7-10.51 6.68c-2.7-.32 10.51-6.68 10.51-6.68zM201.8 288.18s-8.24 3.82-10.7 4.39c-2.46.57 7.52-5.38 10.7-4.39zM233.68 183.58s12.22.15 14.07 4-10.09-5.56-14.07-4zM231.98 190.26s9.38 2 12.221 4.271c2.839 2.269-12.221-4.271-12.221-4.271zM216.21 167.1s-1.13 38.51-5.33 43.48c-4.2 4.97 5.33-43.48 5.33-43.48zM205.69 275.95s-7.8 34 7.891 36.09c15.689 2.09 10.87-38.65 10.87-38.65l-18.761 2.56z" opacity=".1"/><path fill="#A1616A" d="M205.12 275.38s-7.801 34 7.89 36.09c15.69 2.09 10.87-38.65 10.87-38.65l-18.76 2.56z"/><path d="M256.63 51.78a10.92 10.92 0 01-1.11-2.061c-2.09-4.35-7.45-2.229-11.39-.14l-2.11 2.7a17.483 17.483 0 00-2.399 3.7 29.552 29.552 0 00-1 3.32c-.54 1.92-1.341 3.76-2.061 5.63a66.17 66.17 0 00-4.21 19.5 31.152 31.152 0 01-5.41.48h-.13v-.14c.2-.75.37-1.51.521-2.27.819-4.287.921-8.68.3-13v-.28c-.15-1-.33-1.93-.42-2.9-.36.67-.71 1.34-1.08 2-2.37 4.46-4.87 8.83-9.36 10.78a19.504 19.504 0 01-5.689 1.28 32.517 32.517 0 00-7.11 1.18 4.498 4.498 0 00-2.07 1.25 6.177 6.177 0 00-1 3.11 25.35 25.35 0 01-1.13 4.32 37.883 37.883 0 01-9.25 13.8l-1 1a19.176 19.176 0 01-6.14 4.25 18.543 18.543 0 01-6.51 1c1-2.58 1.79-4.36 1.79-4.36s3.229-10.23 8.529-15.53a7.832 7.832 0 015.62-2.36 83.165 83.165 0 0010.16-15.24c-9.794-13.254-6.988-31.938 6.267-41.732s31.938-6.988 41.732 6.266a29.845 29.845 0 015.661 14.466l-.001-.019z" opacity=".1"/><path fill="#464353" d="M258.52 28.51c-1.77-2-4.25-3.12-6.64-4.25a4.99 4.99 0 01-2.15-1.57 6.693 6.693 0 01-.67-2.71c-.83-5.77-6.189-9.76-11.53-12.1-6.869-3-15.119-4.3-21.72-.72-3.2 1.74-5.74 4.47-8.63 6.69-3.66 2.81-7.89 4.77-11.8 7.23-3.91 2.46-7.641 5.55-9.5 9.78-2.87 6.52-.72 14-.351 21.12.561 11.21-4 22.94-13.06 29.58a11.513 11.513 0 00-2.87 2.51 3.147 3.147 0 00-.229 3.57c.449.62 1.199 1 1.699 1.55 1 1.18.82 3 .42 4.5a28.222 28.222 0 01-7.579 13c.149 1.17 1.569 1.63 2.729 1.8 3.066.451 6.161.678 9.26.68a15.578 15.578 0 0013-5.23c5.5-5.19 10.19-11.68 11.44-19.14a6.294 6.294 0 011-3.12 4.672 4.672 0 012.07-1.25c4.119-1.42 8.8-.72 12.8-2.46 5.18-2.25 7.7-7.7 10.439-12.8.09 1 .271 1.94.42 2.9a39.302 39.302 0 01-.77 15.61c-.74 2.88-1.82 5.75-1.74 8.73.061 2.18 2.3 13.75 5.25 10.29 2.95-3.46 1.86-11.1 1.87-15.39a65.931 65.931 0 014.34-23.48c.71-1.87 1.51-3.7 2.061-5.63a26.89 26.89 0 011-3.31 17.216 17.216 0 012.399-3.7l2.11-2.71c3.939-2.08 9.3-4.21 11.39.14.811 1.67 1.23 3.51 3.3 1.89 1.24-1 1.641-2.85 2-4.28 1.302-6.06 2.382-13.14-1.758-17.72z"/><path d="M218.52 132.82c-.81-20.41-29.359-24.63-36-5.33-.05.13-.09.26-.13.39-4.36 13.08-2.47 46.18-2.47 46.18s.57 22.22 2.66 29.61 7.949 28.61 7.949 32 5.45 16.48 7.74 17.43c2.29.95 3.46 8.33 4 9.66s2.25 18.59 2.25 18.59 21.41-1.33 21.79-4.74c.38-3.41-4.74-20.08-4.74-20.08s-3.77-6.82-4.25-12.32c-.479-5.5-3.51-8-2.949-11.74.56-3.74-1.7-5.69-1.7-8.15s-1.71-9.1-1.71-9.1-3.601-2.84-3-6.25c.6-3.41-5.11-10.23-3.601-12.69 1.511-2.46 1.9-8.53 1.9-8.53s1.89-27.28 3.22-34.67 9.09-19.32 9.09-19.32.001-.34-.049-.94z" opacity=".1"/><path d="M217.67 252.52c-5.22 5.57-12.66 6.73-18.55 6.39-.67-2.59-1.67-5.76-3.12-6.36-2.3-.95-7.74-14-7.74-17.43 0-3.43-5.87-24.63-8-32-2.13-7.37-2.65-29.61-2.65-29.61s-1.899-33.1 2.46-46.17c0-.14.091-.27.131-.4 6.67-19.3 35.229-15.08 36 5.33v.94s-7.771 11.93-9.091 19.32c-1.319 7.39-3.229 34.67-3.229 34.67s-.38 6.07-1.89 8.53c-1.511 2.46 4.17 9.29 3.6 12.7-.57 3.41 3 6.25 3 6.25s1.7 6.63 1.7 9.09 2.279 4.36 1.71 8.15c-.57 3.79 2.47 6.25 2.95 11.75a30.457 30.457 0 002.719 8.85z" opacity=".1"/><path fill="#3A2F2F" d="M217.41 132.25c-.801-20.41-29.36-24.63-36-5.33 0 .13-.091.26-.131.4-4.359 13.07-2.46 46.17-2.46 46.17s.561 22.22 2.65 29.61c2.089 7.39 8 28.61 8 32s5.44 16.48 7.74 17.43c2.3.95 3.45 8.33 4 9.66s2.27 18.57 2.27 18.57 21.4-1.33 21.78-4.74c.38-3.41-4.74-20.06-4.74-20.06s-3.77-6.82-4.26-12.32c-.49-5.5-3.51-7.95-2.94-11.74.57-3.79-1.71-5.69-1.71-8.15s-1.699-9.09-1.699-9.09-3.601-2.85-3-6.26c.6-3.41-5.12-10.23-3.601-12.69 1.521-2.46 1.891-8.53 1.891-8.53s1.899-27.28 3.22-34.67c1.32-7.39 9.1-19.32 9.1-19.32s-.08-.29-.11-.94z"/><path d="M182.24 184.72c.569-.57 11.369-12.5 14.779-8.24 3.411 4.26-14.779 8.24-14.779 8.24zM183.24 193.96c.42-.43 10.8-.85 13.359-6.68 2.561-5.83-13.359 6.68-13.359 6.68z" opacity=".1"/><g opacity=".1"><path d="M171.42 89.19c.257.29.451.631.57 1a4.452 4.452 0 00-.57-3.87c-.51-.58-1.25-.92-1.71-1.54l-.09-.16a2.996 2.996 0 00.09 3c.46.64 1.2.99 1.71 1.57zM185.88 52.36v-3.22c-.2-3.87-.91-7.84-1.08-11.71-.22 4.74.84 9.73 1.08 14.55 0 .12-.01.25 0 .38zM230.16 99.82c-2.631 3.09-4.69-5.79-5.15-9.29-.075.61-.104 1.225-.09 1.84.06 2.18 2.29 13.75 5.24 10.29 2-2.34 2.189-6.33 2.069-10-.099 2.76-.579 5.42-2.069 7.16zM227.42 68.03c.227 1.49.363 2.993.41 4.5a39.27 39.27 0 00-.41-7.34c-.15-1-.33-1.93-.41-2.9-2.74 5.1-5.27 10.55-10.44 12.8-4 1.73-8.68 1-12.81 2.46a4.51 4.51 0 00-2.06 1.25 6.174 6.174 0 00-1 3.12c-1.25 7.46-5.94 14-11.45 19.14a15.503 15.503 0 01-13 5.22c-3.1.007-6.194-.217-9.26-.67a6.136 6.136 0 01-1.391-.36c-.43.48-.88 1-1.35 1.4.16 1.17 1.58 1.63 2.74 1.8 3.065.451 6.16.679 9.26.68a15.54 15.54 0 0013-5.23c5.51-5.19 10.2-11.68 11.45-19.14a6.21 6.21 0 011-3.12 4.582 4.582 0 012.06-1.25c4.13-1.42 8.81-.72 12.81-2.46 5.171-2.25 7.7-7.7 10.44-12.8.081.97.261 1.94.411 2.9zM260.58 43.35c-.32 1.43-.721 3.32-1.95 4.28-2.07 1.62-2.5-.22-3.3-1.89-2.09-4.35-7.46-2.23-11.391-.14l-2.109 2.7a17.346 17.346 0 00-2.4 3.7 29.552 29.552 0 00-1 3.32c-.54 1.92-1.34 3.76-2.06 5.63a65.845 65.845 0 00-4.341 23.48v1.16a66.172 66.172 0 014.32-21.8c.72-1.87 1.521-3.7 2.061-5.63a28.86 28.86 0 011-3.31 16.896 16.896 0 012.399-3.7l2.11-2.71c3.93-2.08 9.3-4.21 11.39.14.8 1.67 1.23 3.51 3.3 1.89 1.23-1 1.631-2.85 1.95-4.28a36.998 36.998 0 001.15-10.19 46.904 46.904 0 01-1.129 7.35z"/></g><path fill="#464353" d="M286.42 150.9l.59.41a2.34 2.34 0 01-.604-3.253l.005-.007 26.329-38.229a2.35 2.35 0 013.261-.6l-.58-.4a3.76 3.76 0 011 5.229l-24.76 35.85a3.77 3.77 0 01-5.237 1.002l-.004-.002z"/><path fill="#9F9EFF" d="M315.516 108.871l.593.408-28.992 42.091-.594-.409a1.74 1.74 0 01-.445-2.42l27.019-39.225a1.739 1.739 0 012.419-.445z"/><path fill="#464353" d="M312.327 114.654l.107.074a.169.169 0 01.043.236l-2.172 3.154a.17.17 0 01-.237.043l-.106-.074a.17.17 0 01-.044-.236l2.173-3.154a.171.171 0 01.236-.043z"/></g><linearGradient id="b" x1="491.829" x2="491.829" y1="621.588" y2="65.231" gradientTransform="translate(-38.04 230.05)" gradientUnits="userSpaceOnUse"><stop offset="0" stop-color="gray" stop-opacity=".25"/><stop offset=".54" stop-color="gray" stop-opacity=".12"/><stop offset="1" stop-color="gray" stop-opacity=".1"/></linearGradient><path fill="url(#b)" d="M814.229 759.57l-8-25.459s-6.699-18.07-5.619-27.762c1.08-9.689-2.25-20.27-2.25-20.27l6.58-34.25s.359-3.73.34-8.65c0-8.199-1.16-19.699-6.84-22.689-9.08-4.789-27.689-45.279-31.591-45.279-3.9 0-16.439-2.611-16.439-7 .015-.16.015-.32 0-.48v-.148c0-.048-.061-.23-.101-.352l-.06-.17-.181-.398-.061-.109a10.68 10.68 0 00-1.811-2.371c16.939-3.229 33.801-6.779 50.54-10.91h-.62l.62-.148a56.834 56.834 0 01-6.649-.461l-.49.109c-24.619-3.359-46.75-22.609-52.771-47-6.68-27 5-55.18 4.479-83a95.32 95.32 0 00-15.109-49.58 90.712 90.712 0 00-4.061-5.801c18.877-9.171 26.745-31.908 17.573-50.785a38.027 38.027 0 00-2.943-5.035c-.43-.62-.88-1.221-1.34-1.811 9.187 15.239 6.604 34.807-6.22 47.141 10.06-18.273 3.401-41.243-14.872-51.304-18.272-10.06-41.243-3.401-51.303 14.872-.121.219-.239.439-.355.661-.811-.36-1.62-.72-2.43-1.05a37.759 37.759 0 0133.14-24.73c-.75-.05-1.489-.07-2.25-.07a37.73 37.73 0 00-34.79 23.26c-11.319-4.15-23.13-5.87-34.75-2.92a38.346 38.346 0 00-6.3 2.189l.521-.409a28.102 28.102 0 00-7.87 5c-3.479 3.21-5.93 7.369-8.88 11.09a46.875 46.875 0 01-10.55 9.58c.33-.16.659-.351 1-.521-13.4 9.48-31.61 12.21-46.931 6.11-4.301-1.721-8.45-4.07-13-4.7a19.628 19.628 0 00-10.29 1.5c.141-.11.271-.23.42-.34a26.905 26.905 0 00-10.8 8.1c-5 6.17-7.511 14-9.301 21.71a70.772 70.772 0 00-2 16.721c.07 7.22 1.69 14.189 6 19.84 6.681 8.66 15.801 11 25.32 12.56-.28 1-.551 1.92-.79 2.901-11.353 44.902 14.896 90.73 59.37 103.66l1.85 3.139.601.141c4.431 7.49 9.28 15.9 13.78 24 .239.432.47.859.71 1.279l-8.511 4.381c-2.229 1.15-7.771 4.16-10.84 7.119a7.21 7.21 0 00-2 2.83c-1.3 4.361-8.22 15.68-13 18.721-4.78 3.039-8.66 17.852-8.22 25.67.438 7.82-2.602 7-10.391 7.42-7.791.42 0 11.75 0 11.75l.199.762a60.963 60.963 0 01-1.22 2c-2 3.068-4.63 6.471-6.551 6.291-3.47-.33-5.63 8.156-5.409 9.459.22 1.301-6.061 11.75-8.439 12.84-2.381 1.09-12.551 3.17-9.74 12.91L510 693.88l-10 9.58s-14.28-8.061-37.44 17c2.582-.244 5.188 0 7.681.719l-.66.32c-6.101 2.891-16.659 7.82-24.47 11l-41.59 1.291v-31s-3.68-8.701-8 0l-1.09 31.32-90.4 2.93 16.94-18 .22-.24a14.831 14.831 0 003.33-14.67l-70.68-222.17-.49-1.561a12.168 12.168 0 00-9.95-8.383l-98.18-13.25-.68-.09-9.021 2.451a8.839 8.839 0 00-6.16 11c2.32 8 6.131 21.063 11 37.469H126.8l10.39 89.684 6.33 34.5a435.923 435.923 0 005.67 26.236c5.21 21 15.521 65.791 15.75 91.771l-76 82.859v16.83h485.45a.798.798 0 00.08.16h236.51s-2.591-4.57 3-11.1c5.59-6.531 2.819-32.43 2.819-32.43s-3.141-4.143.7-13.281c3.841-9.134-3.27-35.255-3.27-35.255zM211.04 740.019l-12.9.422-12-78.061c8.89 28.52 17.51 55.661 24.9 77.639zm332.18 47.441l-8.37-17.08a9.314 9.314 0 005.431-1.451c5.41-3.92 8.649-13.059 8.649-13.059l14.521-17.25 1.2-1.441c2.939 8.211 6.399 14.691 9.17 17.82 6.92 7.84 7.79 30.471 9.92 38.74 2.13 8.268.471 4.791 0 9.58-.067 1.172.03 2.346.29 3.488-9.571-10.266-23.181-19.606-40.811-19.347z"/><path fill="#514E7F" d="M93.83 834.98l85.35-92.51 339-10.91 59.18 120.08H93.83z"/><path d="M93.83 834.98l85.35-92.51 339-10.91 59.18 120.08H93.83z" opacity=".2"/><path fill="#514E7F" d="M535.42 827.259v3.201a6.241 6.241 0 01-6.24 6.24H346.96c-3.45 0 0-6.893 0-6.893l-2.061-45.131a7.453 7.453 0 015.62-7.559c10.14-2.561 17.12 1.549 17.12 1.549l112.879-2.869a36.171 36.171 0 017 .33 30.653 30.653 0 0120.69 12.26l25.939 35.17a6.24 6.24 0 011.273 3.702z"/><path d="M535.42 830.46a6.241 6.241 0 01-6.24 6.24H346.96c-3.45 0 0-6.893 0-6.893s10.06-4.881 25-4l133-2.881s15.71.361 24.899 1.361a6.236 6.236 0 015.561 6.173z" opacity=".1"/><path fill="#0BBDE1" d="M483.699 783.55H369.36l3.16 34.77 132.44-2.301z"/><path fill="#514E7F" d="M289.79 807.97v12.07L170 824.9s-27.391-1.869-30.75-18.699a15.7 15.7 0 01.1-5.301c1.21-7.09 7.29-19.471 34.09-25.189l33-3.391h73.58s9.5 9.51 9.77 35.65z"/><path d="M289.79 808.349v11.691L170 824.9s-27.391-1.869-30.75-18.699a15.7 15.7 0 01.1-5.301s16.561 15.66 39 13.359l105.44-4.59a58.828 58.828 0 006-1.32z" opacity=".1"/><ellipse cx="197.855" cy="789.919" opacity=".1" rx="36.83" ry="6.321" transform="rotate(177.078 197.848 789.912)"/><path fill="#514E7F" d="M209.52 786.9l-19.38 9.58-20.62-4.881-.1-33.609c1.31-24.529-10-73.629-15.59-95.879a425.06 425.06 0 01-5.65-26l-6.34-34.15-10.32-88.74h24.561l14.439 20.682 39 252.997z"/><path fill="#514E7F" d="M209.52 786.9l-19.38 9.58-12.36-71.779c.24-12.23-15.09-70.291-16.09-72.68C149.47 622.849 139 513.259 139 513.259h17.09l14.43 20.641 39 253z"/><path d="M209.52 786.9l-19.38 9.58-12.36-71.779c.24-12.23-15.09-70.291-16.09-72.68C149.47 622.849 139 513.259 139 513.259h17.09l14.43 20.641 39 253z" opacity=".15"/><path fill="#514E7F" d="M325.05 720.32l-66 69.551-7.74.549-9.43.68a10.627 10.627 0 01-10.48-6.289c-20-45-83.939-262.59-97.399-308.68a8.74 8.74 0 016.13-10.901l9-2.42.67.08 96.15 12.9a14.65 14.65 0 0112 10.059l70.379 219.932a14.64 14.64 0 01-3.28 14.539z"/><path d="M325.05 720.32l-66 69.551-7.74.549-9.43.68a10.627 10.627 0 01-10.48-6.289c-20-45-83.939-262.59-97.399-308.68a8.74 8.74 0 016.13-10.901l9-2.42.67.08 96.15 12.9a14.65 14.65 0 0112 10.059l70.379 219.932a14.64 14.64 0 01-3.28 14.539z" opacity=".1"/><path fill="#514E7F" d="M324.82 720.56l-65.77 69.34-7.74.551-98.7-316a30.17 30.17 0 01-2.77-11.551l97.76 13.119a12.083 12.083 0 019.9 8.301l70.77 221.15a15.2 15.2 0 01-3.45 15.09z"/><path fill="#0BBDE1" d="M320 708.9a14.751 14.751 0 01-2.66 3.301L252.59 772.4l-88.34-292.789 84.83 8.398a14.869 14.869 0 0112.79 10.531l59.59 198.43A14.932 14.932 0 01320 708.9z"/><path d="M320 708.9l-70.92-220.891a14.869 14.869 0 0112.79 10.531l59.59 198.43A14.932 14.932 0 01320 708.9z" opacity=".1"/><circle cx="700.271" cy="344.15" r="37.55" fill="#945B79"/><path fill="#945B79" d="M662.329 338.58c-.003-19.871 15.475-36.305 35.311-37.49-.739 0-1.479-.07-2.229-.07-20.74-.339-37.829 16.201-38.168 36.941-.339 20.741 16.2 37.83 36.94 38.168.409.007.818.007 1.228 0 .75 0 1.489 0 2.229-.07-19.832-1.184-35.309-17.612-35.311-37.479z"/><path d="M667.19 344.15c.002-19.875 15.489-36.306 35.33-37.48-.74 0-1.49-.07-2.24-.07-20.741.338-37.28 17.427-36.942 38.167.33 20.265 16.679 36.612 36.942 36.942.75 0 1.5 0 2.24-.08-19.842-1.169-35.333-17.603-35.33-37.479z" opacity=".1"/><path fill="#FFC1C7" d="M507 765.179a101.838 101.838 0 01-10.82 4.932c-9.659 3.799-24.38 8.158-38.09 6.488-23.051-2.799-36.84 4.74-36.84 4.74l-5.171-38.35s17-5 23.91-6.25c5.181-1 23.87-9.609 32.84-13.84 3-1.4 4.87-2.32 4.87-2.32h17.239l12.062 44.6z"/><path d="M507 765.179a101.838 101.838 0 01-10.82 4.932c-1.17-34.15-14.271-44.291-23.351-47.211 3-1.4 4.87-2.32 4.87-2.32h17.239L507 765.179z" opacity=".1"/><path fill="#D84F4F" d="M570.78 650.56v84l-4.51 5.34-14.45 17.1s-3.229 9-8.62 12.92-17.68-1.289-17.68-1.289l-3.45 5.6s-7.75 1.512-11.41 0c-3.659-1.51-12.72 4.313-12.72 4.313 1.3-61.621-32.101-56.66-32.101-56.66 23.05-24.781 37.271-16.811 37.271-16.811l9.92-9.48 12.279-12.439c-2.8-9.631 7.32-11.689 9.69-12.77 2.369-1.08 8.619-11.42 8.409-12.711-.21-1.289 1.931-9.699 5.38-9.369 1.921.18 4.551-3.189 6.53-6.221 1.58-2.439 2.739-4.66 2.739-4.66l12.723 13.137z"/><path fill="#FF6584" d="M600.61 566.589l25.399-13-1.439 15.23 5 15.301s-4.591 11.85-5.16 13.139c-.569 1.291-11.489 28.301-11.489 28.301l-8.761-11.06-3.55-47.911z"/><path d="M604.17 614.5l-3.56-47.911 25.4-12.99" opacity=".1"/><path fill="#FFC1C7" d="M709.75 552.31s-8.44 12.141-20 27.609c-26.9 36-70.66 90-64 50.82.22-1.279.39-2.563.539-3.852-1.64 1.102-5.399.143-9.5-1.811l-.279-.129a49.086 49.086 0 01-5.84-3.381c-.211-.129-.41-.27-.61-.41-4.55-3.17-8.189-6.879-8-9.439 3.229-56.238 16.32-29.42 20-23.18.208.436.492.832.841 1.17-.16-.441-.341-.9-.54-1.381-2.58-6.33-7.511-15.789-13.141-25.9v-.1l-.75-1.34a1126.64 1126.64 0 00-14.311-24.74l-1.229-2.059c-7.199-12.08-12.8-21.092-12.8-21.092s32.71-29.92 60.279-48.1c23-15.189 42.479-22.199 36.25 3.281-4 16.379-2.83 30.389.859 42 .131.43.271.857.421 1.277a67.603 67.603 0 002.561 6.512 73.88 73.88 0 004.479 8.5 82.355 82.355 0 0024.771 25.745z"/><path d="M658.9 506.9c-15.511 16.85-18.811 33-43.521 33a85.075 85.075 0 01-21.311-2.699c-7.79-13.102-14-23.15-14-23.15s110.22-100.791 96.529-44.818C672.42 486.14 654.89 495 658.9 506.9z" opacity=".15"/><path fill="#FFC1C7" d="M700.271 452.339c0 46.889-38.012 84.9-84.9 84.9s-84.899-38.014-84.899-84.9c0-46.888 38.012-84.899 84.899-84.899h.011c46.679-.205 84.686 37.47 84.89 84.147l-.001.752z"/><path d="M613.44 599.281s1.51 24.129 16.811 22.189c15.3-1.939 3.659 51.279 3.659 51.279l-17 15.51-18.34 5.641s-16.16-4.74-15.939-5.609c.22-.871 6.46-51.271 6.46-51.271l9.479-26.938 14.87-10.801z" opacity=".1"/><path fill="#1E1E23" d="M613.44 601s1.51 24.131 16.811 22.201c15.3-1.932 3.659 51.279 3.659 51.279l-17 15.51-18.319 5.6s-16.16-4.74-15.939-5.6c.22-.859 6.46-51.279 6.46-51.279l9.479-26.93L613.44 601z"/><path d="M570.78 650.56v84l-4.51 5.34c-4.65-12.34-8.19-29.07-6-44.109 2.85-19.941-2.83-45.461-4.891-53.73 1.58-2.438 2.739-4.658 2.739-4.658l12.662 13.157zM615.38 603.589a49.251 49.251 0 01-3.65 13.74c-.56 1.33-1.13 2.621-1.699 3.83-4.551-3.17-8.189-6.879-8-9.439 3.229-56.24 16.319-29.42 20-23.18-1.802 1.36-5.821 5.36-6.651 15.049zM622.31 588.33c-2.699-6.629-8-16.699-13.93-27.34l.75-.379 13.72 27.379a2.854 2.854 0 00-.54.34zM709.75 552.31s-93.511 134.449-84 78.43c.22-1.279.39-2.561.539-3.85-1.68 1.119-5.569.1-9.779-1.939.641-3.74 1-6.301 1-6.301l10.351-29.279s6-23.271 5.17-28l.279-.191 51.461-34.549h.05a82.382 82.382 0 0024.929 25.679z" opacity=".1"/><path fill="#D84F4F" d="M806.71 654.009l-7.33 37.891-22 159.869H586.521s3.439-28 3.439-32.318c0-4.32-3.87-10.771-3.439-15.51.43-4.74 2.079-1.301 0-9.48-2.08-8.178-3-30.6-9.87-38.35s-18.13-36.211-14.7-60.301c3.431-24.09-5.609-56.449-5.609-56.449s-7.75-11.211 0-11.641 10.779.391 10.351-7.34c-.43-7.73 3.439-22.391 8.18-25.41s11.641-14.221 12.931-18.531a7.236 7.236 0 012-2.809c3.88-3.721 11.771-7.531 11.771-7.531l7.54-3.77v.1l13.68 27.281s-6.399 3.109-7.47 15.6a49.181 49.181 0 01-3.649 13.74 88.039 88.039 0 01-4.261 8.84c-1.409 2.549-2.42 4.119-2.42 4.119s-.37 2.92-.93 7c-1.15 8.381-3.091 21.66-4.24 24.84-1 2.82-3 7.67-4.109 12-.7 2.711-1.101 5.221-.729 6.861 0 .129.06.26.1.379 1.29 4 7.75-13.199 7.75-13.199s4.74-14.65 6.9-14.65c1.649 0 5.359-20.68 7-30.221.479-2.85.771-4.699.771-4.699l10.351-29.289s1.43-5.531 2.8-11.75c1.439-6.541 2.811-13.83 2.37-16.262l.279-.189 51.46-34.549h.051l.79-.531h-.08c-.36 0-1.4-.641-3.391-5.32a71.473 71.473 0 01-1.71-4.41s16.46-6.607 22.33-1.77c.381.305.717.662 1 1.061.166.223.312.459.43.709 3.881 8 5.601 14 9.479 19.184.421.551.875 1.074 1.36 1.566 4.688 4.91 14 10.66 12.43 12.223-1.72 1.721 12.931 9 12.931 9s8.569 4.898 11.26 9c.472.635.75 1.391.801 2.18 0 4.311 12.5 6.891 16.38 6.891s22.41 40.08 31.45 44.82 6.431 31.125 6.431 31.125z"/><g opacity=".1"><path d="M613.369 589.71s-6.399 3.109-7.47 15.6a48.825 48.825 0 01-3.66 13.74 87.72 87.72 0 01-4.25 8.84c-1.409 2.551-2.42 4.119-2.42 4.119s-.37 2.92-.931 7c-1.119 8.451-3.119 21.73-4.25 24.891-1 2.82-3 7.67-4.109 12-.7 2.711-1.101 5.221-.729 6.859 0 .131.061.26.101.381 1.29 4 7.75-13.199 7.75-13.199s4.739-14.65 6.899-14.65c.609 0 1.511-2.861 2.479-6.941.49-3.27 1-6.539 1.33-9.277.561-4.102.93-7 .93-7s.57-.881 1.45-2.4c.92-5.27 1.561-9.25 1.561-9.25l10.351-29.289s.75-2.92 1.689-6.891l-11-21.869-7.54 3.77 11.819 23.566zM800.24 622.98c-9-4.74-27.569-44.82-31.45-44.82-3.88 0-16.38-2.58-16.38-6.891 0-4.309-12.061-11.209-12.061-11.209s-14.649-7.32-12.93-9c1.55-1.561-7.74-7.311-12.431-12.221a17.496 17.496 0 01-1.359-1.57c-3.88-5.18-5.601-11.209-9.479-19.18a4.802 4.802 0 00-.431-.719 5.892 5.892 0 00-1-1.063c-2.641-2.17-7.399-2-11.859-1.221a7.164 7.164 0 012.38 1.221 5.79 5.79 0 011 1.063c.165.227.309.467.431.719 3.88 8 5.601 14 9.479 19.18.428.537.885 1.047 1.37 1.531 4.689 4.91 14 10.66 12.43 12.219-1.72 1.721 12.931 9 12.931 9s12.061 6.9 12.061 11.211 12.5 6.891 16.38 6.891 22.41 40.08 31.45 44.82c9.04 4.738 6.47 31 6.47 31L789.9 691.9l-22 159.869h9.479l22-159.869 7.33-37.92c.001 0 2.58-26.26-6.469-31z"/></g><path fill="#FFC1C7" d="M423.92 743.769s-54.811-15.859-58.69 8.49c-3.88 24.352 22.41 38.352 39.21 37.92 16.8-.43 24.13-16.379 24.13-16.379l-4.65-30.031zM698.76 818.621s-12.28 8.83-38.351 8.83c-26.069 0-56.449 5.6-56.449 5.6s-38.78-91.35-116.561-13.148c0 0-14 18.1 58.601 20 0 0 25.64-.859 31.239 11.85h145l19.83-14.85-43.309-18.282z"/><path fill="#514E7F" d="M407.03 704.419s-3.66-8.609-8 0l-2.35 66.801 5.16 15.73 5.16-14 .03-68.531z"/><path d="M703.72 517.339c-7.521 2.561-15.771 8.561-18.2 10.441-.449 0-2-1-5.1-9.73-.011 0 18.601-7.47 23.3-.711z" opacity=".1"/><path fill="#FF6584" d="M622.85 589.71s-6.399 3.109-7.47 15.6a49.149 49.149 0 01-3.65 13.74l-4.21 8.85-3.35 11.141.35 22.68-8.76 14.182-.729 6.857-2.271 21.221-11.641-5.6s4.801-34.221 8.399-41.15c3.6-6.928 8.41-43.631 8.41-43.631s-.22-13.469 1.51-15.84c1.73-2.369-3-1.938-3.449-6.889-.261-2.941-3.54-11.102-6.17-17.25 3.88-3.721 11.771-7.531 11.771-7.531l7.54-3.77 13.72 27.39z"/><path d="M622.85 589.71s-6.399 3.109-7.47 15.6a49.149 49.149 0 01-3.65 13.74l-4.21 8.85-3.35 11.141.35 22.68-8.76 14.182-.729 6.857-2.271 21.221-11.641-5.6s4.801-34.221 8.399-41.15c3.6-6.928 8.41-43.631 8.41-43.631s-.22-13.469 1.51-15.84c1.73-2.369-3-1.938-3.449-6.889-.261-2.941-3.54-11.102-6.17-17.25 3.88-3.721 11.771-7.531 11.771-7.531l7.54-3.77 13.72 27.39zM714.99 540.531c-9.609 7.859-35.45 30.16-38.42 45.318-3.66 18.691-14.649 16.881-14.649 16.881-13.729-29.779-23.181-37.08-28.591-38.109l51.46-34.561h.051l.79-.529h-.109c-.36 0-1.4-.631-3.391-5.311l20.62-6.189c.381.305.717.66 1 1.059.164.227.308.461.43.711 3.881 8 5.601 14 9.479 19.182.413.538.858 1.056 1.33 1.548z" opacity=".1"/><path fill="#FF6584" d="M714.99 538.8c-9.609 7.859-35.45 30.17-38.42 45.33-3.661 18.68-14.65 16.87-14.65 16.87-13.729-29.77-23.181-37.1-28.591-38.1l51.46-34.551h.051l.79-.529h-.109c-.36 0-1.4-.641-3.391-5.32l20.62-6.18c.381.305.717.662 1 1.061.166.221.311.459.43.709 3.88 8 5.601 14 9.479 19.18.413.536.857 1.048 1.331 1.53z"/><path d="M656.75 689.769c.64-.209 34.22-19.219 30.359-4.76-3.859 14.461-30.359 4.76-30.359 4.76zM511.521 707.98s17.659 27.471 23.909 26.609c6.25-.859-23.909-26.609-23.909-26.609zM533.521 697.75s1.079 21.33 10.35 22.83c9.269 1.5-10.35-22.83-10.35-22.83zM631.521 766.259s21.939 36.5 17.67 49.131l-17.67-49.131zM656.96 770.57s29.68 39 24.54 42.23-24.54-42.23-24.54-42.23zM590.229 707.98s-3.05 27.73 8.4 35.789l-8.4-35.789z" opacity=".1"/><path d="M723.329 584.63s-50.811 39.43-42.67 80.369c8.141 40.941 16 43.951 16 43.951s3 16.369 8.62 23.27 4.739 11.42 4.739 11.42 5.17-2.371 6.891 9.48c1.721 11.85 10.771 20.25 10.771 20.25s3 9.479-4.739 14.646c-7.74 5.174-6 10.781-6 10.781L685.48 817.11l35.04 34.688h90.5s-2.59-4.52 3-11c5.591-6.479 2.811-32.1 2.811-32.1s-3.13-4.102.7-13.15c3.83-9.051-3.29-34.898-3.29-34.898l-8-25.209s-6.681-17.883-5.601-27.473-2.2-20.068-2.2-20.068l-17.37-54.803c0 .002.86-54.717-57.741-48.467z" opacity=".1"/><path fill="#D84F4F" d="M725.05 584.63s-50.851 39.43-42.66 80.369c8.19 40.941 15.94 43.951 15.94 43.951s3 16.369 8.619 23.27c5.62 6.9 4.74 11.42 4.74 11.42s5.17-2.371 6.899 9.48c1.729 11.85 10.771 20.25 10.771 20.25s3 9.479-4.74 14.646c-7.739 5.174-6 10.781-6 10.781l-31.46 18.313 35.12 34.688h90.489s-2.579-4.52 3-11c5.58-6.479 2.801-32.1 2.801-32.1s-3.13-4.102.699-13.15c3.83-9.051-3.289-34.898-3.289-34.898l-8-25.209s-6.681-17.883-5.601-27.473-2.221-20.068-2.221-20.068l-17.37-54.803c.002.002.863-54.717-57.737-48.467z"/><path d="M742.07 612.419s36.2 12.281 45.891 18.32c9.689 6.042-14.221-23.919-45.891-18.32zM761.03 798.8s51.49 6.459 48.49 16.59c-2.999 10.129-48.49-16.59-48.49-16.59zM750.94 809.781s37.67 12.068 31 22c-6.669 9.929-31-22-31-22zM751.61 569.089c-20.551 4-41.2 7.42-61.859 10.83l-5.381.891c-11.359 1.869-22.789 3.75-34.311 3.689-5.609 0-11.39-.58-16.369-3.18a17.963 17.963 0 01-3-2c-3.49-2.801-6-6.869-5.939-11.289.06-8.063 7.71-13.65 14.289-18.313 9.631-6.83 19.141-15.5 22.86-26.391a30.111 30.111 0 001.449-6.299c1.101-9.25-2.271-18.381-5.859-27-3.92-9.352-9.3-19.4-17.159-25.08a23.576 23.576 0 00-10.811-4.371c-12.08-1.6-23.511 7-35.681 6.52-9.891-.43-18.29-6.777-24.24-14.25-4.329-5.438-7.069-12.719-13.59-15.947-7.061-3.512-15.09-4.342-22.939-5.512 11.563-45.44 57.772-72.904 103.215-61.341 45.439 11.563 72.904 57.775 61.342 103.214a84.874 84.874 0 01-20.217 36.996c.13.434.271.861.42 1.281a67.828 67.828 0 002.561 6.51s16.46-6.607 22.33-1.77c.381.305.719.66 1 1.059.166.223.312.461.431.711 3.88 8 5.601 14 9.479 19.18.42.553.874 1.076 1.359 1.57 4.689 4.91 14 10.66 12.431 12.219-1.721 1.723 12.93 9 12.93 9s8.569 4.954 11.259 9.073z" opacity=".1"/><path fill="#945B79" d="M508.67 416.09c-7.66-9.88-6.83-23.84-4-36 1.779-7.67 4.31-15.38 9.271-21.49 4.96-6.109 12.771-10.39 20.58-9.33 4.569.62 8.699 2.95 13 4.65 19.3 7.64 43.239 1.29 56.22-14.92 2.939-3.67 5.37-7.79 8.851-11a31.43 31.43 0 0113.58-6.85c21.72-5.48 44.12 5.31 62.699 17.819 15.859 10.681 30.939 23.15 41.351 39.181a93.883 93.883 0 0115 49.07c.53 27.6-11.109 55.439-4.45 82.221 6.57 26.449 32.4 46.809 59.65 47-37.42 9.18-75.479 15.469-113.49 21.738-11.369 1.881-22.79 3.762-34.311 3.691-5.609 0-11.399-.58-16.369-3.18-4.971-2.604-9-7.65-9-13.264.061-8.066 7.72-13.646 14.29-18.309 11.42-8.1 22.67-18.791 24.319-32.691 1.101-9.25-2.271-18.389-5.87-27-5.489-13.1-13.859-27.607-27.939-29.486-12.069-1.611-23.51 7-35.681 6.51-9.88-.432-18.289-6.781-24.239-14.25-4.33-5.441-7.07-12.723-13.58-15.951-16.092-7.959-37.323-1.968-49.882-18.159z"/><path fill="#945B79" d="M728.75 365.75c16.321-11.329 20.994-33.411 10.659-50.38.46.58.899 1.18 1.33 1.79 12.087 16.858 8.218 40.324-8.642 52.41-16.858 12.086-40.323 8.218-52.409-8.642a35.672 35.672 0 01-.659-.948c-.42-.62-.83-1.25-1.21-1.881 12.279 15.626 34.604 18.979 50.931 7.651z"/><g opacity=".1"><path d="M609.76 335.37c2.939-3.68 5.37-7.8 8.851-11a22.291 22.291 0 011.79-1.47 27.675 27.675 0 00-7.82 4.909c-3.479 3.181-5.909 7.301-8.851 11a46.183 46.183 0 01-10.489 9.54 47.446 47.446 0 0016.519-12.979zM692.99 574.611c-11.359 1.869-22.79 3.75-34.311 3.68-5.609 0-11.391-.57-16.37-3.17s-9-7.65-8.949-13.271c.061-8.059 7.71-13.639 14.29-18.309 11.42-8.1 22.659-18.791 24.31-32.691 1.101-9.236-2.27-18.389-5.869-27-5.49-13.1-13.851-27.617-27.939-29.486-12.07-1.611-23.5 7-35.67 6.5-9.881-.42-18.29-6.771-24.24-14.24-4.34-5.441-7.08-12.721-13.59-15.951-16.16-8-37.391-2-50-18.219-7.66-9.88-6.82-23.851-4-36 1.779-7.67 4.31-15.38 9.26-21.5a27.972 27.972 0 014.721-4.57 26.843 26.843 0 00-10.75 8c-5 6.11-7.49 13.83-9.271 21.49-2.83 12.18-3.66 26.15 4 36 12.561 16.19 33.79 10.2 50 18.219 6.51 3.24 9.25 10.521 13.58 16 6 7.461 14.359 13.82 24.239 14.24 12.17.52 23.609-8.119 35.681-6.51 14.08 1.881 22.449 16.391 27.939 29.5 3.601 8.58 7 17.721 5.87 27-1.65 13.898-12.9 24.59-24.32 32.688-6.569 4.66-14.229 10.25-14.29 18.313 0 5.607 4 10.67 9 13.27 5 2.602 10.761 3.141 16.37 3.17 11.521.07 23-1.809 34.311-3.689 38-6.27 76.069-12.551 113.49-21.74a55.898 55.898 0 01-6.62-.459c-33.341 7.584-67.133 13.165-100.872 18.735z"/></g><ellipse cx="410.72" cy="755.48" fill="#FFC1C7" rx="16.399" ry="8.961"/><path fill="none" stroke="#000" stroke-dasharray="12" stroke-miterlimit="10" stroke-width=".75" d="M681.699 89.12c-18.25-4.87-36.681-9.76-55.561-10.54-18.88-.78-38.489 2.88-53.899 13.8-7.71 5.46-14.109 12.53-20.601 19.41a668.215 668.215 0 01-114.66 96.94c-16.81 11.23-34.779 21.94-54.81 24.73-20.03 2.79-42.66-4.15-53-21.51l6.159-3.16" opacity=".3"/><path fill="#514E7F" d="M842.81 62.84H713.58a9.23 9.23 0 01-9.229-9.23V35.15a9.23 9.23 0 019.211-9.25h129.25a9.229 9.229 0 019.229 9.23v18.48c-.002 5.098-4.134 9.23-9.231 9.23zm-13.85-25.38a6.92 6.92 0 10.021 13.84 6.92 6.92 0 00-.011-13.84h-.01zm-18.46 0a6.92 6.92 0 106.92 6.92 6.92 6.92 0 00-6.9-6.92h-.02zM842.81 109H713.58c-5.099-.005-9.229-4.141-9.229-9.24V81.3c0-5.097 4.134-9.23 9.229-9.23h129.23a9.229 9.229 0 019.229 9.23v18.46c0 5.099-4.131 9.235-9.229 9.24zm-13.85-25.39a6.93 6.93 0 106.93 6.93v-.01a6.92 6.92 0 00-6.92-6.92h-.01zm-18.46 0a6.93 6.93 0 10-.02 13.86 6.93 6.93 0 006.94-6.92v-.02a6.92 6.92 0 00-6.9-6.92h-.02zm32.31 71.54H713.58a9.23 9.23 0 01-9.229-9.23v-18.46c0-5.098 4.134-9.23 9.229-9.23h129.23a9.228 9.228 0 019.229 9.23v18.44c.012 5.098-4.112 9.239-9.21 9.25h-.019zm-13.85-25.39a6.93 6.93 0 106.93 6.93 6.92 6.92 0 00-6.909-6.93h-.021zm-18.46 0a6.93 6.93 0 10-.02 13.86 6.93 6.93 0 006.94-6.92v-.01a6.92 6.92 0 00-6.9-6.93h-.02z"/><path fill="none" stroke="#000" stroke-dasharray="12" stroke-miterlimit="10" stroke-width=".75" d="M863.729 87.55c8.29-.89 17.16-.64 24.271 3.73 7.529 4.63 11.88 13.27 13.34 22 1.46 8.729.439 17.65-.601 26.43l-5.601 47.36c-.79 6.63-1.55 13.53.601 19.86 2.149 6.33 8.101 11.89 14.75 11.3M322.09 489.599c21.35.531 45.42 0 60.17-15.439 11.2-11.719 13.83-28.891 17.6-44.66 6.811-28.468 19.19-55.87 38-78.319s44.199-39.75 72.619-46.729c22.841-5.62 46.86-4.561 69.82-9.61s46.54-18.66 52.891-41.3" opacity=".3"/><path fill="#007BFF" d="M680 203.95l-57.61 21a1.129 1.129 0 00-.218 2l8.6 4.77c.49.287.85.753 1 1.3l4.931 15.6c0 .66 1.2 1 1.311.36l.689-12.2a4.41 4.41 0 011.33-2.29l31.659-23a.71.71 0 01.631-.08.639.639 0 01.199 1.06l-28.149 25.67a5.396 5.396 0 00-1.29 2.26l-3 10.19c0 .92.641 1.37 1.341.64l6-5.27a1.089 1.089 0 011.55 0l11.819 11.6a1.079 1.079 0 001.78-.41l18.71-51.72a1.091 1.091 0 00-1.379-1.431l.096-.049z" opacity=".5"/></svg>