<svg xmlns="http://www.w3.org/2000/svg" viewBox="0 0 1150 627.49"><path fill="#007BFF" d="M1137.81 582.18a188.578 188.578 0 01-16.41 31.561 135.872 135.872 0 01-9.939 13.67.736.736 0 01-.11.12H0l.149-.12c1-.78 6.87-5.53 16-13.67a632.653 632.653 0 0024-22.53c75.49-74.25 220.5-250 99.73-411C27.61 30.54 148.49 3.38 228.23.21a227.81 227.81 0 0189.86 14.69c36.84 14 104.17 35.46 191.89 45.3 2.88.32 5.78.64 8.72.93a840.12 840.12 0 00139.78 2.54c1.37-.08 2.75-.18 4.14-.28a830.738 830.738 0 00136.721-21.15c2.909-.71 5.779-1.38 8.64-2.05 149.63-34.62 287.57 83.37 253.08 216.71-12.75 49.32-9.51 101.89 33 144.419 69.598 69.421 61.169 137.791 43.749 180.861z" opacity=".1"/><path fill="#454B69" d="M1137.81 582.18a188.578 188.578 0 01-16.41 31.561 135.872 135.872 0 01-9.939 13.67H.15c1-.78 6.87-5.53 16-13.67a632.653 632.653 0 0024-22.53l117.13-24.2a22.72 22.72 0 014.601-.47l124.87-.18h.13l61.85-.08h.14l52.2-.061h69.17l143.42-.2h61.708l24.631-.28h8.14l71.64-.101H813.66l82.75-.109h24.641l78.38-.11 66.16-.08a23.5 23.5 0 015.47.65l66.749 16.19z"/><path fill="none" d="M16.15 613.74H1121.4a135.872 135.872 0 01-9.939 13.67H.15c.98-.83 6.85-5.58 16-13.67z"/><path d="M16.15 613.74H1121.4a135.872 135.872 0 01-9.939 13.67H.15c.98-.83 6.85-5.58 16-13.67z" opacity=".4"/><path fill="#454B69" d="M733.22 302.74l-2.22.43-100.36 19.28c-29.15 5.6-58.72 11.23-88.33 9.08-21.45-1.561-41.49-7.92-62.1-13.5-11.65-3.16-24-4.42-27.95-17.46-5.45-18 3.42-44.65 5.51-62.89 2-17.9 3.18-36.25-.38-53.94a95.929 95.929 0 00-3.12-11.74c-3.57-10.59-9.18-21.6-6.15-32.35 2.391-8.53 9.681-14.62 16.5-20.26 13.36-11 27-23.33 32.301-39.82 2.6-8 3.09-16.61 5.89-24.55 5.31-15.1 18.65-26.39 33.49-32.37s31.159-7.25 47.17-7.25a319.54 319.54 0 0142.27 2.81c15.28 2 30.7 5.29 44.13 12.87 13.431 7.58 24.75 20 27.881 35.14 4.43 21.41-7.87 44.21-1.271 65 3.32 10.51 11 19 16.33 28.62a68.172 68.172 0 015 53c-6.38 19.77-22 39.77-14 58.94 5.09 12.189 18.09 18.7 27.15 28.36a49.423 49.423 0 012.259 2.6z"/><path d="M731 300.22v2.95l-100.36 19.28c-29.15 5.6-58.72 11.23-88.33 9.08-21.45-1.561-41.49-7.92-62.1-13.5-11.65-3.16-24-4.42-27.95-17.46-5.45-18 3.42-44.65 5.51-62.89 2-17.9 32.79-83.25 29.23-100.94l184 8c1.239 9.77 49.869 58.81 46.84 68.18-6.38 19.77-22 39.77-14 58.94 5.1 12.19 18.1 18.7 27.16 28.36z" opacity=".1"/><path fill="#EFB7B9" d="M543 250.74c1.09 6.19 1.67 13-1.49 18.4-4.21 7.24-13.391 9.55-21.601 11.19l-28.5 5.7c-1.939.39-4 .83-5.449 2.16-1.71 1.53-2.29 3.95-2.54 6.23-1.15 10.32 2.5 20.49 5.83 30.32 6.729 19.909 12.38 40.239 20.89 59.45 8.51 19.209 20.189 37.55 36.86 50.39 16.67 12.84 38.729 19.68 59.14 14.66 17.78-4.37 32.36-16.92 44.93-30.23 10.37-11 20.07-23 25.101-37.27 3.47-9.8 4.6-20.24 5.689-30.58 1.687-15.854 3.373-31.707 5.061-47.56.789-7.44 1.31-15.81-3.521-21.52-2.12-2.51-5-4.18-7.94-5.73-10.939-5.81-22.459-10.61-32.64-17.61-10.18-7-19.21-16.64-22.3-28.6-1.85-7.18-1.52-15-4.67-21.69-3.521-7.5-11-12.58-19-14.81s-16.44-1.93-24.68-1c-8.24.93-40 3.31-43.41 12.6-1.83 5 5.76 15.729 7.56 20.65a144.303 144.303 0 016.68 24.85z"/><path d="M543 250.74c1.09 6.19 1.67 13-1.49 18.4-4.21 7.24-13.391 9.55-21.601 11.19l-28.5 5.7c-1.939.39-4 .83-5.449 2.16-1.71 1.53-2.29 3.95-2.54 6.23-1.15 10.32 2.5 20.49 5.83 30.32 6.729 19.909 12.38 40.239 20.89 59.45 8.51 19.209 20.189 37.55 36.86 50.39 16.67 12.84 38.729 19.68 59.14 14.66 17.78-4.37 32.36-16.92 44.93-30.23 10.37-11 20.07-23 25.101-37.27 3.47-9.8 4.6-20.24 5.689-30.58 1.687-15.854 3.373-31.707 5.061-47.56.789-7.44 1.31-15.81-3.521-21.52-2.12-2.51-5-4.18-7.94-5.73-10.939-5.81-22.459-10.61-32.64-17.61-10.18-7-19.21-16.64-22.3-28.6-1.85-7.18-1.52-15-4.67-21.69-3.521-7.5-11-12.58-19-14.81s-16.44-1.93-24.68-1c-8.24.93-40 3.31-43.41 12.6-1.83 5 5.76 15.729 7.56 20.65a144.303 144.303 0 016.68 24.85z" opacity=".1"/><path fill="#FFF" d="M611.59 359.479L628.3 324.1c7.83-16.581 15.83-34 15-52.311-.16-3.64-.2-8.19 3-9.84a8.576 8.576 0 014.39-.56 177.559 177.559 0 0151.51 10.42c3.21 1.16 6.5 2.5 8.75 5.06s3.16 6 3.931 9.3a271.505 271.505 0 015.729 33.87c3 28.22 1.51 56.689 0 85l-4.439 86.43a8.288 8.288 0 01-.73 3.561c-1.1 2-3.58 2.67-5.81 3.05-8.591 1.47-17.37 1.17-26.07.84-61.2-2.32-122.72-5.88-183.521 1.54.273-8.993.131-17.993-.43-27-2.41-38.89-12.49-76.83-22.39-114.51-5.771-22-11.36-46-2.07-66.73a28.601 28.601 0 015.79-8.82c3.95-3.87 9.34-5.91 14.68-7.37a93.478 93.478 0 0128.29-3.2l63.051 137.271c2.88 6.279 5.25 12.89 8.119 19.089 2.58-10.71-.52-23.26 2.58-34.87 3.34-12.049 8.6-23.58 13.93-34.841z"/><path fill="#0DC3D1" d="M605 453.93c11.279.71 22.239-5.069 30-13.239 7.76-8.171 12.88-18.53 17.21-29a286.043 286.043 0 0014.79-46.11c3-13.399 5.13-27.271 3.06-40.851-2.86-18.75-13.47-35.79-15.28-54.669-.31-3.3-.109-7.16 2.54-9.15 1.64-1.23 3.8-1.4 5.84-1.52 18.86-1.12 39.58-.91 54.19 11.06 4.45 3.64 8.06 8.19 12.41 11.94 10.359 9 25 13.58 31.649 25.53 2.32 4.16 3.431 8.87 5.05 13.351 3.82 10.6 10.431 19.92 17 29.09-6.369 26.88-13.689 53.779-20.06 80.659-3.729 15.771-7.49 31.601-13.35 46.7-3.841 9.9-8.67 20-7.49 30.601.47 4.17 1.86 8.16 3.07 12.18a140.03 140.03 0 015.89 43.53l-285.34.7c13.67-19.601 17.68-43.641 16.29-67.49-.67-11.43-3.25-22.93-9-32.82-9.061-15.5-25-25.6-40.71-34.25-11-6-22.811 27.76-34.7 23.891 1.92-13.58 2.8-66.001 2-79.671-.26-4.479-.66-9.08.72-13.359.94-2.93 2.67-5.551 3.84-8.4 4.69-11.41.221-26 7.801-35.71 5.239-6.75 14.43-8.67 21.899-12.83 7.67-4.28 13.601-11 20.28-16.74a90.185 90.185 0 0146.16-20.61 58.148 58.148 0 018.81 26c.51 5.81.141 11.7.95 17.48 1.11 7.83 4.35 15.179 7.56 22.419 13.37 30.19 26.79 60.471 43.73 88.82 4.79 8 10 16 16.94 22.23C585.69 449.92 595.68 454.37 605 453.93z"/><path d="M605 453.93c11.279.71 22.239-5.069 30-13.239 7.76-8.171 12.88-18.53 17.21-29a286.043 286.043 0 0014.79-46.11c3-13.399 5.13-27.271 3.06-40.851-2.86-18.75-13.47-35.79-15.28-54.669-.31-3.3-.109-7.16 2.54-9.15 1.64-1.23 3.8-1.4 5.84-1.52 18.86-1.12 39.58-.91 54.19 11.06 4.45 3.64 8.06 8.19 12.41 11.94 10.359 9 25 13.58 31.649 25.53 2.32 4.16 3.431 8.87 5.05 13.351 3.82 10.6 10.431 19.92 17 29.09-6.369 26.88-13.689 53.779-20.06 80.659-3.729 15.771-7.49 31.601-13.35 46.7-3.841 9.9-8.67 20-7.49 30.601.47 4.17 1.86 8.16 3.07 12.18a140.03 140.03 0 015.89 43.53l-285.34.7c13.67-19.601 17.68-43.641 16.29-67.49-.67-11.43-3.25-22.93-9-32.82-9.061-15.5-25-25.6-40.71-34.25-11-6-22.811 27.76-34.7 23.891 1.92-13.58 2.8-66.001 2-79.671-.26-4.479-.66-9.08.72-13.359.94-2.93 2.67-5.551 3.84-8.4 4.69-11.41.221-26 7.801-35.71 5.239-6.75 14.43-8.67 21.899-12.83 7.67-4.28 13.601-11 20.28-16.74a90.185 90.185 0 0146.16-20.61 58.148 58.148 0 018.81 26c.51 5.81.141 11.7.95 17.48 1.11 7.83 4.35 15.179 7.56 22.419 13.37 30.19 26.79 60.471 43.73 88.82 4.79 8 10 16 16.94 22.23C585.69 449.92 595.68 454.37 605 453.93z" opacity=".1"/><circle cx="589.909" cy="162.75" r="85.72" fill="#EFB7B9"/><path fill="#454B69" d="M544.93 276.98c2.35-22.18-6.87-43.88-17.311-63.59-5-9.42-10.359-18.81-12.869-29.16-2.511-10.35-1.79-22.07 4.63-30.58 5.46-7.24 14.12-11.15 22.13-15.4 22.609-12 43.279-29.64 53.22-53.23-5.62 3.06-4.16 12.19.8 16.22 4.96 4.03 11.72 4.81 17.82 6.729 22.24 7 35.58 29.18 46.28 49.9 1.75 3.38 3.529 6.95 3.51 10.76-.021 3.81-1.76 7.19-3.58 10.43-5.28 9.4-11.74 18.43-14.14 28.94-2.75 12 .149 24.62 3.92 36.39 4 12.52 9.31 25.14 18.909 34.12 9.601 8.98 24.49 13.44 36.301 7.64-11.79-20.27-24-42.92-19.4-65.9 2.22-11 8.19-21 10.729-31.94 4.841-20.87-3.22-42.34-11.13-62.26L661.11 66.6c-3.61-9.09-7.72-18.79-16-23.94-5.6-3.47-12.38-4.37-18.94-5-21.119-1.88-43-1.26-62.659 6.6-35.82 14.31-58.28 49.59-76.101 83.81-5.34 10.25-10.609 21.14-10.39 32.7.12 6.34 1.89 12.51 3.33 18.69 5.859 25.16 6.18 51.23 6.479 77.06.23 19.82-.8 38.5-9.47 56.55 11.88 2.361 29.11 8.73 40.87 4.07 15.331-6.06 24.771-24.73 26.701-40.16z"/><g opacity=".1"><path d="M486.78 256.1c.04-2.82.04-5.667 0-8.54-.3-25.83-.62-51.9-6.479-77.06a130.04 130.04 0 01-3.061-14.88 38.965 38.965 0 00-.27 5.19c.12 6.34 1.89 12.51 3.33 18.69 5.83 25.01 6.19 50.92 6.48 76.6zM695.88 188.31a60.499 60.499 0 001.3-17.82 55.516 55.516 0 01-1.3 8.82c-2.54 11-8.511 20.91-10.73 31.94a53.025 53.025 0 00-.8 14.78c.159-1.94.426-3.87.8-5.78 2.219-11.03 8.19-20.98 10.73-31.94zM662.36 164.04c.488-1.42.752-2.908.78-4.41 0-3.81-1.76-7.38-3.51-10.76-10.7-20.72-24-42.88-46.28-49.9-6.1-1.92-12.85-2.7-17.82-6.729a12.684 12.684 0 01-4.38-8.8c-10.84 19.9-29.46 35.12-49.64 45.81-8 4.25-16.67 8.16-22.13 15.4-5.131 6.8-6.62 15.65-5.73 24.21a30.612 30.612 0 015.73-15.21c5.46-7.24 14.119-11.15 22.13-15.4 20.18-10.69 38.8-25.91 49.64-45.81a12.682 12.682 0 004.38 8.8c5 4 11.72 4.81 17.82 6.729 22.24 7 35.58 29.18 46.28 49.9a39.483 39.483 0 012.73 6.17zM668.25 269.51c-9.601-9-14.891-21.6-18.91-34.12a98.848 98.848 0 01-4.801-21.71c-.93 10.27 1.62 20.78 4.801 30.71 4 12.52 9.31 25.14 18.91 34.12 9.6 8.98 24.489 13.44 36.3 7.64-1.42-2.43-2.83-4.9-4.23-7.39-10.97 3.09-23.57-1.31-32.07-9.25zM544.93 267.98c-1.93 15.43-11.37 34.1-26.74 40.2-10.67 4.23-25.86-.63-37.45-3.32a86.506 86.506 0 01-3.42 8.25c11.88 2.36 29.11 8.73 40.87 4.071 15.37-6.101 24.811-24.771 26.74-40.201.397-3.86.471-7.748.22-11.62-.06.87-.15 1.75-.22 2.62z"/></g><path fill="#FFF" d="M666.1 515.92c-15.45-2.45-31.13-7.18-46.45-4-8.88 1.84-17 6.26-24.38 11.6 4.06 3.25 8.8 6.15 11.38 10.67a41.949 41.949 0 013.58 9.87c1.62 6 3.25 12.12 3.5 18.36s-1 12.74-4.72 17.77c19.479 1.921 38.359-2.88 57.359-7.569a15.732 15.732 0 006.07-2.45c3-2.36 3.88-6.56 3.9-10.39 0-6.841-1.92-13.511-3.87-20.07-2.319-7.871-4.039-15.971-6.369-23.791z"/><path fill="#06B0D1" d="M770.42 347.25c7.67 1 13.619 7.19 18 13.55 12.289 17.7 17.59 39.16 23.489 59.891a797.436 797.436 0 0025.87 76.119 114.513 114.513 0 007.76 16.7c2.471 4.13 5.471 8.101 6.561 12.79 2.64 11.34-6.71 22-16.46 28.32a65.14 65.14 0 01-16.851 8.12c-5.819 1.74-11.89 2.399-17.92 3.06l-55.51 6c-25.55 2.78-51.33 5.561-76.89 2.88-1.61-5.6 1.55-9.56 1.319-15.39-.159-4.17-2-8.05-3.64-11.89a76.026 76.026 0 01-5.93-21.511c-.29-2.729-.391-5.529-1.431-8.069-1.039-2.54-3.27-4.82-6-5 15-1.49 26.391-4.32 41.391-5.82 5.57-.561 11.359-1.19 16.109-4.15 5.891-3.67 9.19-10.29 11.811-16.71 6.49-15.899 10.67-33.42 7.26-50.26-2.8-13.81-10.609-26.67-10.57-40.76 0-8.391 2.86-16.521 6.24-24.2 3.58-8.12 8.25-16.42 16.11-20.54 7.861-4.12 20.412-4.33 29.282-3.13z"/><path d="M770.42 347.25c7.67 1 13.619 7.19 18 13.55 12.289 17.7 17.59 39.16 23.489 59.891a797.436 797.436 0 0025.87 76.119 114.513 114.513 0 007.76 16.7c2.471 4.13 5.471 8.101 6.561 12.79 2.64 11.34-6.71 22-16.46 28.32a65.14 65.14 0 01-16.851 8.12c-5.819 1.74-11.89 2.399-17.92 3.06l-55.51 6c-25.55 2.78-51.33 5.561-76.89 2.88-1.61-5.6 1.55-9.56 1.319-15.39-.159-4.17-2-8.05-3.64-11.89a76.026 76.026 0 01-5.93-21.511c-.29-2.729-.391-5.529-1.431-8.069-1.039-2.54-3.27-4.82-6-5 15-1.49 26.391-4.32 41.391-5.82 5.57-.561 11.359-1.19 16.109-4.15 5.891-3.67 9.19-10.29 11.811-16.71 6.49-15.899 10.67-33.42 7.26-50.26-2.8-13.81-10.609-26.67-10.57-40.76 0-8.391 2.86-16.521 6.24-24.2 3.58-8.12 8.25-16.42 16.11-20.54 7.861-4.12 20.412-4.33 29.282-3.13z" opacity=".08"/><path fill="#EFB7B9" d="M422.81 334.26c3.63-8.62 7.32-17.52 7.42-26.87.11-10.11-4-19.71-7.14-29.31a169.395 169.395 0 01-7.71-36.19 4.998 4.998 0 01.5-3.47c.83-1.17 2.43-1.41 3.84-1.72 6.92-1.58 12.149-7.17 16.47-12.8a140.375 140.375 0 0016.86-28.16c3.31-7.37 7.79-16.36 15.87-16.43a458.47 458.47 0 01-12.08 45.25c8.449-2.16 16.479-5.3 24.93-7.46a14.952 14.952 0 015.12-.68c5.06.53 8.16 7.38 5.22 11.53 4.13 4.84 11 6.14 16.4 9.46 5.399 3.32 9.279 11.54 4.479 15.71-.939.81-2.13 1.38-2.81 2.42-2.32 3.58 3.359 7.69 2.89 11.93-.38 3.47-4.83 5.09-8.2 4.17-3.369-.92-6-3.44-9-5.29s-6.92-3-9.83-1.08c-.779 9.41-1.619 19-5.689 27.57-1.49 3.13-3.4 6.06-4.6 9.31a45.852 45.852 0 00-2.12 10.93L470 346.27c-17.32 3.47-32.85-1.72-47.19-12.01z"/><path fill="#FFF" d="M418.579 364.01l-3.189-21.59a35.022 35.022 0 01-.51-5.319c0-5 2.199-9.771 4.329-14.32 17.65 8.24 36.73 11.17 56.2 11.18 2.57 0 5.5-.24 7.101-2.25 3.31 3.811 3.41 9.939 2 14.779-1.41 4.841-4.12 9.201-5.92 13.921-.91 2.39-1.65 5-3.391 6.84-2.7 2.91-7.08 3.41-11.06 3.39a70.61 70.61 0 01-12.48-1.189c-10.659-1.982-22.419-7.351-33.08-5.442z"/><path fill="#06B0D1" d="M484.409 363.13a441.868 441.868 0 01-40.83-6.6c-6.63-1.391-13.319-2.94-20.079-2.67-4.4.18-9.131 1.06-13-1.12 3.77 12.829 4 26.35-.511 38.94-2.67 7.5-6.739 14.489-8.7 22.209-4.079 16.15 1.521 33.761-3.579 49.62a12.581 12.581 0 01-3.08 5.521c-1.561 1.43-3.69 2.17-5.13 3.72-2.12 2.28-2.25 5.71-2.261 8.82l-.09 27.55c-.06 17.54.17 36.14 9.43 51 10.561 17 32.79 25.81 52.141 20.64a38.74 38.74 0 0014.16-6.93c6.72-5.34 11-13.061 15.189-20.58 5-9 10-18.2 11.61-28.33 1.14-7.17.5-14.49-.32-21.7-4.52-40-14.33-79.66-12.22-119.81a36.312 36.312 0 017.27-20.28z"/><path fill="#EFB7B9" d="M541.67 529.13c-6.95.4-13.95.8-20.87 0-5-.6-9.88-1.83-14.841-2.67a95.113 95.113 0 00-76.59 21.28c-3.84 3.279-7.72 8.31-5.6 12.899 2.28 4.94 9.25 4.801 14.62 3.88a44.004 44.004 0 00-15 11.73c-1.5 1.83-2.92 4-2.63 6.37.609 4.95 7.33 5.85 12.3 5.42-1.62 1.74-.53 4.82 1.53 6 2.06 1.18 4.619.94 6.949.51a51.537 51.537 0 0014.761-5.109c-.94 2.449.689 5.319 3 6.54 2.31 1.22 5.12 1.13 7.71.71 12.22-2 22.42-10.5 34.34-13.841 19.06-5.33 39 3.17 58.81 3.771 6.2.189 12.561-.44 18.21-3 6.931-3.15 12.521-9.061 19.841-11.16 8.13-2.32 17.46.35 24.899-3.66 5.41-2.91.53-25.34-.85-29.66-2.53-7.899-5.07-13.14-13.5-13.939-21.329-2.091-45.6 2.689-67.089 3.929z"/><path fill="#FFF" d="M594.88 523.01s32.29 27.33 13.659 57.15l36-12.43v-26.09c0-1.239-13.67-19.87-13.67-19.87l-16.149-2.489-19.84 3.729z"/><path fill="#3F3D56" d="M256.79 521.32h12.11c13.808 0 25 11.192 25 25v37.109h-62.11V546.32c0-13.807 11.193-25 25-25z"/><path d="M256.79 521.32h12.11c13.808 0 25 11.192 25 25v37.109h-62.11V546.32c0-13.807 11.193-25 25-25z" opacity=".1"/><circle cx="260.36" cy="530.01" r="4.97" fill="#3F3D56"/><circle cx="260.36" cy="523.8" r="4.97" fill="#3F3D56"/><circle cx="260.36" cy="517.59" r="4.97" fill="#3F3D56"/><circle cx="260.36" cy="511.38" r="4.97" fill="#3F3D56"/><circle cx="260.36" cy="505.17" r="4.97" fill="#3F3D56"/><circle cx="260.36" cy="498.96" r="4.97" fill="#3F3D56"/><circle cx="260.36" cy="492.74" r="4.97" fill="#3F3D56"/><circle cx="267.82" cy="495.23" r="4.97" fill="#3F3D56"/><circle cx="272.79" cy="492.74" r="4.97" fill="#3F3D56"/><circle cx="277.76" cy="490.26" r="4.97" fill="#3F3D56"/><circle cx="260.36" cy="486.53" r="4.97" fill="#3F3D56"/><circle cx="260.36" cy="480.32" r="4.97" fill="#3F3D56"/><circle cx="260.36" cy="474.11" r="4.97" fill="#3F3D56"/><circle cx="260.36" cy="467.9" r="4.97" fill="#3F3D56"/><path fill="#0BC2E7" d="M281 451.87c-1.24.18-2.48.31-3.721.39a28.559 28.559 0 003.2-3.279 20.934 20.934 0 00-3-5.83 10.233 10.233 0 01-4 1.26c-1.229.18-2.47.31-3.71.399 1.63-1.329 3.15-3.329 4.75-5-8.634-7.825-21.978-7.17-29.804 1.465-7.826 8.634-7.171 21.978 1.464 29.804s21.979 7.17 29.804-1.464a21.104 21.104 0 005.147-17.824l-.13.079zM297.57 476.56a9.638 9.638 0 01-4.18 1.391c-1.229.18-2.47.319-3.71.399a36.368 36.368 0 003.68-3.819c-6.647-1.733-13.442 2.251-15.176 8.898-1.733 6.648 2.251 13.443 8.899 15.177 6.647 1.733 13.442-2.251 15.176-8.899a12.44 12.44 0 00-4.689-13.176v.029z"/><circle cx="252.91" cy="495.23" r="4.97" fill="#3F3D56"/><circle cx="247.94" cy="492.74" r="4.97" fill="#3F3D56"/><circle cx="242.97" cy="490.26" r="4.97" fill="#3F3D56"/><path fill="#0BC2E7" d="M223.16 476.56a9.638 9.638 0 004.18 1.391c1.229.18 2.47.319 3.71.399a35.402 35.402 0 01-3.68-3.819c6.647-1.733 13.442 2.251 15.176 8.898 1.733 6.648-2.251 13.443-8.899 15.177-6.647 1.733-13.442-2.251-15.176-8.899a12.44 12.44 0 014.689-13.176v.029z"/><path fill="#3F3D56" d="M256.79 525h12.11c13.808 0 25 11.193 25 25v32.87a4.24 4.24 0 01-4.239 4.24H236a4.24 4.24 0 01-4.24-4.24V550c0-13.807 11.192-25 25-25h.03z"/><g opacity=".1"><path d="M281.34 453.23a18.697 18.697 0 01-1.601 1.52c.57 0 1.131-.09 1.7-.15-.019-.46-.049-.92-.099-1.37zM272.28 447.29c1.25-.08 2.48-.21 3.721-.39a12.028 12.028 0 003.229-.881 21.974 21.974 0 00-1.739-2.869 7.58 7.58 0 01-2 .85 28.923 28.923 0 01-3.211 3.29zM241.73 457.96c-.022-11.643 9.396-21.099 21.039-21.121a21.079 21.079 0 0111.461 3.361l.32-.34c-8.706-7.747-22.043-6.97-29.789 1.736-7.747 8.706-6.969 22.043 1.736 29.789.077.069.154.137.232.204a21 21 0 01-4.999-13.629z"/></g><g opacity=".1"><path d="M289.68 480.83c1.24-.08 2.48-.21 3.71-.39a9.668 9.668 0 004.18-1.4 12.428 12.428 0 015 8.8c.049-.435.072-.872.07-1.31a12.382 12.382 0 00-5-10 9.659 9.659 0 01-4.18 1.39l-1 .13a25.338 25.338 0 01-2.78 2.78zM290.18 476.59c.415.005.829.035 1.24.09.649-.689 1.29-1.43 1.939-2.149-6.616-1.768-13.412 2.163-15.18 8.779a12.425 12.425 0 00-.42 3.221c0 .42 0 .83.06 1.239a12.422 12.422 0 0112.361-11.18z"/></g><g opacity=".1"><path d="M231.05 480.83c-1.24-.08-2.48-.21-3.71-.39a9.668 9.668 0 01-4.18-1.4 12.428 12.428 0 00-5 8.8 11.239 11.239 0 01-.07-1.31 12.376 12.376 0 015-10 9.659 9.659 0 004.18 1.39l1 .13a23.698 23.698 0 002.78 2.78zM230.55 476.59c-.418.005-.836.035-1.25.09-.64-.689-1.28-1.43-1.93-2.149 6.616-1.768 13.412 2.163 15.18 8.779.28 1.051.422 2.134.42 3.221 0 .42 0 .83-.06 1.239a12.42 12.42 0 00-12.36-11.18z"/></g><path fill="#007BFF" d="M196.85 599.13h-97.7a4.149 4.149 0 01-4.149-4.149v-46.24a4.15 4.15 0 015.929-3.75c28.07 13.319 58.311 17.89 94 .21a4.159 4.159 0 016 3.71v46a4.15 4.15 0 01-4.08 4.219c.001 0 .001 0 0 0z"/><path fill="#0BC0E3" d="M196.85 599.13h-97.7a4.149 4.149 0 01-4.149-4.149v-46.24a4.15 4.15 0 015.929-3.75c28.07 13.319 58.311 17.89 94 .21a4.159 4.159 0 016 3.71v46a4.15 4.15 0 01-4.08 4.219c.001 0 .001 0 0 0z" opacity=".1"/><ellipse cx="147.32" cy="556.41" fill="#3F3D56" rx="5.78" ry="7.57"/><ellipse cx="147.32" cy="547.16" fill="#3F3D56" rx="5.78" ry="7.57"/><ellipse cx="147.32" cy="537.9" fill="#3F3D56" rx="5.78" ry="7.57"/><ellipse cx="147.32" cy="528.65" fill="#3F3D56" rx="5.78" ry="7.57"/><ellipse cx="147.32" cy="519.39" fill="#3F3D56" rx="5.78" ry="7.57"/><ellipse cx="147.32" cy="510.13" fill="#3F3D56" rx="5.78" ry="7.57"/><ellipse cx="147.32" cy="500.88" fill="#3F3D56" rx="5.78" ry="7.57"/><path fill="#0BC2E7" d="M169 437.54a29.312 29.312 0 002.149-3.17l-15.199-2.5 16.439.12a27.712 27.712 0 00.53-22l-22.05 11.439 20.34-14.999c-7.661-13.249-24.611-17.779-37.859-10.118-13.249 7.661-17.778 24.611-10.117 37.859a27.72 27.72 0 002.206 3.258 27.176 27.176 0 00-3.16 5.051L142 452.84l-21-7.1a27.74 27.74 0 004.47 26c-9.461 12.028-7.38 29.449 4.648 38.911 12.029 9.461 29.45 7.38 38.911-4.649 7.907-10.052 7.907-24.21 0-34.262 7.906-10.052 7.906-24.208 0-34.26l-.029.06z"/><path d="M119.49 454.67a27.582 27.582 0 005.93 17.13c-9.462 12.029-7.38 29.45 4.648 38.911 12.029 9.461 29.45 7.38 38.911-4.648 7.907-10.053 7.907-24.21 0-34.263 3.711-4.71-49.489-20.24-49.489-17.13z" opacity=".1"/><path fill="#0A9CB9" d="M196.85 601.58h-97.7a4.15 4.15 0 01-4.149-4.15v-48.69a4.15 4.15 0 015.929-3.75c28.07 13.319 50.33 28.85 94 .21 2.59-1.7 6 .62 6 3.71v48.5a4.15 4.15 0 01-4.08 4.17z"/><path fill="#9C9CA1" d="M921.829 587.81L777.69 606.88l-7.21.95-70.47-37.64v-8.81l220.22-24.02z"/><path fill="#939498" d="M740.85 574.19L897 555.78l-1.6 28.83-121.63 8.92z"/><path d="M777.69 597.41v9.46l-7.21 1L700 570.19v-8.811l67.27 36c0 .001 8.82.831 10.42.031z" opacity=".4"/><path fill="#3F3D56" d="M805.36 447.26L773 597.31c-1.123 5.171 2.158 10.272 7.328 11.396a9.604 9.604 0 003.291.135l204.73-27.1a9.58 9.58 0 007.84-6.48l44.17-133.2c1.662-5.034-1.071-10.463-6.105-12.126a9.635 9.635 0 00-3.454-.474L814.28 439.74a9.599 9.599 0 00-8.92 7.52z"/><ellipse cx="912.296" cy="502.032" fill="#FFF" rx="5.59" ry="8.7" transform="rotate(-173.988 912.313 502.018)"/></svg>