<svg xmlns="http://www.w3.org/2000/svg" viewBox="0 0 1136.636 643.182"><path fill="none" d="M0 0h1136.636v643.182H0z"/><path fill="#3C74F3" d="M647.255 139.098c-70.76.54-138.73-15.45-203.73-33.27s-129.47-37.83-198.84-46c-44.62-5.28-95.4-4.45-130.48 16-33.75 19.66-43.73 51.88-48.66 81.62-3.71 22.38-5.52 45.86 7.54 66.23 9.07 14.13 24.69 25.73 35.68 39.19 38.26 46.84 14.54 107.11-23.4 155.511-17.77 22.67-38.57 44.49-52.11 68.49s-19.18 51.109-5.79 74.6c13.28 23.289 43.54 40.061 76.08 51.449 66.1 23.141 143.17 27.701 218.23 29.17 166.14 3.24 332.71-6.639 498.82-16.51 61.48-3.65 123.23-7.33 183.48-17.15 33.459-5.449 67.93-13.43 91.75-30.6 30.24-21.799 36.68-57.119 15-82.34-36.371-42.289-133-49.68-159-95.529-14.311-25.24-1.57-54.371 17-78.912 39.939-52.649 108.34-100 109.949-158.629 1.111-40.25-34-79.28-86.68-96.43-55.24-18-130.779-12.79-169.84 21.62-40.159 35.37-112.499 51.02-174.999 51.49z" opacity=".21"/><path fill="#3A2F2F" d="M928.97 550.93s-12.291-8.109-24.471-2.35c0 0 3.75 7.229 19.17 6.54l5.301-4.19zM930.48 551.36s3.74 14.239-5.631 23.93c0 0-5.639-5.87-.049-20.25l5.68-3.68zM945.81 537.69s-.91-12.11-28.26-8.101c0 0-.121 7.82 9.48 11.521 9.6 3.701 13.991.58 18.78-3.42zM947.49 537.61s11.561 3.71 1.25 29.359c0 0-7.619-1.7-9-11.91-1.379-10.209 2.74-13.739 7.75-17.449zM962.97 520.42s1.57-19.93-26.381-17.88c0 0-2 18 21.451 22.68l4.93-4.8zM981.4 497.93s-3.83-22.59-31.76-15.859c0 0-.109 19.529 27.199 21.239l4.561-5.38zM994.941 474.67s-6.42-22-34.102-15.42c0 0 6.592 19.79 32.262 19.48l1.84-4.06zM1007.759 451.95s-6.27-22.83-33-16c0 0 8.92 21.689 31.23 19.87l1.77-3.87zM1016.031 430.37s-4.82-27.92-29.74-21.74c0 0 7.23 25.4 27.9 25.8l1.84-4.06zM1023.771 404.3s-5.781-28.149-31-20c0 0 9.889 26.601 29.219 23.851l1.781-3.851zM1028.57 380.03s-9.189-28.141-28.68-27.38c0 0 9.4 29.729 27 33l1.68-5.62zM1031.621 356.36s-10-33.88-25.871-31.271c0 0 6.93 25.9 25.301 36.55l.57-5.279zM1033.4 328.08s-9.369-28.23-25-29.36c0 0 6.371 27.78 24.68 36.69l.32-7.33zM1035.24 301.8s-11.689-28.26-22-28.9c0 0 5.08 27.831 21 33.541l1-4.641zM1036.541 277.23s-7.18-30.7-17.52-33.24c0 0 1.408 25.11 16.479 35.54l1.041-2.3zM1040.4 245.14s-7.561-24.46-15.93-28.19c0 0 1.66 28.84 14 34.18l1.93-5.99zM1043.66 224.07l1.531-43.14s-15.621 32.56-2.682 50.75l1.151-7.61zM1055.75 181.2s11.26-31.5 14-33.26c0 0-22.1 20.44-19.939 46.73l5.939-13.47zM963.74 520.28s19.82-2.601 19.221 25.42c0 0-17.91 2.91-23.75-20.25l4.529-5.17zM982.4 497.17s22.91-.07 21 28.6c0 0-19.221 3.431-25.57-23.18l4.57-5.42zM995.16 476.52s20.791-9.75 34.1 15.421c0 0-19.209 8.119-35.93-11.351l1.83-4.07zM1008.22 452.16s21.289-10.37 33.789 14.21c0 0-22.17 7.64-35.539-10.32l1.75-3.89z"/><path fill="#3A2F2F" d="M1015.75 430.98s20.49-19.58 36.85.22c0 0-20.939 16.1-37.789 4.14l.939-4.36zM1022.611 403.63s20.619-20 36.84.92c0 0-23.141 16.431-37.57 3.28l.73-4.2zM1026.47 379.23s15.879-25 34.57-19.41c0 0-16.471 26.47-34.4 25.29l-.17-5.88zM1031.15 356.2s16-31.49 31.131-26c0 0-11.531 24.2-31.541 31.31l.41-5.31zM1032.25 326.47s16.451-24.779 31.861-21.76c0 0-13.451 25.13-33.451 28.93l1.59-7.17zM1033.5 301.19s12.75-27.8 23.121-28c0 0-6.131 27.61-22.26 32.72l-.861-4.72zM1036.031 276.63s14.17-28.17 24.818-28.22c0 0-7.25 24.08-24.35 30.69l-.468-2.47zM1038.16 246.87s10.6-23.3 19.381-25.94c0 0-5.301 28.4-18.211 32.12l-1.17-6.18z"/><path fill="#3A2F2F" d="M1044.919 223.25l23.691-36.08s-6.07 35.6-27.141 43l3.45-6.92zM1061.179 184.1s27.541-19 28.531-22.08c0 0-14 26.62-40 31.32l11.469-9.24zM1062.83 175.55s31.611-30.38 39.68-30.35c0 0-26.068 1.19-40.439 28.74l.759 1.61z"/><path fill="#3A2F2F" d="M1038.47 251.38l1.15.15c5.939-46.5 14.6-74 24.389-77.37l-.379-1.1c-10.38 3.6-19.08 30.68-25.16 78.32z"/><path fill="#3A2F2F" d="M1029.74 362.55l1.74.15c.359-4.34.641-8.79.83-13.21 1.66-38.48 4.23-73.82 7.619-100.31l-1-1.25c-3.389 26.54-6.689 62.95-8.35 101.49-.179 4.38-.48 8.82-.839 13.13z"/><path fill="#3A2F2F" d="M896.509 573.06c.311-.13 30.941-13.81 62.73-46.439a252.418 252.418 0 0045.85-65c14.691-29.93 23.65-66.71 26.66-102.44l-1.82.851c-6.738 80.2-43.26 135-72.289 164.85-31.48 32.33-61.76 45.87-62.061 46l.93 2.178z"/><path fill="#FFF" d="M977.479 32.055v518.42c0 15.41-14.871 28-33.23 28H240.877c-18.36 0-33.23-12.539-33.23-28V32.055c0-15.44 14.87-31.19 33.23-31.19l703.33 1.71c18.362 0 33.272 14.09 33.272 29.48z" opacity=".24"/><path fill="#3F3D56" d="M977.479 32.215v24H207.647v-24c0-17.314 14.036-31.35 31.35-31.35h707.14c17.311.006 31.342 14.04 31.342 31.35z"/><circle cx="244.947" cy="28.53" r="11.08" fill="#FA5959" opacity=".8"/><circle cx="277.177" cy="28.53" r="11.08" fill="#FED253" opacity=".8"/><circle cx="309.407" cy="28.53" r="11.08" fill="#8CCF4D" opacity=".8"/><path fill="#C1D5FF" d="M661.028 190.66v56c0 1.67-3.129 3-7 3H506.307c-3.859 0-7-1.35-7-3v-56c0-1.67 3.12-3.37 7-3.37h147.721c3.881-.01 7 1.69 7 3.37z"/><path fill="#3C74F3" d="M570.297 207.28h76.961V210h-76.961z"/><path fill="#3C74F3" d="M531.358 201.32c-10.08.006-18.246 8.181-18.24 18.261a18.249 18.249 0 008.18 15.209v-1.21a4.15 4.15 0 013.65-4.11 7.24 7.24 0 0012.7 0 4.148 4.148 0 013.649 4.11v1.29c8.45-5.494 10.846-16.798 5.352-25.248a18.248 18.248 0 00-15.291-8.302zm7.159 23.14a7.23 7.23 0 01-14.43 0 7.92 7.92 0 014.15-10.61 2.458 2.458 0 01-.391-1.31 2.41 2.41 0 012.41-2.41H530.436a2.409 2.409 0 00-1.92 3.6h.07a2.566 2.566 0 010-.48c-.001-.504.16-.995.46-1.4a2.4 2.4 0 012.3-1.7h.17a2.392 2.392 0 00-1.84 1.08 2.341 2.341 0 011.33-.4 2.41 2.41 0 012.41 2.41c.005.09.005.18 0 .27a7.93 7.93 0 015.88 7.66 8.032 8.032 0 01-.779 3.29zM570.297 213.9h76.961v2.72h-76.961zM570.297 220.52h76.961v2.72h-76.961zM570.297 227.15h76.961v2.72h-76.961z" opacity=".2"/><path fill="#C1D5FF" d="M488.527 300.33v56c0 1.66-3.12 3-7 3h-147.72c-3.86 0-7-1.359-7-3v-56c0-1.67 3.12-3.37 7-3.37h147.74c3.86 0 6.98 1.7 6.98 3.37z"/><path fill="#3C74F3" d="M396.877 316.96h76.96v2.721h-76.96z"/><path fill="#3C74F3" d="M357.947 310.99c-10.079-.003-18.252 8.166-18.254 18.246a18.25 18.25 0 008.194 15.234v-1.221a4.141 4.141 0 013.65-4.1 7.24 7.24 0 0012.7 0 4.14 4.14 0 013.65 4.1v1.301c8.456-5.486 10.863-16.787 5.377-25.242a18.249 18.249 0 00-15.317-8.318zm7.151 23.14a7.23 7.23 0 01-14.431 0 8.008 8.008 0 01-.71-3.289 7.937 7.937 0 014.86-7.32 2.42 2.42 0 012.03-3.721h.18a2.41 2.41 0 00-1.93 3.599h.08a2.45 2.45 0 010-.469 3.54 3.54 0 012.76-3.111h.09a2.426 2.426 0 00-1.84 1.081 2.4 2.4 0 011.32-.4 2.42 2.42 0 012.42 2.419 2.45 2.45 0 010 .271 7.92 7.92 0 015.16 11l.011-.06zM396.877 323.579h76.96v2.721h-76.96zM396.877 330.2h76.96v2.719h-76.96zM396.877 336.819h76.96v2.721h-76.96z" opacity=".2"/><path fill="#C1D5FF" d="M447.727 123.649v56c0 1.66-3.119 3-7 3h-147.7c-3.85 0-7-1.36-7-3v-56c0-1.67 3.13-3.37 7-3.37h147.72c3.86 0 6.98 1.7 6.98 3.37z"/><path fill="#3C74F3" d="M356.987 139.37h76.96v2.72h-76.96z"/><path fill="#3C74F3" d="M356.987 145.99h76.96v2.72h-76.96zM356.987 152.61h76.96v2.72h-76.96zM356.987 159.23h76.96v2.72h-76.96zM318.027 133.4c-10.084.049-18.22 8.263-18.171 18.348a18.259 18.259 0 008.171 15.132v-3.09a4.15 4.15 0 013.65-4.11 7.241 7.241 0 0012.7 0 4.141 4.141 0 013.65 4.11v3.16c8.45-5.494 10.846-16.798 5.352-25.248a18.248 18.248 0 00-15.352-8.302zm8 22.28c-.063.116-.144.22-.24.31a1 1 0 01-.53.18h-.37a7.25 7.25 0 01-14.19-2.06c0-1.25.328-2.477.95-3.56l-.08-.05a2.41 2.41 0 01.24-3.35 4.794 4.794 0 011.5-.55 6.697 6.697 0 003.8-2.91c.025.366.025.733 0 1.1a1.61 1.61 0 012.275-.094l.015.014c.189.269.408.517.65.74.25.133.527.212.81.23l1.82.23c.753.02 1.479.283 2.07.75.315.353.55.769.69 1.22a18.203 18.203 0 011.19 3.85 6.174 6.174 0 01-.55 3.93l-.05.02z" opacity=".2"/><path fill="#C1D5FF" d="M701.399 387.659v56c0 1.67-3.121 3-7 3H546.667c-3.86 0-7-1.35-7-3v-56c0-1.67 3.12-3.359 7-3.359h147.751c3.86-.051 6.981 1.64 6.981 3.359z"/><path fill="#3C74F3" d="M610.659 404.239h76.959v2.721h-76.959z"/><path fill="#3C74F3" d="M610.659 410.86h76.959v2.719h-76.959zM610.659 417.489h76.959v2.721h-76.959zM610.659 424.11h76.959v2.719h-76.959zM571.717 398.28c-10.079.006-18.245 8.182-18.239 18.26a18.249 18.249 0 008.18 15.209v-3.09a4.15 4.15 0 013.649-4.1 7.24 7.24 0 0012.701 0 4.14 4.14 0 013.65 4.1v3.17c8.449-5.494 10.846-16.797 5.352-25.248a18.247 18.247 0 00-15.293-8.301zm8 22.27a1.076 1.076 0 01-.24.32.994.994 0 01-.529.18h-.379a7.24 7.24 0 11-13.231-5.619h-.08a2.414 2.414 0 01.24-3.352 4.792 4.792 0 011.5-.549 6.695 6.695 0 003.8-2.9c.025.367.025.734 0 1.1a1.611 1.611 0 012.275-.094l.015.014c.188.27.405.514.65.73.248.139.525.221.81.24l1.82.23a3.402 3.402 0 012.07.75c.314.352.551.768.689 1.219a18.108 18.108 0 011.191 3.85 6.15 6.15 0 01-.57 3.881h-.031z" opacity=".2"/><linearGradient id="a" x1="88.532" x2="88.532" y1="601.202" y2="602.202" gradientTransform="matrix(178.4723 0 0 -212.3223 -15362.588 128256.008)" gradientUnits="userSpaceOnUse"><stop offset="0" stop-color="gray" stop-opacity=".25"/><stop offset=".54" stop-color="gray" stop-opacity=".12"/><stop offset="1" stop-color="gray" stop-opacity=".1"/></linearGradient><path fill="url(#a)" d="M527.187 571.14l-21.939-31.811s-.41-7.879-1.85-9.719c-1.44-1.84-.311-5.93-.311-5.93s1.54-2.25.21-2.461c-1.33-.209-.21-5.221-.21-5.221l-.1-8s1.229-7.68.21-9.52a3 3 0 01.1-3.27s1.23-4.4 0-5.529c-1.229-1.131-.93-8-.62-13.4.311-5.4-2.149-8.49-2.149-9.311s-8.101-8.789-8.101-9.51-5.13-3.68-8.21-4.5-4.609-1.43-4.51-1.84-4.82-2-4.82-2-4.3-.311-5.95-2.451c-1.649-2.139-6.649-2.779-6.8-2.789l-.09-.43-.09-.461c.38-.65.74-1.32 1.07-2 .1-.209.189-.41.279-.619a8.787 8.787 0 005.05-1.57 6.847 6.847 0 002.45-4.91 10.833 10.833 0 00-1.189-5.449c-.9-1.84-2.22-3.75-1.771-5.75.2-.861.721-1.621 1-2.461a6.505 6.505 0 00-.739-4.85c-.771-1.48-1.851-2.791-2.721-4.23a16.437 16.437 0 01-2.16-6 9.224 9.224 0 00-.8-3.26 6.232 6.232 0 00-1.8-1.82 18.003 18.003 0 00-11-3.34c-2.79.1-5.58.85-8.35.51a30.534 30.534 0 01-4.87-1.27c-3.44-1-7.41-1.439-10.4.529-2.99 1.971-4.19 5.84-6.22 8.871-1.8 2.67-4.42 4.92-5.79 7.76v-.17a9.866 9.866 0 00-.76 2.07 14.735 14.735 0 00.45 6.779 4.716 4.716 0 001.66 3c1 .65 2.4.5 3.59.711-.05.189-.1.389-.14.58a22.959 22.959 0 00-.51 4.869 23.443 23.443 0 0016.74 22.471v.619a16.167 16.167 0 01-.101 1.76s-10.31-2.119-13.07-.68-8.21 2.551-9 3.371c-.79.818-2.87.209-4.72 5-1.85 4.789-2.05 9.719-4.4 12-2.35 2.279-3.59 3.789-3.7 5.43-.11 1.639.31 2-.61 2.549-.92.551-2.26 2.66-1.85 3.48a2.9 2.9 0 01-1.13 3.07 3.41 3.41 0 00-1.43 3.07s-.62 2.25-2.05 2.76c-1.43.51-2.36 3.891-2.36 3.891l-4.65 5.35-9.22-10.201a3.891 3.891 0 00-5.48-.279l-4.54 4.029a8.935 8.935 0 00-4.53 2.701 11.76 11.76 0 00-2.34 3.49l-2.48 2.229a6.28 6.28 0 00-.64 6.951l5.91 6.529v.061a10.33 10.33 0 00-5.71 2.32c-8.81 7.779-8.92 14.939-7.58 18.209 1.34 3.271 12.51 15.861 12.51 15.861s6.49 8.439 15.86 12.93l-.07.07a8.33 8.33 0 00-.55.639l-.15.201a1.518 1.518 0 00-.14.199l-.17.24-.13.199-.18.301-.11.189-.21.4s-.05.09-.07.131c-.02.039-.17.369-.25.559l-.09.211c0 .129-.1.27-.16.4l-.09.27c0 .129-.09.26-.13.4l-.09.289c-.04.141-.08.291-.12.451 0 .09-.05.18-.07.27s-.11.49-.16.74a2.786 2.786 0 000 .289c-.041.176-.07.352-.09.531 0 .119 0 .238-.05.369s-.05.33-.07.51 0 .25 0 .391v1.939c-.21 12 .49 13.711.49 13.711a6.64 6.64 0 005.44 4.08 7.258 7.258 0 001.76-.09c5.33-.932 17.84-3.07 22.25-2.25 2.65.488 7.56-.24 11.05-.9l.92-.18.64 2 2-.561 1.72 1 1.09.619c2 6.861 10.24 4.521 10.24 4.521l1.95 1.129 19.79.51a39.827 39.827 0 007 3.361c.326.1.661.174 1 .219 1.833.148 3.673.182 5.51.1 1.52 0 2.69-.1 2.69-.1s-.2-5.369-.49-11.391c6.134-.15 12.253-.65 18.33-1.5 10.569-1.859 15-11.469 16.6-16.6a46.954 46.954 0 011 6.371 46.613 46.613 0 001.64 5.52 18.442 18.442 0 002.261 4.1c7.79-2.66 3.069-6.65 1.43-8.391-1.64-1.738 1.13-3.17 1.13-3.17s2.16-1.439 2-2.77-.31-2.76 6.67-2.66c6.982.105 6.511-5.664 6.511-5.664zm-108.28-65.321c.09.59 1.06 6.891 1.94 8.551.251 1.104.329 2.242.23 3.369-4.13-.33-8.43-.51-8.43-.51a1 1 0 01.22.531l-.65-.15-.95-.23 7.62-11.57.02.009zm-15.079 24l7.15 1.141.6.09a25.387 25.387 0 00-.37 3.381c0 .1.16.229.39.379a10.761 10.761 0 00-.14 1.689c.12.57 3.46 1.791 7.3 2.811-.06.201-.11.4-.16.58-3.39-1.779-8.72-2.609-9.34-3.93s-18.76-7.67-18.76-7.67-.67-.35-1.81-.9l4.78.9 1.31-.131a71.41 71.41 0 009.05 1.65v.01z"/><path fill="#65617D" d="M503.847 575.591s-2.85 17.18-17.279 19.719c-14.431 2.541-62.601 2-62.601 2s-27.54-4-37.5-27.23c-9.96-23.229-16.37-32.529-7.83-32.93 8.54-.4 54.58 15.551 57.221 15.75 2.64.201 70.529-35.34 67.989 22.691z"/><path d="M503.847 575.591s-2.85 17.18-17.279 19.719c-14.431 2.541-62.601 2-62.601 2s-27.54-4-37.5-27.23c-9.96-23.229-16.37-32.529-7.83-32.93 8.54-.4 54.58 15.551 57.221 15.75 2.64.201 70.529-35.34 67.989 22.691z" opacity=".05"/><path fill="#3F3D56" d="M374.657 594.659a6.593 6.593 0 005.37 4.102 6.998 6.998 0 001.74-.102c5.28-.91 17.68-3 22.05-2.229 2.63.488 7.5-.24 11-.891 2.3-.43 4-.84 4-.84s-4.06-13.52-4.57-13.92c-.51-.4-18.33-11.121-18.33-11.121l-14.09-1a7.407 7.407 0 00-4.77 2.811c-1.49 1.801-2.77 4.75-2.85 9.59-.249 11.911.45 13.6.45 13.6z"/><path d="M374.657 594.659a6.593 6.593 0 005.37 4.102 58.024 58.024 0 01-3.82-5.58l.07-9.861a17.38 17.38 0 015.55-14.66s-7.42.51-7.62 12.4c-.2 11.89.45 13.599.45 13.599z" opacity=".05"/><path d="M435.757 573.149l13.11-10.26 20.63-20.33-5.59-.25c-.84.531-3.181 2.211-3.271 4.25-.1 2.48-5.569.17-8.42 1.59-2.85 1.42-16.77 19.24-19.189 19.131-2.421-.111-4.37-1.24-5.38.49a1.17 1.17 0 01-.08.109l8.19 5.27zM377.027 571.489l1.42.65c10 4.27 22.25 13.211 23.17 14.84.56 1 7.69 5.32 13.19 8.561 2.3-.43 4-.84 4-.84s-4.06-13.52-4.57-13.92c-.51-.4-18.32-11.121-18.32-11.121l-14.09-1a7.415 7.415 0 00-4.8 2.83z" opacity=".1"/><path fill="#65617D" d="M349.368 542.36c1.32 3.25 12.4 15.75 12.4 15.75s7 9.15 17 13.42 22.26 13.209 23.17 14.84c.59 1 8.53 5.82 14.12 9.109l1.26.73 2.77 1.609 1.47.84s3.4-2.729 6.79-5.479 6.68-5.441 6.73-5.59c.1-.311 1.42-3.762 1.109-4-.159-.102-.85-1.512-2.14-3.141a14.41 14.41 0 00-5.17-4.281 14.675 14.675 0 01-6.71-7s-.45-.318-1.12-.75a13.676 13.676 0 00-4.57-2c-2.24-.279-6.4-4.85-6.4-4.85a12.512 12.512 0 01-4-4.17c-1.07-2.23-16.83-13-18.29-14l38.24 24.49 9.15 5.871 13.11-10.262 20.63-20.33-6.811-.299c-10-.439-27.829-1.121-30.079-.609-1.831.428-3.72.549-5.59.359 0 0-5.08.23-8.43-1.541-3.35-1.77-8.65-2.6-9.26-3.91-.61-1.309-18.6-7.619-18.6-7.619s-24.49-13-33.23-5.279c-8.74 7.721-8.89 14.842-7.549 18.092z"/><path fill="#EE8E9E" d="M428.337 467.761l3.15 10.469 4.06 23.58 14.94 1 4.33-7.18 4.31-7.15s2.69-9.529 4.63-18.75c1.71-8.15 2.82-16.07 1-16.93-1.65-.76-2.729-3.51-3.439-6.459-.091-.361-.171-.73-.24-1.102a57.543 57.543 0 01-1-7.58s-31.311-1.629-26.94 11.281a20.363 20.363 0 011.181 6.859 16.267 16.267 0 01-.101 1.75 14.638 14.638 0 01-5.881 10.212z"/><path fill="#E3E8F4" d="M421.828 466.03l1.12 17.789 2.54 15.141 2.85 7 2.54 38.359s24.5 2.84 30.46 0a2.599 2.599 0 001.08-.84c7.2-10.869 4.84-42.35 4.84-42.35l2.771-20.359-1.83-10.551-4.42-.471-3.41-.359s-.771.939-1.87 2.41c-3 4-8.561 11.801-8.19 15.07.511 4.471-.609 9-2.34 9.75-1.729.75-3.149 1.939-3.45.721a5.5 5.5 0 01-.31-3.25c.31-1.73-1.32-7-1.32-7s-2.74-6.201-2.54-8.842c.2-2.639-.3-5.689-1.12-6.398-.819-.711-1.93-1.432-1-4.682.931-3.25-4-9.578-4-9.578l-12.401 8.44z"/><path d="M454.198 510.45l1 30.391 5.87 3.26c.431-.18.805-.473 1.08-.852 7.199-10.869 4.84-42.35 4.84-42.35l2.739-20.33-1.829-10.549-4.421-.471c1.71-8.15 2.83-16.061 1-16.92-1.649-.77-2.739-3.51-3.439-6.461l-3.181 21.49s.271 1.932.36 3.932a11.134 11.134 0 01-.26 3.789c-.71 1.83-.2 5.08-.2 5.08-1.83 3.23-2.75 9.209-3.189 15-.601 7.681-.37 14.991-.37 14.991z" opacity=".1"/><path fill="#3A2F2F" d="M461.127 445.659s5.12.641 6.74 2.771c1.62 2.129 5.899 2.439 5.899 2.439s4.881 1.629 4.771 2c-.11.369 1.43 1 4.479 1.83 3.051.83 8.131 3.76 8.131 4.48 0 .719 8 8.629 8 9.449s2.43 3.859 2.13 9.25c-.301 5.391-.61 12.189.609 13.311 1.22 1.119 0 5.49 0 5.49a3.002 3.002 0 00-.1 3.25c1 1.83-.21 9.449-.21 9.449l.109 7.93s-1.119 5 .2 5.18c1.32.18-.2 2.441-.2 2.441s-1.119 4.068.301 5.898 1.83 9.65 1.83 9.65l21.75 31.611s.3 5.789-6.61 5.689-6.811 1.32-6.601 2.641c.211 1.318-1.93 2.75-1.93 2.75s-2.75 1.42-1.12 3.148c1.63 1.73 6.3 5.691-1.42 8.33a18.345 18.345 0 01-2.24-4.059 47.758 47.758 0 01-1.63-5.49s-.71-7.73-2.13-8.74-1.22-5.9-1.22-5.9 2-4-.811-5.59c-2.81-1.59-44.109-24.49-44.109-24.49l-1-30.391s-.71-22.459 3.56-30c0 0-.51-3.25.2-5.08s-.1-7.729-.1-7.729l2.722-21.518z"/><path d="M434.488 457.88s-10.22-2.109-13-.689c-2.78 1.42-8.13 2.539-8.94 3.359s-2.85.199-4.68 5c-1.83 4.801-2 9.65-4.37 11.891s-3.56 3.76-3.66 5.379c-.1 1.621.31 2-.61 2.541-.92.539-2.23 2.65-1.83 3.459.4.811 21.14 18.701 21.14 18.701s1 6.809 1.93 8.539c.93 1.73-1 25.51-3.05 27.131-2.05 1.619 13.76 1.469 13.76 1.469s.72-15.6 1.33-16.42-.41-17.479-.41-17.479-.1-14.23 1.221-18c1.319-3.771 1.17-16.262 1.17-16.262s1.17-7.5 2.59-9.25-2.591-9.369-2.591-9.369z" opacity=".1"/><path fill="#3A2F2F" d="M434.187 457.569s-10.22-2.1-13-.68c-2.78 1.42-8.13 2.541-8.94 3.35-.81.811-2.85.211-4.67 5-1.82 4.791-2 9.66-4.37 11.891s-3.56 3.76-3.66 5.391c-.1 1.629.3 2-.61 2.539-.91.541-2.24 2.641-1.83 3.461s21.14 18.699 21.14 18.699 1 6.811 1.93 8.529c.93 1.721-1 25.512-3.05 27.141-2.05 1.631 13.72 1.471 13.72 1.471s.71-15.6 1.32-16.41-.41-17.48-.41-17.48-.1-14.23 1.22-18c1.32-3.77 1.181-16.26 1.181-16.26s1.16-7.5 2.58-9.25-2.551-9.392-2.551-9.392z"/><path d="M433.107 448.96a20.371 20.371 0 011.181 6.859c10.281 3.063 21.324-1.299 26.74-10.559a57.42 57.42 0 01-1-7.58c0 .001-31.29-1.63-26.921 11.28z" opacity=".1"/><path fill="#EE8E9E" d="M417.667 432.899c.026 12.824 10.443 23.199 23.267 23.174 12.824-.027 23.199-10.443 23.173-23.268-.025-12.824-10.442-23.199-23.267-23.172-10.959.021-20.411 7.703-22.673 18.426a23.37 23.37 0 00-.5 4.84z"/><path fill="#3F3D56" d="M402.728 486.771l-5.59 1.729a2.878 2.878 0 01-1.12 3 3.394 3.394 0 00-1.42 3s-.61 2.24-2 2.75c-1.39.512-2.33 3.861-2.33 3.861l-4.68 5.389s-1.73 1.42-1.42 2.131-1.83.91-1.83.91l1.12 18.1 9.65 1.82 6-.609 4.88-1.82 4.27-2.551 1.93-5 8.53-13-15.99-19.71z"/><path fill="#EE8E9E" d="M383.717 511.06s-12.4-17.891-21.65-8.23 3.76 25.301 6.81 24.791 17.59-1.32 17.59-1.32l-2.75-15.241z"/><path d="M418.167 428.06a2.826 2.826 0 011.71.77c.78.83.82 2.301 1.85 2.82a2.16 2.16 0 001.21.141c2.7-.391 4.26-3.439 6.86-4.279a6.995 6.995 0 014.55.389c.58.195 1.098.541 1.5 1 .87 1.131.26 2.781.66 4.141.561 1.891 2.811 2.641 4.771 2.881 1.96.238 4.149.389 5.449 1.859a4.995 4.995 0 011 3.93c-.114.48-.114.98 0 1.459.54 1.521 3.181 1.301 3.87.092.5-.871.351-1.602 1.53-1.842a5.003 5.003 0 012.49.432 18.124 18.124 0 006.439 1c5.471-11.637.474-25.504-11.162-30.975-11.635-5.469-25.502-.473-30.973 11.162a23.329 23.329 0 00-1.705 5.072l-.049-.052z" opacity=".1"/><path fill="#3F3D56" d="M447.677 442.53a3.163 3.163 0 010-1.461 4.996 4.996 0 00-1-3.93c-1.3-1.471-3.5-1.609-5.45-1.859-1.949-.25-4.21-1-4.77-2.881-.4-1.359.21-3-.66-4.139a3.333 3.333 0 00-1.5-1 6.997 6.997 0 00-4.55-.4c-2.6.84-4.16 3.889-6.86 4.279-.408.07-.828.021-1.21-.141-1-.52-1.07-2-1.85-2.818-1.24-1.311-3.58-.471-5.09-1.441a4.628 4.628 0 01-1.64-3 14.569 14.569 0 01-.45-6.74c.88-3.779 4.26-6.369 6.42-9.6 2-3 3.14-6.809 6.16-8.809s6.9-1.541 10.31-.531c1.57.563 3.187.988 4.83 1.27 2.739.34 5.5-.41 8.27-.5a17.723 17.723 0 0110.92 3.32 5.994 5.994 0 011.78 1.801 9.06 9.06 0 01.8 3.24c.323 2.1 1.05 4.117 2.141 5.939.859 1.43 1.93 2.73 2.699 4.209a6.433 6.433 0 01.73 4.811c-.26.84-.771 1.59-1 2.451-.45 2 .86 3.879 1.75 5.709a10.791 10.791 0 011.19 5.42 6.847 6.847 0 01-2.44 4.871 8.72 8.72 0 01-5.15 1.559 18.294 18.294 0 01-6.569-1 5.011 5.011 0 00-2.48-.43c-1.189.24-1 1-1.54 1.84-.611 1.26-3.251 1.481-3.791-.039z"/><path d="M435.147 573.761l13.11-10.262 20.63-20.33-6.81-.299a4.435 4.435 0 00-1.44 2.77c-.1 2.49-5.569.18-8.42 1.6-2.85 1.42-16.77 19.24-19.189 19.121-2.421-.121-4.37-1.23-5.38.49l-.08.119a2.878 2.878 0 01-1.55.92l9.129 5.871z" opacity=".1"/><path fill="#65617D" d="M408.717 573.05l6.59 21 1 3.301 3.14-.861 6.92-1.898 30.8-8.461a26.713 26.713 0 0011.09-3 33.53 33.53 0 0119.141-4.18c4.069.379 8.6-1.371 12.359-8.32 0 0 8.53-25.199-13-32.41-21.53-7.209-22.58 3.83-22.58 3.83l-.29.18c-.84.531-3.18 2.211-3.27 4.25-.101 2.48-5.57.17-8.42 1.59-2.851 1.42-16.75 19.32-19.17 19.211-2.421-.111-4.37-1.24-5.38.49a1.17 1.17 0 01-.08.109c-.75 1-3 1.279-4.51 1.32h-1.41l-.19.061-1.56.459-11.18 3.329z"/><path d="M410.427 532.2l3.17.51 1.32-13.109s-1.45-.221-3.27-.641c.48 1.82-.62 8.9-1.22 13.24z" opacity=".1"/><path d="M493.528 470.94s9.449-2.74 7.12 24.09c-2.33 26.83-19.82 43.799-19.82 43.799s-20.13 8.842-29.17 7.42c-9.04-1.42-15.63-1.729-15.63-1.729a23.123 23.123 0 00-9.15-2.441c-5.08-.199-15.75-3.35-16-4.369s2.65-15.949 1.43-17.07c0 0 14.23.58 15.65 1.609 1.42 1.031 3.45.291 5 0 1.55-.289 6.2-4.35 15.45-.799 0 0 3.149.311 4.37-.51a4.377 4.377 0 013.18-.201 8.826 8.826 0 002.2-1.119c.31-.4 2.75 0 2.75 0a1.08 1.08 0 001.519-.711 6.664 6.664 0 011.42-2.229s2.75-15.451 7.931-21.24a3.32 3.32 0 001.12-2.951c-.41-1.629 8.43-24.83 20.63-21.549zM419.877 569.71l13.42 16.25.09-.1c.101-.301 1.42-3.76 1.11-4-.311-.24-2.641-5.291-7.32-7.42a13.94 13.94 0 01-5.74-5.23l-1.56.5z" opacity=".1"/><path d="M420.027 597.819l1.47.84s3.4-2.729 6.79-5.479 6.68-5.441 6.729-5.59c.101-.311 1.42-3.762 1.11-4-.16-.102-.85-1.512-2.14-3.141-9.101-2.551-3.301 3.77-2.53 4.061 0 0-11.08-2.541-11.69 9.52-.079 1.27.008 2.543.261 3.789z" opacity=".1"/><path fill="#3F3D56" d="M431.278 602.931l1.939 1.119 19.61.51a39.592 39.592 0 006.939 3.34c.327.1.662.174 1 .221 1.82.143 3.646.176 5.471.1 1.5 0 2.66-.1 2.66-.1s-.931-24.74-1.631-27.34c-.33-1.25-2-1-3.6-.35a23.125 23.125 0 00-3.51 1.779s-8.33.801-9.66 1.52c-1.33.721-5.08-.41-7.42 0s-6.5-2.75-6.5-2.75c-11.38-3.76-5 3.25-4.17 3.561 0 0-11.07-2.541-11.68 9.52s10.552 8.87 10.552 8.87z"/><path fill="#565387" d="M459.637 593.38c.21 5.119 4.2 11.48 6.59 14.84 1.5 0 2.66-.1 2.66-.1s-.93-24.74-1.63-27.34c-.33-1.25-2-1-3.6-.35-1.97 3.69-4.19 8.819-4.02 12.95z"/><path d="M459.637 593.38c.21 5.119 4.2 11.48 6.59 14.84 1.5 0 2.66-.1 2.66-.1s-.93-24.74-1.63-27.34c-.33-1.25-2-1-3.6-.35-1.97 3.69-4.19 8.819-4.02 12.95z" opacity=".1"/><path d="M456.288 594.06c1.35 4.939 1.33 10.49 3.479 13.84.327.1.662.174 1 .221 1.82.143 3.646.176 5.471.1 1.5 0 2.66-.1 2.66-.1s-.931-24.74-1.631-27.34c-.33-1.25-2-1-3.6-.35a23.125 23.125 0 00-3.51 1.779c.001 0-5.6 5.519-3.869 11.85z" opacity=".05"/><path d="M388.618 543.919s9.74 3.16 18 14.391l-18-14.391z" opacity=".1"/><g opacity=".1"><path d="M467.788 421.96l-.061.221a6.815 6.815 0 01-.34.85c.1-.37.234-.727.401-1.071zM412.667 417.03a9.169 9.169 0 01.75-2c-.05.17-.1.35-.14.529a14.581 14.581 0 00.45 6.74 4.629 4.629 0 001.64 3c1.51 1 3.85.131 5.08 1.43.79.83.83 2.311 1.85 2.82a2 2 0 001.22.141c2.7-.381 4.26-3.43 6.86-4.271a6.864 6.864 0 014.54.391 3.358 3.358 0 011.51 1c.87 1.121.26 2.781.66 4.141.561 1.879 2.811 2.629 4.76 2.879 1.95.25 4.15.381 5.46 1.861a4.92 4.92 0 011 3.93 3.251 3.251 0 000 1.449c.54 1.531 3.181 1.301 3.87.1.5-.879.351-1.6 1.53-1.85a5.12 5.12 0 012.49.43c2.11.732 4.337 1.07 6.569 1a8.857 8.857 0 005.15-1.559 6.168 6.168 0 001.58-1.93 6.5 6.5 0 01-2.19 3.449 8.719 8.719 0 01-5.149 1.561 18.34 18.34 0 01-6.57-1 4.992 4.992 0 00-2.49-.43c-1.18.238-1 1-1.529 1.84-.69 1.209-3.33 1.43-3.87-.09-.11-.48-.11-.98 0-1.461a4.92 4.92 0 00-1-3.93c-1.311-1.471-3.5-1.609-5.46-1.859s-4.2-1-4.761-2.881c-.399-1.359.21-3-.659-4.141a3.366 3.366 0 00-1.5-1 6.986 6.986 0 00-4.551-.398c-2.6.84-4.16 3.889-6.859 4.279-.412.07-.835.021-1.22-.141-1-.52-1.06-2-1.85-2.82-1.23-1.309-3.57-.469-5.08-1.439a4.633 4.633 0 01-1.64-3 14.578 14.578 0 01-.451-6.77z"/></g><path d="M469.357 498.38c-1.859 2.51-4 4.84-5.63 7.5a14.236 14.236 0 00-2.47 8.869c1.7-1.75 2.48-4.17 3.561-6.359 1.819-3.721 4.539-6.869 6.829-10.279.44-.65 3.25-4.42 1.83-4.6-1.17-.151-3.449 4.01-4.12 4.869z" opacity=".1"/><path fill="#C1D5FF" d="M417.907 457.341l20.371 38.52c.609 1.139-1.051 3.209-3.7 4.619l-101.67 53.77c-2.65 1.4-5.3 1.611-5.9.461l-20.37-38.51c-.61-1.15.92-3.461 3.57-4.859l101.67-53.771c2.66-1.412 5.43-1.381 6.029-.23z"/><path fill="#3C74F3" d="M415.428 475.743l-52.96 28.008-.987-1.866 52.96-28.008z"/><path fill="#3C74F3" d="M417.84 480.308l-52.96 28.008-.986-1.866 52.96-28.008zM420.248 484.853l-52.96 28.007-.987-1.865 52.96-28.008zM422.66 489.417l-52.96 28.007-.987-1.865 52.96-28.008zM332.558 511.88c-6.935 3.662-9.587 12.254-5.925 19.188a14.199 14.199 0 0011.185 7.502l-1.12-2.119a3.23 3.23 0 011-4.16 5.63 5.63 0 008.74-4.621 3.24 3.24 0 014 1.5l1.15 2.182c3.825-6.848 1.375-15.498-5.472-19.322a14.196 14.196 0 00-13.578-.148h.02zm13.63 12.41a.759.759 0 01-.05.299.825.825 0 01-.3.32l-.25.141a5.64 5.64 0 11-11.16 1h-.07a1.89 1.89 0 01-1.05-2.4 3.62 3.62 0 01.83-.92 5.208 5.208 0 001.56-3.379c.142.246.265.504.37.77a1.262 1.262 0 011.54-.891c.231.111.472.203.72.27a1.65 1.65 0 00.65-.129l1.33-.51a2.002 2.002 0 012.62.359 14.414 14.414 0 012.22 2.211 4.79 4.79 0 011.04 2.859z" opacity=".2"/><path fill="#EE8E9E" d="M375.688 514.819c-.1 13.41 27.65 16.26 27.65 16.26l7.09 1.121 3.17.51 1.32-13.109s-1.45-.221-3.27-.641c-2.68-.631-6.16-1.711-6.89-3.23-1.22-2.54-28.97-14.331-29.07-.911z"/><path fill="#3A2F2F" d="M493.278 468.88s9.449-2.74 7.12 24.09c-2.33 26.83-19.82 43.801-19.82 43.801s-20.13 8.84-29.17 7.42-15.65-1.73-15.65-1.73a23.111 23.111 0 00-9.15-2.439c-5.08-.201-15.75-3.352-16-4.371s2.65-16 1.43-17.07c0 0 14.23.58 15.65 1.611 1.419 1.029 3.45.289 5 0 1.551-.291 6.2-4.361 15.45-.801 0 0 3.15.311 4.37-.51a4.377 4.377 0 013.18-.199 8.749 8.749 0 002.2-1.121c.311-.4 2.75 0 2.75 0a1.068 1.068 0 001.521-.709 6.716 6.716 0 011.42-2.24s2.75-15.441 7.93-21.24a3.29 3.29 0 001.12-2.939c-.391-1.633 8.458-24.774 20.649-21.553z"/><path fill="#FFF" d="M885.788 137v56c0 1.67-3.119 3-7 3h-147.76c-3.859 0-7-1.35-7-3v-56c0-1.67 3.121-3.37 7-3.37h147.779c3.861.03 6.981 1.7 6.981 3.37z"/><path fill="#3C74F3" d="M883.932 138.099v56c0 1.66-3.129 3-7 3h-147.73c-3.859 0-7-1.36-7-3v-56c0-1.67 3.121-3.37 7-3.37h147.75c3.851 0 6.98 1.7 6.98 3.37z" opacity=".1"/><path fill="#C1D5FF" d="M885.859 131.712v56c0 1.67-3.121 3-7 3h-147.76c-3.861 0-7-1.35-7-3v-56c0-1.67 3.119-3.37 7-3.37h147.779c3.86.03 6.981 1.7 6.981 3.37z"/><path fill="#3C74F3" d="M795.337 145.65h76.961v2.72h-76.961z"/><path fill="#3C74F3" d="M795.337 152.271h76.961v2.72h-76.961zM795.337 158.89h76.961v2.72h-76.961zM795.337 165.51h76.961v2.72h-76.961zM757.427 142.11c-10.078-.019-18.266 8.136-18.285 18.215a18.25 18.25 0 008.195 15.265v-3.09a4.16 4.16 0 013.65-4.11 7.24 7.24 0 0012.699 0 4.159 4.159 0 013.65 4.11v3.17c8.455-5.486 10.863-16.788 5.377-25.243a18.246 18.246 0 00-15.286-8.317zm8 16.693a.79.79 0 01-.77.49c-.123.01-.246.01-.371 0a7.238 7.238 0 01-9.002 4.877 7.242 7.242 0 01-5.178-6.938 7.157 7.157 0 01.941-3.56l-.08-.05c-.834-1-.729-2.48.24-3.35.465-.264.973-.45 1.5-.55a6.647 6.647 0 003.799-2.9c.029.366.029.734 0 1.1a1.61 1.61 0 012.275-.094l.016.014c.229.23.379.55.658.73.248.143.525.221.811.23l1.811.24a2.56 2.56 0 012.76 2 17.465 17.465 0 011.189 3.85 6.071 6.071 0 01-.58 3.92l-.019-.009z" opacity=".2"/><linearGradient id="b" x1="-962.26" x2="-962.26" y1="-109.126" y2="332.993" gradientTransform="matrix(224.0093 -16.7817 -8.6056 -436.8408 222082.234 274009.219)" gradientUnits="userSpaceOnUse"><stop offset="0" stop-color="gray" stop-opacity=".25"/><stop offset=".54" stop-color="gray" stop-opacity=".12"/><stop offset="1" stop-color="gray" stop-opacity=".1"/></linearGradient><path fill="url(#b)" d="M930.544 588.786c-1.381-5-2.279-9.379-2.279-9.379s.059-5.49-2.561-9.51l-.051-1.371-.4-10.16a34.285 34.285 0 012.361-5.398c1.699-3.25-.57-14.852-.57-14.852s-7.4-16.189-6.15-26.68-15.67-45.789-15.67-45.789a45.974 45.974 0 011.07-10.281 8.144 8.144 0 00.109-2.16 1.88 1.88 0 000-.26v.08c-.5-6.869-6.43-19.549-6.43-19.549l-.221-24.611s2.92-14.629-3.5-33.859c-2.238-6.709-3.709-12.1-4.67-16.26-.109-.471-.219-.92-.309-1.359 11.59-2.221 20.43-4 20.43-4s-7.84-28-12.6-32.801c-4.76-4.801-9-20.19-9-20.19s-3.141-19.89.469-25.87c3.611-5.98 3.75-16.16 3.75-16.16s8.521-6.71 9.51-9.58c.99-2.87 2.57-9.31 2.441-12.66-.131-3.35-1.34-6.33-1-8.11.34-1.78-2.891-8.39-1.551-11.63.344-.993.504-2.04.471-3.09v-.13a43.143 43.143 0 00-1.09-8.26 23.566 23.566 0 00-8.861-4.31l-.219-.75-.57-2c-.301-.18-.59-.34-.881-.48v-.72l-.189-2.87 1.119-6.51c2.271-11.33-12.779-12.43-12.779-12.43a7.812 7.812 0 00-4.381-3.55c-3.059-1 .141 16.91 1.602 18 1.09.82 4.58 6.32 6.26 9l.279.44a6.72 6.72 0 00-.66.75l.721 3.87.109.6a15.675 15.675 0 00-2.23 4.16s2.852 2.9 2.432 6.28c-.42 3.38 1.129 7.52 1.209 7.74-.17-.18-2.18-2.19-4.08-1.6s-7.23 2.4-7.23 2.4-4 .86-3.59 1.73-2.549 4.88-2.549 4.88l-11.201-9.82c-.119-.3-.24-.6-.35-.91a25.632 25.632 0 01-1.109-4.45 24.413 24.413 0 003.41-1.23 7.471 7.471 0 002.92-2c1-1.33 1.18-3.1 1.559-4.72.73-3.18 2.461-6.05 3.66-9.09a29.054 29.054 0 001.471-16.06 10.644 10.644 0 00-1.84-4.63c-1.859-2.36-5.09-3.23-7.49-5.07-2.4-1.84-4-4.74-6.779-6.09-2.5-1.22-5.48-1-8.221-.39a43.904 43.904 0 00-15.1 6.15c-1.529 1-3.221 2.14-5 1.88-1.561-.22-2.74-1.42-3.791-2.57a.939.939 0 010-.15l-.129-.13a19.075 19.075 0 00-1.359 8.14c0 .43 0 .86.1 1.29v.45c.01.126.01.254 0 .38.004.195-.016.39-.061.58a4.166 4.166 0 01-1 1.49 8.884 8.884 0 00-.84 1.24c0-.15.08-.3.131-.45a6.316 6.316 0 00-1 3.45 3.402 3.402 0 00.898 2.41c.563.508 1.172.959 1.82 1.35a19.435 19.435 0 00-.189 3.6 20.908 20.908 0 0010.859 17.43c.141.3.27.6.41.91 1.52 3.58 2.721 7.77 2.41 11.7 0 .29-.061.58-.1.86-.041.28-.26.31-.371.47 0 0-17.83.86-22.17-2.78s-10.24 9.69-10.24 9.69-6.34 1.49-7.67.3c-1.328-1.19-8.779.16-8.779.16a16.076 16.076 0 00-11.289-3.64 33.085 33.085 0 00-8.361-4.23l-.209-.06a9.172 9.172 0 00-4-.36s-9.051-6.91-11.76-10.7c-2.711-3.79-15.441-17.75-15.5-17.82l-.07-.69-.221-2.1c-.359.073-.723.12-1.09.14l-.27-.72a38.295 38.295 0 00-2.82-5.84s-.1-2.66.65-3.35-.721-10.38-.721-10.38-8.609-18.17-15.16-4.1c0 0-13 9.44-1.41 19.39 0 0 4.57 2 5.271 3.7.459 1.1 2.1 4.16 3.199 6.19.18.34.35.64.49.91l-.121.11.23 1.73.09.67c-2.059 1.28-3.449 2.53-3.07 3.42a19.279 19.279 0 011.461 4.72s16.279 18.85 18.609 27.09c0 0 42.6 23.15 56.371 24.39l-1.801 12.44a98.355 98.355 0 00-.16 10.1c.281 2.65-1.08 14.74-1.08 14.74s-1.699 17.77-3.609 20.33-1.15 13.141-1.15 13.141a89.182 89.182 0 01-2.16 15.139c-1.75 6.791 0 15.051 0 15.051s-6.33 16.18 9.881 4.75c0 0 8.139-.82 17.52-1.5v.939c0 1.211.061 2.521.1 3.9.221 9.121.65 21.68 1.43 31.17 1.391 16.77 7.781 49.77 7.781 49.77l.639 16.701a22.998 22.998 0 00-.289 4.789 31.006 31.006 0 005.1 16.59l1.711 11.08s3.279 7.23 3.51 11.611c.002.357-.029.717-.09 1.068a7.267 7.267 0 00-.08 1.711c0 5.061 3.539 17.051 3.539 17.051s.65 12.189 2.5 12.83c1.59.539-1.811 7.109-2.83 9a4.002 4.002 0 01-.08-.352c-.129.25-.209.381-.209.381a8.71 8.71 0 00-.451 3.109 4.423 4.423 0 002.191 4.211c3.549 2 5.479 3.68 2.568 4.5-1.08.213-2.148.482-3.199.809 0-.139-.119-.279-.17-.408a1.998 1.998 0 00-1.119 2.18 9.202 9.202 0 001.25 4.1c3.18 6.43 5.299 8.83 5.299 8.83l1.391-.211a7.347 7.347 0 01-.75 1.541 5.961 5.961 0 01-2 1.91 6.322 6.322 0 01-2.461 1 7.001 7.001 0 00-5.08 2.719c-1.729 2.42-2.75 5.682 1 8.361l13.24 4s22.58 2.059 21.189-2.941c-1.389-5-2.279-9.379-2.279-9.379a19.98 19.98 0 00-2.17-8.871c-.25-.449-.529-.879-.84-1.289l.789-.121s1.211-11.199 3.32-13.408c.49-.5.59-.881.461-1.17.199-.621-.381-1-1.131-1.121 0 .141-.09.291-.139.439a11.255 11.255 0 00-2.191-.16s-1-5.799 1.34-8c.369-.502.51-1.137.391-1.75a9.46 9.46 0 00-.34-2.359.618.618 0 00-.07.141c-1.41-5.25-5.779-13.51-5.779-13.51s-.381-5.301 1-7.471c1.379-2.17-1.301-28.82-1.301-28.82s.061-12.93-1.82-18.869c-1.879-5.939 1.51-13.16 1.51-13.16s0-.141-.059-.391v-.09s-.111-.789-.291-2a.717.717 0 010 .131c-.49-3.4-1.43-9.561-2-12.41-.889-4-.719-23.52-.719-23.52l3-8.441 6.398 14.1 6.951 18.861s3.23 3.91 3.459 8v.6c-.023.426-.023.854 0 1.279a11.393 11.393 0 002.15 6.721s2 9 4.641 11.16 2.82 6.619 2.82 6.619 3.609 13 5.16 15.211c1.299 1.891 1.568 7.209 1.619 8.84v.48s.619 4.66.75 8.59V523.697a14.232 14.232 0 01-.26 3.191V526.417a33.61 33.61 0 00-.621 8.18c.102 4.711 1 10.25 4 13.41 5.15 5.471 8.23 4.641 8.23 4.641s-2.1 7.16-5 8.689a2.031 2.031 0 00-.309.211c0-.131-.061-.271-.08-.4a3.425 3.425 0 00-.762 2.66c-.09 3.119 2.07 8.1 4 10.35a5.84 5.84 0 002.521 1.34 5.223 5.223 0 01-.441.311 9.588 9.588 0 01-1 .51 4.872 4.872 0 01-1.479.439 7.05 7.05 0 00-5.08 2.721c-1.721 2.42-2.75 5.67 1 8.359l13.24 4c.002-.001 22.541 1.948 21.111-3.052z"/><path fill="#2D293D" d="M844.95 599.042l-12.82-4c-3.59-2.689-2.6-5.949-.93-8.369a6.75 6.75 0 014.91-2.711 5.994 5.994 0 002.379-1 5.623 5.623 0 001.932-1.91 9.375 9.375 0 001.26-4.939s13.719-4.6 17.68-.68a10.67 10.67 0 011.779 2.4 20.66 20.66 0 012.111 8.879s.879 4.381 2.219 9.381-20.52 2.949-20.52 2.949zM906.59 590.433l-12.811-4c-3.6-2.68-2.609-5.939-.939-8.35a6.676 6.676 0 014.91-2.711 4.992 4.992 0 001.43-.449 8.548 8.548 0 001-.51c3.469-2.08 3.189-6.852 3.189-6.852s13.73-4.6 17.68-.68a9.786 9.786 0 011.4 1.75c2.539 4 2.49 9.521 2.49 9.521s.879 4.398 2.219 9.389-20.568 2.892-20.568 2.892z"/><path d="M861.508 583.159a10.692 10.692 0 011.779 2.4l-20.719 3.211a9.363 9.363 0 001.26-4.941c.001 0 13.719-4.59 17.68-.67z" opacity=".1"/><path fill="#3A2F2F" d="M916.919 575.44l.15 3.899c-3 5.46-18.719 4.891-23.369 2.391a8.257 8.257 0 001-.511c3.469-2.08 3.189-6.85 3.189-6.85s13.73-4.6 17.68-.68c.516.532.97 1.119 1.35 1.751z" opacity=".1"/><path fill="#65617D" d="M924.229 551.731a34.505 34.505 0 00-2.27 5.4l.529 14c-3.309 6-21.77 4.74-24.369 1.65s-5.57-11.289-2.791-12.82c2.781-1.529 4.801-8.68 4.801-8.68s-3 .82-8-4.65c-5-5.469-4.061-18.08-3.289-21.119.77-3.041-.512-13.09-.512-13.09s-.09-7.08-1.59-9.32-5-15.211-5-15.211-.17-4.42-2.729-6.629c-2.561-2.211-4.5-11.16-4.5-11.16a11.6 11.6 0 01-2.061-7.529c.359-4.441-3.359-9.08-3.359-9.08l-6.75-18.861-6.211-14.109-2.85 8.449s-.141 19.48.73 23.521c.869 4.039 2.34 14.779 2.34 14.779s-3.271 7.209-1.441 13.16c1.83 5.949 1.791 18.879 1.791 18.879s2.609 26.631 1.279 28.811-1 7.471-1 7.471 7.85 15.279 5.631 17.49c-2.221 2.209-1.291 8-1.291 8s5-.191 2.92 2c-2.08 2.189-3.209 13.41-3.209 13.41l-21.279 3.299s-2.061-2.4-5.141-8.84.311-5.85 3.129-6.67c2.82-.82 1-2.51-2.488-4.51-3.49-2-1.682-6.84-1.682-6.84s4.791-8.859 3-9.5c-1.789-.641-2.439-12.83-2.439-12.83s-4.09-14.359-3.359-18.291c.73-3.93-3.34-13.148-3.34-13.148l-1.66-11.09a30.643 30.643 0 01-4.701-20.891l-.619-17.211s-6.23-33-7.58-49.818c-.869-10.74-1.311-25.422-1.51-34.592-.109-5.139-.15-8.549-.15-8.549l76.07-10.891c.266 3.811.875 7.59 1.82 11.291.939 4.16 2.369 9.549 4.549 16.26 6.23 19.24 3.43 33.869 3.43 33.869l.24 24.6s7.352 16.182 6.15 21.9a47.62 47.62 0 00-1 10.311s16.41 35.311 15.221 45.801c-1.191 10.488 6 26.689 6 26.689s2.19 11.639.54 14.889z"/><path d="M879.159 468.979l23.129-4s-12.651 13.961-23.129 4z" opacity=".05"/><path d="M898.028 442.399s1.109 8.191-3.811 11.48c.032.001 9-1.759 3.811-11.48zM895.627 416.29s-18.82 16.75-26 15.699c-7.179-1.049 26-15.699 26-15.699zM850.627 477.659s-14.629 3.92-14.84 9.861c-.208 5.94 14.84-9.861 14.84-9.861z" opacity=".1"/><path d="M856.717 551.21s-20.689 4.689-14.689 7.109 15.83 4.18 15.83 4.18 6.73.092-1.141-11.289z" opacity=".05"/><g fill="#3A2F2F" opacity=".05"><path d="M838.028 562.659a4.147 4.147 0 01-2-2.949c-.119.24-.199.381-.199.381s-1.76 4.84 1.68 6.84c.4.229.77.449 1.119.67.621-.141 1.281-.25 1.92-.441 2.74-.77.87-2.501-2.52-4.501zM864.797 560.249c.551-.549.48-1.908.061-3.639a9.819 9.819 0 00-1 5.16 4.11 4.11 0 01.939-1.521zM858.198 472.409a24.04 24.04 0 00-1.16 6.561 25.443 25.443 0 011.451-4.529l-.291-2.032zM905.608 461.29c.121-.639.16-1.291.119-1.939a50.081 50.081 0 00-.439 3.639c.099-.55.201-1.12.32-1.7zM860.118 535.28c.355-1.281.48-2.615.371-3.939a13.29 13.29 0 00-.82 5 4.79 4.79 0 01.449-1.061zM865.778 568.46a69.58 69.58 0 00-2 11l-21.279 3.301s-2.051-2.4-5.131-8.83c-.27-.57-.49-1.08-.67-1.541-1.26.641-1.709 2 .121 5.811 3.08 6.43 5.139 8.83 5.139 8.83l21.281-3.301s1.16-11.199 3.199-13.4c.99-1.13.301-1.671-.66-1.87zM836.307 537.79s.65 12.199 2.441 12.84c.82-2.051 1.34-4 .539-4.27-1.799-.641-2.439-12.84-2.439-12.84s-4.1-14.361-3.359-18.281c.738-3.92-3.34-13.15-3.34-13.15l-1.672-11.09a30.644 30.644 0 01-4.699-20.889l-.66-17.15s-6.23-33-7.58-49.82c-.869-10.74-1.311-25.43-1.51-34.59 0-1.66-.061-3.131-.09-4.369l-.609.09s0 3.398.16 8.549c.199 9.16.639 23.85 1.5 34.59 1.359 16.771 7.59 49.82 7.59 49.82l.66 17.15a30.639 30.639 0 004.699 20.891l1.66 11.09s4.08 9.219 3.34 13.15c-.74 3.929 3.369 18.279 3.369 18.279zM900.797 575.659a20.646 20.646 0 01-3.699-8.26c-2.109 2 .689 9.6 3.16 12.531 2.6 3.09 21.061 4.33 24.369-1.641l-.129-3.371c-4.589 4.942-21.24 3.683-23.701.741zM926.909 554.659a34.225 34.225 0 00-2.271 5.4l.09 2.48c.371-.92.9-2.15 1.641-3.609a10.72 10.72 0 00.6-4.41l-.06.139zM901.227 558.45a33.092 33.092 0 001.58-4.27s-3 .818-8-4.65c-3.629-4-4.129-11.75-3.83-16.85-.77 3-1.699 15.648 3.291 21.119 3.289 3.581 5.69 4.462 6.959 4.651zM890.499 519.601c.443 3.469.697 6.961.76 10.459.064-.555.164-1.107.299-1.65.771-3-.51-13.08-.51-13.08s-.1-7.08-1.6-9.33-5-15.209-5-15.209-.17-4.42-2.74-6.621c-2.57-2.199-4.5-11.158-4.5-11.158a11.643 11.643 0 01-2.059-7.541c.359-4.439-3.361-9.07-3.361-9.07l-6.76-18.869-6.209-14.1-2.861 8.43v2.689l2.33-6.85 6.211 14.1 6.74 18.859s3.719 4.631 3.359 9.07a11.571 11.571 0 002.061 7.541s1.93 9 4.5 11.16c2.568 2.16 2.729 6.619 2.729 6.619s3.512 13 5 15.211c1.489 2.209 1.611 9.34 1.611 9.34z"/></g><path fill="#FFCDD3" d="M892.829 193.73l-1.08 6.51.189 2.87.141 2.12-7.352 1-.889-1.5c-1.631-2.71-5-8.22-6.08-9-1.4-1.09-4.531-18.95-1.57-18a7.751 7.751 0 014.26 3.56s14.58 1.12 12.381 12.44z"/><path d="M892.079 205.23l-7.352 1-.889-1.5a6.52 6.52 0 018.1-1.66l.141 2.16z" opacity=".1"/><path fill="#DCE6F2" d="M894.028 208.66l-9.641 2.63-.26-1.44-.699-3.88s3.65-5.28 9.369-1.64l.561 2 .67 2.33z"/><path fill="#FFCDD3" d="M735.938 200.48l-10.17 6s-.43-.8-1-1.92c-1.07-2-2.66-5.1-3.109-6.2-.682-1.69-5.102-3.7-5.102-3.7-11.27-10 1.342-19.39 1.342-19.39 6.318-14.06 14.67 4.12 14.67 4.12s1.439 9.69.709 10.38-.619 3.34-.619 3.34a39.517 39.517 0 012.729 5.85c.361.92.55 1.52.55 1.52z"/><path d="M735.938 200.48l-10.17 6s-.43-.8-1-1.92c1.41-1.28 6.449-5.7 8.16-5.57.818.077 1.641.077 2.459 0 .362.89.551 1.49.551 1.49z" opacity=".1"/><path fill="#DCE6F2" d="M737.118 203.58l-11.449 6.2-.33-2.5-.23-1.73s6.541-6.05 8.551-5.91c1 .1 2.01.059 3-.12l.219 2.09.239 1.97z"/><path fill="#FFCDD3" d="M866.188 237.66s-50.66 7.7-41.27 4.25c6.539-2.42 9-6.73 9.379-11.41.291-3.93-.869-8.12-2.35-11.71a51.086 51.086 0 00-4.9-9s38.07-22.89 31-3.14a30.962 30.962 0 00-1.85 9.3 26.075 26.075 0 001.359 9.29 27.817 27.817 0 008.632 12.42z"/><path d="M858.088 206.66a30.907 30.907 0 00-1.85 9.3c-3.541 3.22-7.57 3.17-12.73 3.37-4 .15-8.32 1.28-11.561-.51a51.086 51.086 0 00-4.9-9s38.071-22.9 31.041-3.16z" opacity=".1"/><circle cx="842.069" cy="199.67" r="21.06" fill="#FFCDD3"/><path d="M866.188 237.66s-50.66 7.7-41.27 4.25c6.539-2.42 9-6.73 9.379-11.41 2.43-2.85 7.441-5 10.67-6.2a15.195 15.195 0 019.211-.5 12.86 12.86 0 013.42 1.42 27.794 27.794 0 008.59 12.44zM894.028 208.66l-9.641 2.63-.26-1.44a8.619 8.619 0 019.23-3.56l.671 2.37zM737.118 203.58l-11.449 6.2-.33-2.5a84.645 84.645 0 0111.58-5.62l.199 1.92zM891.249 365.14c-19.58 3.871-47.471 9-52 7.811-3.74-1-15.521-.41-25.771.34a970.318 970.318 0 01-.148-8.551l76.068-10.889c.276 3.81.895 7.589 1.851 11.289z" opacity=".1"/><path fill="#3A2F2F" d="M908.579 352.073s-64.459 13.629-71.51 11.779c-7.049-1.85-42.709 1.82-42.709 1.82-15.67 11.4-9.57-4.77-9.57-4.77s-1.73-8.25 0-15.051a92.532 92.532 0 002.07-15.131s-.76-10.59 1.09-13.139c1.85-2.551 3.471-20.321 3.471-20.321s1.299-12.09 1-14.74c-.301-2.65.148-10.09.148-10.09l1.801-12.46c-13.33-1.26-54.59-24.46-54.59-24.46-2.27-8.23-18-27.1-18-27.1a20.294 20.294 0 00-1.42-4.73c-1.17-2.79 14.529-9.06 14.529-9.06s12.4 14 15 17.84 11.391 10.72 11.391 10.72a8.502 8.502 0 013.91.35l.199.06a31.627 31.627 0 018.09 4.24 15.369 15.369 0 0110.941 3.65s7.209-1.34 8.488-.15c1.281 1.19 7.432-.28 7.432-.28s5.68-13.33 9.889-9.68c4.211 3.65 21.471 2.8 21.471 2.8 2.18-3.14 7.689-5.55 11.15-6.81a15.182 15.182 0 019.209-.51c1.32.322 2.576.871 3.711 1.62l10.859 9.85s2.859-4 2.471-4.88c-.391-.88 3.479-1.72 3.479-1.72s5.061-1.79 7-2.4c1.941-.61 3.781 1.44 3.951 1.61-.08-.22-1.57-4.45-1.18-7.74.389-3.29-2.371-6.28-2.371-6.28 5.611-15.44 20.061-3.25 20.061-3.25s1.92 8.25.619 11.49c-1.299 3.24 1.801 9.84 1.512 11.62-.291 1.78.889 4.75 1 8.11.109 3.36-1.391 9.79-2.342 12.66-.949 2.87-9.199 9.56-9.199 9.56s-.141 10.1-3.629 16.08c-3.49 5.98-.422 25.87-.422 25.87s4.141 15.419 8.75 20.201c4.611 4.781 12.25 32.822 12.25 32.822z"/><path d="M811.659 247.06s-2.17-5.76-4-6.22a42.585 42.585 0 01-5.211-2.1l1-2.22s6.711 1.56 7.85 3.47c1.14 1.91.361 7.07.361 7.07zM775.627 235.52c-.289 1.78-16 4-16 4l7.65-8.29.199.06a31.608 31.608 0 018.151 4.23z" opacity=".1"/><circle cx="729.168" cy="213" r="1.42" fill="#575988"/><circle cx="731.088" cy="215.76" r="1.42" fill="#575988"/><circle cx="732.958" cy="218.3" r="1.42" fill="#575988"/><circle cx="734.918" cy="221.06" r="1.42" fill="#575988"/><circle cx="893.951" cy="213.63" r="1.15" fill="#D84F4F"/><path d="M813.588 294.97c-.17-.2 41.619 48.6 71.449 18.32-.009 0-48.638 8.51-71.449-18.32zM791.698 322.021s23.881-.271 26.641 6.49l.27 7.139a4.55 4.55 0 01-4.439.17c-2.451-1.199-17.15-8-22.1-4.25l-.372-9.549z" opacity=".1"/><path fill="#656691" d="M792.149 322s22.828-.26 25.469 6.191l.26 6.809a4.372 4.372 0 01-4.25.16c-2.34-1.148-16.4-7.6-21.129-4.049l-.35-9.111z"/><path d="M802.727 269.73a76.773 76.773 0 009.861 15.51 62.195 62.195 0 0015 13.42s-24.339-25.67-24.861-28.93zM793.858 242.32s4.641 17 15.119 22.46l-15.119-22.46zM787.829 244.29c-.121-.32-3 13.72 14 20.76.029 0-7.18-2.14-14-20.76zM891.518 228.76c-.26 0 8.48 5.11 10.891 7.55 0 0-5.862-8.1-10.891-7.55z" opacity=".1"/><path fill="#2D293D" d="M834.959 211.272a3.31 3.31 0 003.751 3.15c6.43.15 13.119.18 19-2.52a7.162 7.162 0 002.811-2c1-1.33 1.139-3.09 1.51-4.72.709-3.17 2.369-6 3.539-9.08a30.058 30.058 0 001.42-16.13 10.72 10.72 0 00-1.779-4.63c-1.801-2.37-4.939-3.23-7.26-5.08-2.32-1.85-3.891-4.75-6.57-6.1-2.42-1.22-5.311-1-8-.4a41.776 41.776 0 00-14.6 6.14c-1.49 1-3.121 2.13-4.891 1.87-1.549-.23-2.709-1.48-3.75-2.65a19.595 19.595 0 00-1.219 9.23c.078.457.078.923 0 1.38a4.238 4.238 0 01-.932 1.49c-1.51 1.9-2.389 4.85-.75 6.64.711.79 1.771 1.19 2.471 2 1.24 1.43.92 3.57 1 5.46a2.778 2.778 0 00.539 1.85 2.733 2.733 0 002.621.52 7.057 7.057 0 012.75-.37 4.586 4.586 0 012.48 1.76c3.129 3.61 4.44 7.71 5.859 12.19z"/><g opacity=".1"><path d="M863.278 215.91a7.148 7.148 0 01-2.82 2c-5.84 2.7-12.52 2.68-18.949 2.52a3.31 3.31 0 01-3.759-3.14c-1.41-4.49-2.73-8.59-5.84-12.24a4.612 4.612 0 00-2.471-1.76 7.3 7.3 0 00-2.76.37 2.733 2.733 0 01-2.621-.52 2.822 2.822 0 01-.539-1.85c0-1.89.279-4-1-5.46-.689-.8-1.76-1.2-2.471-2a4.165 4.165 0 01-.57-4.21c-1.049 1.83-1.449 4.14-.078 5.65.709.78 1.779 1.18 2.469 2 1.24 1.43.93 3.57 1 5.47a2.76 2.76 0 00.541 1.84 2.699 2.699 0 002.619.521 7.266 7.266 0 012.76-.37 4.65 4.65 0 012.471 1.76c3.109 3.66 4.42 7.75 5.84 12.24a4.451 4.451 0 001.75 2.78 4.502 4.502 0 002 .37c6.43.15 13.119.17 19-2.53a7.255 7.255 0 002.82-2 5.73 5.73 0 00.84-1.74 3.186 3.186 0 01-.232.299zM821.159 186.83c.273-.318.479-.689.6-1.09a3.81 3.81 0 000-1.38 19.604 19.604 0 01.699-7.65l-.129-.14a19.623 19.623 0 00-1.221 9.23c.047.341.062.686.051 1.03z"/></g><path d="M833.848 231.86s26.42 2.48 28.629-1.57M884.528 219.02s14.6-.54 18 4.81" opacity=".1"/><path fill="#FFF" d="M169.337 172.91v56c0 1.67-3.13 3-7 3H14.607c-3.86 0-7-1.35-7-3v-56c0-1.67 3.12-3.37 7-3.37h147.75c3.851 0 6.98 1.7 6.98 3.37z"/><path fill="#C1D5FF" d="M169.337 172.91v56c0 1.67-3.13 3-7 3H14.607c-3.86 0-7-1.35-7-3v-56c0-1.67 3.12-3.37 7-3.37h147.75c3.851 0 6.98 1.7 6.98 3.37z"/><path fill="#3C74F3" d="M78.598 189.54h76.96v2.72h-76.96z"/><path fill="#3C74F3" d="M384.931 189.606c-10.079.005-18.245 8.181-18.239 18.26a18.246 18.246 0 008.18 15.209v-1.22a4.139 4.139 0 013.65-4.1 7.24 7.24 0 0012.7 0 4.14 4.14 0 013.65 4.1v1.3c8.45-5.495 10.846-16.798 5.351-25.249a18.253 18.253 0 00-15.292-8.3zm7.151 23.13a7.23 7.23 0 01-14.421 0 7.92 7.92 0 014.15-10.61 2.315 2.315 0 01-.39-1.3 2.41 2.41 0 012.41-2.41H384.011a2.41 2.41 0 00-2.24 2.41c-.003.418.107.83.32 1.19h.07a2.46 2.46 0 010-.47 2.4 2.4 0 01.45-1.4 2.41 2.41 0 012.31-1.7h.17a2.422 2.422 0 00-1.84 1.08 2.41 2.41 0 013.74 2c.005.09.005.18 0 .27a7.92 7.92 0 015.16 10.949l-.069-.009zM78.598 196.16h76.96v2.72h-76.96zM78.598 202.78h76.96v2.72h-76.96zM78.598 209.4h76.96v2.72h-76.96z" opacity=".2"/><linearGradient id="c" x1="88.635" x2="88.635" y1="-142.411" y2="262.419" gradientTransform="matrix(205.3006 0 0 -404.8932 -18028.422 244013.297)" gradientUnits="userSpaceOnUse"><stop offset="0" stop-color="gray" stop-opacity=".25"/><stop offset=".54" stop-color="gray" stop-opacity=".12"/><stop offset="1" stop-color="gray" stop-opacity=".1"/></linearGradient><path fill="url(#c)" d="M271.027 344.12a60.615 60.615 0 01-1-9.211c0-3.699-5-7-5-7s-3.11-7.199-5.15-8.25c-2.04-1.049-8.47-10.479-8.47-10.479a8.534 8.534 0 00-1.93-5.08 72.888 72.888 0 01-5.24-7.91c-.86-1.06-.43-1.8-1.72-7.94-.073-.32-.153-.63-.24-.93 0-.14-.09-.26-.13-.39a10.38 10.38 0 002.44-10.74 4.415 4.415 0 00-1.23-1.9c-1.46-1.19-3.79-.7-5.29-1.83l1.59-7.06c.39-1.72.59-3.92-.93-4.85a7.65 7.65 0 00-1.78-.6c-2.62-.83-4.09-3.59-4.76-6.23a21.352 21.352 0 01-.52-7.8c.29-2.5 1-4.94 1.3-7.45a20.574 20.574 0 00-3.17-13.26 10.337 10.337 0 00-4.19-3.95c-1.61-.72-3.48-.81-5-1.76-3.22-2-3.06-6.89-5.62-9.7s-7.11-2.78-10.85-1.82c-3.74.96-7.45 2.61-11.29 2.18-2.47-.27-4.79-1.39-7.26-1.65a7.249 7.249 0 00-2.13.1l.05-.09c-1.84.33-3.52 1.35-3.95 3.09a4.766 4.766 0 00-.12 1.26c0 1 .24 2.06.26 3a2.914 2.914 0 01-.7 2.13c-.49.53-1.22.81-1.7 1.35a2.2 2.2 0 00-.63 1.59c0 1.54 1.92 2.89 3.21 3.51-.35.35-.69.71-1 1.08a22.716 22.716 0 00-5.63 15.13 23.051 23.051 0 0014 21.11c-.06.19-.11.37-.18.56a29.614 29.614 0 01-1.26 3.27 6.482 6.482 0 00-5.43.6c-2.47 1.69-7.29 1.59-8.58 1.27-1.29-.32-14.69-2-15.76-1.59-1.07.41-3.22-1.48-4.61 1.06-1.39 2.54-2 3.92-3.43 4.55-1.43.63-3.86 2.65-3.54 3.07.32.42-3.54 3-3.54 3s-3.32 3.49-5.25 3.92c-1.93.43-6 3.07-6 3.07l-4.72 3.7s-3.54.53-2.47-1.9c1.07-2.43-1.93-5.51-1.93-5.51s-6-12.17-6-14.7c0-2.53-4.93-13.23-4.93-13.23l-.61-.06c-.09-.26-.18-.52-.28-.79-.9-2.55-2.07-5.67-3-7.51-1.7-3.49-2.8-3.89-2.8-3.89s-20.8-15.62-34.31-10.86c-13.51 4.76 24.66 18.94 28.09 20.43 1.2.51 2.06 2.19 2.67 4.14a17.776 17.776 0 00-7.35 6.69s8.25 18.3 8.46 22.85c.21 4.55 5.69 17.25 5.69 17.25s2 9.42 13.08 8.891c0 0 15.22 2.79 18.54 0 3.32-2.79 6.33-5 7.94-5.311a6.249 6.249 0 003-2.12s-5 31.741-7.5 34.5-24.34 38.41-16.52 44.75a156.943 156.943 0 0019.62 13c.67.33 2.66-3 5.51-5.35v1.83c.05 12.68 1.7 32 4.05 36.32 3.43 6.35 2 18.629 2 18.629a14.803 14.803 0 005.8 1.391c.1.41.22.84.34 1.289 1.89 7.141 4.95 18.18 6.51 21.121 2.37 4.449 4.08 18.52 4.08 18.52s1.39 13.859.86 15.77c-.21.73.7 6.48 2.12 13.781-.87 9.92-2.5 29.049-2.78 36v1.159a7.85 7.85 0 000 1.301 4.077 4.077 0 01-.14 2 32.174 32.174 0 01-2.33 5.541c-.05.18-.63 1.379-1 2.689-.85.369-1.91 1.299-2.5 3.549-1.07 4.131-2.68 15.561-2.68 15.561s-.64 7-1.93 8.57-2.57 11.529 6.54 12.801c9.11 1.27 13.08-4.842 13.08-4.842l-.32-27.699a3.96 3.96 0 00.47-.76v-.061c.06-.139.13-.27.19-.43s0-.131.08-.199c.08-.07.09-.221.13-.34a.612.612 0 010-.121 18.194 18.194 0 00.77-8.25v-.36-.211a1.193 1.193 0 000-.189 1.922 1.922 0 010-.24v-.17c0-.18 0-.369.06-.561a.398.398 0 010-.109v-.33a.752.752 0 000-.15c0-.109.05-.229.07-.35v-.08c.08-.41.19-.82.3-1.25v-.09l.12-.42c.14-.449.29-.891.44-1.33v-.09l.15-.41v-.051c.15-.42.31-.83.47-1.219v-.111l.15-.35v-.1l.33-.779 2.53 7.809s1.39 5.82.64 7.191c-.75 1.369.86 7.1 1.93 7.199l-1 7.201a110.04 110.04 0 00-1 12c-.07.449-.14.84-.19 1.139-.69 3.68 1 9.4 1 9.4 8.47 10 18.55.779 18.55.779s1.18-5.299 0-6.35c-1.18-1.049-.64-4.869-.64-4.869s.53-9.42.64-16.301c.11-6.879-5.63-12.93-5.63-12.93l-.32.291c-1-2.691-2.23-5.842-2-7.25.43-2.432-1.18-28.141-1.18-28.141.588-6.877.712-13.787.37-20.68.14-1.17.27-2.32.4-3.43.65-5.531 1.17-10.262 1.38-12.73v-.291c.05-.67.08-1.139.07-1.369 0-.82 0-1.85.08-2.93.21-3 .67-6.281.67-6.281l2.25-13.648s1.71-6.66 4.18-10.371l.29-.471c.1-.158.2-.34.3-.529v-.08l.3-.57v-.08c.35-.68.72-1.469 1.1-2.33l.09-.189.29-.66.11-.26.29-.66c0-.09.07-.17.11-.26.11-.27.22-.539.34-.811l.16-.389c.09-.201.17-.4.25-.611l.22-.52.15-.391.24-.59c0-.09.08-.18.11-.27.61-1.529 1.21-3 1.73-4.42.17-.43.33-.84.48-1.24 5.49.34 9.22.65 9.22.65s1.72-12.381 1.18-20.529c-.37-5.561.66-12.561 1.35-16.432.08-.43.15-.809.21-1.148l.15.119c2.69 2.109 4.61-4.869 4.61-4.869s-.72-6.531-1.69-14.42c0-.262-.07-.531-.1-.791 1.548.33 3.114.57 4.69.721 0 0 .86-.08 2-.23a56.922 56.922 0 0010.18 4.561l5.68-10.58a43.16 43.16 0 013.75-6.24c1.72-2.121 7.83-8.891 7.72-10.16-.11-1.27 2-8.57 4.18-11.85 2.18-3.28 3.45-9.94 3.33-10.479zm-23.799 8c-2.25.949-4.4 6.24-4.5 7.83s-2.47 8.57-4.94 9.42c-2.26.779-6.6 4.76-7.29 5.4-.71.07-1.51.16-2.35.299-.94-6.68-1.87-12.199-2.47-13.32-1.71-3.18 1.89-13.33 1.89-13.33s.36-10.26 2.61-12.699 1.72-8.57 1.72-8.57.53-2.539.75-3.699 3.19 0 3.21 0c0 0 5.79 3.17 6.65 7.93s7.18 13 7.18 13-1 2.85 0 4.34-.2 2.49-2.45 3.439l-.01-.04z"/><path fill="#4C4981" d="M92.177 261.73a17.29 17.29 0 0117.32-8.13v12.36h-7.47l-5.92-1.53-3.93-2.7z"/><path d="M92.177 261.73a17.29 17.29 0 0117.32-8.13v12.36h-7.47l-5.92-1.53-3.93-2.7z" opacity=".1"/><path fill="#AE6E79" d="M110.027 256.87l-9.19 6.45s-.08-1.3-.31-3.06c-.46-3.33-1.49-8.33-3.71-9.3-3.38-1.48-41-15.63-27.66-20.38 13.34-4.75 33.79 10.83 33.79 10.83s1.06.36 2.74 3.85c.89 1.83 2 4.95 2.94 7.49.811 2.3 1.4 4.12 1.4 4.12z"/><path fill="#4C4981" d="M183.507 266.8l1.04-.5 2.94 3.35-2.4 5.12-4.089-1.64.949-4.09z"/><path fill="#444053" d="M169.587 566.729s-2.64-.311-3.7 3.801c-1.06 4.109-2.64 15.529-2.64 15.529s-.63 7-1.9 8.551c-1.27 1.549-2.53 11.51 6.44 12.779 8.97 1.27 12.89-4.83 12.89-4.83l-.32-27.699-10.77-8.131zM200.897 567.979s5.65 6 5.55 12.9c-.1 6.9-.64 16.27-.64 16.27s-.52 3.801.64 4.861c1.16 1.059 0 6.33 0 6.33s-9.93 9.219-18.27-.771c0 0-1.63-5.709-1-9.389.63-3.682 2.53-20.25 2.53-20.25l11.19-9.951z"/><path fill="#AE6E79" d="M214.897 441.659s-5.71 16-8.14 19.641c-2.43 3.641-4.11 10.359-4.11 10.359l-2.22 13.631a74.568 74.568 0 00-.74 9.189c.1 3.061-5.49 47.73-5.49 47.73l-8.87 11.301s-3.91 7.92-3.28 11.199-.42 8.551-1.69 10.131c0 0-.21 10.35-.53 12.68-.32 2.33 1.17 8.869 0 10-1.17 1.129-16.68.629-17.11-1.271-.43-1.898 1.91-11.09 1.91-11.09l1.37-8.869s2.74-4.859 2.11-6.439 1.16-5.281 1.27-5.602c.11-.318 3-5.488 2.43-7.488-.57-2 3.27-44.57 3.27-44.57l10.88-76.361 28.94 5.829z"/><path d="M214.897 441.659s-.86 2.4-2.06 5.561c-1.88 5-4.59 11.82-6.08 14.08-2.43 3.699-4.12 10.35-4.12 10.35l-2.21 13.631a74.798 74.798 0 00-.74 9.18c0 1.209-.81 8.93-1.85 17.811-1.6 13.59-3.64 29.93-3.64 29.93l-8.88 11.299s-.45.91-1 2.23c-1.11 2.59-2.68 6.801-2.26 9 .63 3.281-.42 8.561-1.69 10.141 0 0-.21 10.359-.53 12.67s1.17 8.879 0 10c-1.17 1.119-16.68.641-17.11-1.27-.43-1.91 1.9-11.08 1.9-11.08l1.38-8.881s2.74-4.859 2.11-6.439c-.63-1.58 1.16-5.281 1.27-5.6.11-.32 3-5.49 2.43-7.5-.41-1.531 1.7-26.541 2.72-38.4.33-3.74.55-6.16.55-6.16l9.36-65.689.75-5.301.77-5.369 28.93 5.806z" opacity=".1"/><path fill="#AE6E79" d="M205.387 600.53c.1 1.16-14.89 2.85-17 1.58-2.11-1.27 0-17 0-17l1-7.18c-1.06-.111-2.64-5.811-1.9-7.191.74-1.379-.64-7.18-.64-7.18l-2.49-7.799-1.52-4.762c-2.46-5.449-6-21-8.26-32.6-1.4-7.289-2.29-13-2.09-13.77.53-1.9-.85-15.73-.85-15.73s-1.68-14-4-18.48c-1.54-2.939-4.55-14-6.42-21.09-.95-3.648-1.61-6.27-1.61-6.27s16-1.34 25.64-1.811c4.46-.209 7.58-.238 7.21.131s-.45 2.301-.43 5.09c0 7.25 1.05 20 2.12 23.42 1.48 4.75 3 19 2.32 20.381-.68 1.379-.42 10.559-.42 10.559a47.447 47.447 0 011.85 11.471c.336 6.881.212 13.775-.37 20.641 0 0 1.59 25.66 1.16 28.09s3.38 10 3.38 11.51.96 11.51.96 11.51 2.261 15.32 2.36 16.48zM213.728 292.04l-1.82 2-1.18 1.27-6.92 7.35-17.85 2-9.48-2.54-2.35-.62s0-4.77.43-10.49c.6-7.33 2.05-16.24 5.49-18.66a13.637 13.637 0 004-5.09 28.417 28.417 0 001.73-4.27c.07-.19.12-.37.18-.55a46.879 46.879 0 001.68-7.84s2.28-1.26 5.44-2.73c8.27-3.86 22.55-9.18 17.58 2.73a44.924 44.924 0 00-1.86 5.36c-.08.26-.15.53-.21.79-1.66 6.64-.56 10.66.68 12.88.213.38.454.745.72 1.09.334.467.739.878 1.2 1.22l2.06 13.05.17 1.08.31 1.97z"/><path d="M210.667 255.29c-.939 2.26.46-1.85 0 0-3.76 2.68-12.63 10.3-17.62 10.3-3.36 0-4.37-.61-7.26-1.91a46.943 46.943 0 001.86-8.39s29.88-16.48 23.02 0z" opacity=".1"/><path fill="#AE6E79" d="M218.257 241.41c.008 11.783-8.891 21.666-20.61 22.89-.8.089-1.605.132-2.41.13-12.703 0-23-10.297-23-23 0-12.702 10.297-23 23-23s23 10.298 23 23l.02-.02z"/><path d="M221.547 343.47l-3.27 8.561s-2.68.119-6.84.25c-14 .449-45 1-46.39-2.58a8.69 8.69 0 01-.48-2.84c-.19-5.5 2.38-13.951 2.38-13.951s1.48-16.898 1.48-17.629c0-.729-1.27-12.62-1.27-12.62l2.53-9.5 7.08-5s3.17 4.86 5.07 5.28 4.44 2.75 4.44 2.75 6.22 3.8 8.23 1.68c2.01-2.12 17.64-11.4 17.64-11.4l8.24 9.08 1.16 47.919z" opacity=".1"/><path fill="#D84F4F" d="M221.547 344.739l-3.27 8.561s-2.68.119-6.84.24h-.41l-6.07.16c-11.16.25-26.55.32-34.58-.85-3-.441-5-1-5.33-1.9a7.014 7.014 0 01-.38-1.57 12.582 12.582 0 01-.1-1.27c-.19-5.5 2.38-14 2.38-14s1.48-16.9 1.48-17.641c0-.74-1.27-12.57-1.27-12.57l2.53-9.5 4.87-3.41 2.21-1.55a31.862 31.862 0 002.43 3.19 6.364 6.364 0 002.64 2.08c1.9.43 4.44 2.75 4.44 2.75s6.22 3.81 8.23 1.69c1.54-1.62 11-7.43 15.42-10.08l2.22-1.33 1.11 1.23 7.13 7.86 1.16 47.91z"/><path d="M110.027 256.87l-9.19 6.45s-.08-1.3-.31-3.06c4.54-1.91 7.3-6.15 8.1-7.51.811 2.3 1.4 4.12 1.4 4.12z" opacity=".1"/><path fill="#3A2F2F" d="M142.337 278.73l-2-.52s-3.28 3.48-5.18 3.9c-1.9.42-5.91 3.07-5.91 3.07l-4.65 3.69s-3.49.53-2.43-1.9c1.06-2.43-1.9-5.49-1.9-5.49s-5.91-12.15-5.91-14.68c0-2.53-4.86-13.2-4.86-13.2s-6.13 11.93-17.32 8.13c0 0 8.13 18.27 8.34 22.81s5.6 17.22 5.6 17.22 2 9.399 12.88 8.869c0 0 15 2.79 18.27 0 3.27-2.789 6.23-5 7.82-5.3a6.197 6.197 0 002.95-2.109v-12.56l-5.7-11.93z"/><path fill="#3A2F2F" d="M123.538 290.66s2.64 9.82 1 10.88l-1-10.88z" opacity=".1"/><path d="M211.438 353.54c-14 .449-45 1-46.39-2.57a8.69 8.69 0 01-.48-2.84l45.89 2.42.98 2.99zM214.897 441.659s-.86 2.4-2.05 5.561c-5.83-.359-13.55-.73-20.88-.779-2.6 0-5.14 0-7.53.08-4.141.002-8.27.463-12.31 1.369a32.462 32.462 0 01-11 1.41c-.95-3.65-1.61-6.27-1.61-6.27s16-1.34 25.64-1.811l.77-5.369 28.97 5.809z" opacity=".1"/><path fill="#65617D" d="M227.248 403.04l-1.79 3.801s-.25 1.129-.57 2.93c-.68 3.859-1.7 10.85-1.34 16.398.54 8.131-1.16 20.48-1.16 20.48s-38.86-3.27-50.26 0-17 0-17 0 1.37-12.25-2-18.58c-2.32-4.34-3.94-23.6-4-36.25 0-5.85.29-10.279 1-11.17 2.32-2.859 12.25-31.369 12.25-31.369l2.26.119 6 .32 34.39 1.811 5.39.279.57 1.75 16.26 49.481z"/><path fill="#4C4981" d="M244.357 390.36l.32 3.379s-17-5.539-16.16-12.35c.84-6.811 0-6 0-6l13.68 1.16 2.16 13.811z"/><path d="M244.357 390.36l.32 3.379s-17-5.539-16.16-12.35c.84-6.811 0-6 0-6l13.68 1.16 2.16 13.811zM134.897 293.39a15.186 15.186 0 006 3.12 3.895 3.895 0 01-1.77-.83c-1.22-.87-2.38-1.81-3.55-2.73-.94-.74-2.13-2-3.3-2.27.778.991 1.656 1.9 2.62 2.71zM135.157 297.84a7.346 7.346 0 011.31 2.09c.273.873.401 1.785.38 2.699a8.517 8.517 0 01-.47 3.83l-2.77-6.569c-.47-1.12-1-2.24-1.52-3.32-.25-.46-1.82-2.36-1.64-2.76.52-1.15 4.2 3.4 4.71 4.03zM211.297 334.28a8.84 8.84 0 005-2.311c-2.81.35-5.46 1.449-8.23 2-2.565.6-5.255.354-7.67-.699 3.15 1.581 7.48 1.629 10.9 1.01zM203.368 314.95a1.89 1.89 0 01-1.43-.359c-2.107-1.2-4.187-2.46-6.24-3.78a37.892 37.892 0 01-6.1-4.22c4.19 3.788 8.09 6.989 13.77 8.359zM209.228 337.351a13.457 13.457 0 003.29-.26 4.449 4.449 0 002.71-1.781 1.53 1.53 0 00-1.15.18 19.418 19.418 0 01-10.6 1.271c1.71.728 3.919.58 5.75.59zM189.217 386.38a33.804 33.804 0 01-6.75 1.33 41.2 41.2 0 01-5.34-.1l-8.65-.551-4.33-.279c-.51 0-2.6 0-1.57-1 .52-.49 3.41-.18 4.15-.201 1.44 0 2.87-.068 4.3-.08 2.86 0 5.73 0 8.59.182 3.214.125 6.414.359 9.6.699zM179.208 390.659c-1.47-.059-3.36.82-4.87 1a32.183 32.183 0 01-5.09.211 28.651 28.651 0 01-9.83-2c6.609.33 13.2.529 19.79.789zM160.708 395.19c.64.129 1.271.301 1.89.51 3.64 1.049 7.52.129 11.19-.781-.92 1.381-2.63 2-4.25 2.361a20.012 20.012 0 01-8.29.299c-.87-.17-3-.479-3.48-1.379-.661-1.33 2.129-1.14 2.94-1.01zM181.157 401.999c1.091.223 2.169.502 3.23.842 4.1 1 8.36-.381 12.48-1.32a57.586 57.586 0 0115.11-1.4c-.91 0-2.35.799-3.24 1.07-1.17.35-2.35.67-3.53 1a71.201 71.201 0 01-7.06 1.379 72.303 72.303 0 01-14.48.631c-2.21-.121-6 .109-7.94-1a8.786 8.786 0 015.43-1.202zM182.688 271.75s.21 9.73-1.38 14.16c-.49 1.38-1.27 3.93-2.11 6.79-.93 3.17-1.94 6.72-2.72 9.47-.78 2.75-1.29 4.65-1.29 4.65s-3.57 29.06-4.5 42.9v.721c-.05.779-.14 1.59-.26 2.43-2.06 13.75-13.92 34.949-17.9 36.65a12.002 12.002 0 00-3.35 2.299c0-5.85.29-10.279 1-11.17 2.32-2.859 12.25-31.369 12.25-31.369l2.26.119a12.582 12.582 0 01-.1-1.27c-.19-5.5 2.38-14 2.38-14s1.48-16.9 1.48-17.641c0-.74-1.27-12.57-1.27-12.57l2.53-9.5 4.87-3.41c.6-7.33 2.05-16.24 5.49-18.66a13.637 13.637 0 004-5.09c.69.09-.56-.51-.56-.51l-.82 5.001z" opacity=".1"/><path fill="#3A2F2F" d="M184.547 266.3a6.321 6.321 0 00-5.35.61c-2.43 1.68-7.18 1.58-8.45 1.26s-14.47-2-15.52-1.58c-1.05.42-3.17-1.48-4.54 1.05-1.37 2.53-2 3.91-3.38 4.55-1.38.64-3.81 2.64-3.49 3.06s-3.48 3-3.48 3l7.7 25s-5 31.681-7.39 34.419c-2.39 2.74-24 38.342-16.26 44.682a155.943 155.943 0 0019.32 13c.85.42 3.91-5.281 8.14-7.08 4.23-1.801 17.32-25.611 18.18-39.09.86-13.48 4.54-43.621 4.54-43.621s4.54-16.48 6.13-20.91c1.59-4.43 1.33-14.17 1.33-14.17l2.52-4.18z"/><path d="M227.248 403.04l-1.79 3.801s-.25 1.129-.57 2.93a1.67 1.67 0 01-.91-.391c-2.64-2.119-18.17-18.061-18.9-32.221-.55-10.439-.29-19.43-.12-23.439.06-1.26.1-2 .11-2.189 0 0 12-14.58 10.66-19.75-1.34-5.17-4.54-32.85-4.54-32.85l-.47-3.63-.8-6.13-1.89-14.86 2 .46c.334.467.739.878 1.2 1.22l2.06 13.05 7.13 7.86 1.16 47.839-3.27 8.561s-2.68.119-6.84.24h-.41l16.19 49.499z" opacity=".1"/><path fill="#3A2F2F" d="M233.907 324.04s-3-1.16-3.17 0-.74 3.689-.74 3.689.52 6.131-1.69 8.561c-2.21 2.43-2.57 12.67-2.57 12.67s-3.55 10.141-1.87 13.311c.61 1.148 1.56 6.92 2.51 13.82.6 4.309 1.2 9.059 1.74 13.389 1 7.891 1.67 14.4 1.67 14.4s-1.9 7-4.54 4.859c-2.64-2.139-18.17-18.08-18.91-32.209-.52-9.951-.31-18.58-.14-22.84.08-1.811.14-2.83.14-2.83s12-14.57 10.67-19.74-4.54-32.85-4.54-32.85l-.56-4.27-.59-4.6-.13-1-1.91-14.74c.34.07 12.19 2.75 13.75 4.31s11.19 3.8 11.19 3.8a8.469 8.469 0 016 6.16c.09.29.16.6.23.92 1.27 6.13.85 6.86 1.7 7.92s-8.24 27.27-8.24 27.27z"/><path d="M228.118 389.479c-4.34-.84-10.73-2.85-10.59-7.25.14-4.129 5.1-5.609 8.85-6.139.649 4.309 1.2 9.059 1.74 13.389z" opacity=".1"/><path fill="#AE6E79" d="M241.507 387.3c-.17.369-.89.689-1.84 1a48.448 48.448 0 01-7 1.141s-14.68-1.16-14.47-7.811c.15-4.779 6.78-6 10.51-6.33 1.46-.131 2.48-.109 2.48-.109s10.96 10.74 10.32 12.109z"/><path d="M241.507 387.3c-.17.369-.89.689-1.84 1-3.83-5.119-9.17-11.689-11.78-12.27 0 0 .3-.291.79-.73 1.46-.131 2.48-.109 2.48-.109s10.99 10.74 10.35 12.109z" opacity=".1"/><path fill="#3A2F2F" d="M237.808 296.16l4.33.63a74.394 74.394 0 005.18 7.919 8.608 8.608 0 011.9 5.07s6.34 9.401 8.34 10.46c2 1.061 5.07 8.24 5.07 8.24s5 3.27 5 7c.084 3.08.402 6.148.95 9.18.1.531-.74 7.08-2.86 10.352-2.12 3.27-4.22 10.559-4.11 11.83.11 1.27-5.92 8-7.61 10.139a42.73 42.73 0 00-3.69 6.23l-5.6 10.561s-11.83-17.42-16.16-18.371c0 0 4.86-4.65 7.29-5.49 2.43-.84 4.75-7.818 4.86-9.398.11-1.58 2.21-6.871 4.43-7.82 2.22-.951 3.38-1.9 2.43-3.381-.95-1.48 0-4.33 0-4.33s-6.23-8.24-7.08-13-6.54-7.92-6.54-7.92l-3.28-8 7.15-19.901z"/><path d="M253.518 335.579a13.682 13.682 0 018.53-3.229c-2 .35-4.12.779-5.58 2.18a12.67 12.67 0 00-1.54 2c-.51.719-4.58 5.9-5.23 5.09-.97-1.24 2.999-5.34 3.82-6.041zM243.958 330.579a3.64 3.64 0 003-2.129c.514-1.191.831-2.457.94-3.75.311-2.16.748-4.3 1.31-6.41.144-.432.215-.885.21-1.34a3.809 3.809 0 00-.39-1.291 9.21 9.21 0 00-.92-1.92c-.79.89-1 2.88-1.33 4a209.203 209.203 0 00-1.11 4.321c-.17.759-1.641 8.519-1.71 8.519zM240.217 287.95a9.375 9.375 0 01-1.46 1.5c-1.69 1.37-4 2.53-4.24 4.69a5.166 5.166 0 01-.25 2.09c-.55.94-1.91.87-3 .68a5.264 5.264 0 01-2.53-.93c-1.13-1-1.24-2.7-2.1-3.91a5.337 5.337 0 00-4.28-1.92c-1.62-.05-3.23.31-4.84.39a13.42 13.42 0 01-3.1-.21 13.187 13.187 0 01-3.11-.93 10.798 10.798 0 01-1-.48 13.602 13.602 0 01-3-2.07c-1.58-1.46-2.89-3.45-2.76-5.61.227-1.296.527-2.578.9-3.84.65-3.73-1.83-7.26-4.52-9.93-1.07-1.05-2.21-2.09-3.28-3.17a15.831 15.831 0 01-3.87-5.5 16.765 16.765 0 01-.69-6.88 46.76 46.76 0 00.21-7.09c-.8-8.4-8-14.83-15.14-18.34l-.31-.16c8.45-9.484 22.989-10.322 32.473-1.871 9.484 8.45 10.322 22.989 1.871 32.473a22.95 22.95 0 01-3.344 3.078c-.08.26-.15.53-.21.79-1.66 6.64-.56 10.66.68 12.88.34.07 12.19 2.75 13.75 4.31s11.19 3.8 11.19 3.8a8.468 8.468 0 015.96 6.16z" opacity=".1"/><path fill="#444053" d="M176.257 220.21c.47-.54 1.19-.82 1.67-1.35 1.49-1.62 0-4.27.55-6.41.59-2.38 3.5-3.42 5.94-3.16 2.44.26 4.72 1.37 7.15 1.64 3.78.43 7.44-1.21 11.13-2.17s8.14-1 10.69 1.81c2.55 2.81 2.36 7.64 5.521 9.69 1.46.94 3.3 1 4.88 1.75a10.123 10.123 0 014.13 3.95 20.687 20.687 0 013.11 13.23c-.26 2.5-1 4.94-1.28 7.44a21.709 21.709 0 00.51 7.78c.67 2.63 2.11 5.39 4.7 6.22a7.377 7.377 0 011.75.6c1.49.92 1.3 3.12.92 4.83l-1.6 7.05c1.48 1.13 3.77.64 5.21 1.83a4.224 4.224 0 011.21 1.9 10.39 10.39 0 01-3.1 11.34c-1.69 1.38-4 2.53-4.24 4.7a5.013 5.013 0 01-.25 2.08c-.55.94-1.91.87-3 .68a5.184 5.184 0 01-2.52-.93c-1.14-1-1.24-2.7-2.1-3.91a5.337 5.337 0 00-4.28-1.92c-1.63-.05-3.23.31-4.85.39a14.272 14.272 0 01-10.21-3.69 7.397 7.397 0 01-2.77-5.6c.231-1.299.532-2.584.9-3.85.65-3.72-1.83-7.26-4.51-9.92-2.68-2.66-5.84-5.13-7.15-8.68-1.64-4.4 0-9.3-.49-14-.8-8.4-8-14.83-15.13-18.33-1.63-.79-4.351-2.88-2.491-4.99z"/><path d="M232.728 292.73c-1.13-1-1.23-2.69-2.09-3.91a5.38 5.38 0 00-4.29-1.91c-1.62-.05-3.22.31-4.84.39a14.323 14.323 0 01-10.21-3.64c-1.59-1.46-2.89-3.46-2.77-5.61.231-1.295.532-2.577.9-3.84.65-3.73-1.83-7.26-4.52-9.93-2.69-2.67-5.83-5.13-7.15-8.68-1.63-4.39 0-9.3-.48-14-.8-8.4-8-14.84-15.14-18.34-1.67-.82-4.39-2.9-2.53-5 .47-.54 1.18-.81 1.67-1.34 1.49-1.62 0-4.28.55-6.42.104-.421.287-.818.54-1.17a4.569 4.569 0 00-3.89 3.07c-.53 2.14.94 4.8-.55 6.42-.48.53-1.2.8-1.67 1.34-1.86 2.12.86 4.2 2.54 5 7.17 3.51 14.33 9.94 15.13 18.34.44 4.66-1.15 9.57.49 14 1.31 3.55 4.46 6 7.15 8.68 2.69 2.68 5.16 6.2 4.51 9.93a37.4 37.4 0 00-.9 3.84c-.12 2.15 1.18 4.15 2.77 5.61a14.273 14.273 0 0010.21 3.69c1.62-.08 3.22-.44 4.85-.39a5.358 5.358 0 014.28 1.91c.86 1.22 1 2.95 2.1 3.91a5.184 5.184 0 002.521.93c1.08.2 2.44.27 3-.68.191-.384.274-.813.24-1.24a4.86 4.86 0 01-2.421-.96z" opacity=".1"/></svg>